G04 #@! TF.GenerationSoftware,KiCad,Pcbnew,8.0.2*
G04 #@! TF.CreationDate,2024-06-09T13:50:20+05:00*
G04 #@! TF.ProjectId,EDP Converter,45445020-436f-46e7-9665-727465722e6b,rev?*
G04 #@! TF.SameCoordinates,Original*
G04 #@! TF.FileFunction,Copper,L4,Bot*
G04 #@! TF.FilePolarity,Positive*
%FSLAX46Y46*%
G04 Gerber Fmt 4.6, Leading zero omitted, Abs format (unit mm)*
G04 Created by KiCad (PCBNEW 8.0.2) date 2024-06-09 13:50:20*
%MOMM*%
%LPD*%
G01*
G04 APERTURE LIST*
G04 #@! TA.AperFunction,ComponentPad*
%ADD10R,1.350000X1.350000*%
G04 #@! TD*
G04 #@! TA.AperFunction,ComponentPad*
%ADD11O,1.350000X1.350000*%
G04 #@! TD*
G04 #@! TA.AperFunction,ComponentPad*
%ADD12O,4.500000X2.250000*%
G04 #@! TD*
G04 #@! TA.AperFunction,ComponentPad*
%ADD13R,1.700000X1.700000*%
G04 #@! TD*
G04 #@! TA.AperFunction,ComponentPad*
%ADD14O,1.700000X1.700000*%
G04 #@! TD*
G04 #@! TA.AperFunction,ViaPad*
%ADD15C,0.600000*%
G04 #@! TD*
G04 #@! TA.AperFunction,ViaPad*
%ADD16C,1.000000*%
G04 #@! TD*
G04 #@! TA.AperFunction,Conductor*
%ADD17C,0.600000*%
G04 #@! TD*
G04 #@! TA.AperFunction,Conductor*
%ADD18C,0.500000*%
G04 #@! TD*
G04 #@! TA.AperFunction,Conductor*
%ADD19C,0.700000*%
G04 #@! TD*
G04 #@! TA.AperFunction,Conductor*
%ADD20C,0.160000*%
G04 #@! TD*
G04 #@! TA.AperFunction,Conductor*
%ADD21C,0.250000*%
G04 #@! TD*
G04 #@! TA.AperFunction,Conductor*
%ADD22C,0.750000*%
G04 #@! TD*
G04 APERTURE END LIST*
D10*
X148150000Y-89700000D03*
D11*
X148150000Y-91700000D03*
X146150000Y-89700000D03*
X146150000Y-91700000D03*
X144150000Y-89700000D03*
X144150000Y-91700000D03*
X142150000Y-89700000D03*
X142150000Y-91700000D03*
X140150000Y-89700000D03*
X140150000Y-91700000D03*
X138150000Y-89700000D03*
X138150000Y-91700000D03*
X136150000Y-89700000D03*
X136150000Y-91700000D03*
X134150000Y-89700000D03*
X134150000Y-91700000D03*
X132150000Y-89700000D03*
X132150000Y-91700000D03*
X130150000Y-89700000D03*
X130150000Y-91700000D03*
X128150000Y-89700000D03*
X128150000Y-91700000D03*
X126150000Y-89700000D03*
X126150000Y-91700000D03*
X124150000Y-89700000D03*
X124150000Y-91700000D03*
X122150000Y-89700000D03*
X122150000Y-91700000D03*
X120150000Y-89700000D03*
X120150000Y-91700000D03*
X118150000Y-89700000D03*
X118150000Y-91700000D03*
X116150000Y-89700000D03*
X116150000Y-91700000D03*
X114150000Y-89700000D03*
X114150000Y-91700000D03*
X112150000Y-89700000D03*
X112150000Y-91700000D03*
X110150000Y-89700000D03*
X110150000Y-91700000D03*
D12*
X128150000Y-129962500D03*
X128150000Y-136262500D03*
X138250000Y-130100000D03*
X138250000Y-136400000D03*
D13*
X99440000Y-125640000D03*
D14*
X96900000Y-125640000D03*
X99440000Y-123100000D03*
X96900000Y-123100000D03*
X99440000Y-120560000D03*
X96900000Y-120560000D03*
X99440000Y-118020000D03*
X96900000Y-118020000D03*
X99440000Y-115480000D03*
X96900000Y-115480000D03*
X99440000Y-112940000D03*
X96900000Y-112940000D03*
X99440000Y-110400000D03*
X96900000Y-110400000D03*
X99440000Y-107860000D03*
X96900000Y-107860000D03*
X99440000Y-105320000D03*
X96900000Y-105320000D03*
X99440000Y-102780000D03*
X96900000Y-102780000D03*
X99440000Y-100240000D03*
X96900000Y-100240000D03*
X99440000Y-97700000D03*
X96900000Y-97700000D03*
X99440000Y-95160000D03*
X96900000Y-95160000D03*
X99440000Y-92620000D03*
X96900000Y-92620000D03*
X99440000Y-90080000D03*
X96900000Y-90080000D03*
X99440000Y-87540000D03*
X96900000Y-87540000D03*
X99440000Y-85000000D03*
X96900000Y-85000000D03*
X99440000Y-82460000D03*
X96900000Y-82460000D03*
X99440000Y-79920000D03*
X96900000Y-79920000D03*
X99440000Y-77380000D03*
X96900000Y-77380000D03*
D15*
X139900000Y-73450000D03*
X147200000Y-119000000D03*
X125700000Y-112450000D03*
X142100000Y-82550000D03*
X135350000Y-107750000D03*
X131100000Y-111600000D03*
X146000000Y-102600000D03*
X147750000Y-75800000D03*
X121600000Y-128300000D03*
X143350000Y-120500000D03*
X134500000Y-113200000D03*
X115800000Y-118400000D03*
X144450000Y-99100000D03*
X102700000Y-94350000D03*
X127450000Y-86450000D03*
X132250000Y-75200000D03*
X140300000Y-80650000D03*
X134400000Y-106150000D03*
X126900000Y-113550000D03*
X135750000Y-87800000D03*
X131000000Y-113200000D03*
X133800000Y-75100000D03*
X105500000Y-127800000D03*
X131087500Y-122900000D03*
X119600000Y-116600000D03*
X119700000Y-124800000D03*
X112200000Y-112200000D03*
X121550000Y-107300000D03*
X137900000Y-75050000D03*
X121700000Y-139800000D03*
X134600000Y-118550000D03*
X106800000Y-87850000D03*
X108300000Y-75000000D03*
X134700000Y-123700000D03*
X101850000Y-96550000D03*
X125700000Y-113500000D03*
X131950000Y-86550000D03*
X138900000Y-87700000D03*
X134300000Y-86650000D03*
X124750000Y-75000000D03*
X114200000Y-134550000D03*
X107800000Y-95650000D03*
X122350000Y-110150000D03*
X145900000Y-107000000D03*
X121600000Y-105600000D03*
X139950000Y-106150000D03*
X98500000Y-139400000D03*
X124500000Y-87250000D03*
X128100000Y-112450000D03*
X147237500Y-117500000D03*
X142600000Y-103150000D03*
X114550000Y-125050000D03*
X128100000Y-111350000D03*
X139300000Y-75150000D03*
X117800000Y-109650000D03*
X110550000Y-137050000D03*
X102500000Y-83700000D03*
X127750000Y-75150000D03*
X125700000Y-111350000D03*
X145550000Y-95400000D03*
X117150000Y-128350000D03*
X129850000Y-87800000D03*
X127350000Y-87700000D03*
X132500000Y-107050000D03*
X139500000Y-107750000D03*
X146150000Y-140600000D03*
X114600000Y-75000000D03*
X111950000Y-102750000D03*
X144000000Y-80300000D03*
X121950000Y-73500000D03*
X134550000Y-111700000D03*
X108350000Y-79750000D03*
X108350000Y-84550000D03*
X123150000Y-102750000D03*
X139700000Y-83200000D03*
X124750000Y-125050000D03*
X132050000Y-105100000D03*
X102500000Y-88800000D03*
X147700000Y-131500000D03*
X144050000Y-86700000D03*
X123300000Y-124250000D03*
X106550000Y-134600000D03*
X143450000Y-107050000D03*
X129650000Y-86400000D03*
X144550000Y-123700000D03*
X114700000Y-79500000D03*
X130700000Y-75150000D03*
X144300000Y-138750000D03*
X118200000Y-136950000D03*
X106450000Y-139650000D03*
X148200000Y-138600000D03*
X115600000Y-116800000D03*
X121750000Y-134650000D03*
X137500000Y-117050000D03*
X142250000Y-87150000D03*
X122900000Y-75050000D03*
X98550000Y-134450000D03*
X128100000Y-113600000D03*
X147800000Y-80800000D03*
X121200000Y-87550000D03*
X135650000Y-122300000D03*
X147237500Y-120500000D03*
X126888000Y-112450000D03*
D16*
X104450000Y-100700000D03*
D15*
X145100000Y-133350000D03*
X112250000Y-99400000D03*
X137450000Y-102600000D03*
X110100000Y-128200000D03*
X102350000Y-136900000D03*
X114250000Y-139900000D03*
X129200000Y-75100000D03*
X145200000Y-74300000D03*
X120850000Y-97250000D03*
X144650000Y-122000000D03*
X126250000Y-75100000D03*
X105800000Y-114050000D03*
X137650000Y-86400000D03*
X114700000Y-84550000D03*
X147250000Y-115950000D03*
X126900000Y-111350000D03*
D16*
X127000000Y-120050000D03*
X116550000Y-120800000D03*
X117750000Y-119200000D03*
X135300000Y-120500000D03*
X104425000Y-109175000D03*
X109800000Y-125550000D03*
D15*
X139050000Y-116200000D03*
X138700000Y-123300000D03*
X142550000Y-110300000D03*
X144150000Y-116550000D03*
X143000000Y-118050000D03*
X142600000Y-112100000D03*
X139650000Y-112900000D03*
X141800000Y-119550000D03*
X139900000Y-115700000D03*
X140650000Y-121050000D03*
X138150000Y-116200000D03*
X138300000Y-122600000D03*
X147450000Y-114100000D03*
X130050000Y-127450000D03*
X131190000Y-127500000D03*
X147500000Y-113250000D03*
X142350000Y-120150000D03*
X139600000Y-112000000D03*
X143150000Y-111450000D03*
X143550000Y-118650000D03*
X140800000Y-115750000D03*
X141100000Y-121750000D03*
X142600000Y-109500000D03*
X144600000Y-117200000D03*
X131300000Y-125550000D03*
X130600000Y-105050000D03*
X109300000Y-110350000D03*
X133900000Y-122350000D03*
X123250000Y-116650000D03*
X132150000Y-118100000D03*
X130250000Y-95450000D03*
X117150000Y-97850000D03*
X131950000Y-94050000D03*
X128950000Y-96800000D03*
X126800000Y-99250000D03*
X129550000Y-96000000D03*
X115700000Y-99600000D03*
X131050000Y-94050000D03*
X128200000Y-97250000D03*
X116450000Y-98650000D03*
X127400000Y-98600000D03*
X115000000Y-100350000D03*
D16*
X148600000Y-85300000D03*
X149450000Y-95000000D03*
D15*
X107150000Y-115100000D03*
D16*
X101550000Y-126900000D03*
D15*
X118650000Y-96350000D03*
X117950000Y-95750000D03*
D17*
X96900000Y-125640000D02*
X96900000Y-123100000D01*
X116550000Y-120800000D02*
X126250000Y-120800000D01*
X126250000Y-120800000D02*
X127000000Y-120050000D01*
D18*
X124550000Y-119200000D02*
X124850000Y-118900000D01*
X124850000Y-118900000D02*
X126850000Y-118900000D01*
X126850000Y-118900000D02*
X127850000Y-118900000D01*
X128350000Y-119400000D02*
X129450000Y-120500000D01*
X117750000Y-119200000D02*
X124550000Y-119200000D01*
X129450000Y-120500000D02*
X135400000Y-120500000D01*
X127850000Y-118900000D02*
X128350000Y-119400000D01*
D19*
X103420000Y-105320000D02*
X99440000Y-105320000D01*
D17*
X109740000Y-125640000D02*
X109750000Y-125650000D01*
D19*
X104425000Y-109175000D02*
X104425000Y-106325000D01*
X104425000Y-106325000D02*
X103420000Y-105320000D01*
D17*
X99440000Y-125640000D02*
X109740000Y-125640000D01*
D20*
X138780000Y-119325440D02*
X138780000Y-116470000D01*
X139230000Y-122324559D02*
X139230000Y-119775440D01*
X138900000Y-123100000D02*
X138900000Y-122654559D01*
X138700000Y-123300000D02*
X138900000Y-123100000D01*
X138780000Y-116470000D02*
X139050000Y-116200000D01*
X138900000Y-122654559D02*
X139230000Y-122324559D01*
X139230000Y-119775440D02*
X138780000Y-119325440D01*
X142550000Y-110300000D02*
X142795000Y-110055000D01*
X143580489Y-110331000D02*
X143580489Y-110179000D01*
X143394489Y-110455000D02*
X143456489Y-110455000D01*
X143988219Y-110092779D02*
X144470000Y-110574560D01*
X143950440Y-110055000D02*
X143988219Y-110092779D01*
X142795000Y-110055000D02*
X143146489Y-110055000D01*
X143766489Y-110055000D02*
X143950440Y-110055000D01*
X144470000Y-110574560D02*
X144470000Y-116425441D01*
X144345441Y-116550000D02*
X144150000Y-116550000D01*
X143270489Y-110179000D02*
X143270489Y-110331000D01*
X144470000Y-116425441D02*
X144345441Y-116550000D01*
X143704489Y-110055000D02*
X143766489Y-110055000D01*
X143146489Y-110055000D02*
G75*
G02*
X143270500Y-110179000I11J-124000D01*
G01*
X143456489Y-110455000D02*
G75*
G03*
X143580500Y-110331000I11J124000D01*
G01*
X143270489Y-110331000D02*
G75*
G03*
X143394489Y-110455011I124011J0D01*
G01*
X143580489Y-110179000D02*
G75*
G02*
X143704489Y-110054989I124011J0D01*
G01*
X143000000Y-118050000D02*
X143190000Y-117860000D01*
X143190000Y-112394559D02*
X142895441Y-112100000D01*
X143190000Y-117860000D02*
X143190000Y-112394559D01*
X142895441Y-112100000D02*
X142600000Y-112100000D01*
X140950440Y-112655000D02*
X140951602Y-112656162D01*
X140705176Y-112655000D02*
X140767176Y-112655000D01*
X139650000Y-112900000D02*
X139895000Y-112655000D01*
X140395176Y-113105000D02*
X140457176Y-113105000D01*
X139895000Y-112655000D02*
X140147176Y-112655000D01*
X140581176Y-112981000D02*
X140581176Y-112779000D01*
X140271176Y-112779000D02*
X140271176Y-112981000D01*
X141990000Y-119360000D02*
X141800000Y-119550000D01*
X141990000Y-113694560D02*
X141990000Y-119360000D01*
X140951602Y-112656162D02*
X141990000Y-113694560D01*
X140767176Y-112655000D02*
X140950440Y-112655000D01*
X140457176Y-113105000D02*
G75*
G03*
X140581200Y-112981000I24J124000D01*
G01*
X140271176Y-112981000D02*
G75*
G03*
X140395176Y-113105024I124024J0D01*
G01*
X140581176Y-112779000D02*
G75*
G02*
X140705176Y-112654976I124024J0D01*
G01*
X140147176Y-112655000D02*
G75*
G02*
X140271200Y-112779000I24J-124000D01*
G01*
X140740000Y-120444560D02*
X140120000Y-119824560D01*
X140740000Y-120960000D02*
X140740000Y-120444560D01*
X140650000Y-121050000D02*
X140740000Y-120960000D01*
X140120000Y-119824560D02*
X140120000Y-115920000D01*
X140120000Y-115920000D02*
X139900000Y-115700000D01*
X138870000Y-119924560D02*
X138420000Y-119474560D01*
X138300000Y-122600000D02*
X138350000Y-122550000D01*
X138445441Y-122600000D02*
X138870000Y-122175441D01*
X138420000Y-119474560D02*
X138420000Y-116470000D01*
X138300000Y-122600000D02*
X138445441Y-122600000D01*
X138420000Y-116470000D02*
X138150000Y-116200000D01*
X138870000Y-122175441D02*
X138870000Y-119924560D01*
D21*
X130050000Y-127750000D02*
X130050000Y-127450000D01*
X147450000Y-114100000D02*
X147900000Y-114550000D01*
X130400000Y-128100000D02*
X130050000Y-127750000D01*
X147900000Y-125300000D02*
X145100000Y-128100000D01*
X145100000Y-128100000D02*
X130400000Y-128100000D01*
X147900000Y-114550000D02*
X147900000Y-125300000D01*
X146000000Y-126550000D02*
X146050000Y-126550000D01*
X146300000Y-126300000D02*
X146300000Y-118000000D01*
X145050000Y-127500000D02*
X146000000Y-126550000D01*
X146700000Y-113300000D02*
X147500000Y-113300000D01*
X146300000Y-113700000D02*
X146550000Y-113450000D01*
X146300000Y-118000000D02*
X146300000Y-113700000D01*
X131190000Y-127500000D02*
X145050000Y-127500000D01*
X146550000Y-113450000D02*
X146700000Y-113300000D01*
X146050000Y-126550000D02*
X146300000Y-126300000D01*
D20*
X142350000Y-120150000D02*
X142350000Y-113545440D01*
X139600000Y-112000000D02*
X139895000Y-112295000D01*
X141099560Y-112295000D02*
X142350000Y-113545440D01*
X139895000Y-112295000D02*
X141099560Y-112295000D01*
X143550000Y-118650000D02*
X143550000Y-112245441D01*
X143550000Y-112245441D02*
X143150000Y-111845441D01*
X143150000Y-111845441D02*
X143150000Y-111450000D01*
X141180000Y-121670000D02*
X141180000Y-120375440D01*
X141100000Y-121750000D02*
X141180000Y-121670000D01*
X140480000Y-119675440D02*
X140480000Y-116070000D01*
X141180000Y-120375440D02*
X140480000Y-119675440D01*
X140480000Y-116070000D02*
X140800000Y-115750000D01*
X144600000Y-116849534D02*
X144600000Y-117200000D01*
X144830000Y-110425440D02*
X144830000Y-116620000D01*
X142795000Y-109695000D02*
X144099560Y-109695000D01*
X144680466Y-116769534D02*
X144680000Y-116769534D01*
X144680000Y-116769534D02*
X144600000Y-116849534D01*
X144099560Y-109695000D02*
X144830000Y-110425440D01*
X142600000Y-109500000D02*
X142795000Y-109695000D01*
X144830000Y-116620000D02*
X144680466Y-116769534D01*
D21*
X127700000Y-123200000D02*
X130050000Y-125550000D01*
X99540000Y-123200000D02*
X127700000Y-123200000D01*
X130050000Y-125550000D02*
X131300000Y-125550000D01*
X99440000Y-123100000D02*
X99540000Y-123200000D01*
X125450000Y-104700000D02*
X130300000Y-104700000D01*
X109950000Y-104700000D02*
X110150000Y-104700000D01*
X109300000Y-110350000D02*
X109300000Y-105350000D01*
X110150000Y-104700000D02*
X125450000Y-104700000D01*
X109300000Y-105350000D02*
X109950000Y-104700000D01*
X130300000Y-104700000D02*
X130600000Y-105000000D01*
X101150000Y-119300000D02*
X98180000Y-119300000D01*
X133300000Y-124850000D02*
X130050000Y-124850000D01*
X98180000Y-119300000D02*
X96900000Y-118020000D01*
X127850000Y-122650000D02*
X104500000Y-122650000D01*
X130050000Y-124850000D02*
X127850000Y-122650000D01*
X104500000Y-122650000D02*
X101150000Y-119300000D01*
X133900000Y-122350000D02*
X133900000Y-124250000D01*
X133900000Y-124250000D02*
X133300000Y-124850000D01*
X132150000Y-117200000D02*
X132150000Y-118100000D01*
X131600000Y-116650000D02*
X132150000Y-117200000D01*
X123250000Y-116650000D02*
X131600000Y-116650000D01*
D17*
X138250000Y-130100000D02*
X145900000Y-130100000D01*
X149800000Y-91300000D02*
X149800000Y-87900000D01*
X146150000Y-87750000D02*
X146150000Y-89700000D01*
X148050000Y-91800000D02*
X148150000Y-91700000D01*
X149800000Y-87900000D02*
X148950000Y-87050000D01*
X148950000Y-87050000D02*
X146850000Y-87050000D01*
X148050000Y-96550000D02*
X148050000Y-91800000D01*
X145900000Y-130100000D02*
X148650000Y-127350000D01*
X146850000Y-87050000D02*
X146150000Y-87750000D01*
X148650000Y-97150000D02*
X148050000Y-96550000D01*
X148650000Y-127350000D02*
X148650000Y-97150000D01*
X149400000Y-91700000D02*
X149800000Y-91300000D01*
X148150000Y-91700000D02*
X149400000Y-91700000D01*
D20*
X135145693Y-95640000D02*
X135205440Y-95640000D01*
X130250000Y-95450000D02*
X130440000Y-95640000D01*
X134725693Y-93740000D02*
X134725693Y-95420000D01*
X135150000Y-90700000D02*
X134150000Y-89700000D01*
X132945693Y-95640000D02*
X133145693Y-95640000D01*
X135820000Y-92870000D02*
X135150000Y-92200000D01*
X134945693Y-95640000D02*
X135145693Y-95640000D01*
X135205440Y-95640000D02*
X135820000Y-95025440D01*
X133365693Y-95420000D02*
X133365693Y-93740000D01*
X131945693Y-94610000D02*
X132145693Y-94610000D01*
X130440000Y-95640000D02*
X131145693Y-95640000D01*
X135820000Y-93488726D02*
X135820000Y-92870000D01*
X135150000Y-92200000D02*
X135150000Y-90700000D01*
X132725693Y-95190000D02*
X132725693Y-95420000D01*
X133945693Y-93160000D02*
X134145693Y-93160000D01*
X131365693Y-95420000D02*
X131365693Y-95190000D01*
X135820000Y-95025440D02*
X135820000Y-93488726D01*
X131365693Y-95190000D02*
G75*
G02*
X131945693Y-94609993I580007J0D01*
G01*
X132725693Y-95420000D02*
G75*
G03*
X132945693Y-95640007I220007J0D01*
G01*
X131145693Y-95640000D02*
G75*
G03*
X131365700Y-95420000I7J220000D01*
G01*
X134725693Y-95420000D02*
G75*
G03*
X134945693Y-95640007I220007J0D01*
G01*
X133365693Y-93740000D02*
G75*
G02*
X133945693Y-93159993I580007J0D01*
G01*
X133145693Y-95640000D02*
G75*
G03*
X133365700Y-95420000I7J220000D01*
G01*
X134145693Y-93160000D02*
G75*
G02*
X134725700Y-93740000I7J-580000D01*
G01*
X132145693Y-94610000D02*
G75*
G02*
X132725700Y-95190000I7J-580000D01*
G01*
X117150000Y-97850000D02*
X117590000Y-98290000D01*
X122855440Y-98290000D02*
X126150000Y-94995440D01*
X126150000Y-94995440D02*
X126150000Y-91700000D01*
X117590000Y-98290000D02*
X122855440Y-98290000D01*
X131680000Y-92170000D02*
X132150000Y-91700000D01*
X131680000Y-93780000D02*
X131680000Y-92170000D01*
X131950000Y-94050000D02*
X131680000Y-93780000D01*
X134091623Y-97250000D02*
X134091623Y-96780000D01*
X128950000Y-96800000D02*
X129040000Y-96890000D01*
X137970000Y-95615440D02*
X137260000Y-95615440D01*
X135351623Y-96780000D02*
X135351623Y-96890000D01*
X132291623Y-97250000D02*
X132291623Y-96780000D01*
X138150000Y-94175440D02*
X138150000Y-93995440D01*
X132761623Y-96310000D02*
X133081623Y-96310000D01*
X136431623Y-96890000D02*
X136611623Y-96890000D01*
X132291623Y-98040000D02*
X132291623Y-97250000D01*
X138150000Y-93995440D02*
X138150000Y-93602105D01*
X138150000Y-93283109D02*
X138150000Y-93602105D01*
X131931623Y-98220000D02*
X132111623Y-98220000D01*
X131751623Y-96890000D02*
X131751623Y-98040000D01*
X135531623Y-98220000D02*
X135711623Y-98220000D01*
X131751623Y-96780000D02*
X131751623Y-96890000D01*
X136720000Y-95075440D02*
X136720000Y-94895440D01*
X135891623Y-98040000D02*
X135891623Y-97430000D01*
X137500000Y-92911109D02*
X137500000Y-92973109D01*
X136611623Y-96890000D02*
X137055440Y-96890000D01*
X134561623Y-96310000D02*
X134881623Y-96310000D01*
X133551623Y-96780000D02*
X133551623Y-96890000D01*
X137624000Y-93097109D02*
X138026000Y-93097109D01*
X138150000Y-93221109D02*
X138150000Y-93283109D01*
X130961623Y-96310000D02*
X131281623Y-96310000D01*
X129040000Y-96890000D02*
X130381623Y-96890000D01*
X135351623Y-96890000D02*
X135351623Y-98040000D01*
X133551623Y-96890000D02*
X133551623Y-98040000D01*
X134091623Y-98040000D02*
X134091623Y-97250000D01*
X138026000Y-92787109D02*
X137624000Y-92787109D01*
X138150000Y-91700000D02*
X138150000Y-92663109D01*
X137055440Y-96890000D02*
X138150000Y-95795440D01*
X137260000Y-94355440D02*
X137970000Y-94355440D01*
X133731623Y-98220000D02*
X133911623Y-98220000D01*
X131281623Y-96310000D02*
G75*
G02*
X131751600Y-96780000I-23J-470000D01*
G01*
X135711623Y-98220000D02*
G75*
G03*
X135891600Y-98040000I-23J180000D01*
G01*
X130491623Y-96780000D02*
G75*
G02*
X130961623Y-96310023I469977J0D01*
G01*
X134881623Y-96310000D02*
G75*
G02*
X135351600Y-96780000I-23J-470000D01*
G01*
X133081623Y-96310000D02*
G75*
G02*
X133551600Y-96780000I-23J-470000D01*
G01*
X136720000Y-94895440D02*
G75*
G02*
X137260000Y-94355400I540000J40D01*
G01*
X133551623Y-98040000D02*
G75*
G03*
X133731623Y-98219977I179977J0D01*
G01*
X131751623Y-98040000D02*
G75*
G03*
X131931623Y-98219977I179977J0D01*
G01*
X130381623Y-96890000D02*
G75*
G03*
X130491600Y-96780000I-23J110000D01*
G01*
X138150000Y-95795440D02*
G75*
G03*
X137970000Y-95615400I-180000J40D01*
G01*
X137970000Y-94355440D02*
G75*
G03*
X138150040Y-94175440I0J180040D01*
G01*
X137500000Y-92973109D02*
G75*
G03*
X137624000Y-93097100I124000J9D01*
G01*
X135351623Y-98040000D02*
G75*
G03*
X135531623Y-98219977I179977J0D01*
G01*
X138026000Y-93097109D02*
G75*
G02*
X138149991Y-93221109I0J-123991D01*
G01*
X135891623Y-97430000D02*
G75*
G02*
X136431623Y-96890023I539977J0D01*
G01*
X133911623Y-98220000D02*
G75*
G03*
X134091600Y-98040000I-23J180000D01*
G01*
X137624000Y-92787109D02*
G75*
G03*
X137500009Y-92911109I0J-123991D01*
G01*
X132111623Y-98220000D02*
G75*
G03*
X132291600Y-98040000I-23J180000D01*
G01*
X137260000Y-95615440D02*
G75*
G02*
X136719960Y-95075440I0J540040D01*
G01*
X138150000Y-92663109D02*
G75*
G02*
X138026000Y-92787100I-124000J9D01*
G01*
X134091623Y-96780000D02*
G75*
G02*
X134561623Y-96310023I469977J0D01*
G01*
X132291623Y-96780000D02*
G75*
G02*
X132761623Y-96310023I469977J0D01*
G01*
X143230000Y-94774951D02*
X142350000Y-94774951D01*
X138083273Y-98670000D02*
X138083273Y-99850000D01*
X139443273Y-99850000D02*
X139443273Y-99470000D01*
X140404560Y-99250000D02*
X141338192Y-98316368D01*
X137443273Y-98670000D02*
X137443273Y-98290000D01*
X142130000Y-96194951D02*
X142130000Y-96655618D01*
X137663273Y-98070000D02*
X137863273Y-98070000D01*
X142150000Y-91700000D02*
X142130000Y-91720000D01*
X143810000Y-93994951D02*
X143810000Y-94194951D01*
X142130000Y-95994951D02*
X142130000Y-96194951D01*
X142350000Y-94774951D02*
X140670000Y-94774951D01*
X142130000Y-91720000D02*
X142130000Y-93194951D01*
X126800000Y-99250000D02*
X136863273Y-99250000D01*
X142350000Y-93414951D02*
X143230000Y-93414951D01*
X142130000Y-97524560D02*
X142130000Y-96655618D01*
X138663273Y-100430000D02*
X138863273Y-100430000D01*
X139863273Y-99250000D02*
X140404560Y-99250000D01*
X139663273Y-99250000D02*
X139863273Y-99250000D01*
X140670000Y-95414951D02*
X141550000Y-95414951D01*
X141338192Y-98316368D02*
X142130000Y-97524560D01*
X138083273Y-98290000D02*
X138083273Y-98670000D01*
X140450000Y-94994951D02*
X140450000Y-95194951D01*
X137443273Y-98290000D02*
G75*
G02*
X137663273Y-98069973I220027J0D01*
G01*
X138083273Y-99850000D02*
G75*
G03*
X138663273Y-100430027I580027J0D01*
G01*
X143810000Y-94194951D02*
G75*
G02*
X143230000Y-94775000I-580000J-49D01*
G01*
X141550000Y-95414951D02*
G75*
G02*
X142130049Y-95994951I0J-580049D01*
G01*
X136863273Y-99250000D02*
G75*
G03*
X137443300Y-98670000I27J580000D01*
G01*
X137863273Y-98070000D02*
G75*
G02*
X138083300Y-98290000I27J-220000D01*
G01*
X140670000Y-94774951D02*
G75*
G03*
X140449951Y-94994951I0J-220049D01*
G01*
X140450000Y-95194951D02*
G75*
G03*
X140670000Y-95414900I220000J51D01*
G01*
X139443273Y-99470000D02*
G75*
G02*
X139663273Y-99249973I220027J0D01*
G01*
X142130000Y-93194951D02*
G75*
G03*
X142350000Y-93414900I220000J51D01*
G01*
X138863273Y-100430000D02*
G75*
G03*
X139443300Y-99850000I27J580000D01*
G01*
X143230000Y-93414951D02*
G75*
G02*
X143810049Y-93994951I0J-580049D01*
G01*
X129550000Y-96000000D02*
X131145693Y-96000000D01*
X134365693Y-93740000D02*
X134365693Y-95420000D01*
X135145693Y-96000000D02*
X135354560Y-96000000D01*
X134945693Y-96000000D02*
X135145693Y-96000000D01*
X133945693Y-93520000D02*
X134145693Y-93520000D01*
X133725693Y-95420000D02*
X133725693Y-93740000D01*
X132365693Y-95190000D02*
X132365693Y-95420000D01*
X136180000Y-91730000D02*
X136150000Y-91700000D01*
X132945693Y-96000000D02*
X133145693Y-96000000D01*
X135354560Y-96000000D02*
X136180000Y-95174560D01*
X131945693Y-94970000D02*
X132145693Y-94970000D01*
X136180000Y-95174560D02*
X136180000Y-93488726D01*
X131725693Y-95420000D02*
X131725693Y-95190000D01*
X136180000Y-93488726D02*
X136180000Y-91730000D01*
X133145693Y-96000000D02*
G75*
G03*
X133725700Y-95420000I7J580000D01*
G01*
X133725693Y-93740000D02*
G75*
G02*
X133945693Y-93519993I220007J0D01*
G01*
X132365693Y-95420000D02*
G75*
G03*
X132945693Y-96000007I580007J0D01*
G01*
X134365693Y-95420000D02*
G75*
G03*
X134945693Y-96000007I580007J0D01*
G01*
X132145693Y-94970000D02*
G75*
G02*
X132365700Y-95190000I7J-220000D01*
G01*
X131145693Y-96000000D02*
G75*
G03*
X131725700Y-95420000I7J580000D01*
G01*
X131725693Y-95190000D02*
G75*
G02*
X131945693Y-94969993I220007J0D01*
G01*
X134145693Y-93520000D02*
G75*
G02*
X134365700Y-93740000I7J-220000D01*
G01*
X123105440Y-99990000D02*
X129770000Y-93325440D01*
X129150000Y-92250000D02*
X129150000Y-90700000D01*
X129770000Y-92870000D02*
X129150000Y-92250000D01*
X116090000Y-99990000D02*
X123105440Y-99990000D01*
X115700000Y-99600000D02*
X116090000Y-99990000D01*
X129770000Y-93325440D02*
X129770000Y-92870000D01*
X129150000Y-90700000D02*
X128150000Y-89700000D01*
X131320000Y-92320000D02*
X131150000Y-92150000D01*
X131320000Y-93780000D02*
X131320000Y-92320000D01*
X131050000Y-94050000D02*
X131320000Y-93780000D01*
X131150000Y-90700000D02*
X132150000Y-89700000D01*
X131150000Y-92150000D02*
X131150000Y-90700000D01*
X138510000Y-93602105D02*
X138510000Y-92840000D01*
X134991623Y-96890000D02*
X134991623Y-98040000D01*
X138510000Y-93995440D02*
X138510000Y-93602105D01*
X132761623Y-96670000D02*
X133081623Y-96670000D01*
X136431623Y-97250000D02*
X136611623Y-97250000D01*
X134451623Y-97250000D02*
X134451623Y-96780000D01*
X137260000Y-94715440D02*
X137970000Y-94715440D01*
X132651623Y-98040000D02*
X132651623Y-97250000D01*
X131391623Y-96780000D02*
X131391623Y-96890000D01*
X128280000Y-97330000D02*
X129169534Y-97330000D01*
X133731623Y-98580000D02*
X133911623Y-98580000D01*
X134451623Y-98040000D02*
X134451623Y-97250000D01*
X134991623Y-96780000D02*
X134991623Y-96890000D01*
X133191623Y-96890000D02*
X133191623Y-98040000D01*
X139150000Y-90700000D02*
X138150000Y-89700000D01*
X135531623Y-98580000D02*
X135711623Y-98580000D01*
X131931623Y-98580000D02*
X132111623Y-98580000D01*
X128200000Y-97250000D02*
X128280000Y-97330000D01*
X138510000Y-95944560D02*
X138510000Y-95795440D01*
X134561623Y-96670000D02*
X134881623Y-96670000D01*
X137970000Y-95255440D02*
X137260000Y-95255440D01*
X137204560Y-97250000D02*
X138510000Y-95944560D01*
X136251623Y-98040000D02*
X136251623Y-97430000D01*
X133191623Y-96780000D02*
X133191623Y-96890000D01*
X129169534Y-97330000D02*
X129249534Y-97250000D01*
X132651623Y-97250000D02*
X132651623Y-96780000D01*
X139150000Y-92200000D02*
X139150000Y-90700000D01*
X137080000Y-95075440D02*
X137080000Y-94895440D01*
X138510000Y-94175440D02*
X138510000Y-93995440D01*
X136611623Y-97250000D02*
X137204560Y-97250000D01*
X130961623Y-96670000D02*
X131281623Y-96670000D01*
X138510000Y-92840000D02*
X139150000Y-92200000D01*
X131391623Y-96890000D02*
X131391623Y-98040000D01*
X129249534Y-97250000D02*
X130381623Y-97250000D01*
X132651623Y-96780000D02*
G75*
G02*
X132761623Y-96670023I109977J0D01*
G01*
X138510000Y-95795440D02*
G75*
G03*
X137970000Y-95255400I-540000J40D01*
G01*
X133081623Y-96670000D02*
G75*
G02*
X133191600Y-96780000I-23J-110000D01*
G01*
X137080000Y-94895440D02*
G75*
G02*
X137260000Y-94715400I180000J40D01*
G01*
X136251623Y-97430000D02*
G75*
G02*
X136431623Y-97250023I179977J0D01*
G01*
X133911623Y-98580000D02*
G75*
G03*
X134451600Y-98040000I-23J540000D01*
G01*
X135711623Y-98580000D02*
G75*
G03*
X136251600Y-98040000I-23J540000D01*
G01*
X131391623Y-98040000D02*
G75*
G03*
X131931623Y-98579977I539977J0D01*
G01*
X133191623Y-98040000D02*
G75*
G03*
X133731623Y-98579977I539977J0D01*
G01*
X134991623Y-98040000D02*
G75*
G03*
X135531623Y-98579977I539977J0D01*
G01*
X134451623Y-96780000D02*
G75*
G02*
X134561623Y-96670023I109977J0D01*
G01*
X134881623Y-96670000D02*
G75*
G02*
X134991600Y-96780000I-23J-110000D01*
G01*
X132111623Y-98580000D02*
G75*
G03*
X132651600Y-98040000I-23J540000D01*
G01*
X130381623Y-97250000D02*
G75*
G03*
X130851600Y-96780000I-23J470000D01*
G01*
X130851623Y-96780000D02*
G75*
G02*
X130961623Y-96670023I109977J0D01*
G01*
X131281623Y-96670000D02*
G75*
G02*
X131391600Y-96780000I-23J-110000D01*
G01*
X137970000Y-94715440D02*
G75*
G03*
X138510040Y-94175440I0J540040D01*
G01*
X137260000Y-95255440D02*
G75*
G02*
X137079960Y-95075440I0J180040D01*
G01*
X126510000Y-92890000D02*
X127150000Y-92250000D01*
X127150000Y-90700000D02*
X126150000Y-89700000D01*
X116450000Y-98650000D02*
X123004560Y-98650000D01*
X123004560Y-98650000D02*
X126510000Y-95144560D01*
X127150000Y-92250000D02*
X127150000Y-90700000D01*
X126510000Y-95144560D02*
X126510000Y-92890000D01*
X139083273Y-99850000D02*
X139083273Y-99470000D01*
X143450000Y-93994951D02*
X143450000Y-94194951D01*
X141770000Y-97375440D02*
X141770000Y-96655618D01*
X138443273Y-98670000D02*
X138443273Y-99850000D01*
X137663273Y-97710000D02*
X137863273Y-97710000D01*
X138663273Y-100070000D02*
X138863273Y-100070000D01*
X140670000Y-95774951D02*
X141550000Y-95774951D01*
X127400000Y-98600000D02*
X127690000Y-98890000D01*
X141150000Y-90700000D02*
X141150000Y-92250000D01*
X141770000Y-95994951D02*
X141770000Y-96194951D01*
X141770000Y-92870000D02*
X141770000Y-93194951D01*
X140255440Y-98890000D02*
X141083632Y-98061808D01*
X139663273Y-98890000D02*
X139863273Y-98890000D01*
X138443273Y-98290000D02*
X138443273Y-98670000D01*
X140090000Y-94994951D02*
X140090000Y-95194951D01*
X127690000Y-98890000D02*
X136863273Y-98890000D01*
X142350000Y-94414951D02*
X140670000Y-94414951D01*
X141150000Y-92250000D02*
X141770000Y-92870000D01*
X140150000Y-89700000D02*
X141150000Y-90700000D01*
X143230000Y-94414951D02*
X142350000Y-94414951D01*
X141083632Y-98061808D02*
X141770000Y-97375440D01*
X139863273Y-98890000D02*
X140255440Y-98890000D01*
X141770000Y-96194951D02*
X141770000Y-96655618D01*
X142350000Y-93774951D02*
X143230000Y-93774951D01*
X137083273Y-98670000D02*
X137083273Y-98290000D01*
X139083273Y-99470000D02*
G75*
G02*
X139663273Y-98889973I580027J0D01*
G01*
X140090000Y-95194951D02*
G75*
G03*
X140670000Y-95775000I580000J-49D01*
G01*
X137863273Y-97710000D02*
G75*
G02*
X138443300Y-98290000I27J-580000D01*
G01*
X140670000Y-94414951D02*
G75*
G03*
X140089951Y-94994951I0J-580049D01*
G01*
X143450000Y-94194951D02*
G75*
G02*
X143230000Y-94414900I-220000J51D01*
G01*
X143230000Y-93774951D02*
G75*
G02*
X143450049Y-93994951I0J-220049D01*
G01*
X141550000Y-95774951D02*
G75*
G02*
X141770049Y-95994951I0J-220049D01*
G01*
X141770000Y-93194951D02*
G75*
G03*
X142350000Y-93775000I580000J-49D01*
G01*
X136863273Y-98890000D02*
G75*
G03*
X137083300Y-98670000I27J220000D01*
G01*
X137083273Y-98290000D02*
G75*
G02*
X137663273Y-97709973I580027J0D01*
G01*
X138443273Y-99850000D02*
G75*
G03*
X138663273Y-100070027I220027J0D01*
G01*
X138863273Y-100070000D02*
G75*
G03*
X139083300Y-99850000I27J220000D01*
G01*
X115000000Y-100350000D02*
X123254560Y-100350000D01*
X130130000Y-91720000D02*
X130150000Y-91700000D01*
X130130000Y-93474560D02*
X130130000Y-91720000D01*
X123254560Y-100350000D02*
X130130000Y-93474560D01*
D22*
X120400000Y-85300000D02*
X118150000Y-87550000D01*
X148600000Y-85300000D02*
X120400000Y-85300000D01*
X128150000Y-136262500D02*
X138112500Y-136262500D01*
X138112500Y-136262500D02*
X138250000Y-136400000D01*
X149650000Y-134000000D02*
X149650000Y-95250000D01*
X116150000Y-89700000D02*
X118150000Y-89700000D01*
X147250000Y-136400000D02*
X149650000Y-134000000D01*
X118150000Y-91700000D02*
X118150000Y-89700000D01*
X149650000Y-95250000D02*
X149450000Y-95050000D01*
X118150000Y-87550000D02*
X118150000Y-89700000D01*
X138250000Y-136400000D02*
X147250000Y-136400000D01*
D21*
X102950000Y-111700000D02*
X103300000Y-112050000D01*
X104250000Y-116500000D02*
X107150000Y-116500000D01*
X96960000Y-112940000D02*
X98200000Y-111700000D01*
X103300000Y-112050000D02*
X103300000Y-115550000D01*
X107150000Y-116500000D02*
X108050000Y-115600000D01*
X96900000Y-112940000D02*
X96960000Y-112940000D01*
X114150000Y-93400000D02*
X114150000Y-91700000D01*
X108050000Y-115600000D02*
X108050000Y-99500000D01*
X98200000Y-111700000D02*
X102950000Y-111700000D01*
X108050000Y-99500000D02*
X114150000Y-93400000D01*
X103300000Y-115550000D02*
X104250000Y-116500000D01*
X98080000Y-114300000D02*
X101150000Y-114300000D01*
X115150000Y-90700000D02*
X114150000Y-89700000D01*
X107350000Y-117100000D02*
X108600000Y-115850000D01*
X108600000Y-100100000D02*
X115150000Y-93550000D01*
X103950000Y-117100000D02*
X107350000Y-117100000D01*
X115150000Y-93550000D02*
X115150000Y-90700000D01*
X96900000Y-115480000D02*
X98080000Y-114300000D01*
X101150000Y-114300000D02*
X103950000Y-117100000D01*
X108600000Y-115850000D02*
X108600000Y-100100000D01*
X104450000Y-114700000D02*
X104850000Y-115100000D01*
X104850000Y-115100000D02*
X107150000Y-115100000D01*
X104150000Y-111000000D02*
X104150000Y-112200000D01*
X99440000Y-110400000D02*
X103550000Y-110400000D01*
X104000000Y-110850000D02*
X104150000Y-111000000D01*
X103550000Y-110400000D02*
X104000000Y-110850000D01*
X104150000Y-112200000D02*
X104150000Y-114400000D01*
X104150000Y-114400000D02*
X104450000Y-114700000D01*
D17*
X102812500Y-129962500D02*
X102150000Y-129300000D01*
X101550000Y-126900000D02*
X101550000Y-126950000D01*
X101550000Y-128700000D02*
X101550000Y-126900000D01*
X102150000Y-129300000D02*
X101550000Y-128700000D01*
X128150000Y-129962500D02*
X102812500Y-129962500D01*
D20*
X121659772Y-96110000D02*
X122294560Y-96110000D01*
X120459772Y-93980000D02*
X120659772Y-93980000D01*
X120879772Y-94200000D02*
X120879772Y-95530000D01*
X124169050Y-91719050D02*
X124150000Y-91700000D01*
X122294560Y-96110000D02*
X124063610Y-94340950D01*
X124063610Y-94340950D02*
X124169050Y-94235510D01*
X124169050Y-94235510D02*
X124169050Y-91719050D01*
X118890000Y-96110000D02*
X119659772Y-96110000D01*
X118650000Y-96350000D02*
X118890000Y-96110000D01*
X120239772Y-95530000D02*
X120239772Y-94200000D01*
X121459772Y-96110000D02*
X121659772Y-96110000D01*
X120659772Y-93980000D02*
G75*
G02*
X120879800Y-94200000I28J-220000D01*
G01*
X120239772Y-94200000D02*
G75*
G02*
X120459772Y-93979972I220028J0D01*
G01*
X120879772Y-95530000D02*
G75*
G03*
X121459772Y-96110028I580028J0D01*
G01*
X119659772Y-96110000D02*
G75*
G03*
X120239800Y-95530000I28J580000D01*
G01*
X121239772Y-94200000D02*
X121239772Y-95530000D01*
X123809050Y-92759050D02*
X123150000Y-92100000D01*
X123150000Y-90700000D02*
X122150000Y-89700000D01*
X120459772Y-93620000D02*
X120659772Y-93620000D01*
X123809050Y-94086390D02*
X123809050Y-92759050D01*
X121459772Y-95750000D02*
X121659772Y-95750000D01*
X122145440Y-95750000D02*
X123809050Y-94086390D01*
X117950000Y-95750000D02*
X119659772Y-95750000D01*
X121659772Y-95750000D02*
X122145440Y-95750000D01*
X119879772Y-95530000D02*
X119879772Y-94200000D01*
X123150000Y-92100000D02*
X123150000Y-90700000D01*
X119879772Y-94200000D02*
G75*
G02*
X120459772Y-93619972I580028J0D01*
G01*
X121239772Y-95530000D02*
G75*
G03*
X121459772Y-95750028I220028J0D01*
G01*
X119659772Y-95750000D02*
G75*
G03*
X119879800Y-95530000I28J220000D01*
G01*
X120659772Y-93620000D02*
G75*
G02*
X121239800Y-94200000I28J-580000D01*
G01*
G04 #@! TA.AperFunction,Conductor*
G36*
X95605703Y-126085483D02*
G01*
X95636881Y-126126790D01*
X95661608Y-126179816D01*
X95725965Y-126317830D01*
X95725967Y-126317834D01*
X95812857Y-126441925D01*
X95861505Y-126511401D01*
X96028599Y-126678495D01*
X96125384Y-126746265D01*
X96222165Y-126814032D01*
X96222167Y-126814033D01*
X96222170Y-126814035D01*
X96436337Y-126913903D01*
X96664592Y-126975063D01*
X96841034Y-126990500D01*
X96899999Y-126995659D01*
X96900000Y-126995659D01*
X96900001Y-126995659D01*
X96958966Y-126990500D01*
X97135408Y-126975063D01*
X97363663Y-126913903D01*
X97577830Y-126814035D01*
X97771401Y-126678495D01*
X97893329Y-126556566D01*
X97954648Y-126523084D01*
X98024340Y-126528068D01*
X98080274Y-126569939D01*
X98097189Y-126600917D01*
X98146202Y-126732328D01*
X98146206Y-126732335D01*
X98232452Y-126847544D01*
X98232455Y-126847547D01*
X98347664Y-126933793D01*
X98347671Y-126933797D01*
X98482517Y-126984091D01*
X98482516Y-126984091D01*
X98489444Y-126984835D01*
X98542127Y-126990500D01*
X100337872Y-126990499D01*
X100397483Y-126984091D01*
X100397485Y-126984090D01*
X100397487Y-126984090D01*
X100405031Y-126982308D01*
X100405390Y-126983827D01*
X100466167Y-126979475D01*
X100527493Y-127012955D01*
X100560984Y-127074275D01*
X100563223Y-127088488D01*
X100563975Y-127096129D01*
X100621187Y-127284730D01*
X100709524Y-127449996D01*
X100714090Y-127458538D01*
X100721350Y-127467385D01*
X100748666Y-127531691D01*
X100749500Y-127546052D01*
X100749500Y-128778846D01*
X100780261Y-128933489D01*
X100780264Y-128933501D01*
X100840602Y-129079172D01*
X100840609Y-129079185D01*
X100928210Y-129210288D01*
X100928213Y-129210292D01*
X101299781Y-129581859D01*
X101528211Y-129810289D01*
X102190711Y-130472789D01*
X102302211Y-130584289D01*
X102302212Y-130584290D01*
X102433315Y-130671890D01*
X102433321Y-130671894D01*
X102536333Y-130714562D01*
X102579002Y-130732237D01*
X102733652Y-130762999D01*
X102733655Y-130763000D01*
X102733657Y-130763000D01*
X102733658Y-130763000D01*
X125534188Y-130763000D01*
X125601227Y-130782685D01*
X125634506Y-130814115D01*
X125785132Y-131021435D01*
X125785136Y-131021440D01*
X125966059Y-131202363D01*
X125966064Y-131202367D01*
X126146607Y-131333538D01*
X126173053Y-131352752D01*
X126322080Y-131428685D01*
X126401024Y-131468910D01*
X126401027Y-131468911D01*
X126466700Y-131490249D01*
X126644361Y-131547974D01*
X126897070Y-131588000D01*
X126897071Y-131588000D01*
X129402929Y-131588000D01*
X129402930Y-131588000D01*
X129655639Y-131547974D01*
X129898975Y-131468910D01*
X130126947Y-131352752D01*
X130333942Y-131202362D01*
X130514862Y-131021442D01*
X130665252Y-130814447D01*
X130781410Y-130586475D01*
X130860474Y-130343139D01*
X130900500Y-130090430D01*
X130900500Y-129834570D01*
X130860474Y-129581861D01*
X130781410Y-129338525D01*
X130781410Y-129338524D01*
X130735310Y-129248049D01*
X130665252Y-129110553D01*
X130642458Y-129079179D01*
X130528542Y-128922385D01*
X130505062Y-128856578D01*
X130520888Y-128788525D01*
X130570994Y-128739830D01*
X130628860Y-128725500D01*
X135901334Y-128725500D01*
X135968373Y-128745185D01*
X136014128Y-128797989D01*
X136024072Y-128867147D01*
X135995047Y-128930703D01*
X135989015Y-128937181D01*
X135885136Y-129041059D01*
X135885132Y-129041064D01*
X135734750Y-129248049D01*
X135618589Y-129476024D01*
X135618588Y-129476027D01*
X135539526Y-129719359D01*
X135499500Y-129972070D01*
X135499500Y-130227929D01*
X135539526Y-130480640D01*
X135618588Y-130723972D01*
X135618589Y-130723975D01*
X135664688Y-130814447D01*
X135712839Y-130908949D01*
X135734750Y-130951950D01*
X135885132Y-131158935D01*
X135885136Y-131158940D01*
X136066059Y-131339863D01*
X136066064Y-131339867D01*
X136246607Y-131471038D01*
X136273053Y-131490252D01*
X136422080Y-131566185D01*
X136501024Y-131606410D01*
X136501027Y-131606411D01*
X136622693Y-131645942D01*
X136744361Y-131685474D01*
X136997070Y-131725500D01*
X136997071Y-131725500D01*
X139502929Y-131725500D01*
X139502930Y-131725500D01*
X139755639Y-131685474D01*
X139998975Y-131606410D01*
X140226947Y-131490252D01*
X140433942Y-131339862D01*
X140614862Y-131158942D01*
X140629637Y-131138605D01*
X140765494Y-130951615D01*
X140820824Y-130908949D01*
X140865812Y-130900500D01*
X145978844Y-130900500D01*
X145978845Y-130900499D01*
X146133497Y-130869737D01*
X146266980Y-130814447D01*
X146279172Y-130809397D01*
X146279172Y-130809396D01*
X146279179Y-130809394D01*
X146410289Y-130721789D01*
X148562819Y-128569257D01*
X148624142Y-128535773D01*
X148693834Y-128540757D01*
X148749767Y-128582629D01*
X148774184Y-128648093D01*
X148774500Y-128656939D01*
X148774500Y-133585994D01*
X148754815Y-133653033D01*
X148738181Y-133673675D01*
X146923675Y-135488181D01*
X146862352Y-135521666D01*
X146835994Y-135524500D01*
X140811321Y-135524500D01*
X140744282Y-135504815D01*
X140711004Y-135473387D01*
X140614862Y-135341058D01*
X140433942Y-135160138D01*
X140433940Y-135160136D01*
X140433935Y-135160132D01*
X140226950Y-135009750D01*
X140226949Y-135009749D01*
X140226947Y-135009748D01*
X140142736Y-134966840D01*
X139998975Y-134893589D01*
X139998972Y-134893588D01*
X139755640Y-134814526D01*
X139592230Y-134788644D01*
X139502930Y-134774500D01*
X136997070Y-134774500D01*
X136912833Y-134787842D01*
X136744359Y-134814526D01*
X136501027Y-134893588D01*
X136501024Y-134893589D01*
X136273049Y-135009750D01*
X136066064Y-135160132D01*
X136066059Y-135160136D01*
X135885142Y-135341053D01*
X135883022Y-135343536D01*
X135881979Y-135344216D01*
X135881693Y-135344503D01*
X135881632Y-135344442D01*
X135824513Y-135381726D01*
X135788735Y-135387000D01*
X130711321Y-135387000D01*
X130644282Y-135367315D01*
X130611004Y-135335887D01*
X130514862Y-135203558D01*
X130333942Y-135022638D01*
X130333940Y-135022636D01*
X130333935Y-135022632D01*
X130126950Y-134872250D01*
X130126949Y-134872249D01*
X130126947Y-134872248D01*
X130013662Y-134814526D01*
X129898975Y-134756089D01*
X129898972Y-134756088D01*
X129655640Y-134677026D01*
X129529284Y-134657013D01*
X129402930Y-134637000D01*
X126897070Y-134637000D01*
X126812833Y-134650342D01*
X126644359Y-134677026D01*
X126401027Y-134756088D01*
X126401024Y-134756089D01*
X126173049Y-134872250D01*
X125966064Y-135022632D01*
X125966059Y-135022636D01*
X125785136Y-135203559D01*
X125785132Y-135203564D01*
X125634750Y-135410549D01*
X125518589Y-135638524D01*
X125518588Y-135638527D01*
X125439526Y-135881859D01*
X125399500Y-136134570D01*
X125399500Y-136390429D01*
X125439526Y-136643140D01*
X125518588Y-136886472D01*
X125518589Y-136886475D01*
X125634750Y-137114450D01*
X125785132Y-137321435D01*
X125785136Y-137321440D01*
X125966059Y-137502363D01*
X125966064Y-137502367D01*
X126146607Y-137633538D01*
X126173053Y-137652752D01*
X126322080Y-137728685D01*
X126401024Y-137768910D01*
X126401027Y-137768911D01*
X126466700Y-137790249D01*
X126644361Y-137847974D01*
X126897070Y-137888000D01*
X126897071Y-137888000D01*
X129402929Y-137888000D01*
X129402930Y-137888000D01*
X129655639Y-137847974D01*
X129898975Y-137768910D01*
X130126947Y-137652752D01*
X130333942Y-137502362D01*
X130514862Y-137321442D01*
X130611004Y-137189113D01*
X130666332Y-137146449D01*
X130711321Y-137138000D01*
X135600702Y-137138000D01*
X135667741Y-137157685D01*
X135711187Y-137205706D01*
X135734748Y-137251948D01*
X135885132Y-137458935D01*
X135885136Y-137458940D01*
X136066059Y-137639863D01*
X136066064Y-137639867D01*
X136246607Y-137771038D01*
X136273053Y-137790252D01*
X136422080Y-137866185D01*
X136501024Y-137906410D01*
X136501027Y-137906411D01*
X136622693Y-137945942D01*
X136744361Y-137985474D01*
X136997070Y-138025500D01*
X136997071Y-138025500D01*
X139502929Y-138025500D01*
X139502930Y-138025500D01*
X139755639Y-137985474D01*
X139998975Y-137906410D01*
X140226947Y-137790252D01*
X140433942Y-137639862D01*
X140614862Y-137458942D01*
X140711004Y-137326613D01*
X140766332Y-137283949D01*
X140811321Y-137275500D01*
X147336231Y-137275500D01*
X147336232Y-137275499D01*
X147505374Y-137241855D01*
X147664705Y-137175858D01*
X147808099Y-137080045D01*
X149887819Y-135000325D01*
X149949142Y-134966840D01*
X150018834Y-134971824D01*
X150074767Y-135013696D01*
X150099184Y-135079160D01*
X150099500Y-135088006D01*
X150099500Y-143525500D01*
X150079815Y-143592539D01*
X150027011Y-143638294D01*
X149975500Y-143649500D01*
X95524500Y-143649500D01*
X95457461Y-143629815D01*
X95411706Y-143577011D01*
X95400500Y-143525500D01*
X95400500Y-126179196D01*
X95420185Y-126112157D01*
X95472989Y-126066402D01*
X95542147Y-126056458D01*
X95605703Y-126085483D01*
G37*
G04 #@! TD.AperFunction*
G04 #@! TA.AperFunction,Conductor*
G36*
X145238048Y-92444836D02*
G01*
X145248946Y-92457414D01*
X145277573Y-92495322D01*
X145277576Y-92495325D01*
X145277578Y-92495327D01*
X145344611Y-92556435D01*
X145438568Y-92642088D01*
X145438570Y-92642089D01*
X145438576Y-92642093D01*
X145623786Y-92756770D01*
X145623792Y-92756773D01*
X145637187Y-92761962D01*
X145826931Y-92835470D01*
X146041074Y-92875500D01*
X146041076Y-92875500D01*
X146258924Y-92875500D01*
X146258926Y-92875500D01*
X146473069Y-92835470D01*
X146676210Y-92756772D01*
X146861432Y-92642088D01*
X147022427Y-92495322D01*
X147026547Y-92489865D01*
X147082653Y-92448231D01*
X147152364Y-92443538D01*
X147213547Y-92477279D01*
X147246775Y-92538742D01*
X147249500Y-92564593D01*
X147249500Y-96628846D01*
X147280261Y-96783489D01*
X147280264Y-96783501D01*
X147340602Y-96929172D01*
X147340609Y-96929185D01*
X147428210Y-97060288D01*
X147428213Y-97060292D01*
X147813181Y-97445259D01*
X147846666Y-97506582D01*
X147849500Y-97532940D01*
X147849500Y-112349441D01*
X147829815Y-112416480D01*
X147777011Y-112462235D01*
X147707853Y-112472179D01*
X147684546Y-112466483D01*
X147679257Y-112464632D01*
X147679249Y-112464630D01*
X147500004Y-112444435D01*
X147499996Y-112444435D01*
X147320750Y-112464630D01*
X147320745Y-112464631D01*
X147150476Y-112524211D01*
X146997737Y-112620184D01*
X146979741Y-112638181D01*
X146918418Y-112671666D01*
X146892060Y-112674500D01*
X146638388Y-112674500D01*
X146608230Y-112680499D01*
X146517555Y-112698535D01*
X146517541Y-112698539D01*
X146488142Y-112710717D01*
X146403718Y-112745685D01*
X146403715Y-112745687D01*
X146383020Y-112759516D01*
X146383018Y-112759517D01*
X146301268Y-112814140D01*
X146257705Y-112857703D01*
X146214142Y-112901267D01*
X145814144Y-113301264D01*
X145814138Y-113301272D01*
X145745690Y-113403708D01*
X145745688Y-113403713D01*
X145721780Y-113461434D01*
X145721780Y-113461435D01*
X145698537Y-113517547D01*
X145698535Y-113517553D01*
X145689949Y-113560719D01*
X145682877Y-113596280D01*
X145682876Y-113596287D01*
X145674500Y-113638392D01*
X145674500Y-125948929D01*
X145654815Y-126015968D01*
X145619393Y-126052030D01*
X145601267Y-126064141D01*
X145578156Y-126087253D01*
X145514142Y-126151267D01*
X145514139Y-126151270D01*
X145154008Y-126511402D01*
X144827229Y-126838181D01*
X144765906Y-126871666D01*
X144739548Y-126874500D01*
X131734855Y-126874500D01*
X131668883Y-126855494D01*
X131539523Y-126774211D01*
X131369254Y-126714631D01*
X131369249Y-126714630D01*
X131190004Y-126694435D01*
X131189996Y-126694435D01*
X131010750Y-126714630D01*
X131010745Y-126714631D01*
X130840476Y-126774211D01*
X130718974Y-126850556D01*
X130651737Y-126869556D01*
X130584902Y-126849188D01*
X130565321Y-126833243D01*
X130552262Y-126820184D01*
X130399523Y-126724211D01*
X130229254Y-126664631D01*
X130229249Y-126664630D01*
X130050004Y-126644435D01*
X130049996Y-126644435D01*
X129870750Y-126664630D01*
X129870745Y-126664631D01*
X129700476Y-126724211D01*
X129547737Y-126820184D01*
X129420184Y-126947737D01*
X129324211Y-127100476D01*
X129264631Y-127270745D01*
X129264630Y-127270750D01*
X129244435Y-127449996D01*
X129244435Y-127450003D01*
X129264630Y-127629249D01*
X129264631Y-127629254D01*
X129324211Y-127799523D01*
X129420184Y-127952262D01*
X129465151Y-127997229D01*
X129492030Y-128037455D01*
X129495686Y-128046281D01*
X129495690Y-128046289D01*
X129518093Y-128079816D01*
X129518094Y-128079818D01*
X129566409Y-128152126D01*
X129587287Y-128218803D01*
X129568803Y-128286184D01*
X129516824Y-128332874D01*
X129447854Y-128344050D01*
X129443917Y-128343491D01*
X129402930Y-128337000D01*
X126897070Y-128337000D01*
X126852559Y-128344050D01*
X126644359Y-128377026D01*
X126401027Y-128456088D01*
X126401024Y-128456089D01*
X126173049Y-128572250D01*
X125966064Y-128722632D01*
X125966059Y-128722636D01*
X125785136Y-128903559D01*
X125785132Y-128903564D01*
X125634506Y-129110885D01*
X125579176Y-129153551D01*
X125534188Y-129162000D01*
X103195440Y-129162000D01*
X103128401Y-129142315D01*
X103107759Y-129125681D01*
X102386819Y-128404741D01*
X102353334Y-128343418D01*
X102350500Y-128317060D01*
X102350500Y-127546052D01*
X102370185Y-127479013D01*
X102378643Y-127467392D01*
X102385910Y-127458538D01*
X102478814Y-127284727D01*
X102536024Y-127096132D01*
X102555341Y-126900000D01*
X102536024Y-126703868D01*
X102504666Y-126600495D01*
X102504043Y-126530628D01*
X102541291Y-126471515D01*
X102604585Y-126441925D01*
X102623327Y-126440500D01*
X109312533Y-126440500D01*
X109370985Y-126455141D01*
X109415273Y-126478814D01*
X109603868Y-126536024D01*
X109800000Y-126555341D01*
X109996132Y-126536024D01*
X110184727Y-126478814D01*
X110198383Y-126471515D01*
X110358532Y-126385913D01*
X110358538Y-126385910D01*
X110510883Y-126260883D01*
X110635910Y-126108538D01*
X110721330Y-125948729D01*
X110728811Y-125934733D01*
X110728811Y-125934732D01*
X110728814Y-125934727D01*
X110786024Y-125746132D01*
X110805341Y-125550000D01*
X110786024Y-125353868D01*
X110728814Y-125165273D01*
X110728811Y-125165269D01*
X110728811Y-125165266D01*
X110635913Y-124991467D01*
X110635909Y-124991460D01*
X110510883Y-124839116D01*
X110358539Y-124714090D01*
X110358532Y-124714086D01*
X110184733Y-124621188D01*
X110184727Y-124621186D01*
X109996132Y-124563976D01*
X109996129Y-124563975D01*
X109800000Y-124544659D01*
X109603870Y-124563975D01*
X109415266Y-124621188D01*
X109241467Y-124714086D01*
X109241460Y-124714090D01*
X109122947Y-124811353D01*
X109058637Y-124838666D01*
X109044282Y-124839500D01*
X100912351Y-124839500D01*
X100845312Y-124819815D01*
X100799557Y-124767011D01*
X100789061Y-124728752D01*
X100784091Y-124682516D01*
X100733797Y-124547671D01*
X100733793Y-124547664D01*
X100647547Y-124432455D01*
X100647544Y-124432452D01*
X100532335Y-124346206D01*
X100532328Y-124346202D01*
X100400917Y-124297189D01*
X100344983Y-124255318D01*
X100320566Y-124189853D01*
X100335418Y-124121580D01*
X100356563Y-124093332D01*
X100478495Y-123971401D01*
X100543631Y-123878376D01*
X100598208Y-123834752D01*
X100645206Y-123825500D01*
X127389548Y-123825500D01*
X127456587Y-123845185D01*
X127477229Y-123861819D01*
X129561016Y-125945606D01*
X129561045Y-125945637D01*
X129651264Y-126035856D01*
X129651267Y-126035858D01*
X129728190Y-126087256D01*
X129753710Y-126104309D01*
X129753712Y-126104310D01*
X129753715Y-126104312D01*
X129816367Y-126130263D01*
X129867548Y-126151463D01*
X129911921Y-126160289D01*
X129988391Y-126175499D01*
X129988392Y-126175500D01*
X129988393Y-126175500D01*
X129988394Y-126175500D01*
X130755145Y-126175500D01*
X130821116Y-126194505D01*
X130950478Y-126275789D01*
X131070636Y-126317834D01*
X131120745Y-126335368D01*
X131120750Y-126335369D01*
X131299996Y-126355565D01*
X131300000Y-126355565D01*
X131300004Y-126355565D01*
X131479249Y-126335369D01*
X131479252Y-126335368D01*
X131479255Y-126335368D01*
X131649522Y-126275789D01*
X131802262Y-126179816D01*
X131929816Y-126052262D01*
X132025789Y-125899522D01*
X132085368Y-125729255D01*
X132101552Y-125585617D01*
X132128618Y-125521203D01*
X132186213Y-125481648D01*
X132224772Y-125475500D01*
X133361607Y-125475500D01*
X133422029Y-125463481D01*
X133482452Y-125451463D01*
X133482455Y-125451461D01*
X133482458Y-125451461D01*
X133515787Y-125437654D01*
X133515786Y-125437654D01*
X133515792Y-125437652D01*
X133596286Y-125404312D01*
X133660198Y-125361606D01*
X133698733Y-125335858D01*
X133785858Y-125248733D01*
X133785859Y-125248731D01*
X133792925Y-125241665D01*
X133792928Y-125241661D01*
X134298729Y-124735860D01*
X134298733Y-124735858D01*
X134385858Y-124648733D01*
X134420084Y-124597509D01*
X134454312Y-124546286D01*
X134491850Y-124455659D01*
X134501463Y-124432452D01*
X134525500Y-124311606D01*
X134525500Y-122894854D01*
X134544507Y-122828881D01*
X134625788Y-122699524D01*
X134625789Y-122699522D01*
X134685368Y-122529255D01*
X134691392Y-122475789D01*
X134705565Y-122350003D01*
X134705565Y-122349996D01*
X134685369Y-122170750D01*
X134685368Y-122170745D01*
X134625789Y-122000478D01*
X134529816Y-121847738D01*
X134402262Y-121720184D01*
X134338017Y-121679816D01*
X134249523Y-121624211D01*
X134079254Y-121564631D01*
X134079249Y-121564630D01*
X133900004Y-121544435D01*
X133899996Y-121544435D01*
X133720750Y-121564630D01*
X133720745Y-121564631D01*
X133550476Y-121624211D01*
X133397737Y-121720184D01*
X133270184Y-121847737D01*
X133174211Y-122000476D01*
X133114631Y-122170745D01*
X133114630Y-122170750D01*
X133094435Y-122349996D01*
X133094435Y-122350003D01*
X133114630Y-122529249D01*
X133114631Y-122529254D01*
X133174211Y-122699524D01*
X133255493Y-122828881D01*
X133274500Y-122894854D01*
X133274500Y-123939548D01*
X133254815Y-124006587D01*
X133238181Y-124027229D01*
X133077229Y-124188181D01*
X133015906Y-124221666D01*
X132989548Y-124224500D01*
X130360452Y-124224500D01*
X130293413Y-124204815D01*
X130272771Y-124188181D01*
X128340198Y-122255608D01*
X128340178Y-122255586D01*
X128248733Y-122164141D01*
X128197509Y-122129915D01*
X128152025Y-122099523D01*
X128146286Y-122095688D01*
X128061857Y-122060717D01*
X128061855Y-122060715D01*
X128032455Y-122048538D01*
X128032453Y-122048537D01*
X128032452Y-122048537D01*
X127972029Y-122036518D01*
X127911610Y-122024500D01*
X127911607Y-122024500D01*
X127911606Y-122024500D01*
X116795922Y-122024500D01*
X116728883Y-122004815D01*
X116683128Y-121952011D01*
X116673184Y-121882853D01*
X116702209Y-121819297D01*
X116759924Y-121781840D01*
X116934727Y-121728814D01*
X116936028Y-121728119D01*
X117026398Y-121679815D01*
X117108538Y-121635910D01*
X117117387Y-121628647D01*
X117181696Y-121601334D01*
X117196053Y-121600500D01*
X126328844Y-121600500D01*
X126328845Y-121600499D01*
X126483497Y-121569737D01*
X126629179Y-121509394D01*
X126760289Y-121421789D01*
X127109211Y-121072865D01*
X127170530Y-121039383D01*
X127184737Y-121037146D01*
X127196132Y-121036024D01*
X127384727Y-120978814D01*
X127419741Y-120960099D01*
X127558532Y-120885913D01*
X127558538Y-120885910D01*
X127710883Y-120760883D01*
X127835910Y-120608538D01*
X127928814Y-120434727D01*
X127960588Y-120329980D01*
X127998885Y-120271544D01*
X128062697Y-120243088D01*
X128131764Y-120253648D01*
X128166929Y-120278297D01*
X128971586Y-121082954D01*
X128994122Y-121098011D01*
X129038541Y-121127690D01*
X129094505Y-121165084D01*
X129094507Y-121165085D01*
X129094511Y-121165087D01*
X129231082Y-121221656D01*
X129231087Y-121221658D01*
X129231091Y-121221658D01*
X129231092Y-121221659D01*
X129376079Y-121250500D01*
X129376082Y-121250500D01*
X129376083Y-121250500D01*
X129523917Y-121250500D01*
X134593022Y-121250500D01*
X134660061Y-121270185D01*
X134671687Y-121278647D01*
X134741460Y-121335909D01*
X134741467Y-121335913D01*
X134915266Y-121428811D01*
X134915269Y-121428811D01*
X134915273Y-121428814D01*
X135103868Y-121486024D01*
X135300000Y-121505341D01*
X135496132Y-121486024D01*
X135684727Y-121428814D01*
X135739529Y-121399522D01*
X135858532Y-121335913D01*
X135858538Y-121335910D01*
X136010883Y-121210883D01*
X136135910Y-121058538D01*
X136228814Y-120884727D01*
X136286024Y-120696132D01*
X136305341Y-120500000D01*
X136286024Y-120303868D01*
X136228814Y-120115273D01*
X136228811Y-120115269D01*
X136228811Y-120115266D01*
X136135913Y-119941467D01*
X136135909Y-119941460D01*
X136010883Y-119789116D01*
X135858539Y-119664090D01*
X135858532Y-119664086D01*
X135684733Y-119571188D01*
X135684727Y-119571186D01*
X135496132Y-119513976D01*
X135496129Y-119513975D01*
X135300000Y-119494659D01*
X135103870Y-119513975D01*
X134915266Y-119571188D01*
X134741467Y-119664086D01*
X134741460Y-119664090D01*
X134671687Y-119721353D01*
X134607377Y-119748666D01*
X134593022Y-119749500D01*
X129812230Y-119749500D01*
X129745191Y-119729815D01*
X129724549Y-119713181D01*
X128828416Y-118817048D01*
X128328421Y-118317052D01*
X128328414Y-118317046D01*
X128254729Y-118267812D01*
X128254729Y-118267813D01*
X128205491Y-118234913D01*
X128068917Y-118178343D01*
X128068907Y-118178340D01*
X127923920Y-118149500D01*
X127923918Y-118149500D01*
X126923918Y-118149500D01*
X124776082Y-118149500D01*
X124776080Y-118149500D01*
X124631092Y-118178340D01*
X124631086Y-118178342D01*
X124494508Y-118234914D01*
X124494496Y-118234921D01*
X124445269Y-118267813D01*
X124371588Y-118317044D01*
X124371586Y-118317046D01*
X124371584Y-118317047D01*
X124371584Y-118317048D01*
X124275449Y-118413182D01*
X124214129Y-118446666D01*
X124187770Y-118449500D01*
X118456978Y-118449500D01*
X118389939Y-118429815D01*
X118378313Y-118421353D01*
X118308539Y-118364090D01*
X118308532Y-118364086D01*
X118134733Y-118271188D01*
X118134727Y-118271186D01*
X117946132Y-118213976D01*
X117946129Y-118213975D01*
X117750000Y-118194659D01*
X117553870Y-118213975D01*
X117365266Y-118271188D01*
X117191467Y-118364086D01*
X117191460Y-118364090D01*
X117039116Y-118489116D01*
X116914090Y-118641460D01*
X116914086Y-118641467D01*
X116821188Y-118815266D01*
X116763975Y-119003870D01*
X116744659Y-119200000D01*
X116763975Y-119396129D01*
X116763976Y-119396132D01*
X116817755Y-119573418D01*
X116821188Y-119584733D01*
X116845343Y-119629923D01*
X116859585Y-119698326D01*
X116834585Y-119763570D01*
X116778280Y-119804940D01*
X116723831Y-119811779D01*
X116550000Y-119794659D01*
X116353870Y-119813975D01*
X116165266Y-119871188D01*
X115991467Y-119964086D01*
X115991460Y-119964090D01*
X115839116Y-120089116D01*
X115714090Y-120241460D01*
X115714086Y-120241467D01*
X115621188Y-120415266D01*
X115563975Y-120603870D01*
X115544659Y-120800000D01*
X115563975Y-120996129D01*
X115621188Y-121184733D01*
X115714086Y-121358532D01*
X115714090Y-121358539D01*
X115839116Y-121510883D01*
X115991460Y-121635909D01*
X115991467Y-121635913D01*
X116165266Y-121728811D01*
X116165269Y-121728811D01*
X116165273Y-121728814D01*
X116340075Y-121781840D01*
X116398512Y-121820137D01*
X116426969Y-121883949D01*
X116416408Y-121953016D01*
X116370184Y-122005410D01*
X116304078Y-122024500D01*
X104810453Y-122024500D01*
X104743414Y-122004815D01*
X104722772Y-121988181D01*
X101642928Y-118908338D01*
X101642925Y-118908334D01*
X101642925Y-118908335D01*
X101635858Y-118901268D01*
X101635858Y-118901267D01*
X101548733Y-118814142D01*
X101548732Y-118814141D01*
X101548731Y-118814140D01*
X101491334Y-118775789D01*
X101491333Y-118775788D01*
X101446290Y-118745690D01*
X101446286Y-118745688D01*
X101365792Y-118712347D01*
X101332453Y-118698537D01*
X101322427Y-118696543D01*
X101272029Y-118686518D01*
X101211610Y-118674500D01*
X101211607Y-118674500D01*
X101211606Y-118674500D01*
X100819555Y-118674500D01*
X100752516Y-118654815D01*
X100706761Y-118602011D01*
X100696817Y-118532853D01*
X100707173Y-118498095D01*
X100709942Y-118492157D01*
X100713903Y-118483663D01*
X100775063Y-118255408D01*
X100795659Y-118020000D01*
X100775063Y-117784592D01*
X100721813Y-117585857D01*
X100713905Y-117556344D01*
X100713904Y-117556343D01*
X100713903Y-117556337D01*
X100614035Y-117342171D01*
X100608425Y-117334158D01*
X100478494Y-117148597D01*
X100311402Y-116981506D01*
X100311401Y-116981505D01*
X100125405Y-116851269D01*
X100081781Y-116796692D01*
X100074588Y-116727193D01*
X100106110Y-116664839D01*
X100125405Y-116648119D01*
X100311082Y-116518105D01*
X100478105Y-116351082D01*
X100613600Y-116157578D01*
X100713429Y-115943492D01*
X100713432Y-115943486D01*
X100770636Y-115730000D01*
X99873012Y-115730000D01*
X99905925Y-115672993D01*
X99940000Y-115545826D01*
X99940000Y-115414174D01*
X99905925Y-115287007D01*
X99873012Y-115230000D01*
X100770636Y-115230000D01*
X100770635Y-115229999D01*
X100734932Y-115096753D01*
X100736595Y-115026903D01*
X100775757Y-114969040D01*
X100839985Y-114941536D01*
X100908888Y-114953122D01*
X100942388Y-114976978D01*
X103461016Y-117495606D01*
X103461045Y-117495637D01*
X103551264Y-117585856D01*
X103551267Y-117585858D01*
X103602490Y-117620084D01*
X103653714Y-117654312D01*
X103729872Y-117685857D01*
X103767548Y-117701463D01*
X103827971Y-117713481D01*
X103888393Y-117725500D01*
X107411607Y-117725500D01*
X107472029Y-117713481D01*
X107532452Y-117701463D01*
X107570128Y-117685857D01*
X107646286Y-117654312D01*
X107697509Y-117620084D01*
X107697511Y-117620083D01*
X107720385Y-117604799D01*
X107748733Y-117585858D01*
X107835858Y-117498733D01*
X107835859Y-117498731D01*
X107842925Y-117491665D01*
X107842928Y-117491661D01*
X108684593Y-116649996D01*
X122444435Y-116649996D01*
X122444435Y-116650003D01*
X122464630Y-116829249D01*
X122464631Y-116829254D01*
X122524211Y-116999523D01*
X122611470Y-117138394D01*
X122620184Y-117152262D01*
X122747738Y-117279816D01*
X122900478Y-117375789D01*
X123034745Y-117422771D01*
X123070745Y-117435368D01*
X123070750Y-117435369D01*
X123249996Y-117455565D01*
X123250000Y-117455565D01*
X123250004Y-117455565D01*
X123429249Y-117435369D01*
X123429252Y-117435368D01*
X123429255Y-117435368D01*
X123599522Y-117375789D01*
X123728883Y-117294505D01*
X123794855Y-117275500D01*
X131289548Y-117275500D01*
X131356587Y-117295185D01*
X131377229Y-117311819D01*
X131488181Y-117422771D01*
X131521666Y-117484094D01*
X131524500Y-117510452D01*
X131524500Y-117555145D01*
X131505494Y-117621117D01*
X131424211Y-117750476D01*
X131364631Y-117920745D01*
X131364630Y-117920750D01*
X131344435Y-118099996D01*
X131344435Y-118100003D01*
X131364630Y-118279249D01*
X131364631Y-118279254D01*
X131424211Y-118449523D01*
X131476571Y-118532853D01*
X131520184Y-118602262D01*
X131647738Y-118729816D01*
X131720902Y-118775788D01*
X131786566Y-118817048D01*
X131800478Y-118825789D01*
X131917984Y-118866906D01*
X131970745Y-118885368D01*
X131970750Y-118885369D01*
X132149996Y-118905565D01*
X132150000Y-118905565D01*
X132150004Y-118905565D01*
X132329249Y-118885369D01*
X132329252Y-118885368D01*
X132329255Y-118885368D01*
X132499522Y-118825789D01*
X132652262Y-118729816D01*
X132779816Y-118602262D01*
X132875789Y-118449522D01*
X132935368Y-118279255D01*
X132936277Y-118271186D01*
X132955565Y-118100003D01*
X132955565Y-118099996D01*
X132935369Y-117920750D01*
X132935368Y-117920745D01*
X132875789Y-117750478D01*
X132815364Y-117654313D01*
X132794506Y-117621117D01*
X132775500Y-117555145D01*
X132775500Y-117138393D01*
X132775499Y-117138389D01*
X132751464Y-117017555D01*
X132751463Y-117017548D01*
X132704311Y-116903714D01*
X132704310Y-116903713D01*
X132704307Y-116903707D01*
X132635859Y-116801268D01*
X132606786Y-116772195D01*
X132548733Y-116714142D01*
X132548732Y-116714141D01*
X132092927Y-116258337D01*
X132092925Y-116258334D01*
X132092925Y-116258335D01*
X132085858Y-116251268D01*
X132085858Y-116251267D01*
X132034587Y-116199996D01*
X137344435Y-116199996D01*
X137344435Y-116200003D01*
X137364630Y-116379249D01*
X137364631Y-116379254D01*
X137424211Y-116549523D01*
X137496862Y-116665145D01*
X137520184Y-116702262D01*
X137647738Y-116829816D01*
X137781473Y-116913847D01*
X137827763Y-116966181D01*
X137839500Y-117018840D01*
X137839500Y-119550986D01*
X137852083Y-119597949D01*
X137852084Y-119597949D01*
X137870123Y-119665273D01*
X137879061Y-119698628D01*
X137955481Y-119830991D01*
X137955486Y-119830997D01*
X138253181Y-120128692D01*
X138286666Y-120190015D01*
X138289500Y-120216373D01*
X138289500Y-121684804D01*
X138269815Y-121751843D01*
X138217011Y-121797598D01*
X138179384Y-121808024D01*
X138120749Y-121814630D01*
X138120745Y-121814631D01*
X137950476Y-121874211D01*
X137797737Y-121970184D01*
X137670184Y-122097737D01*
X137574211Y-122250476D01*
X137514631Y-122420745D01*
X137514630Y-122420750D01*
X137494435Y-122599996D01*
X137494435Y-122600003D01*
X137514630Y-122779249D01*
X137514631Y-122779254D01*
X137574211Y-122949523D01*
X137670184Y-123102262D01*
X137797740Y-123229818D01*
X137842728Y-123258085D01*
X137889020Y-123310419D01*
X137899977Y-123349195D01*
X137914630Y-123479250D01*
X137914631Y-123479254D01*
X137974211Y-123649523D01*
X138027935Y-123735023D01*
X138070184Y-123802262D01*
X138197738Y-123929816D01*
X138350478Y-124025789D01*
X138520745Y-124085368D01*
X138520750Y-124085369D01*
X138699996Y-124105565D01*
X138700000Y-124105565D01*
X138700004Y-124105565D01*
X138879249Y-124085369D01*
X138879252Y-124085368D01*
X138879255Y-124085368D01*
X139049522Y-124025789D01*
X139202262Y-123929816D01*
X139329816Y-123802262D01*
X139425789Y-123649522D01*
X139485368Y-123479255D01*
X139505565Y-123300000D01*
X139504573Y-123291197D01*
X139485369Y-123120750D01*
X139483818Y-123113953D01*
X139485228Y-123113631D01*
X139480500Y-123085762D01*
X139480500Y-122946372D01*
X139500185Y-122879333D01*
X139516819Y-122858691D01*
X139694512Y-122680998D01*
X139694515Y-122680995D01*
X139702029Y-122667980D01*
X139718210Y-122639957D01*
X139752538Y-122580495D01*
X139770940Y-122548624D01*
X139799193Y-122443182D01*
X139810500Y-122400984D01*
X139810500Y-122248135D01*
X139810500Y-121641940D01*
X139830185Y-121574901D01*
X139882989Y-121529146D01*
X139952147Y-121519202D01*
X140015703Y-121548227D01*
X140022181Y-121554259D01*
X140147738Y-121679816D01*
X140224612Y-121728119D01*
X140246538Y-121741896D01*
X140292829Y-121794231D01*
X140303786Y-121833006D01*
X140314630Y-121929249D01*
X140374210Y-122099521D01*
X140467591Y-122248135D01*
X140470184Y-122252262D01*
X140597738Y-122379816D01*
X140652393Y-122414158D01*
X140721821Y-122457783D01*
X140750478Y-122475789D01*
X140903258Y-122529249D01*
X140920745Y-122535368D01*
X140920750Y-122535369D01*
X141099996Y-122555565D01*
X141100000Y-122555565D01*
X141100004Y-122555565D01*
X141279249Y-122535369D01*
X141279252Y-122535368D01*
X141279255Y-122535368D01*
X141449522Y-122475789D01*
X141602262Y-122379816D01*
X141729816Y-122252262D01*
X141825789Y-122099522D01*
X141885368Y-121929255D01*
X141885739Y-121925965D01*
X141905565Y-121750003D01*
X141905565Y-121749996D01*
X141885369Y-121570750D01*
X141885366Y-121570737D01*
X141825790Y-121400481D01*
X141825789Y-121400478D01*
X141799437Y-121358539D01*
X141779506Y-121326818D01*
X141760500Y-121260846D01*
X141760500Y-120949362D01*
X141780185Y-120882323D01*
X141832989Y-120836568D01*
X141902147Y-120826624D01*
X141950473Y-120844369D01*
X142000475Y-120875788D01*
X142170745Y-120935368D01*
X142170750Y-120935369D01*
X142349996Y-120955565D01*
X142350000Y-120955565D01*
X142350004Y-120955565D01*
X142529249Y-120935369D01*
X142529252Y-120935368D01*
X142529255Y-120935368D01*
X142699522Y-120875789D01*
X142852262Y-120779816D01*
X142979816Y-120652262D01*
X143075789Y-120499522D01*
X143135368Y-120329255D01*
X143135893Y-120324596D01*
X143155565Y-120150003D01*
X143155565Y-120149996D01*
X143135369Y-119970750D01*
X143135368Y-119970745D01*
X143132245Y-119961819D01*
X143075789Y-119800478D01*
X143070554Y-119792147D01*
X143011790Y-119698625D01*
X142979816Y-119647738D01*
X142966819Y-119634741D01*
X142933334Y-119573418D01*
X142930500Y-119547060D01*
X142930500Y-119430511D01*
X142950185Y-119363472D01*
X143002989Y-119317717D01*
X143072147Y-119307773D01*
X143120471Y-119325517D01*
X143148445Y-119343094D01*
X143200475Y-119375788D01*
X143370745Y-119435368D01*
X143370750Y-119435369D01*
X143549996Y-119455565D01*
X143550000Y-119455565D01*
X143550004Y-119455565D01*
X143729249Y-119435369D01*
X143729252Y-119435368D01*
X143729255Y-119435368D01*
X143899522Y-119375789D01*
X144052262Y-119279816D01*
X144179816Y-119152262D01*
X144275789Y-118999522D01*
X144335368Y-118829255D01*
X144335759Y-118825788D01*
X144355565Y-118650003D01*
X144355565Y-118649996D01*
X144335369Y-118470750D01*
X144335368Y-118470745D01*
X144281586Y-118317046D01*
X144275789Y-118300478D01*
X144247466Y-118255403D01*
X144221436Y-118213976D01*
X144179816Y-118147738D01*
X144179815Y-118147737D01*
X144175475Y-118142295D01*
X144177917Y-118140347D01*
X144151038Y-118091122D01*
X144156022Y-118021430D01*
X144197894Y-117965497D01*
X144263358Y-117941080D01*
X144313159Y-117947722D01*
X144420745Y-117985368D01*
X144420750Y-117985369D01*
X144599996Y-118005565D01*
X144600000Y-118005565D01*
X144600004Y-118005565D01*
X144779249Y-117985369D01*
X144779252Y-117985368D01*
X144779255Y-117985368D01*
X144949522Y-117925789D01*
X145102262Y-117829816D01*
X145229816Y-117702262D01*
X145325789Y-117549522D01*
X145385368Y-117379255D01*
X145388275Y-117353454D01*
X145405565Y-117200003D01*
X145405565Y-117199996D01*
X145385369Y-117020750D01*
X145385366Y-117020737D01*
X145360218Y-116948869D01*
X145356656Y-116879090D01*
X145369878Y-116845904D01*
X145370940Y-116844065D01*
X145408936Y-116702262D01*
X145410500Y-116696425D01*
X145410500Y-116543575D01*
X145410500Y-110349016D01*
X145404522Y-110326707D01*
X145370940Y-110201375D01*
X145330554Y-110131425D01*
X145294516Y-110069005D01*
X145186435Y-109960924D01*
X144455996Y-109230485D01*
X144455995Y-109230484D01*
X144455993Y-109230483D01*
X144455991Y-109230481D01*
X144323628Y-109154061D01*
X144323629Y-109154061D01*
X144301575Y-109148151D01*
X144219265Y-109126097D01*
X144219263Y-109126096D01*
X144219261Y-109126095D01*
X144175986Y-109114500D01*
X144175985Y-109114500D01*
X144175984Y-109114500D01*
X143371715Y-109114500D01*
X143304676Y-109094815D01*
X143266721Y-109056472D01*
X143229816Y-108997738D01*
X143102262Y-108870184D01*
X142949523Y-108774211D01*
X142779254Y-108714631D01*
X142779249Y-108714630D01*
X142600004Y-108694435D01*
X142599996Y-108694435D01*
X142420750Y-108714630D01*
X142420745Y-108714631D01*
X142250476Y-108774211D01*
X142097737Y-108870184D01*
X141970184Y-108997737D01*
X141874211Y-109150476D01*
X141814631Y-109320745D01*
X141814630Y-109320750D01*
X141794435Y-109499996D01*
X141794435Y-109500003D01*
X141814630Y-109679249D01*
X141814632Y-109679257D01*
X141859293Y-109806892D01*
X141862854Y-109876671D01*
X141847246Y-109913816D01*
X141824209Y-109950479D01*
X141764633Y-110120737D01*
X141764630Y-110120750D01*
X141744435Y-110299996D01*
X141744435Y-110300003D01*
X141764630Y-110479249D01*
X141764631Y-110479254D01*
X141824211Y-110649523D01*
X141858262Y-110703714D01*
X141920184Y-110802262D01*
X142047738Y-110929816D01*
X142200018Y-111025500D01*
X142200478Y-111025789D01*
X142306046Y-111062729D01*
X142362823Y-111103451D01*
X142388570Y-111168404D01*
X142382134Y-111220723D01*
X142364631Y-111270746D01*
X142364120Y-111272985D01*
X142363394Y-111274282D01*
X142362333Y-111277315D01*
X142361801Y-111277128D01*
X142330001Y-111333958D01*
X142284191Y-111362413D01*
X142250480Y-111374210D01*
X142250475Y-111374212D01*
X142097737Y-111470184D01*
X141970184Y-111597737D01*
X141874211Y-111750476D01*
X141812332Y-111927318D01*
X141811116Y-111926892D01*
X141780570Y-111981496D01*
X141718907Y-112014350D01*
X141649270Y-112008651D01*
X141606112Y-111980601D01*
X141455997Y-111830486D01*
X141455996Y-111830485D01*
X141455995Y-111830484D01*
X141323627Y-111754061D01*
X141323626Y-111754060D01*
X141286714Y-111744170D01*
X141249804Y-111734280D01*
X141249801Y-111734279D01*
X141218603Y-111725919D01*
X141175985Y-111714500D01*
X141175984Y-111714500D01*
X140434535Y-111714500D01*
X140367496Y-111694815D01*
X140332101Y-111654735D01*
X140329494Y-111656374D01*
X140229815Y-111497737D01*
X140102262Y-111370184D01*
X139949523Y-111274211D01*
X139779254Y-111214631D01*
X139779249Y-111214630D01*
X139600004Y-111194435D01*
X139599996Y-111194435D01*
X139420750Y-111214630D01*
X139420745Y-111214631D01*
X139250476Y-111274211D01*
X139097737Y-111370184D01*
X138970184Y-111497737D01*
X138874211Y-111650476D01*
X138814631Y-111820745D01*
X138814630Y-111820750D01*
X138794435Y-111999996D01*
X138794435Y-112000003D01*
X138814630Y-112179249D01*
X138814633Y-112179262D01*
X138874209Y-112349518D01*
X138874211Y-112349522D01*
X138920892Y-112423815D01*
X138939892Y-112491052D01*
X138924679Y-112542977D01*
X138927231Y-112544206D01*
X138924210Y-112550478D01*
X138864633Y-112720737D01*
X138864630Y-112720750D01*
X138844435Y-112899996D01*
X138844435Y-112900003D01*
X138864630Y-113079249D01*
X138864631Y-113079254D01*
X138924211Y-113249523D01*
X139009641Y-113385483D01*
X139020184Y-113402262D01*
X139147738Y-113529816D01*
X139238080Y-113586582D01*
X139297926Y-113624186D01*
X139300478Y-113625789D01*
X139383430Y-113654815D01*
X139470745Y-113685368D01*
X139470750Y-113685369D01*
X139649996Y-113705565D01*
X139650000Y-113705565D01*
X139650004Y-113705565D01*
X139829249Y-113685369D01*
X139829251Y-113685368D01*
X139829255Y-113685368D01*
X139829258Y-113685366D01*
X139829262Y-113685366D01*
X139999516Y-113625791D01*
X139999515Y-113625791D01*
X139999522Y-113625789D01*
X139999528Y-113625785D01*
X140001032Y-113625061D01*
X140002110Y-113624883D01*
X140006095Y-113623489D01*
X140006339Y-113624186D01*
X140069973Y-113613705D01*
X140102308Y-113622223D01*
X140110914Y-113625789D01*
X140189598Y-113658394D01*
X140294602Y-113679299D01*
X140302412Y-113681121D01*
X140318752Y-113685500D01*
X140395063Y-113685500D01*
X140395073Y-113685500D01*
X140465549Y-113685514D01*
X140465554Y-113685512D01*
X140472881Y-113685514D01*
X140473130Y-113685500D01*
X140533601Y-113685500D01*
X140550333Y-113681016D01*
X140558248Y-113679170D01*
X140662582Y-113658436D01*
X140790812Y-113605343D01*
X140879474Y-113546115D01*
X140946154Y-113525245D01*
X141013532Y-113543738D01*
X141036034Y-113561545D01*
X141373181Y-113898692D01*
X141406666Y-113960015D01*
X141409500Y-113986373D01*
X141409500Y-114963204D01*
X141389815Y-115030243D01*
X141337011Y-115075998D01*
X141267853Y-115085942D01*
X141219528Y-115068198D01*
X141149523Y-115024211D01*
X140979254Y-114964631D01*
X140979249Y-114964630D01*
X140800004Y-114944435D01*
X140799996Y-114944435D01*
X140620750Y-114964630D01*
X140620737Y-114964633D01*
X140450478Y-115024210D01*
X140444206Y-115027231D01*
X140442914Y-115024549D01*
X140388369Y-115039890D01*
X140323815Y-115020892D01*
X140249522Y-114974211D01*
X140249518Y-114974209D01*
X140079262Y-114914633D01*
X140079249Y-114914630D01*
X139900004Y-114894435D01*
X139899996Y-114894435D01*
X139720750Y-114914630D01*
X139720745Y-114914631D01*
X139550476Y-114974211D01*
X139397737Y-115070184D01*
X139270184Y-115197737D01*
X139181658Y-115338626D01*
X139129323Y-115384917D01*
X139062785Y-115395875D01*
X139050000Y-115394435D01*
X139049996Y-115394435D01*
X138870750Y-115414630D01*
X138870737Y-115414633D01*
X138700480Y-115474209D01*
X138665970Y-115495893D01*
X138598733Y-115514892D01*
X138534030Y-115495893D01*
X138499519Y-115474209D01*
X138329262Y-115414633D01*
X138329249Y-115414630D01*
X138150004Y-115394435D01*
X138149996Y-115394435D01*
X137970750Y-115414630D01*
X137970745Y-115414631D01*
X137800476Y-115474211D01*
X137647737Y-115570184D01*
X137520184Y-115697737D01*
X137424211Y-115850476D01*
X137364631Y-116020745D01*
X137364630Y-116020750D01*
X137344435Y-116199996D01*
X132034587Y-116199996D01*
X131998733Y-116164142D01*
X131998732Y-116164141D01*
X131998731Y-116164140D01*
X131947509Y-116129915D01*
X131935336Y-116121781D01*
X131896286Y-116095688D01*
X131896283Y-116095686D01*
X131896280Y-116095685D01*
X131815792Y-116062347D01*
X131782452Y-116048537D01*
X131782444Y-116048535D01*
X131701589Y-116032451D01*
X131701580Y-116032451D01*
X131661607Y-116024500D01*
X131661606Y-116024500D01*
X123794855Y-116024500D01*
X123728883Y-116005494D01*
X123599523Y-115924211D01*
X123429254Y-115864631D01*
X123429249Y-115864630D01*
X123250004Y-115844435D01*
X123249996Y-115844435D01*
X123070750Y-115864630D01*
X123070745Y-115864631D01*
X122900476Y-115924211D01*
X122747737Y-116020184D01*
X122620184Y-116147737D01*
X122524211Y-116300476D01*
X122464631Y-116470745D01*
X122464630Y-116470750D01*
X122444435Y-116649996D01*
X108684593Y-116649996D01*
X108998729Y-116335860D01*
X108998733Y-116335858D01*
X109085858Y-116248733D01*
X109146598Y-116157830D01*
X109154312Y-116146285D01*
X109197018Y-116043182D01*
X109201463Y-116032452D01*
X109225500Y-115911606D01*
X109225500Y-111274772D01*
X109245185Y-111207733D01*
X109297989Y-111161978D01*
X109335617Y-111151552D01*
X109479249Y-111135369D01*
X109479252Y-111135368D01*
X109479255Y-111135368D01*
X109649522Y-111075789D01*
X109802262Y-110979816D01*
X109929816Y-110852262D01*
X110025789Y-110699522D01*
X110085368Y-110529255D01*
X110091002Y-110479254D01*
X110105565Y-110350003D01*
X110105565Y-110349996D01*
X110085369Y-110170750D01*
X110085368Y-110170745D01*
X110049768Y-110069006D01*
X110025789Y-110000478D01*
X110025426Y-109999901D01*
X109944506Y-109871117D01*
X109925500Y-109805145D01*
X109925500Y-105660452D01*
X109945185Y-105593413D01*
X109961819Y-105572771D01*
X110172771Y-105361819D01*
X110234094Y-105328334D01*
X110260452Y-105325500D01*
X125388394Y-105325500D01*
X129760649Y-105325500D01*
X129827688Y-105345185D01*
X129872369Y-105395698D01*
X129874210Y-105399520D01*
X129874211Y-105399522D01*
X129970184Y-105552262D01*
X130097738Y-105679816D01*
X130250478Y-105775789D01*
X130339077Y-105806791D01*
X130420745Y-105835368D01*
X130420750Y-105835369D01*
X130599996Y-105855565D01*
X130600000Y-105855565D01*
X130600004Y-105855565D01*
X130779249Y-105835369D01*
X130779252Y-105835368D01*
X130779255Y-105835368D01*
X130949522Y-105775789D01*
X131102262Y-105679816D01*
X131229816Y-105552262D01*
X131325789Y-105399522D01*
X131385368Y-105229255D01*
X131385369Y-105229249D01*
X131405565Y-105050003D01*
X131405565Y-105049996D01*
X131385369Y-104870750D01*
X131385368Y-104870745D01*
X131325788Y-104700476D01*
X131241477Y-104566297D01*
X131229816Y-104547738D01*
X131102262Y-104420184D01*
X131001274Y-104356729D01*
X130949521Y-104324210D01*
X130779249Y-104264630D01*
X130775160Y-104263697D01*
X130772708Y-104262341D01*
X130772683Y-104262333D01*
X130772684Y-104262328D01*
X130715081Y-104230489D01*
X130698733Y-104214141D01*
X130647509Y-104179915D01*
X130604638Y-104151269D01*
X130596286Y-104145688D01*
X130596283Y-104145686D01*
X130596280Y-104145685D01*
X130515792Y-104112347D01*
X130482453Y-104098537D01*
X130472427Y-104096543D01*
X130422029Y-104086518D01*
X130361610Y-104074500D01*
X130361607Y-104074500D01*
X130361606Y-104074500D01*
X125511606Y-104074500D01*
X110211606Y-104074500D01*
X110011607Y-104074500D01*
X109888393Y-104074500D01*
X109888389Y-104074500D01*
X109827971Y-104086518D01*
X109784743Y-104095116D01*
X109767546Y-104098537D01*
X109727651Y-104115063D01*
X109653718Y-104145686D01*
X109653711Y-104145690D01*
X109645362Y-104151269D01*
X109628190Y-104162743D01*
X109628189Y-104162744D01*
X109628188Y-104162743D01*
X109551266Y-104214142D01*
X109551265Y-104214143D01*
X109524862Y-104240547D01*
X109464142Y-104301267D01*
X109437181Y-104328228D01*
X109375858Y-104361713D01*
X109306166Y-104356729D01*
X109250233Y-104314857D01*
X109225816Y-104249393D01*
X109225500Y-104240547D01*
X109225500Y-100410451D01*
X109245185Y-100343412D01*
X109261814Y-100322775D01*
X115548729Y-94035860D01*
X115548733Y-94035858D01*
X115635858Y-93948733D01*
X115693271Y-93862808D01*
X115704312Y-93846285D01*
X115704313Y-93846281D01*
X115704315Y-93846279D01*
X115746068Y-93745477D01*
X115751463Y-93732452D01*
X115756386Y-93707701D01*
X115766116Y-93658786D01*
X115766116Y-93658783D01*
X115775500Y-93611607D01*
X115775500Y-93488393D01*
X115775500Y-92975183D01*
X115795185Y-92908144D01*
X115847989Y-92862389D01*
X115917147Y-92852445D01*
X115922255Y-92853289D01*
X116041074Y-92875500D01*
X116041076Y-92875500D01*
X116258924Y-92875500D01*
X116258926Y-92875500D01*
X116473069Y-92835470D01*
X116676210Y-92756772D01*
X116861432Y-92642088D01*
X117022427Y-92495322D01*
X117051047Y-92457422D01*
X117107153Y-92415787D01*
X117176865Y-92411094D01*
X117238048Y-92444836D01*
X117248946Y-92457414D01*
X117277573Y-92495322D01*
X117277576Y-92495325D01*
X117277578Y-92495327D01*
X117344611Y-92556435D01*
X117438568Y-92642088D01*
X117438570Y-92642089D01*
X117438576Y-92642093D01*
X117623786Y-92756770D01*
X117623792Y-92756773D01*
X117637187Y-92761962D01*
X117826931Y-92835470D01*
X118041074Y-92875500D01*
X118041076Y-92875500D01*
X118258924Y-92875500D01*
X118258926Y-92875500D01*
X118473069Y-92835470D01*
X118676210Y-92756772D01*
X118861432Y-92642088D01*
X119022427Y-92495322D01*
X119051047Y-92457422D01*
X119107153Y-92415787D01*
X119176865Y-92411094D01*
X119238048Y-92444836D01*
X119248946Y-92457414D01*
X119277573Y-92495322D01*
X119277576Y-92495325D01*
X119277578Y-92495327D01*
X119344611Y-92556435D01*
X119438568Y-92642088D01*
X119438570Y-92642089D01*
X119438576Y-92642093D01*
X119623786Y-92756770D01*
X119623792Y-92756773D01*
X119643379Y-92764361D01*
X119826931Y-92835470D01*
X120034436Y-92874259D01*
X120096715Y-92905926D01*
X120131988Y-92966238D01*
X120129054Y-93036046D01*
X120088846Y-93093187D01*
X120054065Y-93112667D01*
X119967431Y-93144203D01*
X119967425Y-93144206D01*
X119791577Y-93245740D01*
X119636030Y-93376265D01*
X119636027Y-93376268D01*
X119505507Y-93531823D01*
X119403979Y-93707680D01*
X119403977Y-93707684D01*
X119334532Y-93898491D01*
X119334532Y-93898492D01*
X119299272Y-94098467D01*
X119299272Y-95045500D01*
X119279587Y-95112539D01*
X119226783Y-95158294D01*
X119175272Y-95169500D01*
X118552940Y-95169500D01*
X118485901Y-95149815D01*
X118465259Y-95133181D01*
X118452262Y-95120184D01*
X118299523Y-95024211D01*
X118129254Y-94964631D01*
X118129249Y-94964630D01*
X117950004Y-94944435D01*
X117949996Y-94944435D01*
X117770750Y-94964630D01*
X117770745Y-94964631D01*
X117600476Y-95024211D01*
X117447737Y-95120184D01*
X117320184Y-95247737D01*
X117224211Y-95400476D01*
X117164631Y-95570745D01*
X117164630Y-95570750D01*
X117144435Y-95749996D01*
X117144435Y-95750003D01*
X117164630Y-95929249D01*
X117164631Y-95929254D01*
X117224211Y-96099523D01*
X117286400Y-96198495D01*
X117320184Y-96252262D01*
X117447738Y-96379816D01*
X117491797Y-96407500D01*
X117593107Y-96471158D01*
X117600478Y-96475789D01*
X117770745Y-96535368D01*
X117793286Y-96537907D01*
X117857699Y-96564973D01*
X117896444Y-96620173D01*
X117924209Y-96699519D01*
X117924211Y-96699522D01*
X118020184Y-96852262D01*
X118147738Y-96979816D01*
X118202393Y-97014158D01*
X118292450Y-97070745D01*
X118300478Y-97075789D01*
X118322878Y-97083627D01*
X118470745Y-97135368D01*
X118470750Y-97135369D01*
X118649996Y-97155565D01*
X118650000Y-97155565D01*
X118650004Y-97155565D01*
X118829249Y-97135369D01*
X118829252Y-97135368D01*
X118829255Y-97135368D01*
X118999522Y-97075789D01*
X119152262Y-96979816D01*
X119279816Y-96852262D01*
X119294686Y-96828597D01*
X119344998Y-96748527D01*
X119397332Y-96702237D01*
X119449991Y-96690500D01*
X119744438Y-96690500D01*
X119744788Y-96690475D01*
X119761275Y-96690477D01*
X119961254Y-96655224D01*
X120152073Y-96585780D01*
X120327934Y-96484254D01*
X120480080Y-96356594D01*
X120544086Y-96328584D01*
X120613078Y-96339625D01*
X120639489Y-96356600D01*
X120700146Y-96407500D01*
X120785889Y-96479451D01*
X120791593Y-96484237D01*
X120791596Y-96484240D01*
X120967443Y-96585772D01*
X120967446Y-96585774D01*
X121158238Y-96655224D01*
X121158243Y-96655225D01*
X121158248Y-96655227D01*
X121158254Y-96655228D01*
X121158258Y-96655229D01*
X121358209Y-96690494D01*
X121358213Y-96690495D01*
X121358216Y-96690495D01*
X121375233Y-96690495D01*
X121375291Y-96690500D01*
X121383348Y-96690500D01*
X121459743Y-96690500D01*
X121459746Y-96690500D01*
X121530229Y-96690504D01*
X121530234Y-96690502D01*
X121537794Y-96690503D01*
X121537861Y-96690500D01*
X122370983Y-96690500D01*
X122370985Y-96690500D01*
X122462662Y-96665935D01*
X122518625Y-96650940D01*
X122650995Y-96574516D01*
X122759076Y-96466435D01*
X124528126Y-94697385D01*
X124633566Y-94591945D01*
X124640748Y-94579505D01*
X124709990Y-94459575D01*
X124736537Y-94360500D01*
X124749550Y-94311935D01*
X124749550Y-94159085D01*
X124749550Y-92780429D01*
X124769235Y-92713390D01*
X124808271Y-92675003D01*
X124861432Y-92642088D01*
X125022427Y-92495322D01*
X125051047Y-92457422D01*
X125107153Y-92415787D01*
X125176865Y-92411094D01*
X125238048Y-92444836D01*
X125248946Y-92457414D01*
X125277573Y-92495322D01*
X125277576Y-92495325D01*
X125277578Y-92495327D01*
X125408587Y-92614757D01*
X125438568Y-92642088D01*
X125510778Y-92686798D01*
X125557413Y-92738824D01*
X125569500Y-92792224D01*
X125569500Y-94703627D01*
X125549815Y-94770666D01*
X125533181Y-94791308D01*
X122651308Y-97673181D01*
X122589985Y-97706666D01*
X122563627Y-97709500D01*
X118036912Y-97709500D01*
X117969873Y-97689815D01*
X117924118Y-97637011D01*
X117919870Y-97626454D01*
X117875789Y-97500478D01*
X117853240Y-97464592D01*
X117779816Y-97347738D01*
X117652262Y-97220184D01*
X117638311Y-97211418D01*
X117499523Y-97124211D01*
X117329254Y-97064631D01*
X117329249Y-97064630D01*
X117150004Y-97044435D01*
X117149996Y-97044435D01*
X116970750Y-97064630D01*
X116970745Y-97064631D01*
X116800476Y-97124211D01*
X116647737Y-97220184D01*
X116520184Y-97347737D01*
X116424211Y-97500476D01*
X116364631Y-97670745D01*
X116364630Y-97670749D01*
X116354466Y-97760965D01*
X116327399Y-97825379D01*
X116272200Y-97864123D01*
X116100478Y-97924210D01*
X115947737Y-98020184D01*
X115820184Y-98147737D01*
X115724211Y-98300476D01*
X115664631Y-98470745D01*
X115664630Y-98470750D01*
X115644435Y-98649996D01*
X115647318Y-98675587D01*
X115635262Y-98744409D01*
X115587912Y-98795788D01*
X115537982Y-98812689D01*
X115520750Y-98814630D01*
X115350478Y-98874210D01*
X115197737Y-98970184D01*
X115070184Y-99097737D01*
X114974210Y-99250478D01*
X114914630Y-99420750D01*
X114910320Y-99459006D01*
X114883253Y-99523420D01*
X114827176Y-99561931D01*
X114827317Y-99562333D01*
X114825840Y-99562849D01*
X114825658Y-99562975D01*
X114824807Y-99563211D01*
X114820746Y-99564631D01*
X114820745Y-99564632D01*
X114779108Y-99579201D01*
X114650478Y-99624210D01*
X114497737Y-99720184D01*
X114370184Y-99847737D01*
X114274211Y-100000476D01*
X114214631Y-100170745D01*
X114214630Y-100170750D01*
X114194435Y-100349996D01*
X114194435Y-100350003D01*
X114214630Y-100529249D01*
X114214631Y-100529254D01*
X114274211Y-100699523D01*
X114346467Y-100814517D01*
X114370184Y-100852262D01*
X114497738Y-100979816D01*
X114650478Y-101075789D01*
X114752254Y-101111402D01*
X114820745Y-101135368D01*
X114820750Y-101135369D01*
X114999996Y-101155565D01*
X115000000Y-101155565D01*
X115000004Y-101155565D01*
X115179249Y-101135369D01*
X115179252Y-101135368D01*
X115179255Y-101135368D01*
X115349522Y-101075789D01*
X115502262Y-100979816D01*
X115515259Y-100966819D01*
X115576582Y-100933334D01*
X115602940Y-100930500D01*
X123330983Y-100930500D01*
X123330985Y-100930500D01*
X123423241Y-100905780D01*
X123478625Y-100890940D01*
X123610995Y-100814516D01*
X123719076Y-100706435D01*
X127190195Y-97235314D01*
X127251516Y-97201831D01*
X127321208Y-97206815D01*
X127377141Y-97248687D01*
X127401094Y-97309113D01*
X127414630Y-97429250D01*
X127414631Y-97429254D01*
X127474211Y-97599523D01*
X127478686Y-97606645D01*
X127497684Y-97673882D01*
X127477314Y-97740717D01*
X127424045Y-97785929D01*
X127387574Y-97795834D01*
X127220749Y-97814630D01*
X127220745Y-97814631D01*
X127050476Y-97874211D01*
X126897737Y-97970184D01*
X126770184Y-98097737D01*
X126674210Y-98250478D01*
X126616003Y-98416827D01*
X126575281Y-98473603D01*
X126539916Y-98492914D01*
X126450480Y-98524209D01*
X126297737Y-98620184D01*
X126170184Y-98747737D01*
X126074211Y-98900476D01*
X126014631Y-99070745D01*
X126014630Y-99070750D01*
X125994435Y-99249996D01*
X125994435Y-99250003D01*
X126014630Y-99429249D01*
X126014631Y-99429254D01*
X126074211Y-99599523D01*
X126146467Y-99714517D01*
X126170184Y-99752262D01*
X126297738Y-99879816D01*
X126309905Y-99887461D01*
X126411871Y-99951531D01*
X126450478Y-99975789D01*
X126532804Y-100004596D01*
X126620745Y-100035368D01*
X126620750Y-100035369D01*
X126799996Y-100055565D01*
X126800000Y-100055565D01*
X126800004Y-100055565D01*
X126979249Y-100035369D01*
X126979252Y-100035368D01*
X126979255Y-100035368D01*
X127149522Y-99975789D01*
X127302262Y-99879816D01*
X127315259Y-99866819D01*
X127376582Y-99833334D01*
X127402940Y-99830500D01*
X136947985Y-99830500D01*
X136948319Y-99830476D01*
X136964777Y-99830478D01*
X137164756Y-99795224D01*
X137336367Y-99732769D01*
X137406096Y-99728341D01*
X137467150Y-99762313D01*
X137500145Y-99823901D01*
X137502773Y-99849293D01*
X137502773Y-99934406D01*
X137502800Y-99934814D01*
X137502800Y-99951530D01*
X137538059Y-100151500D01*
X137538059Y-100151501D01*
X137607501Y-100342298D01*
X137607508Y-100342313D01*
X137709028Y-100518157D01*
X137709030Y-100518160D01*
X137839548Y-100673712D01*
X137839551Y-100673715D01*
X137995095Y-100804238D01*
X137995096Y-100804239D01*
X138170945Y-100905772D01*
X138361750Y-100975227D01*
X138361748Y-100975227D01*
X138561716Y-101010496D01*
X138561718Y-101010496D01*
X138576828Y-101010496D01*
X138576878Y-101010500D01*
X138586849Y-101010500D01*
X138663245Y-101010500D01*
X138663248Y-101010500D01*
X138733731Y-101010504D01*
X138733736Y-101010502D01*
X138741296Y-101010503D01*
X138741363Y-101010500D01*
X138947985Y-101010500D01*
X138948319Y-101010476D01*
X138964777Y-101010478D01*
X139164756Y-100975224D01*
X139355575Y-100905780D01*
X139531435Y-100804254D01*
X139686994Y-100673732D01*
X139817523Y-100518180D01*
X139919057Y-100342324D01*
X139988510Y-100151509D01*
X140023773Y-99951531D01*
X140023773Y-99951519D01*
X140024245Y-99946135D01*
X140026179Y-99946304D01*
X140043458Y-99887461D01*
X140096262Y-99841706D01*
X140147773Y-99830500D01*
X140480983Y-99830500D01*
X140480985Y-99830500D01*
X140580951Y-99803714D01*
X140628625Y-99790940D01*
X140760995Y-99714516D01*
X140869076Y-99606435D01*
X141802707Y-98672804D01*
X142594516Y-97880995D01*
X142626565Y-97825484D01*
X142670940Y-97748625D01*
X142700628Y-97637826D01*
X142710500Y-97600985D01*
X142710500Y-97448135D01*
X142710500Y-96579194D01*
X142710500Y-96118527D01*
X142710500Y-96073039D01*
X142710506Y-96072926D01*
X142710505Y-96065389D01*
X142710506Y-96065387D01*
X142710504Y-96046318D01*
X142710552Y-96046153D01*
X142710548Y-95994902D01*
X142710549Y-95994902D01*
X142710541Y-95893373D01*
X142675265Y-95693401D01*
X142612818Y-95521867D01*
X142608383Y-95452141D01*
X142642349Y-95391083D01*
X142703934Y-95358081D01*
X142729338Y-95355451D01*
X143159514Y-95355451D01*
X143178589Y-95355451D01*
X143178756Y-95355500D01*
X143230000Y-95355500D01*
X143331535Y-95355500D01*
X143331536Y-95355500D01*
X143531523Y-95320235D01*
X143722347Y-95250776D01*
X143898209Y-95149235D01*
X144053767Y-95018697D01*
X144158910Y-94893381D01*
X144184290Y-94863132D01*
X144184290Y-94863131D01*
X144184292Y-94863129D01*
X144285818Y-94687258D01*
X144355260Y-94496428D01*
X144390508Y-94296438D01*
X144390500Y-94194902D01*
X144390500Y-94190886D01*
X144390500Y-94073039D01*
X144390506Y-94072926D01*
X144390505Y-94065389D01*
X144390506Y-94065387D01*
X144390504Y-94046318D01*
X144390552Y-94046153D01*
X144390548Y-93994902D01*
X144390549Y-93994902D01*
X144390541Y-93893373D01*
X144355265Y-93693401D01*
X144285802Y-93502593D01*
X144184263Y-93326745D01*
X144163052Y-93301469D01*
X144053735Y-93171202D01*
X144053725Y-93171193D01*
X143962310Y-93094492D01*
X143923605Y-93036322D01*
X143922494Y-92966462D01*
X143959329Y-92907090D01*
X144022415Y-92877058D01*
X144042012Y-92875500D01*
X144258924Y-92875500D01*
X144258926Y-92875500D01*
X144473069Y-92835470D01*
X144676210Y-92756772D01*
X144861432Y-92642088D01*
X145022427Y-92495322D01*
X145051047Y-92457422D01*
X145107153Y-92415787D01*
X145176865Y-92411094D01*
X145238048Y-92444836D01*
G37*
G04 #@! TD.AperFunction*
G04 #@! TA.AperFunction,Conductor*
G36*
X147093651Y-114824209D02*
G01*
X147093904Y-114823489D01*
X147191454Y-114857623D01*
X147248230Y-114898345D01*
X147273978Y-114963298D01*
X147274500Y-114974665D01*
X147274500Y-124989548D01*
X147254815Y-125056587D01*
X147238181Y-125077229D01*
X147137181Y-125178229D01*
X147075858Y-125211714D01*
X147006166Y-125206730D01*
X146950233Y-125164858D01*
X146925816Y-125099394D01*
X146925500Y-125090548D01*
X146925500Y-114938869D01*
X146945185Y-114871830D01*
X146997989Y-114826075D01*
X147067147Y-114816131D01*
X147093651Y-114824209D01*
G37*
G04 #@! TD.AperFunction*
G04 #@! TA.AperFunction,Conductor*
G36*
X150042539Y-72520185D02*
G01*
X150088294Y-72572989D01*
X150099500Y-72624500D01*
X150099500Y-86768059D01*
X150079815Y-86835098D01*
X150027011Y-86880853D01*
X149957853Y-86890797D01*
X149894297Y-86861772D01*
X149887819Y-86855740D01*
X149460291Y-86428212D01*
X149460288Y-86428210D01*
X149329185Y-86340609D01*
X149329175Y-86340604D01*
X149241148Y-86304142D01*
X149186745Y-86260301D01*
X149164680Y-86194007D01*
X149181959Y-86126307D01*
X149209934Y-86093729D01*
X149310883Y-86010883D01*
X149435910Y-85858538D01*
X149528814Y-85684727D01*
X149586024Y-85496132D01*
X149605341Y-85300000D01*
X149586024Y-85103868D01*
X149528814Y-84915273D01*
X149528811Y-84915269D01*
X149528811Y-84915266D01*
X149435913Y-84741467D01*
X149435909Y-84741460D01*
X149310883Y-84589116D01*
X149158539Y-84464090D01*
X149158532Y-84464086D01*
X148984733Y-84371188D01*
X148984727Y-84371186D01*
X148798173Y-84314595D01*
X148796129Y-84313975D01*
X148600000Y-84294659D01*
X148403870Y-84313975D01*
X148215269Y-84371187D01*
X148164014Y-84398584D01*
X148142922Y-84409858D01*
X148084470Y-84424500D01*
X120313766Y-84424500D01*
X120144635Y-84458142D01*
X120144623Y-84458145D01*
X120051292Y-84496804D01*
X119985297Y-84524140D01*
X119842516Y-84619543D01*
X119842516Y-84619544D01*
X119842208Y-84619749D01*
X119841903Y-84619953D01*
X119841895Y-84619960D01*
X118603324Y-85858532D01*
X117591901Y-86869955D01*
X117556879Y-86904977D01*
X117469953Y-86991902D01*
X117374145Y-87135288D01*
X117374138Y-87135301D01*
X117308146Y-87294621D01*
X117308143Y-87294633D01*
X117274500Y-87463766D01*
X117274500Y-88700500D01*
X117254815Y-88767539D01*
X117202011Y-88813294D01*
X117150500Y-88824500D01*
X116982514Y-88824500D01*
X116915475Y-88804815D01*
X116898976Y-88792138D01*
X116894222Y-88787804D01*
X116861432Y-88757912D01*
X116861429Y-88757910D01*
X116861428Y-88757909D01*
X116676213Y-88643229D01*
X116676207Y-88643226D01*
X116576924Y-88604764D01*
X116473069Y-88564530D01*
X116258926Y-88524500D01*
X116041074Y-88524500D01*
X115826931Y-88564530D01*
X115790889Y-88578493D01*
X115623792Y-88643226D01*
X115623786Y-88643229D01*
X115438576Y-88757906D01*
X115438566Y-88757913D01*
X115277573Y-88904676D01*
X115248953Y-88942576D01*
X115192844Y-88984211D01*
X115123132Y-88988902D01*
X115061950Y-88955159D01*
X115051047Y-88942576D01*
X115022426Y-88904676D01*
X114861433Y-88757913D01*
X114861423Y-88757906D01*
X114676213Y-88643229D01*
X114676207Y-88643226D01*
X114576924Y-88604764D01*
X114473069Y-88564530D01*
X114258926Y-88524500D01*
X114041074Y-88524500D01*
X113826931Y-88564530D01*
X113790889Y-88578493D01*
X113623792Y-88643226D01*
X113623786Y-88643229D01*
X113438576Y-88757906D01*
X113438566Y-88757913D01*
X113277573Y-88904676D01*
X113248953Y-88942576D01*
X113192844Y-88984211D01*
X113123132Y-88988902D01*
X113061950Y-88955159D01*
X113051047Y-88942576D01*
X113022426Y-88904676D01*
X112861433Y-88757913D01*
X112861423Y-88757906D01*
X112676213Y-88643229D01*
X112676207Y-88643226D01*
X112576924Y-88604764D01*
X112473069Y-88564530D01*
X112258926Y-88524500D01*
X112041074Y-88524500D01*
X111826931Y-88564530D01*
X111790889Y-88578493D01*
X111623792Y-88643226D01*
X111623786Y-88643229D01*
X111438576Y-88757906D01*
X111438566Y-88757913D01*
X111277573Y-88904676D01*
X111248953Y-88942576D01*
X111192844Y-88984211D01*
X111123132Y-88988902D01*
X111061950Y-88955159D01*
X111051047Y-88942576D01*
X111022426Y-88904676D01*
X110861433Y-88757913D01*
X110861423Y-88757906D01*
X110676213Y-88643229D01*
X110676207Y-88643226D01*
X110576924Y-88604764D01*
X110473069Y-88564530D01*
X110258926Y-88524500D01*
X110041074Y-88524500D01*
X109826931Y-88564530D01*
X109790889Y-88578493D01*
X109623792Y-88643226D01*
X109623786Y-88643229D01*
X109438576Y-88757906D01*
X109438566Y-88757913D01*
X109277574Y-88904676D01*
X109146288Y-89078527D01*
X109049184Y-89273537D01*
X108989564Y-89483081D01*
X108969464Y-89699999D01*
X108969464Y-89700000D01*
X108989564Y-89916918D01*
X108989564Y-89916920D01*
X108989565Y-89916923D01*
X109041655Y-90100000D01*
X109049184Y-90126462D01*
X109146288Y-90321472D01*
X109277574Y-90495324D01*
X109401572Y-90608363D01*
X109437854Y-90668074D01*
X109436093Y-90737922D01*
X109401572Y-90791637D01*
X109277574Y-90904675D01*
X109146288Y-91078527D01*
X109049184Y-91273537D01*
X108989564Y-91483081D01*
X108969464Y-91699999D01*
X108969464Y-91700000D01*
X108989564Y-91916918D01*
X108989564Y-91916920D01*
X108989565Y-91916923D01*
X109049183Y-92126459D01*
X109049184Y-92126462D01*
X109123857Y-92276425D01*
X109146288Y-92321472D01*
X109277315Y-92494981D01*
X109277574Y-92495323D01*
X109283252Y-92500499D01*
X109438568Y-92642088D01*
X109438570Y-92642089D01*
X109438576Y-92642093D01*
X109623786Y-92756770D01*
X109623792Y-92756773D01*
X109637187Y-92761962D01*
X109826931Y-92835470D01*
X110041074Y-92875500D01*
X110041076Y-92875500D01*
X110258924Y-92875500D01*
X110258926Y-92875500D01*
X110473069Y-92835470D01*
X110676210Y-92756772D01*
X110861432Y-92642088D01*
X111022427Y-92495322D01*
X111051047Y-92457422D01*
X111107153Y-92415787D01*
X111176865Y-92411094D01*
X111238048Y-92444836D01*
X111248946Y-92457414D01*
X111277573Y-92495322D01*
X111277576Y-92495325D01*
X111277578Y-92495327D01*
X111344611Y-92556435D01*
X111438568Y-92642088D01*
X111438570Y-92642089D01*
X111438576Y-92642093D01*
X111623786Y-92756770D01*
X111623792Y-92756773D01*
X111637187Y-92761962D01*
X111826931Y-92835470D01*
X112041074Y-92875500D01*
X112041076Y-92875500D01*
X112258924Y-92875500D01*
X112258926Y-92875500D01*
X112473069Y-92835470D01*
X112676210Y-92756772D01*
X112861432Y-92642088D01*
X113022427Y-92495322D01*
X113051047Y-92457422D01*
X113107153Y-92415787D01*
X113176865Y-92411094D01*
X113238048Y-92444836D01*
X113248946Y-92457414D01*
X113277573Y-92495322D01*
X113277576Y-92495325D01*
X113277578Y-92495327D01*
X113344611Y-92556435D01*
X113438568Y-92642088D01*
X113465776Y-92658934D01*
X113512412Y-92710960D01*
X113524500Y-92764361D01*
X113524500Y-93089547D01*
X113504815Y-93156586D01*
X113488181Y-93177228D01*
X107651269Y-99014140D01*
X107651267Y-99014142D01*
X107564142Y-99101267D01*
X107530068Y-99152262D01*
X107495690Y-99203710D01*
X107495685Y-99203719D01*
X107448540Y-99317538D01*
X107448535Y-99317554D01*
X107425982Y-99430938D01*
X107425983Y-99430939D01*
X107424500Y-99438395D01*
X107424500Y-114186607D01*
X107404815Y-114253646D01*
X107352011Y-114299401D01*
X107286617Y-114309827D01*
X107150004Y-114294435D01*
X107149996Y-114294435D01*
X106970750Y-114314630D01*
X106970745Y-114314631D01*
X106800476Y-114374211D01*
X106671117Y-114455494D01*
X106605145Y-114474500D01*
X105160453Y-114474500D01*
X105093414Y-114454815D01*
X105072772Y-114438181D01*
X104848733Y-114214143D01*
X104811819Y-114177229D01*
X104778334Y-114115906D01*
X104775500Y-114089548D01*
X104775500Y-110938393D01*
X104775499Y-110938389D01*
X104761085Y-110865925D01*
X104751463Y-110817548D01*
X104722959Y-110748733D01*
X104704312Y-110703714D01*
X104658736Y-110635507D01*
X104635858Y-110601267D01*
X104635856Y-110601264D01*
X104545637Y-110511045D01*
X104545606Y-110511016D01*
X104419152Y-110384562D01*
X104385667Y-110323239D01*
X104390651Y-110253547D01*
X104432523Y-110197614D01*
X104494677Y-110173478D01*
X104621132Y-110161024D01*
X104809727Y-110103814D01*
X104983538Y-110010910D01*
X105135883Y-109885883D01*
X105260910Y-109733538D01*
X105353814Y-109559727D01*
X105411024Y-109371132D01*
X105430341Y-109175000D01*
X105411024Y-108978868D01*
X105353814Y-108790273D01*
X105322347Y-108731402D01*
X105290142Y-108671150D01*
X105275500Y-108612697D01*
X105275500Y-106241232D01*
X105275499Y-106241228D01*
X105242817Y-106076924D01*
X105242816Y-106076918D01*
X105224037Y-106031584D01*
X105178704Y-105922137D01*
X105085627Y-105782838D01*
X105085624Y-105782834D01*
X103962165Y-104659375D01*
X103962161Y-104659372D01*
X103822866Y-104566297D01*
X103822863Y-104566296D01*
X103705176Y-104517549D01*
X103668082Y-104502184D01*
X103668074Y-104502182D01*
X103503771Y-104469500D01*
X103503767Y-104469500D01*
X100550759Y-104469500D01*
X100483720Y-104449815D01*
X100463078Y-104433182D01*
X100391609Y-104361713D01*
X100311401Y-104281505D01*
X100311397Y-104281502D01*
X100311396Y-104281501D01*
X100125842Y-104151575D01*
X100082217Y-104096998D01*
X100075023Y-104027500D01*
X100106546Y-103965145D01*
X100125842Y-103948425D01*
X100148026Y-103932891D01*
X100311401Y-103818495D01*
X100478495Y-103651401D01*
X100614035Y-103457830D01*
X100713903Y-103243663D01*
X100775063Y-103015408D01*
X100795659Y-102780000D01*
X100775063Y-102544592D01*
X100713903Y-102316337D01*
X100614035Y-102102171D01*
X100608731Y-102094595D01*
X100478494Y-101908597D01*
X100311402Y-101741506D01*
X100311396Y-101741501D01*
X100125842Y-101611575D01*
X100082217Y-101556998D01*
X100075023Y-101487500D01*
X100106546Y-101425145D01*
X100125842Y-101408425D01*
X100148026Y-101392891D01*
X100311401Y-101278495D01*
X100478495Y-101111401D01*
X100614035Y-100917830D01*
X100713903Y-100703663D01*
X100775063Y-100475408D01*
X100795659Y-100240000D01*
X100775063Y-100004592D01*
X100726648Y-99823901D01*
X100713905Y-99776344D01*
X100713904Y-99776343D01*
X100713903Y-99776337D01*
X100614035Y-99562171D01*
X100608425Y-99554158D01*
X100478494Y-99368597D01*
X100311402Y-99201506D01*
X100311396Y-99201501D01*
X100125842Y-99071575D01*
X100082217Y-99016998D01*
X100075023Y-98947500D01*
X100106546Y-98885145D01*
X100125842Y-98868425D01*
X100229578Y-98795788D01*
X100311401Y-98738495D01*
X100478495Y-98571401D01*
X100614035Y-98377830D01*
X100713903Y-98163663D01*
X100775063Y-97935408D01*
X100795659Y-97700000D01*
X100775063Y-97464592D01*
X100726888Y-97284799D01*
X100713905Y-97236344D01*
X100713904Y-97236343D01*
X100713903Y-97236337D01*
X100614035Y-97022171D01*
X100608425Y-97014158D01*
X100478494Y-96828597D01*
X100311402Y-96661506D01*
X100311401Y-96661505D01*
X100131259Y-96535368D01*
X100125405Y-96531269D01*
X100081781Y-96476692D01*
X100074588Y-96407193D01*
X100106110Y-96344839D01*
X100125405Y-96328119D01*
X100311082Y-96198105D01*
X100478105Y-96031082D01*
X100613600Y-95837578D01*
X100713429Y-95623492D01*
X100713432Y-95623486D01*
X100770636Y-95410000D01*
X99873012Y-95410000D01*
X99905925Y-95352993D01*
X99940000Y-95225826D01*
X99940000Y-95094174D01*
X99905925Y-94967007D01*
X99873012Y-94910000D01*
X100770636Y-94910000D01*
X100770635Y-94909999D01*
X100713432Y-94696513D01*
X100713429Y-94696507D01*
X100613600Y-94482422D01*
X100613599Y-94482420D01*
X100478113Y-94288926D01*
X100478108Y-94288920D01*
X100311078Y-94121890D01*
X100125405Y-93991879D01*
X100081780Y-93937302D01*
X100074588Y-93867804D01*
X100106110Y-93805449D01*
X100125406Y-93788730D01*
X100145156Y-93774901D01*
X100311401Y-93658495D01*
X100478495Y-93491401D01*
X100614035Y-93297830D01*
X100713903Y-93083663D01*
X100775063Y-92855408D01*
X100795659Y-92620000D01*
X100775063Y-92384592D01*
X100726888Y-92204799D01*
X100713905Y-92156344D01*
X100713904Y-92156343D01*
X100713903Y-92156337D01*
X100614035Y-91942171D01*
X100608425Y-91934158D01*
X100478494Y-91748597D01*
X100311402Y-91581506D01*
X100311396Y-91581501D01*
X100125842Y-91451575D01*
X100082217Y-91396998D01*
X100075023Y-91327500D01*
X100106546Y-91265145D01*
X100125842Y-91248425D01*
X100148026Y-91232891D01*
X100311401Y-91118495D01*
X100478495Y-90951401D01*
X100614035Y-90757830D01*
X100713903Y-90543663D01*
X100775063Y-90315408D01*
X100795659Y-90080000D01*
X100775063Y-89844592D01*
X100713903Y-89616337D01*
X100614035Y-89402171D01*
X100608731Y-89394595D01*
X100478494Y-89208597D01*
X100311402Y-89041506D01*
X100311396Y-89041501D01*
X100125842Y-88911575D01*
X100082217Y-88856998D01*
X100075023Y-88787500D01*
X100106546Y-88725145D01*
X100125842Y-88708425D01*
X100148026Y-88692891D01*
X100311401Y-88578495D01*
X100478495Y-88411401D01*
X100614035Y-88217830D01*
X100713903Y-88003663D01*
X100775063Y-87775408D01*
X100795659Y-87540000D01*
X100775063Y-87304592D01*
X100726888Y-87124799D01*
X100713905Y-87076344D01*
X100713904Y-87076343D01*
X100713903Y-87076337D01*
X100614035Y-86862171D01*
X100608425Y-86854158D01*
X100478494Y-86668597D01*
X100311402Y-86501506D01*
X100311396Y-86501501D01*
X100125842Y-86371575D01*
X100082217Y-86316998D01*
X100075023Y-86247500D01*
X100106546Y-86185145D01*
X100125842Y-86168425D01*
X100172278Y-86135910D01*
X100311401Y-86038495D01*
X100478495Y-85871401D01*
X100614035Y-85677830D01*
X100713903Y-85463663D01*
X100775063Y-85235408D01*
X100795659Y-85000000D01*
X100775063Y-84764592D01*
X100713903Y-84536337D01*
X100614035Y-84322171D01*
X100608731Y-84314595D01*
X100478494Y-84128597D01*
X100311402Y-83961506D01*
X100311396Y-83961501D01*
X100125842Y-83831575D01*
X100082217Y-83776998D01*
X100075023Y-83707500D01*
X100106546Y-83645145D01*
X100125842Y-83628425D01*
X100148026Y-83612891D01*
X100311401Y-83498495D01*
X100478495Y-83331401D01*
X100614035Y-83137830D01*
X100713903Y-82923663D01*
X100775063Y-82695408D01*
X100795659Y-82460000D01*
X100775063Y-82224592D01*
X100726888Y-82044799D01*
X100713905Y-81996344D01*
X100713904Y-81996343D01*
X100713903Y-81996337D01*
X100614035Y-81782171D01*
X100608425Y-81774158D01*
X100478494Y-81588597D01*
X100311402Y-81421506D01*
X100311396Y-81421501D01*
X100125842Y-81291575D01*
X100082217Y-81236998D01*
X100075023Y-81167500D01*
X100106546Y-81105145D01*
X100125842Y-81088425D01*
X100148026Y-81072891D01*
X100311401Y-80958495D01*
X100478495Y-80791401D01*
X100614035Y-80597830D01*
X100713903Y-80383663D01*
X100775063Y-80155408D01*
X100795659Y-79920000D01*
X100775063Y-79684592D01*
X100726888Y-79504799D01*
X100713905Y-79456344D01*
X100713904Y-79456343D01*
X100713903Y-79456337D01*
X100614035Y-79242171D01*
X100608425Y-79234158D01*
X100478494Y-79048597D01*
X100311402Y-78881506D01*
X100311401Y-78881505D01*
X100125405Y-78751269D01*
X100081781Y-78696692D01*
X100074588Y-78627193D01*
X100106110Y-78564839D01*
X100125405Y-78548119D01*
X100311082Y-78418105D01*
X100478105Y-78251082D01*
X100613600Y-78057578D01*
X100713429Y-77843492D01*
X100713432Y-77843486D01*
X100770636Y-77630000D01*
X99873012Y-77630000D01*
X99905925Y-77572993D01*
X99940000Y-77445826D01*
X99940000Y-77314174D01*
X99905925Y-77187007D01*
X99873012Y-77130000D01*
X100770636Y-77130000D01*
X100770635Y-77129999D01*
X100713432Y-76916513D01*
X100713429Y-76916507D01*
X100613600Y-76702422D01*
X100613599Y-76702420D01*
X100478113Y-76508926D01*
X100478108Y-76508920D01*
X100311082Y-76341894D01*
X100117578Y-76206399D01*
X99903492Y-76106570D01*
X99903486Y-76106567D01*
X99690000Y-76049364D01*
X99690000Y-76946988D01*
X99632993Y-76914075D01*
X99505826Y-76880000D01*
X99374174Y-76880000D01*
X99247007Y-76914075D01*
X99190000Y-76946988D01*
X99190000Y-76049364D01*
X99189999Y-76049364D01*
X98976513Y-76106567D01*
X98976507Y-76106570D01*
X98762422Y-76206399D01*
X98762420Y-76206400D01*
X98568926Y-76341886D01*
X98568920Y-76341891D01*
X98401891Y-76508920D01*
X98401890Y-76508922D01*
X98271880Y-76694595D01*
X98217303Y-76738219D01*
X98147804Y-76745412D01*
X98085450Y-76713890D01*
X98068730Y-76694594D01*
X97938494Y-76508597D01*
X97771402Y-76341506D01*
X97771395Y-76341501D01*
X97577834Y-76205967D01*
X97577830Y-76205965D01*
X97577828Y-76205964D01*
X97363663Y-76106097D01*
X97363659Y-76106096D01*
X97363655Y-76106094D01*
X97135413Y-76044938D01*
X97135403Y-76044936D01*
X96900001Y-76024341D01*
X96899999Y-76024341D01*
X96664596Y-76044936D01*
X96664586Y-76044938D01*
X96436344Y-76106094D01*
X96436335Y-76106098D01*
X96222171Y-76205964D01*
X96222169Y-76205965D01*
X96028597Y-76341505D01*
X95861505Y-76508597D01*
X95725965Y-76702169D01*
X95725964Y-76702171D01*
X95636882Y-76893208D01*
X95590709Y-76945647D01*
X95523516Y-76964799D01*
X95456635Y-76944583D01*
X95411300Y-76891418D01*
X95400500Y-76840803D01*
X95400500Y-72624500D01*
X95420185Y-72557461D01*
X95472989Y-72511706D01*
X95524500Y-72500500D01*
X149975500Y-72500500D01*
X150042539Y-72520185D01*
G37*
G04 #@! TD.AperFunction*
G04 #@! TA.AperFunction,Conductor*
G36*
X140400000Y-92848619D02*
G01*
X140472937Y-92834985D01*
X140675986Y-92756322D01*
X140690913Y-92747080D01*
X140758274Y-92728523D01*
X140824974Y-92749330D01*
X140843874Y-92764825D01*
X141153181Y-93074132D01*
X141186666Y-93135455D01*
X141189500Y-93161813D01*
X141189500Y-93279018D01*
X141189541Y-93279667D01*
X141189541Y-93296435D01*
X141194883Y-93326745D01*
X141223903Y-93491402D01*
X141224787Y-93496414D01*
X141224789Y-93496422D01*
X141287244Y-93668048D01*
X141291672Y-93737777D01*
X141257698Y-93798830D01*
X141196109Y-93831824D01*
X141170720Y-93834451D01*
X140585900Y-93834451D01*
X140585161Y-93834499D01*
X140568470Y-93834499D01*
X140368511Y-93869756D01*
X140177702Y-93939201D01*
X140001848Y-94040723D01*
X139846309Y-94171227D01*
X139846299Y-94171236D01*
X139715776Y-94326773D01*
X139614244Y-94502609D01*
X139614240Y-94502617D01*
X139544784Y-94693407D01*
X139544782Y-94693414D01*
X139509507Y-94893381D01*
X139509507Y-94893382D01*
X139509506Y-94910566D01*
X139509500Y-94910668D01*
X139509500Y-94994902D01*
X139509493Y-95072926D01*
X139509500Y-95073039D01*
X139509500Y-95279018D01*
X139509541Y-95279667D01*
X139509541Y-95286000D01*
X139509541Y-95296434D01*
X139544787Y-95496415D01*
X139599509Y-95646791D01*
X139614228Y-95687240D01*
X139715749Y-95863103D01*
X139846266Y-96018661D01*
X139846268Y-96018663D01*
X140001811Y-96149189D01*
X140001822Y-96149197D01*
X140177666Y-96250728D01*
X140177672Y-96250731D01*
X140177674Y-96250732D01*
X140368490Y-96320187D01*
X140568468Y-96355451D01*
X140593576Y-96355451D01*
X141065500Y-96355451D01*
X141132539Y-96375136D01*
X141178294Y-96427940D01*
X141189500Y-96479451D01*
X141189500Y-97083627D01*
X141169815Y-97150666D01*
X141153181Y-97171308D01*
X140051308Y-98273181D01*
X139989985Y-98306666D01*
X139963627Y-98309500D01*
X139741363Y-98309500D01*
X139741296Y-98309496D01*
X139733732Y-98309496D01*
X139733731Y-98309496D01*
X139718982Y-98309496D01*
X139714636Y-98309497D01*
X139714547Y-98309471D01*
X139561715Y-98309476D01*
X139561712Y-98309477D01*
X139361752Y-98344745D01*
X139361746Y-98344746D01*
X139361743Y-98344747D01*
X139361740Y-98344747D01*
X139361740Y-98344748D01*
X139190213Y-98407184D01*
X139120485Y-98411617D01*
X139059428Y-98377648D01*
X139026429Y-98316062D01*
X139023800Y-98290663D01*
X139023800Y-98188468D01*
X139023800Y-98188466D01*
X138988537Y-97988484D01*
X138919081Y-97797664D01*
X138817545Y-97621805D01*
X138804824Y-97606645D01*
X138687014Y-97466249D01*
X138531454Y-97335726D01*
X138355585Y-97234195D01*
X138355582Y-97234194D01*
X138308081Y-97216907D01*
X138251816Y-97175483D01*
X138226878Y-97110215D01*
X138241186Y-97041826D01*
X138262807Y-97012703D01*
X138526983Y-96748527D01*
X138974515Y-96300996D01*
X138976396Y-96297738D01*
X139050940Y-96168625D01*
X139076238Y-96074211D01*
X139090500Y-96020985D01*
X139090500Y-95868135D01*
X139090500Y-95719016D01*
X139090500Y-95711029D01*
X139090465Y-95710526D01*
X139090467Y-95697451D01*
X139056433Y-95504363D01*
X138989386Y-95320119D01*
X138891362Y-95150317D01*
X138819888Y-95065130D01*
X138791879Y-95001122D01*
X138802921Y-94932131D01*
X138819893Y-94905725D01*
X138891337Y-94820589D01*
X138989371Y-94650807D01*
X139056436Y-94466582D01*
X139090493Y-94273509D01*
X139090493Y-94260950D01*
X139090500Y-94260871D01*
X139090500Y-94171232D01*
X139090501Y-94159085D01*
X139090506Y-94104997D01*
X139090505Y-94104994D01*
X139090506Y-94097755D01*
X139090500Y-94097635D01*
X139090500Y-93131812D01*
X139110185Y-93064773D01*
X139126814Y-93044136D01*
X139425249Y-92745701D01*
X139486568Y-92712219D01*
X139556259Y-92717203D01*
X139578205Y-92727959D01*
X139624010Y-92756321D01*
X139624023Y-92756327D01*
X139827060Y-92834984D01*
X139900000Y-92848619D01*
X139900000Y-92015686D01*
X139904394Y-92020080D01*
X139995606Y-92072741D01*
X140097339Y-92100000D01*
X140202661Y-92100000D01*
X140304394Y-92072741D01*
X140395606Y-92020080D01*
X140400000Y-92015686D01*
X140400000Y-92848619D01*
G37*
G04 #@! TD.AperFunction*
G04 #@! TA.AperFunction,Conductor*
G36*
X122400000Y-92848619D02*
G01*
X122472939Y-92834984D01*
X122675976Y-92756327D01*
X122675989Y-92756321D01*
X122783553Y-92689719D01*
X122850914Y-92671162D01*
X122917613Y-92691970D01*
X122936513Y-92707464D01*
X123192231Y-92963182D01*
X123225716Y-93024505D01*
X123228550Y-93050863D01*
X123228550Y-93794577D01*
X123208865Y-93861616D01*
X123192231Y-93882258D01*
X122031953Y-95042536D01*
X121970630Y-95076021D01*
X121900938Y-95071037D01*
X121845005Y-95029165D01*
X121820588Y-94963701D01*
X121820272Y-94954855D01*
X121820272Y-94251390D01*
X121820300Y-94251294D01*
X121820300Y-94098468D01*
X121820300Y-94098467D01*
X121820300Y-94098466D01*
X121785036Y-93898484D01*
X121715581Y-93707664D01*
X121707345Y-93693400D01*
X121682598Y-93650538D01*
X121614045Y-93531804D01*
X121483512Y-93376248D01*
X121454751Y-93352116D01*
X121327953Y-93245725D01*
X121152084Y-93144194D01*
X121152078Y-93144191D01*
X120961271Y-93074751D01*
X120961260Y-93074748D01*
X120761279Y-93039495D01*
X120761278Y-93039495D01*
X120659744Y-93039500D01*
X120609747Y-93039500D01*
X120542708Y-93019815D01*
X120496953Y-92967011D01*
X120487009Y-92897853D01*
X120516034Y-92834297D01*
X120564951Y-92799874D01*
X120676210Y-92756772D01*
X120861432Y-92642088D01*
X121022427Y-92495322D01*
X121051359Y-92457009D01*
X121107465Y-92415373D01*
X121177177Y-92410680D01*
X121238360Y-92444421D01*
X121249267Y-92457009D01*
X121277942Y-92494981D01*
X121277949Y-92494989D01*
X121438868Y-92641685D01*
X121624012Y-92756322D01*
X121624023Y-92756327D01*
X121827060Y-92834984D01*
X121900000Y-92848619D01*
X121900000Y-92015686D01*
X121904394Y-92020080D01*
X121995606Y-92072741D01*
X122097339Y-92100000D01*
X122202661Y-92100000D01*
X122304394Y-92072741D01*
X122395606Y-92020080D01*
X122400000Y-92015686D01*
X122400000Y-92848619D01*
G37*
G04 #@! TD.AperFunction*
G04 #@! TA.AperFunction,Conductor*
G36*
X128400000Y-92848619D02*
G01*
X128472937Y-92834985D01*
X128675986Y-92756322D01*
X128690913Y-92747080D01*
X128758274Y-92728523D01*
X128824974Y-92749330D01*
X128843874Y-92764825D01*
X129089088Y-93010039D01*
X129122573Y-93071362D01*
X129117589Y-93141054D01*
X129089088Y-93185401D01*
X127302181Y-94972308D01*
X127240858Y-95005793D01*
X127171166Y-95000809D01*
X127115233Y-94958937D01*
X127090816Y-94893473D01*
X127090500Y-94884627D01*
X127090500Y-93181812D01*
X127110185Y-93114773D01*
X127126814Y-93094136D01*
X127456129Y-92764821D01*
X127517448Y-92731339D01*
X127587139Y-92736323D01*
X127609087Y-92747080D01*
X127624012Y-92756322D01*
X127827062Y-92834985D01*
X127900000Y-92848619D01*
X127900000Y-92015686D01*
X127904394Y-92020080D01*
X127995606Y-92072741D01*
X128097339Y-92100000D01*
X128202661Y-92100000D01*
X128304394Y-92072741D01*
X128395606Y-92020080D01*
X128400000Y-92015686D01*
X128400000Y-92848619D01*
G37*
G04 #@! TD.AperFunction*
G04 #@! TA.AperFunction,Conductor*
G36*
X146376185Y-86195185D02*
G01*
X146421940Y-86247989D01*
X146431884Y-86317147D01*
X146402859Y-86380703D01*
X146378037Y-86402602D01*
X146339712Y-86428209D01*
X146339711Y-86428211D01*
X146339710Y-86428212D01*
X145639711Y-87128211D01*
X145583960Y-87183962D01*
X145528209Y-87239712D01*
X145440609Y-87370814D01*
X145440602Y-87370827D01*
X145380264Y-87516498D01*
X145380261Y-87516510D01*
X145349500Y-87671153D01*
X145349500Y-88784356D01*
X145329815Y-88851395D01*
X145309039Y-88875993D01*
X145277571Y-88904679D01*
X145248953Y-88942576D01*
X145192844Y-88984211D01*
X145123132Y-88988902D01*
X145061950Y-88955159D01*
X145051047Y-88942576D01*
X145022426Y-88904676D01*
X144861433Y-88757913D01*
X144861423Y-88757906D01*
X144676213Y-88643229D01*
X144676207Y-88643226D01*
X144576924Y-88604764D01*
X144473069Y-88564530D01*
X144258926Y-88524500D01*
X144041074Y-88524500D01*
X143826931Y-88564530D01*
X143790889Y-88578493D01*
X143623792Y-88643226D01*
X143623786Y-88643229D01*
X143438576Y-88757906D01*
X143438566Y-88757913D01*
X143277573Y-88904676D01*
X143248953Y-88942576D01*
X143192844Y-88984211D01*
X143123132Y-88988902D01*
X143061950Y-88955159D01*
X143051047Y-88942576D01*
X143022426Y-88904676D01*
X142861433Y-88757913D01*
X142861423Y-88757906D01*
X142676213Y-88643229D01*
X142676207Y-88643226D01*
X142576924Y-88604764D01*
X142473069Y-88564530D01*
X142258926Y-88524500D01*
X142041074Y-88524500D01*
X141826931Y-88564530D01*
X141790889Y-88578493D01*
X141623792Y-88643226D01*
X141623786Y-88643229D01*
X141438576Y-88757906D01*
X141438566Y-88757913D01*
X141277573Y-88904676D01*
X141248953Y-88942576D01*
X141192844Y-88984211D01*
X141123132Y-88988902D01*
X141061950Y-88955159D01*
X141051047Y-88942576D01*
X141022426Y-88904676D01*
X140861433Y-88757913D01*
X140861423Y-88757906D01*
X140676213Y-88643229D01*
X140676207Y-88643226D01*
X140576924Y-88604764D01*
X140473069Y-88564530D01*
X140258926Y-88524500D01*
X140041074Y-88524500D01*
X139826931Y-88564530D01*
X139790889Y-88578493D01*
X139623792Y-88643226D01*
X139623786Y-88643229D01*
X139438576Y-88757906D01*
X139438566Y-88757913D01*
X139277573Y-88904676D01*
X139248953Y-88942576D01*
X139192844Y-88984211D01*
X139123132Y-88988902D01*
X139061950Y-88955159D01*
X139051047Y-88942576D01*
X139022426Y-88904676D01*
X138861433Y-88757913D01*
X138861423Y-88757906D01*
X138676213Y-88643229D01*
X138676207Y-88643226D01*
X138576924Y-88604764D01*
X138473069Y-88564530D01*
X138258926Y-88524500D01*
X138041074Y-88524500D01*
X137826931Y-88564530D01*
X137790889Y-88578493D01*
X137623792Y-88643226D01*
X137623786Y-88643229D01*
X137438576Y-88757906D01*
X137438566Y-88757913D01*
X137277574Y-88904676D01*
X137248640Y-88942991D01*
X137192530Y-88984627D01*
X137122818Y-88989318D01*
X137061637Y-88955576D01*
X137050731Y-88942990D01*
X137022051Y-88905011D01*
X137022050Y-88905010D01*
X136861131Y-88758314D01*
X136675987Y-88643677D01*
X136675985Y-88643676D01*
X136472931Y-88565013D01*
X136472921Y-88565010D01*
X136400001Y-88551378D01*
X136400000Y-88551379D01*
X136400000Y-89384314D01*
X136395606Y-89379920D01*
X136304394Y-89327259D01*
X136202661Y-89300000D01*
X136097339Y-89300000D01*
X135995606Y-89327259D01*
X135904394Y-89379920D01*
X135900000Y-89384314D01*
X135900000Y-88551379D01*
X135899998Y-88551378D01*
X135827078Y-88565010D01*
X135827068Y-88565013D01*
X135624014Y-88643676D01*
X135624012Y-88643677D01*
X135438869Y-88758314D01*
X135438868Y-88758314D01*
X135277945Y-88905014D01*
X135249267Y-88942990D01*
X135193157Y-88984626D01*
X135123445Y-88989317D01*
X135062264Y-88955575D01*
X135051359Y-88942990D01*
X135042547Y-88931321D01*
X135022427Y-88904678D01*
X134970124Y-88856998D01*
X134861433Y-88757913D01*
X134861423Y-88757906D01*
X134676213Y-88643229D01*
X134676207Y-88643226D01*
X134576924Y-88604764D01*
X134473069Y-88564530D01*
X134258926Y-88524500D01*
X134041074Y-88524500D01*
X133826931Y-88564530D01*
X133790889Y-88578493D01*
X133623792Y-88643226D01*
X133623786Y-88643229D01*
X133438576Y-88757906D01*
X133438566Y-88757913D01*
X133277573Y-88904676D01*
X133248953Y-88942576D01*
X133192844Y-88984211D01*
X133123132Y-88988902D01*
X133061950Y-88955159D01*
X133051047Y-88942576D01*
X133022426Y-88904676D01*
X132861433Y-88757913D01*
X132861423Y-88757906D01*
X132676213Y-88643229D01*
X132676207Y-88643226D01*
X132576924Y-88604764D01*
X132473069Y-88564530D01*
X132258926Y-88524500D01*
X132041074Y-88524500D01*
X131826931Y-88564530D01*
X131790889Y-88578493D01*
X131623792Y-88643226D01*
X131623786Y-88643229D01*
X131438576Y-88757906D01*
X131438566Y-88757913D01*
X131277574Y-88904676D01*
X131248640Y-88942991D01*
X131192530Y-88984627D01*
X131122818Y-88989318D01*
X131061637Y-88955576D01*
X131050731Y-88942990D01*
X131022051Y-88905011D01*
X131022050Y-88905010D01*
X130861131Y-88758314D01*
X130675987Y-88643677D01*
X130675985Y-88643676D01*
X130472931Y-88565013D01*
X130472921Y-88565010D01*
X130400001Y-88551378D01*
X130400000Y-88551379D01*
X130400000Y-89384314D01*
X130395606Y-89379920D01*
X130304394Y-89327259D01*
X130202661Y-89300000D01*
X130097339Y-89300000D01*
X129995606Y-89327259D01*
X129904394Y-89379920D01*
X129900000Y-89384314D01*
X129900000Y-88551379D01*
X129899998Y-88551378D01*
X129827078Y-88565010D01*
X129827068Y-88565013D01*
X129624014Y-88643676D01*
X129624012Y-88643677D01*
X129438869Y-88758314D01*
X129438868Y-88758314D01*
X129277945Y-88905014D01*
X129249267Y-88942990D01*
X129193157Y-88984626D01*
X129123445Y-88989317D01*
X129062264Y-88955575D01*
X129051359Y-88942990D01*
X129042547Y-88931321D01*
X129022427Y-88904678D01*
X128970124Y-88856998D01*
X128861433Y-88757913D01*
X128861423Y-88757906D01*
X128676213Y-88643229D01*
X128676207Y-88643226D01*
X128576924Y-88604764D01*
X128473069Y-88564530D01*
X128258926Y-88524500D01*
X128041074Y-88524500D01*
X127826931Y-88564530D01*
X127790889Y-88578493D01*
X127623792Y-88643226D01*
X127623786Y-88643229D01*
X127438576Y-88757906D01*
X127438566Y-88757913D01*
X127277573Y-88904676D01*
X127248953Y-88942576D01*
X127192844Y-88984211D01*
X127123132Y-88988902D01*
X127061950Y-88955159D01*
X127051047Y-88942576D01*
X127022426Y-88904676D01*
X126861433Y-88757913D01*
X126861423Y-88757906D01*
X126676213Y-88643229D01*
X126676207Y-88643226D01*
X126576924Y-88604764D01*
X126473069Y-88564530D01*
X126258926Y-88524500D01*
X126041074Y-88524500D01*
X125826931Y-88564530D01*
X125790889Y-88578493D01*
X125623792Y-88643226D01*
X125623786Y-88643229D01*
X125438576Y-88757906D01*
X125438566Y-88757913D01*
X125277574Y-88904676D01*
X125248640Y-88942991D01*
X125192530Y-88984627D01*
X125122818Y-88989318D01*
X125061637Y-88955576D01*
X125050731Y-88942990D01*
X125022051Y-88905011D01*
X125022050Y-88905010D01*
X124861131Y-88758314D01*
X124675987Y-88643677D01*
X124675985Y-88643676D01*
X124472931Y-88565013D01*
X124472921Y-88565010D01*
X124400001Y-88551378D01*
X124400000Y-88551379D01*
X124400000Y-89384314D01*
X124395606Y-89379920D01*
X124304394Y-89327259D01*
X124202661Y-89300000D01*
X124097339Y-89300000D01*
X123995606Y-89327259D01*
X123904394Y-89379920D01*
X123900000Y-89384314D01*
X123900000Y-88551379D01*
X123899998Y-88551378D01*
X123827078Y-88565010D01*
X123827068Y-88565013D01*
X123624014Y-88643676D01*
X123624012Y-88643677D01*
X123438869Y-88758314D01*
X123438868Y-88758314D01*
X123277945Y-88905014D01*
X123249267Y-88942990D01*
X123193157Y-88984626D01*
X123123445Y-88989317D01*
X123062264Y-88955575D01*
X123051359Y-88942990D01*
X123042547Y-88931321D01*
X123022427Y-88904678D01*
X122970124Y-88856998D01*
X122861433Y-88757913D01*
X122861423Y-88757906D01*
X122676213Y-88643229D01*
X122676207Y-88643226D01*
X122576924Y-88604764D01*
X122473069Y-88564530D01*
X122258926Y-88524500D01*
X122041074Y-88524500D01*
X121826931Y-88564530D01*
X121790889Y-88578493D01*
X121623792Y-88643226D01*
X121623786Y-88643229D01*
X121438576Y-88757906D01*
X121438566Y-88757913D01*
X121277573Y-88904676D01*
X121248953Y-88942576D01*
X121192844Y-88984211D01*
X121123132Y-88988902D01*
X121061950Y-88955159D01*
X121051047Y-88942576D01*
X121022426Y-88904676D01*
X120861433Y-88757913D01*
X120861423Y-88757906D01*
X120676213Y-88643229D01*
X120676207Y-88643226D01*
X120576924Y-88604764D01*
X120473069Y-88564530D01*
X120258926Y-88524500D01*
X120041074Y-88524500D01*
X119826931Y-88564530D01*
X119790889Y-88578493D01*
X119623792Y-88643226D01*
X119623786Y-88643229D01*
X119438576Y-88757906D01*
X119438566Y-88757913D01*
X119277573Y-88904676D01*
X119248953Y-88942576D01*
X119192844Y-88984211D01*
X119123132Y-88988902D01*
X119061950Y-88955159D01*
X119051052Y-88942582D01*
X119050552Y-88941920D01*
X119025855Y-88876561D01*
X119025500Y-88867186D01*
X119025500Y-87964006D01*
X119045185Y-87896967D01*
X119061819Y-87876325D01*
X120726325Y-86211819D01*
X120787648Y-86178334D01*
X120814006Y-86175500D01*
X146309146Y-86175500D01*
X146376185Y-86195185D01*
G37*
G04 #@! TD.AperFunction*
G04 #@! TA.AperFunction,Conductor*
G36*
X148634099Y-87870185D02*
G01*
X148654741Y-87886819D01*
X148963181Y-88195259D01*
X148996666Y-88256582D01*
X148999500Y-88282940D01*
X148999500Y-88401000D01*
X148979815Y-88468039D01*
X148927011Y-88513794D01*
X148875500Y-88525000D01*
X148400000Y-88525000D01*
X148400000Y-89384314D01*
X148395606Y-89379920D01*
X148304394Y-89327259D01*
X148202661Y-89300000D01*
X148097339Y-89300000D01*
X147995606Y-89327259D01*
X147904394Y-89379920D01*
X147900000Y-89384314D01*
X147900000Y-88525000D01*
X147427155Y-88525000D01*
X147367627Y-88531401D01*
X147367620Y-88531403D01*
X147232913Y-88581645D01*
X147232910Y-88581647D01*
X147148811Y-88644604D01*
X147083347Y-88669021D01*
X147015074Y-88654169D01*
X146965668Y-88604764D01*
X146950500Y-88545337D01*
X146950500Y-88132940D01*
X146970185Y-88065901D01*
X146986819Y-88045259D01*
X147145259Y-87886819D01*
X147206582Y-87853334D01*
X147232940Y-87850500D01*
X148567060Y-87850500D01*
X148634099Y-87870185D01*
G37*
G04 #@! TD.AperFunction*
M02*
