G04 #@! TF.GenerationSoftware,KiCad,Pcbnew,8.0.2*
G04 #@! TF.CreationDate,2024-06-09T13:50:20+05:00*
G04 #@! TF.ProjectId,EDP Converter,45445020-436f-46e7-9665-727465722e6b,rev?*
G04 #@! TF.SameCoordinates,Original*
G04 #@! TF.FileFunction,Legend,Top*
G04 #@! TF.FilePolarity,Positive*
%FSLAX46Y46*%
G04 Gerber Fmt 4.6, Leading zero omitted, Abs format (unit mm)*
G04 Created by KiCad (PCBNEW 8.0.2) date 2024-06-09 13:50:20*
%MOMM*%
%LPD*%
G01*
G04 APERTURE LIST*
%ADD10C,0.150000*%
%ADD11C,0.254000*%
%ADD12C,0.120000*%
%ADD13C,0.250000*%
%ADD14C,0.127000*%
%ADD15C,0.200000*%
G04 APERTURE END LIST*
D10*
X131619771Y-84565714D02*
X131334057Y-84765714D01*
X131619771Y-84908571D02*
X131019771Y-84908571D01*
X131019771Y-84908571D02*
X131019771Y-84680000D01*
X131019771Y-84680000D02*
X131048342Y-84622857D01*
X131048342Y-84622857D02*
X131076914Y-84594286D01*
X131076914Y-84594286D02*
X131134057Y-84565714D01*
X131134057Y-84565714D02*
X131219771Y-84565714D01*
X131219771Y-84565714D02*
X131276914Y-84594286D01*
X131276914Y-84594286D02*
X131305485Y-84622857D01*
X131305485Y-84622857D02*
X131334057Y-84680000D01*
X131334057Y-84680000D02*
X131334057Y-84908571D01*
X131619771Y-83994286D02*
X131619771Y-84337143D01*
X131619771Y-84165714D02*
X131019771Y-84165714D01*
X131019771Y-84165714D02*
X131105485Y-84222857D01*
X131105485Y-84222857D02*
X131162628Y-84280000D01*
X131162628Y-84280000D02*
X131191200Y-84337143D01*
X131619771Y-83708571D02*
X131619771Y-83594285D01*
X131619771Y-83594285D02*
X131591200Y-83537142D01*
X131591200Y-83537142D02*
X131562628Y-83508571D01*
X131562628Y-83508571D02*
X131476914Y-83451428D01*
X131476914Y-83451428D02*
X131362628Y-83422857D01*
X131362628Y-83422857D02*
X131134057Y-83422857D01*
X131134057Y-83422857D02*
X131076914Y-83451428D01*
X131076914Y-83451428D02*
X131048342Y-83480000D01*
X131048342Y-83480000D02*
X131019771Y-83537142D01*
X131019771Y-83537142D02*
X131019771Y-83651428D01*
X131019771Y-83651428D02*
X131048342Y-83708571D01*
X131048342Y-83708571D02*
X131076914Y-83737142D01*
X131076914Y-83737142D02*
X131134057Y-83765714D01*
X131134057Y-83765714D02*
X131276914Y-83765714D01*
X131276914Y-83765714D02*
X131334057Y-83737142D01*
X131334057Y-83737142D02*
X131362628Y-83708571D01*
X131362628Y-83708571D02*
X131391200Y-83651428D01*
X131391200Y-83651428D02*
X131391200Y-83537142D01*
X131391200Y-83537142D02*
X131362628Y-83480000D01*
X131362628Y-83480000D02*
X131334057Y-83451428D01*
X131334057Y-83451428D02*
X131276914Y-83422857D01*
X140064285Y-106672628D02*
X140035713Y-106701200D01*
X140035713Y-106701200D02*
X139949999Y-106729771D01*
X139949999Y-106729771D02*
X139892856Y-106729771D01*
X139892856Y-106729771D02*
X139807142Y-106701200D01*
X139807142Y-106701200D02*
X139749999Y-106644057D01*
X139749999Y-106644057D02*
X139721428Y-106586914D01*
X139721428Y-106586914D02*
X139692856Y-106472628D01*
X139692856Y-106472628D02*
X139692856Y-106386914D01*
X139692856Y-106386914D02*
X139721428Y-106272628D01*
X139721428Y-106272628D02*
X139749999Y-106215485D01*
X139749999Y-106215485D02*
X139807142Y-106158342D01*
X139807142Y-106158342D02*
X139892856Y-106129771D01*
X139892856Y-106129771D02*
X139949999Y-106129771D01*
X139949999Y-106129771D02*
X140035713Y-106158342D01*
X140035713Y-106158342D02*
X140064285Y-106186914D01*
X140635713Y-106729771D02*
X140292856Y-106729771D01*
X140464285Y-106729771D02*
X140464285Y-106129771D01*
X140464285Y-106129771D02*
X140407142Y-106215485D01*
X140407142Y-106215485D02*
X140349999Y-106272628D01*
X140349999Y-106272628D02*
X140292856Y-106301200D01*
X141178571Y-106129771D02*
X140892857Y-106129771D01*
X140892857Y-106129771D02*
X140864285Y-106415485D01*
X140864285Y-106415485D02*
X140892857Y-106386914D01*
X140892857Y-106386914D02*
X140950000Y-106358342D01*
X140950000Y-106358342D02*
X141092857Y-106358342D01*
X141092857Y-106358342D02*
X141150000Y-106386914D01*
X141150000Y-106386914D02*
X141178571Y-106415485D01*
X141178571Y-106415485D02*
X141207142Y-106472628D01*
X141207142Y-106472628D02*
X141207142Y-106615485D01*
X141207142Y-106615485D02*
X141178571Y-106672628D01*
X141178571Y-106672628D02*
X141150000Y-106701200D01*
X141150000Y-106701200D02*
X141092857Y-106729771D01*
X141092857Y-106729771D02*
X140950000Y-106729771D01*
X140950000Y-106729771D02*
X140892857Y-106701200D01*
X140892857Y-106701200D02*
X140864285Y-106672628D01*
X115564285Y-110812628D02*
X115535713Y-110841200D01*
X115535713Y-110841200D02*
X115449999Y-110869771D01*
X115449999Y-110869771D02*
X115392856Y-110869771D01*
X115392856Y-110869771D02*
X115307142Y-110841200D01*
X115307142Y-110841200D02*
X115249999Y-110784057D01*
X115249999Y-110784057D02*
X115221428Y-110726914D01*
X115221428Y-110726914D02*
X115192856Y-110612628D01*
X115192856Y-110612628D02*
X115192856Y-110526914D01*
X115192856Y-110526914D02*
X115221428Y-110412628D01*
X115221428Y-110412628D02*
X115249999Y-110355485D01*
X115249999Y-110355485D02*
X115307142Y-110298342D01*
X115307142Y-110298342D02*
X115392856Y-110269771D01*
X115392856Y-110269771D02*
X115449999Y-110269771D01*
X115449999Y-110269771D02*
X115535713Y-110298342D01*
X115535713Y-110298342D02*
X115564285Y-110326914D01*
X115764285Y-110269771D02*
X116135713Y-110269771D01*
X116135713Y-110269771D02*
X115935713Y-110498342D01*
X115935713Y-110498342D02*
X116021428Y-110498342D01*
X116021428Y-110498342D02*
X116078571Y-110526914D01*
X116078571Y-110526914D02*
X116107142Y-110555485D01*
X116107142Y-110555485D02*
X116135713Y-110612628D01*
X116135713Y-110612628D02*
X116135713Y-110755485D01*
X116135713Y-110755485D02*
X116107142Y-110812628D01*
X116107142Y-110812628D02*
X116078571Y-110841200D01*
X116078571Y-110841200D02*
X116021428Y-110869771D01*
X116021428Y-110869771D02*
X115849999Y-110869771D01*
X115849999Y-110869771D02*
X115792856Y-110841200D01*
X115792856Y-110841200D02*
X115764285Y-110812628D01*
X116707142Y-110869771D02*
X116364285Y-110869771D01*
X116535714Y-110869771D02*
X116535714Y-110269771D01*
X116535714Y-110269771D02*
X116478571Y-110355485D01*
X116478571Y-110355485D02*
X116421428Y-110412628D01*
X116421428Y-110412628D02*
X116364285Y-110441200D01*
X115014285Y-118312628D02*
X114985713Y-118341200D01*
X114985713Y-118341200D02*
X114899999Y-118369771D01*
X114899999Y-118369771D02*
X114842856Y-118369771D01*
X114842856Y-118369771D02*
X114757142Y-118341200D01*
X114757142Y-118341200D02*
X114699999Y-118284057D01*
X114699999Y-118284057D02*
X114671428Y-118226914D01*
X114671428Y-118226914D02*
X114642856Y-118112628D01*
X114642856Y-118112628D02*
X114642856Y-118026914D01*
X114642856Y-118026914D02*
X114671428Y-117912628D01*
X114671428Y-117912628D02*
X114699999Y-117855485D01*
X114699999Y-117855485D02*
X114757142Y-117798342D01*
X114757142Y-117798342D02*
X114842856Y-117769771D01*
X114842856Y-117769771D02*
X114899999Y-117769771D01*
X114899999Y-117769771D02*
X114985713Y-117798342D01*
X114985713Y-117798342D02*
X115014285Y-117826914D01*
X115242856Y-117826914D02*
X115271428Y-117798342D01*
X115271428Y-117798342D02*
X115328571Y-117769771D01*
X115328571Y-117769771D02*
X115471428Y-117769771D01*
X115471428Y-117769771D02*
X115528571Y-117798342D01*
X115528571Y-117798342D02*
X115557142Y-117826914D01*
X115557142Y-117826914D02*
X115585713Y-117884057D01*
X115585713Y-117884057D02*
X115585713Y-117941200D01*
X115585713Y-117941200D02*
X115557142Y-118026914D01*
X115557142Y-118026914D02*
X115214285Y-118369771D01*
X115214285Y-118369771D02*
X115585713Y-118369771D01*
X115785714Y-117769771D02*
X116157142Y-117769771D01*
X116157142Y-117769771D02*
X115957142Y-117998342D01*
X115957142Y-117998342D02*
X116042857Y-117998342D01*
X116042857Y-117998342D02*
X116100000Y-118026914D01*
X116100000Y-118026914D02*
X116128571Y-118055485D01*
X116128571Y-118055485D02*
X116157142Y-118112628D01*
X116157142Y-118112628D02*
X116157142Y-118255485D01*
X116157142Y-118255485D02*
X116128571Y-118312628D01*
X116128571Y-118312628D02*
X116100000Y-118341200D01*
X116100000Y-118341200D02*
X116042857Y-118369771D01*
X116042857Y-118369771D02*
X115871428Y-118369771D01*
X115871428Y-118369771D02*
X115814285Y-118341200D01*
X115814285Y-118341200D02*
X115785714Y-118312628D01*
X124001785Y-124987628D02*
X123973213Y-125016200D01*
X123973213Y-125016200D02*
X123887499Y-125044771D01*
X123887499Y-125044771D02*
X123830356Y-125044771D01*
X123830356Y-125044771D02*
X123744642Y-125016200D01*
X123744642Y-125016200D02*
X123687499Y-124959057D01*
X123687499Y-124959057D02*
X123658928Y-124901914D01*
X123658928Y-124901914D02*
X123630356Y-124787628D01*
X123630356Y-124787628D02*
X123630356Y-124701914D01*
X123630356Y-124701914D02*
X123658928Y-124587628D01*
X123658928Y-124587628D02*
X123687499Y-124530485D01*
X123687499Y-124530485D02*
X123744642Y-124473342D01*
X123744642Y-124473342D02*
X123830356Y-124444771D01*
X123830356Y-124444771D02*
X123887499Y-124444771D01*
X123887499Y-124444771D02*
X123973213Y-124473342D01*
X123973213Y-124473342D02*
X124001785Y-124501914D01*
X124201785Y-124444771D02*
X124573213Y-124444771D01*
X124573213Y-124444771D02*
X124373213Y-124673342D01*
X124373213Y-124673342D02*
X124458928Y-124673342D01*
X124458928Y-124673342D02*
X124516071Y-124701914D01*
X124516071Y-124701914D02*
X124544642Y-124730485D01*
X124544642Y-124730485D02*
X124573213Y-124787628D01*
X124573213Y-124787628D02*
X124573213Y-124930485D01*
X124573213Y-124930485D02*
X124544642Y-124987628D01*
X124544642Y-124987628D02*
X124516071Y-125016200D01*
X124516071Y-125016200D02*
X124458928Y-125044771D01*
X124458928Y-125044771D02*
X124287499Y-125044771D01*
X124287499Y-125044771D02*
X124230356Y-125016200D01*
X124230356Y-125016200D02*
X124201785Y-124987628D01*
X125087500Y-124644771D02*
X125087500Y-125044771D01*
X124944642Y-124416200D02*
X124801785Y-124844771D01*
X124801785Y-124844771D02*
X125173214Y-124844771D01*
X127669771Y-123357142D02*
X128155485Y-123357142D01*
X128155485Y-123357142D02*
X128212628Y-123328571D01*
X128212628Y-123328571D02*
X128241200Y-123300000D01*
X128241200Y-123300000D02*
X128269771Y-123242857D01*
X128269771Y-123242857D02*
X128269771Y-123128571D01*
X128269771Y-123128571D02*
X128241200Y-123071428D01*
X128241200Y-123071428D02*
X128212628Y-123042857D01*
X128212628Y-123042857D02*
X128155485Y-123014285D01*
X128155485Y-123014285D02*
X127669771Y-123014285D01*
X127869771Y-122471429D02*
X128269771Y-122471429D01*
X127641200Y-122614286D02*
X128069771Y-122757143D01*
X128069771Y-122757143D02*
X128069771Y-122385714D01*
X137754285Y-116569771D02*
X137554285Y-116284057D01*
X137411428Y-116569771D02*
X137411428Y-115969771D01*
X137411428Y-115969771D02*
X137639999Y-115969771D01*
X137639999Y-115969771D02*
X137697142Y-115998342D01*
X137697142Y-115998342D02*
X137725713Y-116026914D01*
X137725713Y-116026914D02*
X137754285Y-116084057D01*
X137754285Y-116084057D02*
X137754285Y-116169771D01*
X137754285Y-116169771D02*
X137725713Y-116226914D01*
X137725713Y-116226914D02*
X137697142Y-116255485D01*
X137697142Y-116255485D02*
X137639999Y-116284057D01*
X137639999Y-116284057D02*
X137411428Y-116284057D01*
X138325713Y-116569771D02*
X137982856Y-116569771D01*
X138154285Y-116569771D02*
X138154285Y-115969771D01*
X138154285Y-115969771D02*
X138097142Y-116055485D01*
X138097142Y-116055485D02*
X138039999Y-116112628D01*
X138039999Y-116112628D02*
X137982856Y-116141200D01*
X138840000Y-116169771D02*
X138840000Y-116569771D01*
X138697142Y-115941200D02*
X138554285Y-116369771D01*
X138554285Y-116369771D02*
X138925714Y-116369771D01*
X132669771Y-84565714D02*
X132384057Y-84765714D01*
X132669771Y-84908571D02*
X132069771Y-84908571D01*
X132069771Y-84908571D02*
X132069771Y-84680000D01*
X132069771Y-84680000D02*
X132098342Y-84622857D01*
X132098342Y-84622857D02*
X132126914Y-84594286D01*
X132126914Y-84594286D02*
X132184057Y-84565714D01*
X132184057Y-84565714D02*
X132269771Y-84565714D01*
X132269771Y-84565714D02*
X132326914Y-84594286D01*
X132326914Y-84594286D02*
X132355485Y-84622857D01*
X132355485Y-84622857D02*
X132384057Y-84680000D01*
X132384057Y-84680000D02*
X132384057Y-84908571D01*
X132669771Y-83994286D02*
X132669771Y-84337143D01*
X132669771Y-84165714D02*
X132069771Y-84165714D01*
X132069771Y-84165714D02*
X132155485Y-84222857D01*
X132155485Y-84222857D02*
X132212628Y-84280000D01*
X132212628Y-84280000D02*
X132241200Y-84337143D01*
X132326914Y-83651428D02*
X132298342Y-83708571D01*
X132298342Y-83708571D02*
X132269771Y-83737142D01*
X132269771Y-83737142D02*
X132212628Y-83765714D01*
X132212628Y-83765714D02*
X132184057Y-83765714D01*
X132184057Y-83765714D02*
X132126914Y-83737142D01*
X132126914Y-83737142D02*
X132098342Y-83708571D01*
X132098342Y-83708571D02*
X132069771Y-83651428D01*
X132069771Y-83651428D02*
X132069771Y-83537142D01*
X132069771Y-83537142D02*
X132098342Y-83480000D01*
X132098342Y-83480000D02*
X132126914Y-83451428D01*
X132126914Y-83451428D02*
X132184057Y-83422857D01*
X132184057Y-83422857D02*
X132212628Y-83422857D01*
X132212628Y-83422857D02*
X132269771Y-83451428D01*
X132269771Y-83451428D02*
X132298342Y-83480000D01*
X132298342Y-83480000D02*
X132326914Y-83537142D01*
X132326914Y-83537142D02*
X132326914Y-83651428D01*
X132326914Y-83651428D02*
X132355485Y-83708571D01*
X132355485Y-83708571D02*
X132384057Y-83737142D01*
X132384057Y-83737142D02*
X132441200Y-83765714D01*
X132441200Y-83765714D02*
X132555485Y-83765714D01*
X132555485Y-83765714D02*
X132612628Y-83737142D01*
X132612628Y-83737142D02*
X132641200Y-83708571D01*
X132641200Y-83708571D02*
X132669771Y-83651428D01*
X132669771Y-83651428D02*
X132669771Y-83537142D01*
X132669771Y-83537142D02*
X132641200Y-83480000D01*
X132641200Y-83480000D02*
X132612628Y-83451428D01*
X132612628Y-83451428D02*
X132555485Y-83422857D01*
X132555485Y-83422857D02*
X132441200Y-83422857D01*
X132441200Y-83422857D02*
X132384057Y-83451428D01*
X132384057Y-83451428D02*
X132355485Y-83480000D01*
X132355485Y-83480000D02*
X132326914Y-83537142D01*
X107250000Y-109469771D02*
X106964286Y-109469771D01*
X106964286Y-109469771D02*
X106964286Y-108869771D01*
X107764285Y-109469771D02*
X107421428Y-109469771D01*
X107592857Y-109469771D02*
X107592857Y-108869771D01*
X107592857Y-108869771D02*
X107535714Y-108955485D01*
X107535714Y-108955485D02*
X107478571Y-109012628D01*
X107478571Y-109012628D02*
X107421428Y-109041200D01*
X110384285Y-113462628D02*
X110355713Y-113491200D01*
X110355713Y-113491200D02*
X110269999Y-113519771D01*
X110269999Y-113519771D02*
X110212856Y-113519771D01*
X110212856Y-113519771D02*
X110127142Y-113491200D01*
X110127142Y-113491200D02*
X110069999Y-113434057D01*
X110069999Y-113434057D02*
X110041428Y-113376914D01*
X110041428Y-113376914D02*
X110012856Y-113262628D01*
X110012856Y-113262628D02*
X110012856Y-113176914D01*
X110012856Y-113176914D02*
X110041428Y-113062628D01*
X110041428Y-113062628D02*
X110069999Y-113005485D01*
X110069999Y-113005485D02*
X110127142Y-112948342D01*
X110127142Y-112948342D02*
X110212856Y-112919771D01*
X110212856Y-112919771D02*
X110269999Y-112919771D01*
X110269999Y-112919771D02*
X110355713Y-112948342D01*
X110355713Y-112948342D02*
X110384285Y-112976914D01*
X110584285Y-112919771D02*
X110955713Y-112919771D01*
X110955713Y-112919771D02*
X110755713Y-113148342D01*
X110755713Y-113148342D02*
X110841428Y-113148342D01*
X110841428Y-113148342D02*
X110898571Y-113176914D01*
X110898571Y-113176914D02*
X110927142Y-113205485D01*
X110927142Y-113205485D02*
X110955713Y-113262628D01*
X110955713Y-113262628D02*
X110955713Y-113405485D01*
X110955713Y-113405485D02*
X110927142Y-113462628D01*
X110927142Y-113462628D02*
X110898571Y-113491200D01*
X110898571Y-113491200D02*
X110841428Y-113519771D01*
X110841428Y-113519771D02*
X110669999Y-113519771D01*
X110669999Y-113519771D02*
X110612856Y-113491200D01*
X110612856Y-113491200D02*
X110584285Y-113462628D01*
X111184285Y-112976914D02*
X111212857Y-112948342D01*
X111212857Y-112948342D02*
X111270000Y-112919771D01*
X111270000Y-112919771D02*
X111412857Y-112919771D01*
X111412857Y-112919771D02*
X111470000Y-112948342D01*
X111470000Y-112948342D02*
X111498571Y-112976914D01*
X111498571Y-112976914D02*
X111527142Y-113034057D01*
X111527142Y-113034057D02*
X111527142Y-113091200D01*
X111527142Y-113091200D02*
X111498571Y-113176914D01*
X111498571Y-113176914D02*
X111155714Y-113519771D01*
X111155714Y-113519771D02*
X111527142Y-113519771D01*
X125069771Y-84575714D02*
X124784057Y-84775714D01*
X125069771Y-84918571D02*
X124469771Y-84918571D01*
X124469771Y-84918571D02*
X124469771Y-84690000D01*
X124469771Y-84690000D02*
X124498342Y-84632857D01*
X124498342Y-84632857D02*
X124526914Y-84604286D01*
X124526914Y-84604286D02*
X124584057Y-84575714D01*
X124584057Y-84575714D02*
X124669771Y-84575714D01*
X124669771Y-84575714D02*
X124726914Y-84604286D01*
X124726914Y-84604286D02*
X124755485Y-84632857D01*
X124755485Y-84632857D02*
X124784057Y-84690000D01*
X124784057Y-84690000D02*
X124784057Y-84918571D01*
X124526914Y-84347143D02*
X124498342Y-84318571D01*
X124498342Y-84318571D02*
X124469771Y-84261429D01*
X124469771Y-84261429D02*
X124469771Y-84118571D01*
X124469771Y-84118571D02*
X124498342Y-84061429D01*
X124498342Y-84061429D02*
X124526914Y-84032857D01*
X124526914Y-84032857D02*
X124584057Y-84004286D01*
X124584057Y-84004286D02*
X124641200Y-84004286D01*
X124641200Y-84004286D02*
X124726914Y-84032857D01*
X124726914Y-84032857D02*
X125069771Y-84375714D01*
X125069771Y-84375714D02*
X125069771Y-84004286D01*
X124469771Y-83461428D02*
X124469771Y-83747142D01*
X124469771Y-83747142D02*
X124755485Y-83775714D01*
X124755485Y-83775714D02*
X124726914Y-83747142D01*
X124726914Y-83747142D02*
X124698342Y-83690000D01*
X124698342Y-83690000D02*
X124698342Y-83547142D01*
X124698342Y-83547142D02*
X124726914Y-83490000D01*
X124726914Y-83490000D02*
X124755485Y-83461428D01*
X124755485Y-83461428D02*
X124812628Y-83432857D01*
X124812628Y-83432857D02*
X124955485Y-83432857D01*
X124955485Y-83432857D02*
X125012628Y-83461428D01*
X125012628Y-83461428D02*
X125041200Y-83490000D01*
X125041200Y-83490000D02*
X125069771Y-83547142D01*
X125069771Y-83547142D02*
X125069771Y-83690000D01*
X125069771Y-83690000D02*
X125041200Y-83747142D01*
X125041200Y-83747142D02*
X125012628Y-83775714D01*
X133200000Y-127019771D02*
X133000000Y-126734057D01*
X132857143Y-127019771D02*
X132857143Y-126419771D01*
X132857143Y-126419771D02*
X133085714Y-126419771D01*
X133085714Y-126419771D02*
X133142857Y-126448342D01*
X133142857Y-126448342D02*
X133171428Y-126476914D01*
X133171428Y-126476914D02*
X133200000Y-126534057D01*
X133200000Y-126534057D02*
X133200000Y-126619771D01*
X133200000Y-126619771D02*
X133171428Y-126676914D01*
X133171428Y-126676914D02*
X133142857Y-126705485D01*
X133142857Y-126705485D02*
X133085714Y-126734057D01*
X133085714Y-126734057D02*
X132857143Y-126734057D01*
X133400000Y-126419771D02*
X133771428Y-126419771D01*
X133771428Y-126419771D02*
X133571428Y-126648342D01*
X133571428Y-126648342D02*
X133657143Y-126648342D01*
X133657143Y-126648342D02*
X133714286Y-126676914D01*
X133714286Y-126676914D02*
X133742857Y-126705485D01*
X133742857Y-126705485D02*
X133771428Y-126762628D01*
X133771428Y-126762628D02*
X133771428Y-126905485D01*
X133771428Y-126905485D02*
X133742857Y-126962628D01*
X133742857Y-126962628D02*
X133714286Y-126991200D01*
X133714286Y-126991200D02*
X133657143Y-127019771D01*
X133657143Y-127019771D02*
X133485714Y-127019771D01*
X133485714Y-127019771D02*
X133428571Y-126991200D01*
X133428571Y-126991200D02*
X133400000Y-126962628D01*
X136912628Y-123235714D02*
X136941200Y-123264286D01*
X136941200Y-123264286D02*
X136969771Y-123350000D01*
X136969771Y-123350000D02*
X136969771Y-123407143D01*
X136969771Y-123407143D02*
X136941200Y-123492857D01*
X136941200Y-123492857D02*
X136884057Y-123550000D01*
X136884057Y-123550000D02*
X136826914Y-123578571D01*
X136826914Y-123578571D02*
X136712628Y-123607143D01*
X136712628Y-123607143D02*
X136626914Y-123607143D01*
X136626914Y-123607143D02*
X136512628Y-123578571D01*
X136512628Y-123578571D02*
X136455485Y-123550000D01*
X136455485Y-123550000D02*
X136398342Y-123492857D01*
X136398342Y-123492857D02*
X136369771Y-123407143D01*
X136369771Y-123407143D02*
X136369771Y-123350000D01*
X136369771Y-123350000D02*
X136398342Y-123264286D01*
X136398342Y-123264286D02*
X136426914Y-123235714D01*
X136369771Y-123035714D02*
X136369771Y-122664286D01*
X136369771Y-122664286D02*
X136598342Y-122864286D01*
X136598342Y-122864286D02*
X136598342Y-122778571D01*
X136598342Y-122778571D02*
X136626914Y-122721429D01*
X136626914Y-122721429D02*
X136655485Y-122692857D01*
X136655485Y-122692857D02*
X136712628Y-122664286D01*
X136712628Y-122664286D02*
X136855485Y-122664286D01*
X136855485Y-122664286D02*
X136912628Y-122692857D01*
X136912628Y-122692857D02*
X136941200Y-122721429D01*
X136941200Y-122721429D02*
X136969771Y-122778571D01*
X136969771Y-122778571D02*
X136969771Y-122950000D01*
X136969771Y-122950000D02*
X136941200Y-123007143D01*
X136941200Y-123007143D02*
X136912628Y-123035714D01*
X136969771Y-122378571D02*
X136969771Y-122264285D01*
X136969771Y-122264285D02*
X136941200Y-122207142D01*
X136941200Y-122207142D02*
X136912628Y-122178571D01*
X136912628Y-122178571D02*
X136826914Y-122121428D01*
X136826914Y-122121428D02*
X136712628Y-122092857D01*
X136712628Y-122092857D02*
X136484057Y-122092857D01*
X136484057Y-122092857D02*
X136426914Y-122121428D01*
X136426914Y-122121428D02*
X136398342Y-122150000D01*
X136398342Y-122150000D02*
X136369771Y-122207142D01*
X136369771Y-122207142D02*
X136369771Y-122321428D01*
X136369771Y-122321428D02*
X136398342Y-122378571D01*
X136398342Y-122378571D02*
X136426914Y-122407142D01*
X136426914Y-122407142D02*
X136484057Y-122435714D01*
X136484057Y-122435714D02*
X136626914Y-122435714D01*
X136626914Y-122435714D02*
X136684057Y-122407142D01*
X136684057Y-122407142D02*
X136712628Y-122378571D01*
X136712628Y-122378571D02*
X136741200Y-122321428D01*
X136741200Y-122321428D02*
X136741200Y-122207142D01*
X136741200Y-122207142D02*
X136712628Y-122150000D01*
X136712628Y-122150000D02*
X136684057Y-122121428D01*
X136684057Y-122121428D02*
X136626914Y-122092857D01*
X141250000Y-125362628D02*
X141221428Y-125391200D01*
X141221428Y-125391200D02*
X141135714Y-125419771D01*
X141135714Y-125419771D02*
X141078571Y-125419771D01*
X141078571Y-125419771D02*
X140992857Y-125391200D01*
X140992857Y-125391200D02*
X140935714Y-125334057D01*
X140935714Y-125334057D02*
X140907143Y-125276914D01*
X140907143Y-125276914D02*
X140878571Y-125162628D01*
X140878571Y-125162628D02*
X140878571Y-125076914D01*
X140878571Y-125076914D02*
X140907143Y-124962628D01*
X140907143Y-124962628D02*
X140935714Y-124905485D01*
X140935714Y-124905485D02*
X140992857Y-124848342D01*
X140992857Y-124848342D02*
X141078571Y-124819771D01*
X141078571Y-124819771D02*
X141135714Y-124819771D01*
X141135714Y-124819771D02*
X141221428Y-124848342D01*
X141221428Y-124848342D02*
X141250000Y-124876914D01*
X141450000Y-124819771D02*
X141821428Y-124819771D01*
X141821428Y-124819771D02*
X141621428Y-125048342D01*
X141621428Y-125048342D02*
X141707143Y-125048342D01*
X141707143Y-125048342D02*
X141764286Y-125076914D01*
X141764286Y-125076914D02*
X141792857Y-125105485D01*
X141792857Y-125105485D02*
X141821428Y-125162628D01*
X141821428Y-125162628D02*
X141821428Y-125305485D01*
X141821428Y-125305485D02*
X141792857Y-125362628D01*
X141792857Y-125362628D02*
X141764286Y-125391200D01*
X141764286Y-125391200D02*
X141707143Y-125419771D01*
X141707143Y-125419771D02*
X141535714Y-125419771D01*
X141535714Y-125419771D02*
X141478571Y-125391200D01*
X141478571Y-125391200D02*
X141450000Y-125362628D01*
X139114285Y-107812628D02*
X139085713Y-107841200D01*
X139085713Y-107841200D02*
X138999999Y-107869771D01*
X138999999Y-107869771D02*
X138942856Y-107869771D01*
X138942856Y-107869771D02*
X138857142Y-107841200D01*
X138857142Y-107841200D02*
X138799999Y-107784057D01*
X138799999Y-107784057D02*
X138771428Y-107726914D01*
X138771428Y-107726914D02*
X138742856Y-107612628D01*
X138742856Y-107612628D02*
X138742856Y-107526914D01*
X138742856Y-107526914D02*
X138771428Y-107412628D01*
X138771428Y-107412628D02*
X138799999Y-107355485D01*
X138799999Y-107355485D02*
X138857142Y-107298342D01*
X138857142Y-107298342D02*
X138942856Y-107269771D01*
X138942856Y-107269771D02*
X138999999Y-107269771D01*
X138999999Y-107269771D02*
X139085713Y-107298342D01*
X139085713Y-107298342D02*
X139114285Y-107326914D01*
X139314285Y-107269771D02*
X139685713Y-107269771D01*
X139685713Y-107269771D02*
X139485713Y-107498342D01*
X139485713Y-107498342D02*
X139571428Y-107498342D01*
X139571428Y-107498342D02*
X139628571Y-107526914D01*
X139628571Y-107526914D02*
X139657142Y-107555485D01*
X139657142Y-107555485D02*
X139685713Y-107612628D01*
X139685713Y-107612628D02*
X139685713Y-107755485D01*
X139685713Y-107755485D02*
X139657142Y-107812628D01*
X139657142Y-107812628D02*
X139628571Y-107841200D01*
X139628571Y-107841200D02*
X139571428Y-107869771D01*
X139571428Y-107869771D02*
X139399999Y-107869771D01*
X139399999Y-107869771D02*
X139342856Y-107841200D01*
X139342856Y-107841200D02*
X139314285Y-107812628D01*
X140028571Y-107526914D02*
X139971428Y-107498342D01*
X139971428Y-107498342D02*
X139942857Y-107469771D01*
X139942857Y-107469771D02*
X139914285Y-107412628D01*
X139914285Y-107412628D02*
X139914285Y-107384057D01*
X139914285Y-107384057D02*
X139942857Y-107326914D01*
X139942857Y-107326914D02*
X139971428Y-107298342D01*
X139971428Y-107298342D02*
X140028571Y-107269771D01*
X140028571Y-107269771D02*
X140142857Y-107269771D01*
X140142857Y-107269771D02*
X140200000Y-107298342D01*
X140200000Y-107298342D02*
X140228571Y-107326914D01*
X140228571Y-107326914D02*
X140257142Y-107384057D01*
X140257142Y-107384057D02*
X140257142Y-107412628D01*
X140257142Y-107412628D02*
X140228571Y-107469771D01*
X140228571Y-107469771D02*
X140200000Y-107498342D01*
X140200000Y-107498342D02*
X140142857Y-107526914D01*
X140142857Y-107526914D02*
X140028571Y-107526914D01*
X140028571Y-107526914D02*
X139971428Y-107555485D01*
X139971428Y-107555485D02*
X139942857Y-107584057D01*
X139942857Y-107584057D02*
X139914285Y-107641200D01*
X139914285Y-107641200D02*
X139914285Y-107755485D01*
X139914285Y-107755485D02*
X139942857Y-107812628D01*
X139942857Y-107812628D02*
X139971428Y-107841200D01*
X139971428Y-107841200D02*
X140028571Y-107869771D01*
X140028571Y-107869771D02*
X140142857Y-107869771D01*
X140142857Y-107869771D02*
X140200000Y-107841200D01*
X140200000Y-107841200D02*
X140228571Y-107812628D01*
X140228571Y-107812628D02*
X140257142Y-107755485D01*
X140257142Y-107755485D02*
X140257142Y-107641200D01*
X140257142Y-107641200D02*
X140228571Y-107584057D01*
X140228571Y-107584057D02*
X140200000Y-107555485D01*
X140200000Y-107555485D02*
X140142857Y-107526914D01*
X124410000Y-121269771D02*
X124210000Y-120984057D01*
X124067143Y-121269771D02*
X124067143Y-120669771D01*
X124067143Y-120669771D02*
X124295714Y-120669771D01*
X124295714Y-120669771D02*
X124352857Y-120698342D01*
X124352857Y-120698342D02*
X124381428Y-120726914D01*
X124381428Y-120726914D02*
X124410000Y-120784057D01*
X124410000Y-120784057D02*
X124410000Y-120869771D01*
X124410000Y-120869771D02*
X124381428Y-120926914D01*
X124381428Y-120926914D02*
X124352857Y-120955485D01*
X124352857Y-120955485D02*
X124295714Y-120984057D01*
X124295714Y-120984057D02*
X124067143Y-120984057D01*
X124924286Y-120869771D02*
X124924286Y-121269771D01*
X124781428Y-120641200D02*
X124638571Y-121069771D01*
X124638571Y-121069771D02*
X125010000Y-121069771D01*
X108650000Y-95719771D02*
X108450000Y-95434057D01*
X108307143Y-95719771D02*
X108307143Y-95119771D01*
X108307143Y-95119771D02*
X108535714Y-95119771D01*
X108535714Y-95119771D02*
X108592857Y-95148342D01*
X108592857Y-95148342D02*
X108621428Y-95176914D01*
X108621428Y-95176914D02*
X108650000Y-95234057D01*
X108650000Y-95234057D02*
X108650000Y-95319771D01*
X108650000Y-95319771D02*
X108621428Y-95376914D01*
X108621428Y-95376914D02*
X108592857Y-95405485D01*
X108592857Y-95405485D02*
X108535714Y-95434057D01*
X108535714Y-95434057D02*
X108307143Y-95434057D01*
X109221428Y-95719771D02*
X108878571Y-95719771D01*
X109050000Y-95719771D02*
X109050000Y-95119771D01*
X109050000Y-95119771D02*
X108992857Y-95205485D01*
X108992857Y-95205485D02*
X108935714Y-95262628D01*
X108935714Y-95262628D02*
X108878571Y-95291200D01*
X122969771Y-84575714D02*
X122684057Y-84775714D01*
X122969771Y-84918571D02*
X122369771Y-84918571D01*
X122369771Y-84918571D02*
X122369771Y-84690000D01*
X122369771Y-84690000D02*
X122398342Y-84632857D01*
X122398342Y-84632857D02*
X122426914Y-84604286D01*
X122426914Y-84604286D02*
X122484057Y-84575714D01*
X122484057Y-84575714D02*
X122569771Y-84575714D01*
X122569771Y-84575714D02*
X122626914Y-84604286D01*
X122626914Y-84604286D02*
X122655485Y-84632857D01*
X122655485Y-84632857D02*
X122684057Y-84690000D01*
X122684057Y-84690000D02*
X122684057Y-84918571D01*
X122426914Y-84347143D02*
X122398342Y-84318571D01*
X122398342Y-84318571D02*
X122369771Y-84261429D01*
X122369771Y-84261429D02*
X122369771Y-84118571D01*
X122369771Y-84118571D02*
X122398342Y-84061429D01*
X122398342Y-84061429D02*
X122426914Y-84032857D01*
X122426914Y-84032857D02*
X122484057Y-84004286D01*
X122484057Y-84004286D02*
X122541200Y-84004286D01*
X122541200Y-84004286D02*
X122626914Y-84032857D01*
X122626914Y-84032857D02*
X122969771Y-84375714D01*
X122969771Y-84375714D02*
X122969771Y-84004286D01*
X122369771Y-83804285D02*
X122369771Y-83404285D01*
X122369771Y-83404285D02*
X122969771Y-83661428D01*
X126119771Y-84575714D02*
X125834057Y-84775714D01*
X126119771Y-84918571D02*
X125519771Y-84918571D01*
X125519771Y-84918571D02*
X125519771Y-84690000D01*
X125519771Y-84690000D02*
X125548342Y-84632857D01*
X125548342Y-84632857D02*
X125576914Y-84604286D01*
X125576914Y-84604286D02*
X125634057Y-84575714D01*
X125634057Y-84575714D02*
X125719771Y-84575714D01*
X125719771Y-84575714D02*
X125776914Y-84604286D01*
X125776914Y-84604286D02*
X125805485Y-84632857D01*
X125805485Y-84632857D02*
X125834057Y-84690000D01*
X125834057Y-84690000D02*
X125834057Y-84918571D01*
X125576914Y-84347143D02*
X125548342Y-84318571D01*
X125548342Y-84318571D02*
X125519771Y-84261429D01*
X125519771Y-84261429D02*
X125519771Y-84118571D01*
X125519771Y-84118571D02*
X125548342Y-84061429D01*
X125548342Y-84061429D02*
X125576914Y-84032857D01*
X125576914Y-84032857D02*
X125634057Y-84004286D01*
X125634057Y-84004286D02*
X125691200Y-84004286D01*
X125691200Y-84004286D02*
X125776914Y-84032857D01*
X125776914Y-84032857D02*
X126119771Y-84375714D01*
X126119771Y-84375714D02*
X126119771Y-84004286D01*
X125719771Y-83490000D02*
X126119771Y-83490000D01*
X125491200Y-83632857D02*
X125919771Y-83775714D01*
X125919771Y-83775714D02*
X125919771Y-83404285D01*
X138314285Y-118019771D02*
X138714285Y-118619771D01*
X138714285Y-118019771D02*
X138314285Y-118619771D01*
X139257142Y-118619771D02*
X138914285Y-118619771D01*
X139085714Y-118619771D02*
X139085714Y-118019771D01*
X139085714Y-118019771D02*
X139028571Y-118105485D01*
X139028571Y-118105485D02*
X138971428Y-118162628D01*
X138971428Y-118162628D02*
X138914285Y-118191200D01*
X107499771Y-115749999D02*
X107214057Y-115949999D01*
X107499771Y-116092856D02*
X106899771Y-116092856D01*
X106899771Y-116092856D02*
X106899771Y-115864285D01*
X106899771Y-115864285D02*
X106928342Y-115807142D01*
X106928342Y-115807142D02*
X106956914Y-115778571D01*
X106956914Y-115778571D02*
X107014057Y-115749999D01*
X107014057Y-115749999D02*
X107099771Y-115749999D01*
X107099771Y-115749999D02*
X107156914Y-115778571D01*
X107156914Y-115778571D02*
X107185485Y-115807142D01*
X107185485Y-115807142D02*
X107214057Y-115864285D01*
X107214057Y-115864285D02*
X107214057Y-116092856D01*
X107156914Y-115407142D02*
X107128342Y-115464285D01*
X107128342Y-115464285D02*
X107099771Y-115492856D01*
X107099771Y-115492856D02*
X107042628Y-115521428D01*
X107042628Y-115521428D02*
X107014057Y-115521428D01*
X107014057Y-115521428D02*
X106956914Y-115492856D01*
X106956914Y-115492856D02*
X106928342Y-115464285D01*
X106928342Y-115464285D02*
X106899771Y-115407142D01*
X106899771Y-115407142D02*
X106899771Y-115292856D01*
X106899771Y-115292856D02*
X106928342Y-115235714D01*
X106928342Y-115235714D02*
X106956914Y-115207142D01*
X106956914Y-115207142D02*
X107014057Y-115178571D01*
X107014057Y-115178571D02*
X107042628Y-115178571D01*
X107042628Y-115178571D02*
X107099771Y-115207142D01*
X107099771Y-115207142D02*
X107128342Y-115235714D01*
X107128342Y-115235714D02*
X107156914Y-115292856D01*
X107156914Y-115292856D02*
X107156914Y-115407142D01*
X107156914Y-115407142D02*
X107185485Y-115464285D01*
X107185485Y-115464285D02*
X107214057Y-115492856D01*
X107214057Y-115492856D02*
X107271200Y-115521428D01*
X107271200Y-115521428D02*
X107385485Y-115521428D01*
X107385485Y-115521428D02*
X107442628Y-115492856D01*
X107442628Y-115492856D02*
X107471200Y-115464285D01*
X107471200Y-115464285D02*
X107499771Y-115407142D01*
X107499771Y-115407142D02*
X107499771Y-115292856D01*
X107499771Y-115292856D02*
X107471200Y-115235714D01*
X107471200Y-115235714D02*
X107442628Y-115207142D01*
X107442628Y-115207142D02*
X107385485Y-115178571D01*
X107385485Y-115178571D02*
X107271200Y-115178571D01*
X107271200Y-115178571D02*
X107214057Y-115207142D01*
X107214057Y-115207142D02*
X107185485Y-115235714D01*
X107185485Y-115235714D02*
X107156914Y-115292856D01*
X127219771Y-84615714D02*
X126934057Y-84815714D01*
X127219771Y-84958571D02*
X126619771Y-84958571D01*
X126619771Y-84958571D02*
X126619771Y-84730000D01*
X126619771Y-84730000D02*
X126648342Y-84672857D01*
X126648342Y-84672857D02*
X126676914Y-84644286D01*
X126676914Y-84644286D02*
X126734057Y-84615714D01*
X126734057Y-84615714D02*
X126819771Y-84615714D01*
X126819771Y-84615714D02*
X126876914Y-84644286D01*
X126876914Y-84644286D02*
X126905485Y-84672857D01*
X126905485Y-84672857D02*
X126934057Y-84730000D01*
X126934057Y-84730000D02*
X126934057Y-84958571D01*
X126676914Y-84387143D02*
X126648342Y-84358571D01*
X126648342Y-84358571D02*
X126619771Y-84301429D01*
X126619771Y-84301429D02*
X126619771Y-84158571D01*
X126619771Y-84158571D02*
X126648342Y-84101429D01*
X126648342Y-84101429D02*
X126676914Y-84072857D01*
X126676914Y-84072857D02*
X126734057Y-84044286D01*
X126734057Y-84044286D02*
X126791200Y-84044286D01*
X126791200Y-84044286D02*
X126876914Y-84072857D01*
X126876914Y-84072857D02*
X127219771Y-84415714D01*
X127219771Y-84415714D02*
X127219771Y-84044286D01*
X126619771Y-83844285D02*
X126619771Y-83472857D01*
X126619771Y-83472857D02*
X126848342Y-83672857D01*
X126848342Y-83672857D02*
X126848342Y-83587142D01*
X126848342Y-83587142D02*
X126876914Y-83530000D01*
X126876914Y-83530000D02*
X126905485Y-83501428D01*
X126905485Y-83501428D02*
X126962628Y-83472857D01*
X126962628Y-83472857D02*
X127105485Y-83472857D01*
X127105485Y-83472857D02*
X127162628Y-83501428D01*
X127162628Y-83501428D02*
X127191200Y-83530000D01*
X127191200Y-83530000D02*
X127219771Y-83587142D01*
X127219771Y-83587142D02*
X127219771Y-83758571D01*
X127219771Y-83758571D02*
X127191200Y-83815714D01*
X127191200Y-83815714D02*
X127162628Y-83844285D01*
D11*
X127462318Y-113689762D02*
X126192318Y-113689762D01*
X127341365Y-112359285D02*
X127401842Y-112419761D01*
X127401842Y-112419761D02*
X127462318Y-112601190D01*
X127462318Y-112601190D02*
X127462318Y-112722142D01*
X127462318Y-112722142D02*
X127401842Y-112903571D01*
X127401842Y-112903571D02*
X127280889Y-113024523D01*
X127280889Y-113024523D02*
X127159937Y-113085000D01*
X127159937Y-113085000D02*
X126918032Y-113145476D01*
X126918032Y-113145476D02*
X126736603Y-113145476D01*
X126736603Y-113145476D02*
X126494699Y-113085000D01*
X126494699Y-113085000D02*
X126373746Y-113024523D01*
X126373746Y-113024523D02*
X126252794Y-112903571D01*
X126252794Y-112903571D02*
X126192318Y-112722142D01*
X126192318Y-112722142D02*
X126192318Y-112601190D01*
X126192318Y-112601190D02*
X126252794Y-112419761D01*
X126252794Y-112419761D02*
X126313270Y-112359285D01*
X127462318Y-111149761D02*
X127462318Y-111875476D01*
X127462318Y-111512619D02*
X126192318Y-111512619D01*
X126192318Y-111512619D02*
X126373746Y-111633571D01*
X126373746Y-111633571D02*
X126494699Y-111754523D01*
X126494699Y-111754523D02*
X126555175Y-111875476D01*
D10*
X113850000Y-101212628D02*
X113821428Y-101241200D01*
X113821428Y-101241200D02*
X113735714Y-101269771D01*
X113735714Y-101269771D02*
X113678571Y-101269771D01*
X113678571Y-101269771D02*
X113592857Y-101241200D01*
X113592857Y-101241200D02*
X113535714Y-101184057D01*
X113535714Y-101184057D02*
X113507143Y-101126914D01*
X113507143Y-101126914D02*
X113478571Y-101012628D01*
X113478571Y-101012628D02*
X113478571Y-100926914D01*
X113478571Y-100926914D02*
X113507143Y-100812628D01*
X113507143Y-100812628D02*
X113535714Y-100755485D01*
X113535714Y-100755485D02*
X113592857Y-100698342D01*
X113592857Y-100698342D02*
X113678571Y-100669771D01*
X113678571Y-100669771D02*
X113735714Y-100669771D01*
X113735714Y-100669771D02*
X113821428Y-100698342D01*
X113821428Y-100698342D02*
X113850000Y-100726914D01*
X114078571Y-100726914D02*
X114107143Y-100698342D01*
X114107143Y-100698342D02*
X114164286Y-100669771D01*
X114164286Y-100669771D02*
X114307143Y-100669771D01*
X114307143Y-100669771D02*
X114364286Y-100698342D01*
X114364286Y-100698342D02*
X114392857Y-100726914D01*
X114392857Y-100726914D02*
X114421428Y-100784057D01*
X114421428Y-100784057D02*
X114421428Y-100841200D01*
X114421428Y-100841200D02*
X114392857Y-100926914D01*
X114392857Y-100926914D02*
X114050000Y-101269771D01*
X114050000Y-101269771D02*
X114421428Y-101269771D01*
X149879771Y-90900000D02*
X150308342Y-90900000D01*
X150308342Y-90900000D02*
X150394057Y-90928571D01*
X150394057Y-90928571D02*
X150451200Y-90985714D01*
X150451200Y-90985714D02*
X150479771Y-91071428D01*
X150479771Y-91071428D02*
X150479771Y-91128571D01*
X149879771Y-90328571D02*
X149879771Y-90614285D01*
X149879771Y-90614285D02*
X150165485Y-90642857D01*
X150165485Y-90642857D02*
X150136914Y-90614285D01*
X150136914Y-90614285D02*
X150108342Y-90557143D01*
X150108342Y-90557143D02*
X150108342Y-90414285D01*
X150108342Y-90414285D02*
X150136914Y-90357143D01*
X150136914Y-90357143D02*
X150165485Y-90328571D01*
X150165485Y-90328571D02*
X150222628Y-90300000D01*
X150222628Y-90300000D02*
X150365485Y-90300000D01*
X150365485Y-90300000D02*
X150422628Y-90328571D01*
X150422628Y-90328571D02*
X150451200Y-90357143D01*
X150451200Y-90357143D02*
X150479771Y-90414285D01*
X150479771Y-90414285D02*
X150479771Y-90557143D01*
X150479771Y-90557143D02*
X150451200Y-90614285D01*
X150451200Y-90614285D02*
X150422628Y-90642857D01*
X123951785Y-123787628D02*
X123923213Y-123816200D01*
X123923213Y-123816200D02*
X123837499Y-123844771D01*
X123837499Y-123844771D02*
X123780356Y-123844771D01*
X123780356Y-123844771D02*
X123694642Y-123816200D01*
X123694642Y-123816200D02*
X123637499Y-123759057D01*
X123637499Y-123759057D02*
X123608928Y-123701914D01*
X123608928Y-123701914D02*
X123580356Y-123587628D01*
X123580356Y-123587628D02*
X123580356Y-123501914D01*
X123580356Y-123501914D02*
X123608928Y-123387628D01*
X123608928Y-123387628D02*
X123637499Y-123330485D01*
X123637499Y-123330485D02*
X123694642Y-123273342D01*
X123694642Y-123273342D02*
X123780356Y-123244771D01*
X123780356Y-123244771D02*
X123837499Y-123244771D01*
X123837499Y-123244771D02*
X123923213Y-123273342D01*
X123923213Y-123273342D02*
X123951785Y-123301914D01*
X124151785Y-123244771D02*
X124523213Y-123244771D01*
X124523213Y-123244771D02*
X124323213Y-123473342D01*
X124323213Y-123473342D02*
X124408928Y-123473342D01*
X124408928Y-123473342D02*
X124466071Y-123501914D01*
X124466071Y-123501914D02*
X124494642Y-123530485D01*
X124494642Y-123530485D02*
X124523213Y-123587628D01*
X124523213Y-123587628D02*
X124523213Y-123730485D01*
X124523213Y-123730485D02*
X124494642Y-123787628D01*
X124494642Y-123787628D02*
X124466071Y-123816200D01*
X124466071Y-123816200D02*
X124408928Y-123844771D01*
X124408928Y-123844771D02*
X124237499Y-123844771D01*
X124237499Y-123844771D02*
X124180356Y-123816200D01*
X124180356Y-123816200D02*
X124151785Y-123787628D01*
X125066071Y-123244771D02*
X124780357Y-123244771D01*
X124780357Y-123244771D02*
X124751785Y-123530485D01*
X124751785Y-123530485D02*
X124780357Y-123501914D01*
X124780357Y-123501914D02*
X124837500Y-123473342D01*
X124837500Y-123473342D02*
X124980357Y-123473342D01*
X124980357Y-123473342D02*
X125037500Y-123501914D01*
X125037500Y-123501914D02*
X125066071Y-123530485D01*
X125066071Y-123530485D02*
X125094642Y-123587628D01*
X125094642Y-123587628D02*
X125094642Y-123730485D01*
X125094642Y-123730485D02*
X125066071Y-123787628D01*
X125066071Y-123787628D02*
X125037500Y-123816200D01*
X125037500Y-123816200D02*
X124980357Y-123844771D01*
X124980357Y-123844771D02*
X124837500Y-123844771D01*
X124837500Y-123844771D02*
X124780357Y-123816200D01*
X124780357Y-123816200D02*
X124751785Y-123787628D01*
X115514285Y-111962628D02*
X115485713Y-111991200D01*
X115485713Y-111991200D02*
X115399999Y-112019771D01*
X115399999Y-112019771D02*
X115342856Y-112019771D01*
X115342856Y-112019771D02*
X115257142Y-111991200D01*
X115257142Y-111991200D02*
X115199999Y-111934057D01*
X115199999Y-111934057D02*
X115171428Y-111876914D01*
X115171428Y-111876914D02*
X115142856Y-111762628D01*
X115142856Y-111762628D02*
X115142856Y-111676914D01*
X115142856Y-111676914D02*
X115171428Y-111562628D01*
X115171428Y-111562628D02*
X115199999Y-111505485D01*
X115199999Y-111505485D02*
X115257142Y-111448342D01*
X115257142Y-111448342D02*
X115342856Y-111419771D01*
X115342856Y-111419771D02*
X115399999Y-111419771D01*
X115399999Y-111419771D02*
X115485713Y-111448342D01*
X115485713Y-111448342D02*
X115514285Y-111476914D01*
X115742856Y-111476914D02*
X115771428Y-111448342D01*
X115771428Y-111448342D02*
X115828571Y-111419771D01*
X115828571Y-111419771D02*
X115971428Y-111419771D01*
X115971428Y-111419771D02*
X116028571Y-111448342D01*
X116028571Y-111448342D02*
X116057142Y-111476914D01*
X116057142Y-111476914D02*
X116085713Y-111534057D01*
X116085713Y-111534057D02*
X116085713Y-111591200D01*
X116085713Y-111591200D02*
X116057142Y-111676914D01*
X116057142Y-111676914D02*
X115714285Y-112019771D01*
X115714285Y-112019771D02*
X116085713Y-112019771D01*
X116371428Y-112019771D02*
X116485714Y-112019771D01*
X116485714Y-112019771D02*
X116542857Y-111991200D01*
X116542857Y-111991200D02*
X116571428Y-111962628D01*
X116571428Y-111962628D02*
X116628571Y-111876914D01*
X116628571Y-111876914D02*
X116657142Y-111762628D01*
X116657142Y-111762628D02*
X116657142Y-111534057D01*
X116657142Y-111534057D02*
X116628571Y-111476914D01*
X116628571Y-111476914D02*
X116600000Y-111448342D01*
X116600000Y-111448342D02*
X116542857Y-111419771D01*
X116542857Y-111419771D02*
X116428571Y-111419771D01*
X116428571Y-111419771D02*
X116371428Y-111448342D01*
X116371428Y-111448342D02*
X116342857Y-111476914D01*
X116342857Y-111476914D02*
X116314285Y-111534057D01*
X116314285Y-111534057D02*
X116314285Y-111676914D01*
X116314285Y-111676914D02*
X116342857Y-111734057D01*
X116342857Y-111734057D02*
X116371428Y-111762628D01*
X116371428Y-111762628D02*
X116428571Y-111791200D01*
X116428571Y-111791200D02*
X116542857Y-111791200D01*
X116542857Y-111791200D02*
X116600000Y-111762628D01*
X116600000Y-111762628D02*
X116628571Y-111734057D01*
X116628571Y-111734057D02*
X116657142Y-111676914D01*
X124044285Y-122462628D02*
X124015713Y-122491200D01*
X124015713Y-122491200D02*
X123929999Y-122519771D01*
X123929999Y-122519771D02*
X123872856Y-122519771D01*
X123872856Y-122519771D02*
X123787142Y-122491200D01*
X123787142Y-122491200D02*
X123729999Y-122434057D01*
X123729999Y-122434057D02*
X123701428Y-122376914D01*
X123701428Y-122376914D02*
X123672856Y-122262628D01*
X123672856Y-122262628D02*
X123672856Y-122176914D01*
X123672856Y-122176914D02*
X123701428Y-122062628D01*
X123701428Y-122062628D02*
X123729999Y-122005485D01*
X123729999Y-122005485D02*
X123787142Y-121948342D01*
X123787142Y-121948342D02*
X123872856Y-121919771D01*
X123872856Y-121919771D02*
X123929999Y-121919771D01*
X123929999Y-121919771D02*
X124015713Y-121948342D01*
X124015713Y-121948342D02*
X124044285Y-121976914D01*
X124244285Y-121919771D02*
X124615713Y-121919771D01*
X124615713Y-121919771D02*
X124415713Y-122148342D01*
X124415713Y-122148342D02*
X124501428Y-122148342D01*
X124501428Y-122148342D02*
X124558571Y-122176914D01*
X124558571Y-122176914D02*
X124587142Y-122205485D01*
X124587142Y-122205485D02*
X124615713Y-122262628D01*
X124615713Y-122262628D02*
X124615713Y-122405485D01*
X124615713Y-122405485D02*
X124587142Y-122462628D01*
X124587142Y-122462628D02*
X124558571Y-122491200D01*
X124558571Y-122491200D02*
X124501428Y-122519771D01*
X124501428Y-122519771D02*
X124329999Y-122519771D01*
X124329999Y-122519771D02*
X124272856Y-122491200D01*
X124272856Y-122491200D02*
X124244285Y-122462628D01*
X125130000Y-121919771D02*
X125015714Y-121919771D01*
X125015714Y-121919771D02*
X124958571Y-121948342D01*
X124958571Y-121948342D02*
X124930000Y-121976914D01*
X124930000Y-121976914D02*
X124872857Y-122062628D01*
X124872857Y-122062628D02*
X124844285Y-122176914D01*
X124844285Y-122176914D02*
X124844285Y-122405485D01*
X124844285Y-122405485D02*
X124872857Y-122462628D01*
X124872857Y-122462628D02*
X124901428Y-122491200D01*
X124901428Y-122491200D02*
X124958571Y-122519771D01*
X124958571Y-122519771D02*
X125072857Y-122519771D01*
X125072857Y-122519771D02*
X125130000Y-122491200D01*
X125130000Y-122491200D02*
X125158571Y-122462628D01*
X125158571Y-122462628D02*
X125187142Y-122405485D01*
X125187142Y-122405485D02*
X125187142Y-122262628D01*
X125187142Y-122262628D02*
X125158571Y-122205485D01*
X125158571Y-122205485D02*
X125130000Y-122176914D01*
X125130000Y-122176914D02*
X125072857Y-122148342D01*
X125072857Y-122148342D02*
X124958571Y-122148342D01*
X124958571Y-122148342D02*
X124901428Y-122176914D01*
X124901428Y-122176914D02*
X124872857Y-122205485D01*
X124872857Y-122205485D02*
X124844285Y-122262628D01*
X106842857Y-97469771D02*
X106842857Y-97955485D01*
X106842857Y-97955485D02*
X106871428Y-98012628D01*
X106871428Y-98012628D02*
X106900000Y-98041200D01*
X106900000Y-98041200D02*
X106957142Y-98069771D01*
X106957142Y-98069771D02*
X107071428Y-98069771D01*
X107071428Y-98069771D02*
X107128571Y-98041200D01*
X107128571Y-98041200D02*
X107157142Y-98012628D01*
X107157142Y-98012628D02*
X107185714Y-97955485D01*
X107185714Y-97955485D02*
X107185714Y-97469771D01*
X107785713Y-98069771D02*
X107442856Y-98069771D01*
X107614285Y-98069771D02*
X107614285Y-97469771D01*
X107614285Y-97469771D02*
X107557142Y-97555485D01*
X107557142Y-97555485D02*
X107499999Y-97612628D01*
X107499999Y-97612628D02*
X107442856Y-97641200D01*
X131749999Y-128169771D02*
X131749999Y-128598342D01*
X131749999Y-128598342D02*
X131721428Y-128684057D01*
X131721428Y-128684057D02*
X131664285Y-128741200D01*
X131664285Y-128741200D02*
X131578571Y-128769771D01*
X131578571Y-128769771D02*
X131521428Y-128769771D01*
X132292857Y-128169771D02*
X132178571Y-128169771D01*
X132178571Y-128169771D02*
X132121428Y-128198342D01*
X132121428Y-128198342D02*
X132092857Y-128226914D01*
X132092857Y-128226914D02*
X132035714Y-128312628D01*
X132035714Y-128312628D02*
X132007142Y-128426914D01*
X132007142Y-128426914D02*
X132007142Y-128655485D01*
X132007142Y-128655485D02*
X132035714Y-128712628D01*
X132035714Y-128712628D02*
X132064285Y-128741200D01*
X132064285Y-128741200D02*
X132121428Y-128769771D01*
X132121428Y-128769771D02*
X132235714Y-128769771D01*
X132235714Y-128769771D02*
X132292857Y-128741200D01*
X132292857Y-128741200D02*
X132321428Y-128712628D01*
X132321428Y-128712628D02*
X132349999Y-128655485D01*
X132349999Y-128655485D02*
X132349999Y-128512628D01*
X132349999Y-128512628D02*
X132321428Y-128455485D01*
X132321428Y-128455485D02*
X132292857Y-128426914D01*
X132292857Y-128426914D02*
X132235714Y-128398342D01*
X132235714Y-128398342D02*
X132121428Y-128398342D01*
X132121428Y-128398342D02*
X132064285Y-128426914D01*
X132064285Y-128426914D02*
X132035714Y-128455485D01*
X132035714Y-128455485D02*
X132007142Y-128512628D01*
X121919771Y-84625714D02*
X121634057Y-84825714D01*
X121919771Y-84968571D02*
X121319771Y-84968571D01*
X121319771Y-84968571D02*
X121319771Y-84740000D01*
X121319771Y-84740000D02*
X121348342Y-84682857D01*
X121348342Y-84682857D02*
X121376914Y-84654286D01*
X121376914Y-84654286D02*
X121434057Y-84625714D01*
X121434057Y-84625714D02*
X121519771Y-84625714D01*
X121519771Y-84625714D02*
X121576914Y-84654286D01*
X121576914Y-84654286D02*
X121605485Y-84682857D01*
X121605485Y-84682857D02*
X121634057Y-84740000D01*
X121634057Y-84740000D02*
X121634057Y-84968571D01*
X121376914Y-84397143D02*
X121348342Y-84368571D01*
X121348342Y-84368571D02*
X121319771Y-84311429D01*
X121319771Y-84311429D02*
X121319771Y-84168571D01*
X121319771Y-84168571D02*
X121348342Y-84111429D01*
X121348342Y-84111429D02*
X121376914Y-84082857D01*
X121376914Y-84082857D02*
X121434057Y-84054286D01*
X121434057Y-84054286D02*
X121491200Y-84054286D01*
X121491200Y-84054286D02*
X121576914Y-84082857D01*
X121576914Y-84082857D02*
X121919771Y-84425714D01*
X121919771Y-84425714D02*
X121919771Y-84054286D01*
X121576914Y-83711428D02*
X121548342Y-83768571D01*
X121548342Y-83768571D02*
X121519771Y-83797142D01*
X121519771Y-83797142D02*
X121462628Y-83825714D01*
X121462628Y-83825714D02*
X121434057Y-83825714D01*
X121434057Y-83825714D02*
X121376914Y-83797142D01*
X121376914Y-83797142D02*
X121348342Y-83768571D01*
X121348342Y-83768571D02*
X121319771Y-83711428D01*
X121319771Y-83711428D02*
X121319771Y-83597142D01*
X121319771Y-83597142D02*
X121348342Y-83540000D01*
X121348342Y-83540000D02*
X121376914Y-83511428D01*
X121376914Y-83511428D02*
X121434057Y-83482857D01*
X121434057Y-83482857D02*
X121462628Y-83482857D01*
X121462628Y-83482857D02*
X121519771Y-83511428D01*
X121519771Y-83511428D02*
X121548342Y-83540000D01*
X121548342Y-83540000D02*
X121576914Y-83597142D01*
X121576914Y-83597142D02*
X121576914Y-83711428D01*
X121576914Y-83711428D02*
X121605485Y-83768571D01*
X121605485Y-83768571D02*
X121634057Y-83797142D01*
X121634057Y-83797142D02*
X121691200Y-83825714D01*
X121691200Y-83825714D02*
X121805485Y-83825714D01*
X121805485Y-83825714D02*
X121862628Y-83797142D01*
X121862628Y-83797142D02*
X121891200Y-83768571D01*
X121891200Y-83768571D02*
X121919771Y-83711428D01*
X121919771Y-83711428D02*
X121919771Y-83597142D01*
X121919771Y-83597142D02*
X121891200Y-83540000D01*
X121891200Y-83540000D02*
X121862628Y-83511428D01*
X121862628Y-83511428D02*
X121805485Y-83482857D01*
X121805485Y-83482857D02*
X121691200Y-83482857D01*
X121691200Y-83482857D02*
X121634057Y-83511428D01*
X121634057Y-83511428D02*
X121605485Y-83540000D01*
X121605485Y-83540000D02*
X121576914Y-83597142D01*
X127750000Y-126919771D02*
X127550000Y-126634057D01*
X127407143Y-126919771D02*
X127407143Y-126319771D01*
X127407143Y-126319771D02*
X127635714Y-126319771D01*
X127635714Y-126319771D02*
X127692857Y-126348342D01*
X127692857Y-126348342D02*
X127721428Y-126376914D01*
X127721428Y-126376914D02*
X127750000Y-126434057D01*
X127750000Y-126434057D02*
X127750000Y-126519771D01*
X127750000Y-126519771D02*
X127721428Y-126576914D01*
X127721428Y-126576914D02*
X127692857Y-126605485D01*
X127692857Y-126605485D02*
X127635714Y-126634057D01*
X127635714Y-126634057D02*
X127407143Y-126634057D01*
X127978571Y-126376914D02*
X128007143Y-126348342D01*
X128007143Y-126348342D02*
X128064286Y-126319771D01*
X128064286Y-126319771D02*
X128207143Y-126319771D01*
X128207143Y-126319771D02*
X128264286Y-126348342D01*
X128264286Y-126348342D02*
X128292857Y-126376914D01*
X128292857Y-126376914D02*
X128321428Y-126434057D01*
X128321428Y-126434057D02*
X128321428Y-126491200D01*
X128321428Y-126491200D02*
X128292857Y-126576914D01*
X128292857Y-126576914D02*
X127950000Y-126919771D01*
X127950000Y-126919771D02*
X128321428Y-126919771D01*
X115014285Y-117112628D02*
X114985713Y-117141200D01*
X114985713Y-117141200D02*
X114899999Y-117169771D01*
X114899999Y-117169771D02*
X114842856Y-117169771D01*
X114842856Y-117169771D02*
X114757142Y-117141200D01*
X114757142Y-117141200D02*
X114699999Y-117084057D01*
X114699999Y-117084057D02*
X114671428Y-117026914D01*
X114671428Y-117026914D02*
X114642856Y-116912628D01*
X114642856Y-116912628D02*
X114642856Y-116826914D01*
X114642856Y-116826914D02*
X114671428Y-116712628D01*
X114671428Y-116712628D02*
X114699999Y-116655485D01*
X114699999Y-116655485D02*
X114757142Y-116598342D01*
X114757142Y-116598342D02*
X114842856Y-116569771D01*
X114842856Y-116569771D02*
X114899999Y-116569771D01*
X114899999Y-116569771D02*
X114985713Y-116598342D01*
X114985713Y-116598342D02*
X115014285Y-116626914D01*
X115214285Y-116569771D02*
X115585713Y-116569771D01*
X115585713Y-116569771D02*
X115385713Y-116798342D01*
X115385713Y-116798342D02*
X115471428Y-116798342D01*
X115471428Y-116798342D02*
X115528571Y-116826914D01*
X115528571Y-116826914D02*
X115557142Y-116855485D01*
X115557142Y-116855485D02*
X115585713Y-116912628D01*
X115585713Y-116912628D02*
X115585713Y-117055485D01*
X115585713Y-117055485D02*
X115557142Y-117112628D01*
X115557142Y-117112628D02*
X115528571Y-117141200D01*
X115528571Y-117141200D02*
X115471428Y-117169771D01*
X115471428Y-117169771D02*
X115299999Y-117169771D01*
X115299999Y-117169771D02*
X115242856Y-117141200D01*
X115242856Y-117141200D02*
X115214285Y-117112628D01*
X115957142Y-116569771D02*
X116014285Y-116569771D01*
X116014285Y-116569771D02*
X116071428Y-116598342D01*
X116071428Y-116598342D02*
X116100000Y-116626914D01*
X116100000Y-116626914D02*
X116128571Y-116684057D01*
X116128571Y-116684057D02*
X116157142Y-116798342D01*
X116157142Y-116798342D02*
X116157142Y-116941200D01*
X116157142Y-116941200D02*
X116128571Y-117055485D01*
X116128571Y-117055485D02*
X116100000Y-117112628D01*
X116100000Y-117112628D02*
X116071428Y-117141200D01*
X116071428Y-117141200D02*
X116014285Y-117169771D01*
X116014285Y-117169771D02*
X115957142Y-117169771D01*
X115957142Y-117169771D02*
X115900000Y-117141200D01*
X115900000Y-117141200D02*
X115871428Y-117112628D01*
X115871428Y-117112628D02*
X115842857Y-117055485D01*
X115842857Y-117055485D02*
X115814285Y-116941200D01*
X115814285Y-116941200D02*
X115814285Y-116798342D01*
X115814285Y-116798342D02*
X115842857Y-116684057D01*
X115842857Y-116684057D02*
X115871428Y-116626914D01*
X115871428Y-116626914D02*
X115900000Y-116598342D01*
X115900000Y-116598342D02*
X115957142Y-116569771D01*
X136019771Y-84615714D02*
X135734057Y-84815714D01*
X136019771Y-84958571D02*
X135419771Y-84958571D01*
X135419771Y-84958571D02*
X135419771Y-84730000D01*
X135419771Y-84730000D02*
X135448342Y-84672857D01*
X135448342Y-84672857D02*
X135476914Y-84644286D01*
X135476914Y-84644286D02*
X135534057Y-84615714D01*
X135534057Y-84615714D02*
X135619771Y-84615714D01*
X135619771Y-84615714D02*
X135676914Y-84644286D01*
X135676914Y-84644286D02*
X135705485Y-84672857D01*
X135705485Y-84672857D02*
X135734057Y-84730000D01*
X135734057Y-84730000D02*
X135734057Y-84958571D01*
X136019771Y-84044286D02*
X136019771Y-84387143D01*
X136019771Y-84215714D02*
X135419771Y-84215714D01*
X135419771Y-84215714D02*
X135505485Y-84272857D01*
X135505485Y-84272857D02*
X135562628Y-84330000D01*
X135562628Y-84330000D02*
X135591200Y-84387143D01*
X135419771Y-83501428D02*
X135419771Y-83787142D01*
X135419771Y-83787142D02*
X135705485Y-83815714D01*
X135705485Y-83815714D02*
X135676914Y-83787142D01*
X135676914Y-83787142D02*
X135648342Y-83730000D01*
X135648342Y-83730000D02*
X135648342Y-83587142D01*
X135648342Y-83587142D02*
X135676914Y-83530000D01*
X135676914Y-83530000D02*
X135705485Y-83501428D01*
X135705485Y-83501428D02*
X135762628Y-83472857D01*
X135762628Y-83472857D02*
X135905485Y-83472857D01*
X135905485Y-83472857D02*
X135962628Y-83501428D01*
X135962628Y-83501428D02*
X135991200Y-83530000D01*
X135991200Y-83530000D02*
X136019771Y-83587142D01*
X136019771Y-83587142D02*
X136019771Y-83730000D01*
X136019771Y-83730000D02*
X135991200Y-83787142D01*
X135991200Y-83787142D02*
X135962628Y-83815714D01*
X133402628Y-101485714D02*
X133431200Y-101514286D01*
X133431200Y-101514286D02*
X133459771Y-101600000D01*
X133459771Y-101600000D02*
X133459771Y-101657143D01*
X133459771Y-101657143D02*
X133431200Y-101742857D01*
X133431200Y-101742857D02*
X133374057Y-101800000D01*
X133374057Y-101800000D02*
X133316914Y-101828571D01*
X133316914Y-101828571D02*
X133202628Y-101857143D01*
X133202628Y-101857143D02*
X133116914Y-101857143D01*
X133116914Y-101857143D02*
X133002628Y-101828571D01*
X133002628Y-101828571D02*
X132945485Y-101800000D01*
X132945485Y-101800000D02*
X132888342Y-101742857D01*
X132888342Y-101742857D02*
X132859771Y-101657143D01*
X132859771Y-101657143D02*
X132859771Y-101600000D01*
X132859771Y-101600000D02*
X132888342Y-101514286D01*
X132888342Y-101514286D02*
X132916914Y-101485714D01*
X133459771Y-100914286D02*
X133459771Y-101257143D01*
X133459771Y-101085714D02*
X132859771Y-101085714D01*
X132859771Y-101085714D02*
X132945485Y-101142857D01*
X132945485Y-101142857D02*
X133002628Y-101200000D01*
X133002628Y-101200000D02*
X133031200Y-101257143D01*
X132859771Y-100400000D02*
X132859771Y-100514285D01*
X132859771Y-100514285D02*
X132888342Y-100571428D01*
X132888342Y-100571428D02*
X132916914Y-100600000D01*
X132916914Y-100600000D02*
X133002628Y-100657142D01*
X133002628Y-100657142D02*
X133116914Y-100685714D01*
X133116914Y-100685714D02*
X133345485Y-100685714D01*
X133345485Y-100685714D02*
X133402628Y-100657142D01*
X133402628Y-100657142D02*
X133431200Y-100628571D01*
X133431200Y-100628571D02*
X133459771Y-100571428D01*
X133459771Y-100571428D02*
X133459771Y-100457142D01*
X133459771Y-100457142D02*
X133431200Y-100400000D01*
X133431200Y-100400000D02*
X133402628Y-100371428D01*
X133402628Y-100371428D02*
X133345485Y-100342857D01*
X133345485Y-100342857D02*
X133202628Y-100342857D01*
X133202628Y-100342857D02*
X133145485Y-100371428D01*
X133145485Y-100371428D02*
X133116914Y-100400000D01*
X133116914Y-100400000D02*
X133088342Y-100457142D01*
X133088342Y-100457142D02*
X133088342Y-100571428D01*
X133088342Y-100571428D02*
X133116914Y-100628571D01*
X133116914Y-100628571D02*
X133145485Y-100657142D01*
X133145485Y-100657142D02*
X133202628Y-100685714D01*
X138319771Y-84079999D02*
X138034057Y-84279999D01*
X138319771Y-84422856D02*
X137719771Y-84422856D01*
X137719771Y-84422856D02*
X137719771Y-84194285D01*
X137719771Y-84194285D02*
X137748342Y-84137142D01*
X137748342Y-84137142D02*
X137776914Y-84108571D01*
X137776914Y-84108571D02*
X137834057Y-84079999D01*
X137834057Y-84079999D02*
X137919771Y-84079999D01*
X137919771Y-84079999D02*
X137976914Y-84108571D01*
X137976914Y-84108571D02*
X138005485Y-84137142D01*
X138005485Y-84137142D02*
X138034057Y-84194285D01*
X138034057Y-84194285D02*
X138034057Y-84422856D01*
X137719771Y-83565714D02*
X137719771Y-83679999D01*
X137719771Y-83679999D02*
X137748342Y-83737142D01*
X137748342Y-83737142D02*
X137776914Y-83765714D01*
X137776914Y-83765714D02*
X137862628Y-83822856D01*
X137862628Y-83822856D02*
X137976914Y-83851428D01*
X137976914Y-83851428D02*
X138205485Y-83851428D01*
X138205485Y-83851428D02*
X138262628Y-83822856D01*
X138262628Y-83822856D02*
X138291200Y-83794285D01*
X138291200Y-83794285D02*
X138319771Y-83737142D01*
X138319771Y-83737142D02*
X138319771Y-83622856D01*
X138319771Y-83622856D02*
X138291200Y-83565714D01*
X138291200Y-83565714D02*
X138262628Y-83537142D01*
X138262628Y-83537142D02*
X138205485Y-83508571D01*
X138205485Y-83508571D02*
X138062628Y-83508571D01*
X138062628Y-83508571D02*
X138005485Y-83537142D01*
X138005485Y-83537142D02*
X137976914Y-83565714D01*
X137976914Y-83565714D02*
X137948342Y-83622856D01*
X137948342Y-83622856D02*
X137948342Y-83737142D01*
X137948342Y-83737142D02*
X137976914Y-83794285D01*
X137976914Y-83794285D02*
X138005485Y-83822856D01*
X138005485Y-83822856D02*
X138062628Y-83851428D01*
X134819771Y-84615714D02*
X134534057Y-84815714D01*
X134819771Y-84958571D02*
X134219771Y-84958571D01*
X134219771Y-84958571D02*
X134219771Y-84730000D01*
X134219771Y-84730000D02*
X134248342Y-84672857D01*
X134248342Y-84672857D02*
X134276914Y-84644286D01*
X134276914Y-84644286D02*
X134334057Y-84615714D01*
X134334057Y-84615714D02*
X134419771Y-84615714D01*
X134419771Y-84615714D02*
X134476914Y-84644286D01*
X134476914Y-84644286D02*
X134505485Y-84672857D01*
X134505485Y-84672857D02*
X134534057Y-84730000D01*
X134534057Y-84730000D02*
X134534057Y-84958571D01*
X134819771Y-84044286D02*
X134819771Y-84387143D01*
X134819771Y-84215714D02*
X134219771Y-84215714D01*
X134219771Y-84215714D02*
X134305485Y-84272857D01*
X134305485Y-84272857D02*
X134362628Y-84330000D01*
X134362628Y-84330000D02*
X134391200Y-84387143D01*
X134219771Y-83530000D02*
X134219771Y-83644285D01*
X134219771Y-83644285D02*
X134248342Y-83701428D01*
X134248342Y-83701428D02*
X134276914Y-83730000D01*
X134276914Y-83730000D02*
X134362628Y-83787142D01*
X134362628Y-83787142D02*
X134476914Y-83815714D01*
X134476914Y-83815714D02*
X134705485Y-83815714D01*
X134705485Y-83815714D02*
X134762628Y-83787142D01*
X134762628Y-83787142D02*
X134791200Y-83758571D01*
X134791200Y-83758571D02*
X134819771Y-83701428D01*
X134819771Y-83701428D02*
X134819771Y-83587142D01*
X134819771Y-83587142D02*
X134791200Y-83530000D01*
X134791200Y-83530000D02*
X134762628Y-83501428D01*
X134762628Y-83501428D02*
X134705485Y-83472857D01*
X134705485Y-83472857D02*
X134562628Y-83472857D01*
X134562628Y-83472857D02*
X134505485Y-83501428D01*
X134505485Y-83501428D02*
X134476914Y-83530000D01*
X134476914Y-83530000D02*
X134448342Y-83587142D01*
X134448342Y-83587142D02*
X134448342Y-83701428D01*
X134448342Y-83701428D02*
X134476914Y-83758571D01*
X134476914Y-83758571D02*
X134505485Y-83787142D01*
X134505485Y-83787142D02*
X134562628Y-83815714D01*
X106992857Y-110219771D02*
X106992857Y-110705485D01*
X106992857Y-110705485D02*
X107021428Y-110762628D01*
X107021428Y-110762628D02*
X107050000Y-110791200D01*
X107050000Y-110791200D02*
X107107142Y-110819771D01*
X107107142Y-110819771D02*
X107221428Y-110819771D01*
X107221428Y-110819771D02*
X107278571Y-110791200D01*
X107278571Y-110791200D02*
X107307142Y-110762628D01*
X107307142Y-110762628D02*
X107335714Y-110705485D01*
X107335714Y-110705485D02*
X107335714Y-110219771D01*
X107907142Y-110219771D02*
X107621428Y-110219771D01*
X107621428Y-110219771D02*
X107592856Y-110505485D01*
X107592856Y-110505485D02*
X107621428Y-110476914D01*
X107621428Y-110476914D02*
X107678571Y-110448342D01*
X107678571Y-110448342D02*
X107821428Y-110448342D01*
X107821428Y-110448342D02*
X107878571Y-110476914D01*
X107878571Y-110476914D02*
X107907142Y-110505485D01*
X107907142Y-110505485D02*
X107935713Y-110562628D01*
X107935713Y-110562628D02*
X107935713Y-110705485D01*
X107935713Y-110705485D02*
X107907142Y-110762628D01*
X107907142Y-110762628D02*
X107878571Y-110791200D01*
X107878571Y-110791200D02*
X107821428Y-110819771D01*
X107821428Y-110819771D02*
X107678571Y-110819771D01*
X107678571Y-110819771D02*
X107621428Y-110791200D01*
X107621428Y-110791200D02*
X107592856Y-110762628D01*
X134502628Y-101585714D02*
X134531200Y-101614286D01*
X134531200Y-101614286D02*
X134559771Y-101700000D01*
X134559771Y-101700000D02*
X134559771Y-101757143D01*
X134559771Y-101757143D02*
X134531200Y-101842857D01*
X134531200Y-101842857D02*
X134474057Y-101900000D01*
X134474057Y-101900000D02*
X134416914Y-101928571D01*
X134416914Y-101928571D02*
X134302628Y-101957143D01*
X134302628Y-101957143D02*
X134216914Y-101957143D01*
X134216914Y-101957143D02*
X134102628Y-101928571D01*
X134102628Y-101928571D02*
X134045485Y-101900000D01*
X134045485Y-101900000D02*
X133988342Y-101842857D01*
X133988342Y-101842857D02*
X133959771Y-101757143D01*
X133959771Y-101757143D02*
X133959771Y-101700000D01*
X133959771Y-101700000D02*
X133988342Y-101614286D01*
X133988342Y-101614286D02*
X134016914Y-101585714D01*
X134559771Y-101014286D02*
X134559771Y-101357143D01*
X134559771Y-101185714D02*
X133959771Y-101185714D01*
X133959771Y-101185714D02*
X134045485Y-101242857D01*
X134045485Y-101242857D02*
X134102628Y-101300000D01*
X134102628Y-101300000D02*
X134131200Y-101357143D01*
X134159771Y-100500000D02*
X134559771Y-100500000D01*
X133931200Y-100642857D02*
X134359771Y-100785714D01*
X134359771Y-100785714D02*
X134359771Y-100414285D01*
X137169771Y-84129999D02*
X136884057Y-84329999D01*
X137169771Y-84472856D02*
X136569771Y-84472856D01*
X136569771Y-84472856D02*
X136569771Y-84244285D01*
X136569771Y-84244285D02*
X136598342Y-84187142D01*
X136598342Y-84187142D02*
X136626914Y-84158571D01*
X136626914Y-84158571D02*
X136684057Y-84129999D01*
X136684057Y-84129999D02*
X136769771Y-84129999D01*
X136769771Y-84129999D02*
X136826914Y-84158571D01*
X136826914Y-84158571D02*
X136855485Y-84187142D01*
X136855485Y-84187142D02*
X136884057Y-84244285D01*
X136884057Y-84244285D02*
X136884057Y-84472856D01*
X136569771Y-83929999D02*
X136569771Y-83529999D01*
X136569771Y-83529999D02*
X137169771Y-83787142D01*
X140450000Y-126762628D02*
X140421428Y-126791200D01*
X140421428Y-126791200D02*
X140335714Y-126819771D01*
X140335714Y-126819771D02*
X140278571Y-126819771D01*
X140278571Y-126819771D02*
X140192857Y-126791200D01*
X140192857Y-126791200D02*
X140135714Y-126734057D01*
X140135714Y-126734057D02*
X140107143Y-126676914D01*
X140107143Y-126676914D02*
X140078571Y-126562628D01*
X140078571Y-126562628D02*
X140078571Y-126476914D01*
X140078571Y-126476914D02*
X140107143Y-126362628D01*
X140107143Y-126362628D02*
X140135714Y-126305485D01*
X140135714Y-126305485D02*
X140192857Y-126248342D01*
X140192857Y-126248342D02*
X140278571Y-126219771D01*
X140278571Y-126219771D02*
X140335714Y-126219771D01*
X140335714Y-126219771D02*
X140421428Y-126248342D01*
X140421428Y-126248342D02*
X140450000Y-126276914D01*
X140964286Y-126419771D02*
X140964286Y-126819771D01*
X140821428Y-126191200D02*
X140678571Y-126619771D01*
X140678571Y-126619771D02*
X141050000Y-126619771D01*
X110000000Y-95769771D02*
X109800000Y-95484057D01*
X109657143Y-95769771D02*
X109657143Y-95169771D01*
X109657143Y-95169771D02*
X109885714Y-95169771D01*
X109885714Y-95169771D02*
X109942857Y-95198342D01*
X109942857Y-95198342D02*
X109971428Y-95226914D01*
X109971428Y-95226914D02*
X110000000Y-95284057D01*
X110000000Y-95284057D02*
X110000000Y-95369771D01*
X110000000Y-95369771D02*
X109971428Y-95426914D01*
X109971428Y-95426914D02*
X109942857Y-95455485D01*
X109942857Y-95455485D02*
X109885714Y-95484057D01*
X109885714Y-95484057D02*
X109657143Y-95484057D01*
X110542857Y-95169771D02*
X110257143Y-95169771D01*
X110257143Y-95169771D02*
X110228571Y-95455485D01*
X110228571Y-95455485D02*
X110257143Y-95426914D01*
X110257143Y-95426914D02*
X110314286Y-95398342D01*
X110314286Y-95398342D02*
X110457143Y-95398342D01*
X110457143Y-95398342D02*
X110514286Y-95426914D01*
X110514286Y-95426914D02*
X110542857Y-95455485D01*
X110542857Y-95455485D02*
X110571428Y-95512628D01*
X110571428Y-95512628D02*
X110571428Y-95655485D01*
X110571428Y-95655485D02*
X110542857Y-95712628D01*
X110542857Y-95712628D02*
X110514286Y-95741200D01*
X110514286Y-95741200D02*
X110457143Y-95769771D01*
X110457143Y-95769771D02*
X110314286Y-95769771D01*
X110314286Y-95769771D02*
X110257143Y-95741200D01*
X110257143Y-95741200D02*
X110228571Y-95712628D01*
X129369771Y-84615714D02*
X129084057Y-84815714D01*
X129369771Y-84958571D02*
X128769771Y-84958571D01*
X128769771Y-84958571D02*
X128769771Y-84730000D01*
X128769771Y-84730000D02*
X128798342Y-84672857D01*
X128798342Y-84672857D02*
X128826914Y-84644286D01*
X128826914Y-84644286D02*
X128884057Y-84615714D01*
X128884057Y-84615714D02*
X128969771Y-84615714D01*
X128969771Y-84615714D02*
X129026914Y-84644286D01*
X129026914Y-84644286D02*
X129055485Y-84672857D01*
X129055485Y-84672857D02*
X129084057Y-84730000D01*
X129084057Y-84730000D02*
X129084057Y-84958571D01*
X128826914Y-84387143D02*
X128798342Y-84358571D01*
X128798342Y-84358571D02*
X128769771Y-84301429D01*
X128769771Y-84301429D02*
X128769771Y-84158571D01*
X128769771Y-84158571D02*
X128798342Y-84101429D01*
X128798342Y-84101429D02*
X128826914Y-84072857D01*
X128826914Y-84072857D02*
X128884057Y-84044286D01*
X128884057Y-84044286D02*
X128941200Y-84044286D01*
X128941200Y-84044286D02*
X129026914Y-84072857D01*
X129026914Y-84072857D02*
X129369771Y-84415714D01*
X129369771Y-84415714D02*
X129369771Y-84044286D01*
X129369771Y-83472857D02*
X129369771Y-83815714D01*
X129369771Y-83644285D02*
X128769771Y-83644285D01*
X128769771Y-83644285D02*
X128855485Y-83701428D01*
X128855485Y-83701428D02*
X128912628Y-83758571D01*
X128912628Y-83758571D02*
X128941200Y-83815714D01*
X133819771Y-84615714D02*
X133534057Y-84815714D01*
X133819771Y-84958571D02*
X133219771Y-84958571D01*
X133219771Y-84958571D02*
X133219771Y-84730000D01*
X133219771Y-84730000D02*
X133248342Y-84672857D01*
X133248342Y-84672857D02*
X133276914Y-84644286D01*
X133276914Y-84644286D02*
X133334057Y-84615714D01*
X133334057Y-84615714D02*
X133419771Y-84615714D01*
X133419771Y-84615714D02*
X133476914Y-84644286D01*
X133476914Y-84644286D02*
X133505485Y-84672857D01*
X133505485Y-84672857D02*
X133534057Y-84730000D01*
X133534057Y-84730000D02*
X133534057Y-84958571D01*
X133819771Y-84044286D02*
X133819771Y-84387143D01*
X133819771Y-84215714D02*
X133219771Y-84215714D01*
X133219771Y-84215714D02*
X133305485Y-84272857D01*
X133305485Y-84272857D02*
X133362628Y-84330000D01*
X133362628Y-84330000D02*
X133391200Y-84387143D01*
X133219771Y-83844285D02*
X133219771Y-83444285D01*
X133219771Y-83444285D02*
X133819771Y-83701428D01*
X124019771Y-84575714D02*
X123734057Y-84775714D01*
X124019771Y-84918571D02*
X123419771Y-84918571D01*
X123419771Y-84918571D02*
X123419771Y-84690000D01*
X123419771Y-84690000D02*
X123448342Y-84632857D01*
X123448342Y-84632857D02*
X123476914Y-84604286D01*
X123476914Y-84604286D02*
X123534057Y-84575714D01*
X123534057Y-84575714D02*
X123619771Y-84575714D01*
X123619771Y-84575714D02*
X123676914Y-84604286D01*
X123676914Y-84604286D02*
X123705485Y-84632857D01*
X123705485Y-84632857D02*
X123734057Y-84690000D01*
X123734057Y-84690000D02*
X123734057Y-84918571D01*
X123476914Y-84347143D02*
X123448342Y-84318571D01*
X123448342Y-84318571D02*
X123419771Y-84261429D01*
X123419771Y-84261429D02*
X123419771Y-84118571D01*
X123419771Y-84118571D02*
X123448342Y-84061429D01*
X123448342Y-84061429D02*
X123476914Y-84032857D01*
X123476914Y-84032857D02*
X123534057Y-84004286D01*
X123534057Y-84004286D02*
X123591200Y-84004286D01*
X123591200Y-84004286D02*
X123676914Y-84032857D01*
X123676914Y-84032857D02*
X124019771Y-84375714D01*
X124019771Y-84375714D02*
X124019771Y-84004286D01*
X123419771Y-83490000D02*
X123419771Y-83604285D01*
X123419771Y-83604285D02*
X123448342Y-83661428D01*
X123448342Y-83661428D02*
X123476914Y-83690000D01*
X123476914Y-83690000D02*
X123562628Y-83747142D01*
X123562628Y-83747142D02*
X123676914Y-83775714D01*
X123676914Y-83775714D02*
X123905485Y-83775714D01*
X123905485Y-83775714D02*
X123962628Y-83747142D01*
X123962628Y-83747142D02*
X123991200Y-83718571D01*
X123991200Y-83718571D02*
X124019771Y-83661428D01*
X124019771Y-83661428D02*
X124019771Y-83547142D01*
X124019771Y-83547142D02*
X123991200Y-83490000D01*
X123991200Y-83490000D02*
X123962628Y-83461428D01*
X123962628Y-83461428D02*
X123905485Y-83432857D01*
X123905485Y-83432857D02*
X123762628Y-83432857D01*
X123762628Y-83432857D02*
X123705485Y-83461428D01*
X123705485Y-83461428D02*
X123676914Y-83490000D01*
X123676914Y-83490000D02*
X123648342Y-83547142D01*
X123648342Y-83547142D02*
X123648342Y-83661428D01*
X123648342Y-83661428D02*
X123676914Y-83718571D01*
X123676914Y-83718571D02*
X123705485Y-83747142D01*
X123705485Y-83747142D02*
X123762628Y-83775714D01*
X111950000Y-107012628D02*
X111921428Y-107041200D01*
X111921428Y-107041200D02*
X111835714Y-107069771D01*
X111835714Y-107069771D02*
X111778571Y-107069771D01*
X111778571Y-107069771D02*
X111692857Y-107041200D01*
X111692857Y-107041200D02*
X111635714Y-106984057D01*
X111635714Y-106984057D02*
X111607143Y-106926914D01*
X111607143Y-106926914D02*
X111578571Y-106812628D01*
X111578571Y-106812628D02*
X111578571Y-106726914D01*
X111578571Y-106726914D02*
X111607143Y-106612628D01*
X111607143Y-106612628D02*
X111635714Y-106555485D01*
X111635714Y-106555485D02*
X111692857Y-106498342D01*
X111692857Y-106498342D02*
X111778571Y-106469771D01*
X111778571Y-106469771D02*
X111835714Y-106469771D01*
X111835714Y-106469771D02*
X111921428Y-106498342D01*
X111921428Y-106498342D02*
X111950000Y-106526914D01*
X112521428Y-107069771D02*
X112178571Y-107069771D01*
X112350000Y-107069771D02*
X112350000Y-106469771D01*
X112350000Y-106469771D02*
X112292857Y-106555485D01*
X112292857Y-106555485D02*
X112235714Y-106612628D01*
X112235714Y-106612628D02*
X112178571Y-106641200D01*
X134619771Y-118199999D02*
X134334057Y-118399999D01*
X134619771Y-118542856D02*
X134019771Y-118542856D01*
X134019771Y-118542856D02*
X134019771Y-118314285D01*
X134019771Y-118314285D02*
X134048342Y-118257142D01*
X134048342Y-118257142D02*
X134076914Y-118228571D01*
X134076914Y-118228571D02*
X134134057Y-118199999D01*
X134134057Y-118199999D02*
X134219771Y-118199999D01*
X134219771Y-118199999D02*
X134276914Y-118228571D01*
X134276914Y-118228571D02*
X134305485Y-118257142D01*
X134305485Y-118257142D02*
X134334057Y-118314285D01*
X134334057Y-118314285D02*
X134334057Y-118542856D01*
X134619771Y-117914285D02*
X134619771Y-117799999D01*
X134619771Y-117799999D02*
X134591200Y-117742856D01*
X134591200Y-117742856D02*
X134562628Y-117714285D01*
X134562628Y-117714285D02*
X134476914Y-117657142D01*
X134476914Y-117657142D02*
X134362628Y-117628571D01*
X134362628Y-117628571D02*
X134134057Y-117628571D01*
X134134057Y-117628571D02*
X134076914Y-117657142D01*
X134076914Y-117657142D02*
X134048342Y-117685714D01*
X134048342Y-117685714D02*
X134019771Y-117742856D01*
X134019771Y-117742856D02*
X134019771Y-117857142D01*
X134019771Y-117857142D02*
X134048342Y-117914285D01*
X134048342Y-117914285D02*
X134076914Y-117942856D01*
X134076914Y-117942856D02*
X134134057Y-117971428D01*
X134134057Y-117971428D02*
X134276914Y-117971428D01*
X134276914Y-117971428D02*
X134334057Y-117942856D01*
X134334057Y-117942856D02*
X134362628Y-117914285D01*
X134362628Y-117914285D02*
X134391200Y-117857142D01*
X134391200Y-117857142D02*
X134391200Y-117742856D01*
X134391200Y-117742856D02*
X134362628Y-117685714D01*
X134362628Y-117685714D02*
X134334057Y-117657142D01*
X134334057Y-117657142D02*
X134276914Y-117628571D01*
X135612628Y-101485714D02*
X135641200Y-101514286D01*
X135641200Y-101514286D02*
X135669771Y-101600000D01*
X135669771Y-101600000D02*
X135669771Y-101657143D01*
X135669771Y-101657143D02*
X135641200Y-101742857D01*
X135641200Y-101742857D02*
X135584057Y-101800000D01*
X135584057Y-101800000D02*
X135526914Y-101828571D01*
X135526914Y-101828571D02*
X135412628Y-101857143D01*
X135412628Y-101857143D02*
X135326914Y-101857143D01*
X135326914Y-101857143D02*
X135212628Y-101828571D01*
X135212628Y-101828571D02*
X135155485Y-101800000D01*
X135155485Y-101800000D02*
X135098342Y-101742857D01*
X135098342Y-101742857D02*
X135069771Y-101657143D01*
X135069771Y-101657143D02*
X135069771Y-101600000D01*
X135069771Y-101600000D02*
X135098342Y-101514286D01*
X135098342Y-101514286D02*
X135126914Y-101485714D01*
X135669771Y-100914286D02*
X135669771Y-101257143D01*
X135669771Y-101085714D02*
X135069771Y-101085714D01*
X135069771Y-101085714D02*
X135155485Y-101142857D01*
X135155485Y-101142857D02*
X135212628Y-101200000D01*
X135212628Y-101200000D02*
X135241200Y-101257143D01*
X135069771Y-100714285D02*
X135069771Y-100314285D01*
X135069771Y-100314285D02*
X135669771Y-100571428D01*
X139224999Y-78204771D02*
X139224999Y-78633342D01*
X139224999Y-78633342D02*
X139196428Y-78719057D01*
X139196428Y-78719057D02*
X139139285Y-78776200D01*
X139139285Y-78776200D02*
X139053571Y-78804771D01*
X139053571Y-78804771D02*
X138996428Y-78804771D01*
X139767857Y-78404771D02*
X139767857Y-78804771D01*
X139624999Y-78176200D02*
X139482142Y-78604771D01*
X139482142Y-78604771D02*
X139853571Y-78604771D01*
X142149999Y-128269771D02*
X142149999Y-128698342D01*
X142149999Y-128698342D02*
X142121428Y-128784057D01*
X142121428Y-128784057D02*
X142064285Y-128841200D01*
X142064285Y-128841200D02*
X141978571Y-128869771D01*
X141978571Y-128869771D02*
X141921428Y-128869771D01*
X142749999Y-128869771D02*
X142407142Y-128869771D01*
X142578571Y-128869771D02*
X142578571Y-128269771D01*
X142578571Y-128269771D02*
X142521428Y-128355485D01*
X142521428Y-128355485D02*
X142464285Y-128412628D01*
X142464285Y-128412628D02*
X142407142Y-128441200D01*
X128269771Y-84615714D02*
X127984057Y-84815714D01*
X128269771Y-84958571D02*
X127669771Y-84958571D01*
X127669771Y-84958571D02*
X127669771Y-84730000D01*
X127669771Y-84730000D02*
X127698342Y-84672857D01*
X127698342Y-84672857D02*
X127726914Y-84644286D01*
X127726914Y-84644286D02*
X127784057Y-84615714D01*
X127784057Y-84615714D02*
X127869771Y-84615714D01*
X127869771Y-84615714D02*
X127926914Y-84644286D01*
X127926914Y-84644286D02*
X127955485Y-84672857D01*
X127955485Y-84672857D02*
X127984057Y-84730000D01*
X127984057Y-84730000D02*
X127984057Y-84958571D01*
X127726914Y-84387143D02*
X127698342Y-84358571D01*
X127698342Y-84358571D02*
X127669771Y-84301429D01*
X127669771Y-84301429D02*
X127669771Y-84158571D01*
X127669771Y-84158571D02*
X127698342Y-84101429D01*
X127698342Y-84101429D02*
X127726914Y-84072857D01*
X127726914Y-84072857D02*
X127784057Y-84044286D01*
X127784057Y-84044286D02*
X127841200Y-84044286D01*
X127841200Y-84044286D02*
X127926914Y-84072857D01*
X127926914Y-84072857D02*
X128269771Y-84415714D01*
X128269771Y-84415714D02*
X128269771Y-84044286D01*
X127726914Y-83815714D02*
X127698342Y-83787142D01*
X127698342Y-83787142D02*
X127669771Y-83730000D01*
X127669771Y-83730000D02*
X127669771Y-83587142D01*
X127669771Y-83587142D02*
X127698342Y-83530000D01*
X127698342Y-83530000D02*
X127726914Y-83501428D01*
X127726914Y-83501428D02*
X127784057Y-83472857D01*
X127784057Y-83472857D02*
X127841200Y-83472857D01*
X127841200Y-83472857D02*
X127926914Y-83501428D01*
X127926914Y-83501428D02*
X128269771Y-83844285D01*
X128269771Y-83844285D02*
X128269771Y-83472857D01*
X130469771Y-84615714D02*
X130184057Y-84815714D01*
X130469771Y-84958571D02*
X129869771Y-84958571D01*
X129869771Y-84958571D02*
X129869771Y-84730000D01*
X129869771Y-84730000D02*
X129898342Y-84672857D01*
X129898342Y-84672857D02*
X129926914Y-84644286D01*
X129926914Y-84644286D02*
X129984057Y-84615714D01*
X129984057Y-84615714D02*
X130069771Y-84615714D01*
X130069771Y-84615714D02*
X130126914Y-84644286D01*
X130126914Y-84644286D02*
X130155485Y-84672857D01*
X130155485Y-84672857D02*
X130184057Y-84730000D01*
X130184057Y-84730000D02*
X130184057Y-84958571D01*
X129926914Y-84387143D02*
X129898342Y-84358571D01*
X129898342Y-84358571D02*
X129869771Y-84301429D01*
X129869771Y-84301429D02*
X129869771Y-84158571D01*
X129869771Y-84158571D02*
X129898342Y-84101429D01*
X129898342Y-84101429D02*
X129926914Y-84072857D01*
X129926914Y-84072857D02*
X129984057Y-84044286D01*
X129984057Y-84044286D02*
X130041200Y-84044286D01*
X130041200Y-84044286D02*
X130126914Y-84072857D01*
X130126914Y-84072857D02*
X130469771Y-84415714D01*
X130469771Y-84415714D02*
X130469771Y-84044286D01*
X129869771Y-83672857D02*
X129869771Y-83615714D01*
X129869771Y-83615714D02*
X129898342Y-83558571D01*
X129898342Y-83558571D02*
X129926914Y-83530000D01*
X129926914Y-83530000D02*
X129984057Y-83501428D01*
X129984057Y-83501428D02*
X130098342Y-83472857D01*
X130098342Y-83472857D02*
X130241200Y-83472857D01*
X130241200Y-83472857D02*
X130355485Y-83501428D01*
X130355485Y-83501428D02*
X130412628Y-83530000D01*
X130412628Y-83530000D02*
X130441200Y-83558571D01*
X130441200Y-83558571D02*
X130469771Y-83615714D01*
X130469771Y-83615714D02*
X130469771Y-83672857D01*
X130469771Y-83672857D02*
X130441200Y-83730000D01*
X130441200Y-83730000D02*
X130412628Y-83758571D01*
X130412628Y-83758571D02*
X130355485Y-83787142D01*
X130355485Y-83787142D02*
X130241200Y-83815714D01*
X130241200Y-83815714D02*
X130098342Y-83815714D01*
X130098342Y-83815714D02*
X129984057Y-83787142D01*
X129984057Y-83787142D02*
X129926914Y-83758571D01*
X129926914Y-83758571D02*
X129898342Y-83730000D01*
X129898342Y-83730000D02*
X129869771Y-83672857D01*
D12*
X130970000Y-82433641D02*
X130970000Y-82126359D01*
X131730000Y-82433641D02*
X131730000Y-82126359D01*
X137779420Y-105740000D02*
X138060580Y-105740000D01*
X137779420Y-106760000D02*
X138060580Y-106760000D01*
X117957836Y-110240000D02*
X117742164Y-110240000D01*
X117957836Y-110960000D02*
X117742164Y-110960000D01*
X117407836Y-117690000D02*
X117192164Y-117690000D01*
X117407836Y-118410000D02*
X117192164Y-118410000D01*
X126395336Y-124465000D02*
X126179664Y-124465000D01*
X126395336Y-125185000D02*
X126179664Y-125185000D01*
X128827500Y-120640000D02*
X129687500Y-120640000D01*
X128827500Y-121750000D02*
X128827500Y-120640000D01*
X128827500Y-124045000D02*
X128827500Y-125155000D01*
X129687500Y-125155000D02*
X128827500Y-125155000D01*
X133347500Y-120640000D02*
X132487500Y-120640000D01*
X133347500Y-121750000D02*
X133347500Y-120640000D01*
X133347500Y-124050000D02*
X133347500Y-125160000D01*
X133347500Y-125160000D02*
X132487500Y-125160000D01*
X128827500Y-123250000D02*
X128547500Y-123250000D01*
X128827500Y-122970000D01*
X128827500Y-123250000D01*
G36*
X128827500Y-123250000D02*
G01*
X128547500Y-123250000D01*
X128827500Y-122970000D01*
X128827500Y-123250000D01*
G37*
X136343641Y-115870000D02*
X136036359Y-115870000D01*
X136343641Y-116630000D02*
X136036359Y-116630000D01*
X132070000Y-82433641D02*
X132070000Y-82126359D01*
X132830000Y-82433641D02*
X132830000Y-82126359D01*
X110250000Y-102500000D02*
X104250000Y-102500000D01*
X110250000Y-108500000D02*
X104250000Y-108500000D01*
X110662164Y-111790000D02*
X110877836Y-111790000D01*
X110662164Y-112510000D02*
X110877836Y-112510000D01*
X124470000Y-82443641D02*
X124470000Y-82136359D01*
X125230000Y-82443641D02*
X125230000Y-82136359D01*
X131853641Y-126320000D02*
X131546359Y-126320000D01*
X131853641Y-127080000D02*
X131546359Y-127080000D01*
X136340000Y-121087836D02*
X136340000Y-120872164D01*
X137060000Y-121087836D02*
X137060000Y-120872164D01*
X139290580Y-124590000D02*
X139009420Y-124590000D01*
X139290580Y-125610000D02*
X139009420Y-125610000D01*
X137492164Y-107240000D02*
X137707836Y-107240000D01*
X137492164Y-107960000D02*
X137707836Y-107960000D01*
X126403641Y-120620000D02*
X126096359Y-120620000D01*
X126403641Y-121380000D02*
X126096359Y-121380000D01*
X108270000Y-97103641D02*
X108270000Y-96796359D01*
X109030000Y-97103641D02*
X109030000Y-96796359D01*
X122270000Y-82443641D02*
X122270000Y-82136359D01*
X123030000Y-82443641D02*
X123030000Y-82136359D01*
X125520000Y-82443641D02*
X125520000Y-82136359D01*
X126280000Y-82443641D02*
X126280000Y-82136359D01*
X136450000Y-119300000D02*
X137900000Y-119300000D01*
X137900000Y-119300000D02*
X137900000Y-117450000D01*
X108020000Y-115803641D02*
X108020000Y-115496359D01*
X108780000Y-115803641D02*
X108780000Y-115496359D01*
X126570000Y-82433641D02*
X126570000Y-82126359D01*
X127330000Y-82433641D02*
X127330000Y-82126359D01*
D13*
X122513000Y-118675000D02*
G75*
G02*
X122263000Y-118675000I-125000J0D01*
G01*
X122263000Y-118675000D02*
G75*
G02*
X122513000Y-118675000I125000J0D01*
G01*
D12*
X111890580Y-100440000D02*
X111609420Y-100440000D01*
X111890580Y-101460000D02*
X111609420Y-101460000D01*
X109090000Y-88640000D02*
X109090000Y-92760000D01*
X147150000Y-88640000D02*
X109090000Y-88640000D01*
X147150000Y-88640000D02*
X147150000Y-90700000D01*
X147150000Y-90700000D02*
X149210000Y-90700000D01*
X148150000Y-88640000D02*
X149210000Y-88640000D01*
X149210000Y-88640000D02*
X149210000Y-89700000D01*
X149210000Y-90700000D02*
X149210000Y-92760000D01*
X149210000Y-92760000D02*
X109090000Y-92760000D01*
X126395336Y-123265000D02*
X126179664Y-123265000D01*
X126395336Y-123985000D02*
X126179664Y-123985000D01*
X117957836Y-111340000D02*
X117742164Y-111340000D01*
X117957836Y-112060000D02*
X117742164Y-112060000D01*
X126407836Y-121990000D02*
X126192164Y-121990000D01*
X126407836Y-122710000D02*
X126192164Y-122710000D01*
D14*
X107070000Y-98550000D02*
X107730000Y-98550000D01*
X107730000Y-101450000D02*
X107070000Y-101450000D01*
X108200000Y-99665000D02*
X108200000Y-100335000D01*
D15*
X105090000Y-98950000D02*
G75*
G02*
X104890000Y-98950000I-100000J0D01*
G01*
X104890000Y-98950000D02*
G75*
G02*
X105090000Y-98950000I100000J0D01*
G01*
D14*
X123700000Y-129262500D02*
X125500000Y-129262500D01*
X123700000Y-143762500D02*
X123700000Y-129262500D01*
X130700000Y-129262500D02*
X132600000Y-129262500D01*
X132600000Y-129262500D02*
X132600000Y-143762500D01*
X132600000Y-143762500D02*
X123700000Y-143762500D01*
D15*
X128250000Y-127962500D02*
G75*
G02*
X128050000Y-127962500I-100000J0D01*
G01*
X128050000Y-127962500D02*
G75*
G02*
X128250000Y-127962500I100000J0D01*
G01*
D12*
X121170000Y-82443641D02*
X121170000Y-82136359D01*
X121930000Y-82443641D02*
X121930000Y-82136359D01*
X129396359Y-126320000D02*
X129703641Y-126320000D01*
X129396359Y-127080000D02*
X129703641Y-127080000D01*
X117407836Y-116590000D02*
X117192164Y-116590000D01*
X117407836Y-117310000D02*
X117192164Y-117310000D01*
X135370000Y-82433641D02*
X135370000Y-82126359D01*
X136130000Y-82433641D02*
X136130000Y-82126359D01*
X132780000Y-103157836D02*
X132780000Y-102942164D01*
X133500000Y-103157836D02*
X133500000Y-102942164D01*
X137570000Y-82433641D02*
X137570000Y-82126359D01*
X138330000Y-82433641D02*
X138330000Y-82126359D01*
X134270000Y-82433641D02*
X134270000Y-82126359D01*
X135030000Y-82433641D02*
X135030000Y-82126359D01*
X106740000Y-111640000D02*
X108150000Y-111640000D01*
X106750000Y-113960000D02*
X108150000Y-113960000D01*
X106370000Y-111690000D02*
X106130000Y-111360000D01*
X106610000Y-111360000D01*
X106370000Y-111690000D01*
G36*
X106370000Y-111690000D02*
G01*
X106130000Y-111360000D01*
X106610000Y-111360000D01*
X106370000Y-111690000D01*
G37*
X133880000Y-103157836D02*
X133880000Y-102942164D01*
X134600000Y-103157836D02*
X134600000Y-102942164D01*
X136470000Y-82433641D02*
X136470000Y-82126359D01*
X137230000Y-82433641D02*
X137230000Y-82126359D01*
X147125000Y-123300000D02*
X147125000Y-123700000D01*
X147125000Y-123700000D02*
X147525000Y-123500000D01*
X147525000Y-123500000D02*
X147125000Y-123300000D01*
X149715000Y-109925000D02*
X150315000Y-109925000D01*
X149715000Y-110035000D02*
X149715000Y-109925000D01*
X149715000Y-126465000D02*
X149715000Y-126575000D01*
X149715000Y-126575000D02*
X150315000Y-126575000D01*
X138907836Y-126190000D02*
X138692164Y-126190000D01*
X138907836Y-126910000D02*
X138692164Y-126910000D01*
X109470000Y-96796359D02*
X109470000Y-97103641D01*
X110230000Y-96796359D02*
X110230000Y-97103641D01*
X128770000Y-82433641D02*
X128770000Y-82126359D01*
X129530000Y-82433641D02*
X129530000Y-82126359D01*
X133170000Y-82433641D02*
X133170000Y-82126359D01*
X133930000Y-82433641D02*
X133930000Y-82126359D01*
X123370000Y-82443641D02*
X123370000Y-82136359D01*
X124130000Y-82443641D02*
X124130000Y-82136359D01*
X111540000Y-104840580D02*
X111540000Y-104559420D01*
X112560000Y-104840580D02*
X112560000Y-104559420D01*
X134970000Y-118253641D02*
X134970000Y-117946359D01*
X135730000Y-118253641D02*
X135730000Y-117946359D01*
X134990000Y-103157836D02*
X134990000Y-102942164D01*
X135710000Y-103157836D02*
X135710000Y-102942164D01*
D14*
X121265000Y-76450000D02*
X121265000Y-74770000D01*
X122250000Y-76450000D02*
X121265000Y-76450000D01*
X140300000Y-72500000D02*
X121700000Y-72500000D01*
X140735000Y-76450000D02*
X139750000Y-76450000D01*
X140735000Y-76450000D02*
X140735000Y-74770000D01*
D15*
X138350000Y-77300000D02*
G75*
G02*
X138150000Y-77300000I-100000J0D01*
G01*
X138150000Y-77300000D02*
G75*
G02*
X138350000Y-77300000I100000J0D01*
G01*
D14*
X133800000Y-129400000D02*
X135600000Y-129400000D01*
X133800000Y-143900000D02*
X133800000Y-129400000D01*
X140800000Y-129400000D02*
X142700000Y-129400000D01*
X142700000Y-129400000D02*
X142700000Y-143900000D01*
X142700000Y-143900000D02*
X133800000Y-143900000D01*
D15*
X138350000Y-128100000D02*
G75*
G02*
X138150000Y-128100000I-100000J0D01*
G01*
X138150000Y-128100000D02*
G75*
G02*
X138350000Y-128100000I100000J0D01*
G01*
D12*
X127670000Y-82433641D02*
X127670000Y-82126359D01*
X128430000Y-82433641D02*
X128430000Y-82126359D01*
X129870000Y-82433641D02*
X129870000Y-82126359D01*
X130630000Y-82433641D02*
X130630000Y-82126359D01*
M02*
