M48
; DRILL file {KiCad 8.0.2} date 2024-06-09T13:50:30+0500
; FORMAT={-:-/ absolute / inch / decimal}
; #@! TF.CreationDate,2024-06-09T13:50:30+05:00
; #@! TF.GenerationSoftware,Kicad,Pcbnew,8.0.2
; #@! TF.FileFunction,Plated,1,4,PTH
FMAT,2
INCH
; #@! TA.AperFunction,Plated,PTH,ViaDrill
T1C0.0118
; #@! TA.AperFunction,Plated,PTH,ViaDrill
T2C0.0197
; #@! TA.AperFunction,Plated,PTH,ComponentDrill
T3C0.0315
; #@! TA.AperFunction,Plated,PTH,ComponentDrill
T4C0.0394
; #@! TA.AperFunction,Plated,PTH,ComponentDrill
T5C0.0433
%
G90
G05
T1
X3.878Y-5.4882
X3.8799Y-5.2933
X4.0098Y-3.8012
X4.0295Y-5.3898
X4.0354Y-3.2953
X4.0354Y-3.4961
X4.0433Y-3.7146
X4.1535Y-5.0315
X4.1654Y-4.4902
X4.1909Y-5.498
X4.1949Y-5.2992
X4.2047Y-3.4587
X4.2185Y-4.5315
X4.2441Y-3.7657
X4.2638Y-2.9528
X4.2657Y-3.1398
X4.2657Y-3.3287
X4.3031Y-4.3445
X4.3346Y-5.0472
X4.3524Y-5.3957
X4.4075Y-4.0453
X4.4173Y-4.4173
X4.4193Y-3.9134
X4.4961Y-5.2972
X4.498Y-5.5079
X4.5098Y-4.9232
X4.5118Y-2.9528
X4.5157Y-3.1299
X4.5157Y-3.3287
X4.5276Y-3.9508
X4.5512Y-4.5984
X4.5551Y-3.9213
X4.5591Y-4.6614
X4.5846Y-3.8839
X4.6122Y-3.8524
X4.6122Y-5.0531
X4.6378Y-4.3169
X4.6437Y-3.7697
X4.6535Y-5.3917
X4.6713Y-3.7933
X4.7087Y-4.5906
X4.7126Y-4.9134
X4.7579Y-3.8287
X4.7717Y-3.4469
X4.7854Y-4.2244
X4.7874Y-4.1575
X4.7874Y-5.0512
X4.7913Y-5.5039
X4.7933Y-5.3012
X4.8012Y-2.8937
X4.8169Y-4.3366
X4.8386Y-2.9547
X4.8484Y-4.0453
X4.8524Y-4.5925
X4.8543Y-4.8917
X4.9016Y-3.435
X4.9114Y-2.9528
X4.9114Y-4.9232
X4.9488Y-4.3839
X4.9488Y-4.4272
X4.9488Y-4.4685
X4.9705Y-2.9567
X4.9921Y-3.9075
X4.9956Y-4.4272
X4.9961Y-4.3839
X4.9961Y-4.4705
X5.0138Y-3.4528
X5.0157Y-3.8819
X5.0177Y-3.4035
X5.0295Y-2.9587
X5.0433Y-4.3839
X5.0433Y-4.4272
X5.0433Y-4.4724
X5.0472Y-3.8287
X5.0768Y-3.811
X5.0866Y-2.9567
X5.1004Y-3.7795
X5.1043Y-3.4016
X5.1122Y-3.4567
X5.1201Y-5.0177
X5.128Y-3.7579
X5.1417Y-4.1358
X5.1457Y-2.9587
X5.1575Y-4.4567
X5.1594Y-3.7028
X5.1609Y-4.8386
X5.1614Y-4.3937
X5.165Y-5.0197
X5.1693Y-4.9429
X5.1949Y-3.4075
X5.1949Y-3.7028
X5.1988Y-4.1378
X5.2028Y-4.6496
X5.2067Y-2.9606
X5.2165Y-4.2146
X5.2677Y-2.9567
X5.2717Y-4.8169
X5.2874Y-3.4114
X5.2913Y-4.1791
X5.2953Y-4.4567
X5.2972Y-4.3976
X5.2992Y-4.6673
X5.3031Y-4.8701
X5.3287Y-4.2421
X5.3406Y-4.815
X5.3445Y-3.4567
X5.4114Y-4.0394
X5.4134Y-4.6083
X5.4193Y-3.4016
X5.4291Y-2.9547
X5.439Y-4.5748
X5.4449Y-4.8268
X5.4606Y-4.8543
X5.4685Y-3.4528
X5.4744Y-4.5748
X5.4843Y-2.9587
X5.4921Y-4.2421
X5.4961Y-4.4094
X5.498Y-4.4449
X5.5Y-3.2756
X5.5079Y-2.8917
X5.5079Y-4.5551
X5.5098Y-4.1791
X5.5236Y-3.1752
X5.5374Y-4.7657
X5.5433Y-4.5571
X5.5551Y-4.7933
X5.5827Y-4.7067
X5.5945Y-3.25
X5.6004Y-3.4311
X5.6043Y-4.7303
X5.6122Y-4.3425
X5.6142Y-4.061
X5.6142Y-4.311
X5.6142Y-4.4134
X5.6299Y-4.6476
X5.6358Y-4.3878
X5.6437Y-4.7441
X5.6476Y-4.2146
X5.6516Y-4.6713
X5.6693Y-3.1614
X5.6713Y-3.4134
X5.6752Y-4.5886
X5.6811Y-5.4626
X5.687Y-3.9016
X5.6909Y-4.8701
X5.6929Y-4.6142
X5.6949Y-4.8031
X5.7126Y-5.25
X5.7165Y-2.9252
X5.7303Y-3.7559
X5.7441Y-4.2126
X5.748Y-4.0394
X5.7539Y-5.5354
X5.7953Y-4.685
X5.7968Y-4.626
X5.7968Y-4.7441
X5.7972Y-4.565
X5.8051Y-4.4921
X5.8071Y-4.4587
X5.815Y-5.1772
X5.8169Y-2.9843
X5.8189Y-3.1811
X5.8346Y-5.4567
T2
X3.998Y-4.9961
X4.1112Y-4.2982
X4.1122Y-3.9646
X4.3228Y-4.9429
X4.5886Y-4.7559
X4.6358Y-4.6929
X5.0Y-4.7264
X5.3268Y-4.7441
X5.8504Y-3.3583
X5.8839Y-3.7402
T3
X4.3366Y-3.5315
X4.3366Y-3.6102
X4.4154Y-3.5315
X4.4154Y-3.6102
X4.4941Y-3.5315
X4.4941Y-3.6102
X4.5728Y-3.5315
X4.5728Y-3.6102
X4.6516Y-3.5315
X4.6516Y-3.6102
X4.7303Y-3.5315
X4.7303Y-3.6102
X4.8091Y-3.5315
X4.8091Y-3.6102
X4.8878Y-3.5315
X4.8878Y-3.6102
X4.9665Y-3.5315
X4.9665Y-3.6102
X5.0453Y-3.5315
X5.0453Y-3.6102
X5.124Y-3.5315
X5.124Y-3.6102
X5.2028Y-3.5315
X5.2028Y-3.6102
X5.2815Y-3.5315
X5.2815Y-3.6102
X5.3602Y-3.5315
X5.3602Y-3.6102
X5.439Y-3.5315
X5.439Y-3.6102
X5.5177Y-3.5315
X5.5177Y-3.6102
X5.5965Y-3.5315
X5.5965Y-3.6102
X5.6752Y-3.5315
X5.6752Y-3.6102
X5.7539Y-3.5315
X5.7539Y-3.6102
X5.8327Y-3.5315
X5.8327Y-3.6102
T4
X3.815Y-3.0465
X3.815Y-3.1465
X3.815Y-3.2465
X3.815Y-3.3465
X3.815Y-3.4465
X3.815Y-3.5465
X3.815Y-3.6465
X3.815Y-3.7465
X3.815Y-3.8465
X3.815Y-3.9465
X3.815Y-4.0465
X3.815Y-4.1465
X3.815Y-4.2465
X3.815Y-4.3465
X3.815Y-4.4465
X3.815Y-4.5465
X3.815Y-4.6465
X3.815Y-4.7465
X3.815Y-4.8465
X3.815Y-4.9465
X3.915Y-3.0465
X3.915Y-3.1465
X3.915Y-3.2465
X3.915Y-3.3465
X3.915Y-3.4465
X3.915Y-3.5465
X3.915Y-3.6465
X3.915Y-3.7465
X3.915Y-3.8465
X3.915Y-3.9465
X3.915Y-4.0465
X3.915Y-4.1465
X3.915Y-4.2465
X3.915Y-4.3465
X3.915Y-4.4465
X3.915Y-4.5465
X3.915Y-4.6465
X3.915Y-4.7465
X3.915Y-4.8465
X3.915Y-4.9465
T5
G00X5.0866Y-5.1166
M15
G01X5.0039Y-5.1166
M16
G05
G00X5.0866Y-5.3647
M15
G01X5.0039Y-5.3647
M16
G05
G00X5.4843Y-5.122
M15
G01X5.4016Y-5.122
M16
G05
G00X5.4843Y-5.3701
M15
G01X5.4016Y-5.3701
M16
G05
M30
