G04 #@! TF.GenerationSoftware,KiCad,Pcbnew,8.0.2*
G04 #@! TF.CreationDate,2024-06-09T13:50:20+05:00*
G04 #@! TF.ProjectId,EDP Converter,45445020-436f-46e7-9665-727465722e6b,rev?*
G04 #@! TF.SameCoordinates,Original*
G04 #@! TF.FileFunction,Copper,L3,Inr*
G04 #@! TF.FilePolarity,Positive*
%FSLAX46Y46*%
G04 Gerber Fmt 4.6, Leading zero omitted, Abs format (unit mm)*
G04 Created by KiCad (PCBNEW 8.0.2) date 2024-06-09 13:50:20*
%MOMM*%
%LPD*%
G01*
G04 APERTURE LIST*
G04 #@! TA.AperFunction,ComponentPad*
%ADD10R,1.350000X1.350000*%
G04 #@! TD*
G04 #@! TA.AperFunction,ComponentPad*
%ADD11O,1.350000X1.350000*%
G04 #@! TD*
G04 #@! TA.AperFunction,ComponentPad*
%ADD12O,4.500000X2.250000*%
G04 #@! TD*
G04 #@! TA.AperFunction,ComponentPad*
%ADD13O,1.700000X1.700000*%
G04 #@! TD*
G04 #@! TA.AperFunction,ViaPad*
%ADD14C,0.600000*%
G04 #@! TD*
G04 #@! TA.AperFunction,ViaPad*
%ADD15C,1.000000*%
G04 #@! TD*
G04 APERTURE END LIST*
D10*
X148150000Y-89700000D03*
D11*
X148150000Y-91700000D03*
X146150000Y-89700000D03*
X146150000Y-91700000D03*
X144150000Y-89700000D03*
X144150000Y-91700000D03*
X142150000Y-89700000D03*
X142150000Y-91700000D03*
X140150000Y-89700000D03*
X140150000Y-91700000D03*
X138150000Y-89700000D03*
X138150000Y-91700000D03*
X136150000Y-89700000D03*
X136150000Y-91700000D03*
X134150000Y-89700000D03*
X134150000Y-91700000D03*
X132150000Y-89700000D03*
X132150000Y-91700000D03*
X130150000Y-89700000D03*
X130150000Y-91700000D03*
X128150000Y-89700000D03*
X128150000Y-91700000D03*
X126150000Y-89700000D03*
X126150000Y-91700000D03*
X124150000Y-89700000D03*
X124150000Y-91700000D03*
X122150000Y-89700000D03*
X122150000Y-91700000D03*
X120150000Y-89700000D03*
X120150000Y-91700000D03*
X118150000Y-89700000D03*
X118150000Y-91700000D03*
X116150000Y-89700000D03*
X116150000Y-91700000D03*
X114150000Y-89700000D03*
X114150000Y-91700000D03*
X112150000Y-89700000D03*
X112150000Y-91700000D03*
X110150000Y-89700000D03*
X110150000Y-91700000D03*
D12*
X128150000Y-129962500D03*
X128150000Y-136262500D03*
X138250000Y-130100000D03*
X138250000Y-136400000D03*
D13*
X96900000Y-120560000D03*
X99440000Y-115480000D03*
X96900000Y-110400000D03*
X96900000Y-102780000D03*
X99440000Y-95160000D03*
X96900000Y-90080000D03*
X96900000Y-85000000D03*
X99440000Y-77380000D03*
D14*
X139900000Y-73450000D03*
X147200000Y-119000000D03*
X125700000Y-112450000D03*
X142100000Y-82550000D03*
X135350000Y-107750000D03*
X131100000Y-111600000D03*
X146000000Y-102600000D03*
X147750000Y-75800000D03*
X121600000Y-128300000D03*
X143350000Y-120500000D03*
X134500000Y-113200000D03*
X115800000Y-118400000D03*
X144450000Y-99100000D03*
X102700000Y-94350000D03*
X127450000Y-86450000D03*
X132250000Y-75200000D03*
X140300000Y-80650000D03*
X134400000Y-106150000D03*
X126900000Y-113550000D03*
X135750000Y-87800000D03*
X131000000Y-113200000D03*
X133800000Y-75100000D03*
X105500000Y-127800000D03*
X131087500Y-122900000D03*
X119600000Y-116600000D03*
X119700000Y-124800000D03*
X112200000Y-112200000D03*
X121550000Y-107300000D03*
X137900000Y-75050000D03*
X121700000Y-139800000D03*
X134600000Y-118550000D03*
X106800000Y-87850000D03*
X108300000Y-75000000D03*
X134700000Y-123700000D03*
X101850000Y-96550000D03*
X125700000Y-113500000D03*
X131950000Y-86550000D03*
X138900000Y-87700000D03*
X134300000Y-86650000D03*
X124750000Y-75000000D03*
X114200000Y-134550000D03*
X107800000Y-95650000D03*
X122350000Y-110150000D03*
X145900000Y-107000000D03*
X121600000Y-105600000D03*
X139950000Y-106150000D03*
X98500000Y-139400000D03*
X124500000Y-87250000D03*
X128100000Y-112450000D03*
X147237500Y-117500000D03*
X142600000Y-103150000D03*
X114550000Y-125050000D03*
X128100000Y-111350000D03*
X139300000Y-75150000D03*
X117800000Y-109650000D03*
X110550000Y-137050000D03*
X102500000Y-83700000D03*
X127750000Y-75150000D03*
X125700000Y-111350000D03*
X145550000Y-95400000D03*
X117150000Y-128350000D03*
X129850000Y-87800000D03*
X127350000Y-87700000D03*
X132500000Y-107050000D03*
X139500000Y-107750000D03*
X146150000Y-140600000D03*
X114600000Y-75000000D03*
X111950000Y-102750000D03*
X144000000Y-80300000D03*
X121950000Y-73500000D03*
X134550000Y-111700000D03*
X108350000Y-79750000D03*
X108350000Y-84550000D03*
X123150000Y-102750000D03*
X139700000Y-83200000D03*
X124750000Y-125050000D03*
X132050000Y-105100000D03*
X102500000Y-88800000D03*
X147700000Y-131500000D03*
X144050000Y-86700000D03*
X123300000Y-124250000D03*
X106550000Y-134600000D03*
X143450000Y-107050000D03*
X129650000Y-86400000D03*
X144550000Y-123700000D03*
X114700000Y-79500000D03*
X130700000Y-75150000D03*
X144300000Y-138750000D03*
X118200000Y-136950000D03*
X106450000Y-139650000D03*
X148200000Y-138600000D03*
X115600000Y-116800000D03*
X121750000Y-134650000D03*
X137500000Y-117050000D03*
X142250000Y-87150000D03*
X122900000Y-75050000D03*
X98550000Y-134450000D03*
X128100000Y-113600000D03*
X147800000Y-80800000D03*
X121200000Y-87550000D03*
X135650000Y-122300000D03*
X147237500Y-120500000D03*
X126888000Y-112450000D03*
D15*
X104450000Y-100700000D03*
D14*
X145100000Y-133350000D03*
X112250000Y-99400000D03*
X137450000Y-102600000D03*
X110100000Y-128200000D03*
X102350000Y-136900000D03*
X114250000Y-139900000D03*
X129200000Y-75100000D03*
X145200000Y-74300000D03*
X120850000Y-97250000D03*
X144650000Y-122000000D03*
X126250000Y-75100000D03*
X105800000Y-114050000D03*
X137650000Y-86400000D03*
X114700000Y-84550000D03*
X147250000Y-115950000D03*
X126900000Y-111350000D03*
D15*
X127000000Y-120050000D03*
X116550000Y-120800000D03*
X117750000Y-119200000D03*
X135300000Y-120500000D03*
X104425000Y-109175000D03*
X109800000Y-125550000D03*
D14*
X139050000Y-116200000D03*
X138700000Y-123300000D03*
X142550000Y-110300000D03*
X144150000Y-116550000D03*
X143000000Y-118050000D03*
X142600000Y-112100000D03*
X139650000Y-112900000D03*
X141800000Y-119550000D03*
X139900000Y-115700000D03*
X140650000Y-121050000D03*
X138150000Y-116200000D03*
X138300000Y-122600000D03*
X147450000Y-114100000D03*
X130050000Y-127450000D03*
X131190000Y-127500000D03*
X147500000Y-113250000D03*
X142350000Y-120150000D03*
X139600000Y-112000000D03*
X143150000Y-111450000D03*
X143550000Y-118650000D03*
X140800000Y-115750000D03*
X141100000Y-121750000D03*
X142600000Y-109500000D03*
X144600000Y-117200000D03*
X131300000Y-125550000D03*
X130600000Y-105050000D03*
X109300000Y-110350000D03*
X133900000Y-122350000D03*
X123250000Y-116650000D03*
X132150000Y-118100000D03*
X130250000Y-95450000D03*
X117150000Y-97850000D03*
X131950000Y-94050000D03*
X128950000Y-96800000D03*
X126800000Y-99250000D03*
X129550000Y-96000000D03*
X115700000Y-99600000D03*
X131050000Y-94050000D03*
X128200000Y-97250000D03*
X116450000Y-98650000D03*
X127400000Y-98600000D03*
X115000000Y-100350000D03*
D15*
X148600000Y-85300000D03*
X149450000Y-95000000D03*
D14*
X107150000Y-115100000D03*
D15*
X101550000Y-126900000D03*
D14*
X118650000Y-96350000D03*
X117950000Y-95750000D03*
G04 #@! TA.AperFunction,Conductor*
G36*
X150042539Y-72520185D02*
G01*
X150088294Y-72572989D01*
X150099500Y-72624500D01*
X150099500Y-94005828D01*
X150079815Y-94072867D01*
X150027011Y-94118622D01*
X149957853Y-94128566D01*
X149917047Y-94115186D01*
X149834733Y-94071188D01*
X149834727Y-94071186D01*
X149646132Y-94013976D01*
X149646129Y-94013975D01*
X149450000Y-93994659D01*
X149253870Y-94013975D01*
X149065266Y-94071188D01*
X148891467Y-94164086D01*
X148891460Y-94164090D01*
X148739116Y-94289116D01*
X148614090Y-94441460D01*
X148614086Y-94441467D01*
X148521188Y-94615266D01*
X148463975Y-94803870D01*
X148444659Y-95000000D01*
X148463975Y-95196129D01*
X148468195Y-95210039D01*
X148516774Y-95370184D01*
X148521188Y-95384733D01*
X148614086Y-95558532D01*
X148614090Y-95558539D01*
X148739116Y-95710883D01*
X148891460Y-95835909D01*
X148891467Y-95835913D01*
X149065266Y-95928811D01*
X149065269Y-95928811D01*
X149065273Y-95928814D01*
X149253868Y-95986024D01*
X149450000Y-96005341D01*
X149646132Y-95986024D01*
X149834727Y-95928814D01*
X149917047Y-95884812D01*
X149985449Y-95870571D01*
X150050693Y-95895571D01*
X150092064Y-95951875D01*
X150099500Y-95994171D01*
X150099500Y-143525500D01*
X150079815Y-143592539D01*
X150027011Y-143638294D01*
X149975500Y-143649500D01*
X95524500Y-143649500D01*
X95457461Y-143629815D01*
X95411706Y-143577011D01*
X95400500Y-143525500D01*
X95400500Y-136134570D01*
X125399500Y-136134570D01*
X125399500Y-136390429D01*
X125439526Y-136643140D01*
X125518588Y-136886472D01*
X125518589Y-136886475D01*
X125634750Y-137114450D01*
X125785132Y-137321435D01*
X125785136Y-137321440D01*
X125966059Y-137502363D01*
X125966064Y-137502367D01*
X126146607Y-137633538D01*
X126173053Y-137652752D01*
X126322080Y-137728685D01*
X126401024Y-137768910D01*
X126401027Y-137768911D01*
X126466700Y-137790249D01*
X126644361Y-137847974D01*
X126897070Y-137888000D01*
X126897071Y-137888000D01*
X129402929Y-137888000D01*
X129402930Y-137888000D01*
X129655639Y-137847974D01*
X129898975Y-137768910D01*
X130126947Y-137652752D01*
X130333942Y-137502362D01*
X130514862Y-137321442D01*
X130665252Y-137114447D01*
X130781410Y-136886475D01*
X130860474Y-136643139D01*
X130900500Y-136390430D01*
X130900500Y-136272070D01*
X135499500Y-136272070D01*
X135499500Y-136527929D01*
X135539526Y-136780640D01*
X135618588Y-137023972D01*
X135618589Y-137023975D01*
X135734750Y-137251950D01*
X135885132Y-137458935D01*
X135885136Y-137458940D01*
X136066059Y-137639863D01*
X136066064Y-137639867D01*
X136246607Y-137771038D01*
X136273053Y-137790252D01*
X136422080Y-137866185D01*
X136501024Y-137906410D01*
X136501027Y-137906411D01*
X136622693Y-137945942D01*
X136744361Y-137985474D01*
X136997070Y-138025500D01*
X136997071Y-138025500D01*
X139502929Y-138025500D01*
X139502930Y-138025500D01*
X139755639Y-137985474D01*
X139998975Y-137906410D01*
X140226947Y-137790252D01*
X140433942Y-137639862D01*
X140614862Y-137458942D01*
X140765252Y-137251947D01*
X140881410Y-137023975D01*
X140960474Y-136780639D01*
X141000500Y-136527930D01*
X141000500Y-136272070D01*
X140960474Y-136019361D01*
X140881410Y-135776025D01*
X140881410Y-135776024D01*
X140811349Y-135638524D01*
X140765252Y-135548053D01*
X140665350Y-135410549D01*
X140614867Y-135341064D01*
X140614863Y-135341059D01*
X140433940Y-135160136D01*
X140433935Y-135160132D01*
X140226950Y-135009750D01*
X140226949Y-135009749D01*
X140226947Y-135009748D01*
X140153910Y-134972533D01*
X139998975Y-134893589D01*
X139998972Y-134893588D01*
X139755640Y-134814526D01*
X139629284Y-134794513D01*
X139502930Y-134774500D01*
X136997070Y-134774500D01*
X136912833Y-134787842D01*
X136744359Y-134814526D01*
X136501027Y-134893588D01*
X136501024Y-134893589D01*
X136273049Y-135009750D01*
X136066064Y-135160132D01*
X136066059Y-135160136D01*
X135885136Y-135341059D01*
X135885132Y-135341064D01*
X135734750Y-135548049D01*
X135618589Y-135776024D01*
X135618588Y-135776027D01*
X135539526Y-136019359D01*
X135499500Y-136272070D01*
X130900500Y-136272070D01*
X130900500Y-136134570D01*
X130860474Y-135881861D01*
X130781410Y-135638525D01*
X130781410Y-135638524D01*
X130735310Y-135548049D01*
X130665252Y-135410553D01*
X130614761Y-135341058D01*
X130514867Y-135203564D01*
X130514863Y-135203559D01*
X130333940Y-135022636D01*
X130333935Y-135022632D01*
X130126950Y-134872250D01*
X130126949Y-134872249D01*
X130126947Y-134872248D01*
X130013662Y-134814526D01*
X129898975Y-134756089D01*
X129898972Y-134756088D01*
X129655640Y-134677026D01*
X129529284Y-134657013D01*
X129402930Y-134637000D01*
X126897070Y-134637000D01*
X126812833Y-134650342D01*
X126644359Y-134677026D01*
X126401027Y-134756088D01*
X126401024Y-134756089D01*
X126173049Y-134872250D01*
X125966064Y-135022632D01*
X125966059Y-135022636D01*
X125785136Y-135203559D01*
X125785132Y-135203564D01*
X125634750Y-135410549D01*
X125518589Y-135638524D01*
X125518588Y-135638527D01*
X125439526Y-135881859D01*
X125399500Y-136134570D01*
X95400500Y-136134570D01*
X95400500Y-129834570D01*
X125399500Y-129834570D01*
X125399500Y-130090429D01*
X125439526Y-130343140D01*
X125518588Y-130586472D01*
X125518589Y-130586475D01*
X125634750Y-130814450D01*
X125785132Y-131021435D01*
X125785136Y-131021440D01*
X125966059Y-131202363D01*
X125966064Y-131202367D01*
X126146607Y-131333538D01*
X126173053Y-131352752D01*
X126322080Y-131428685D01*
X126401024Y-131468910D01*
X126401027Y-131468911D01*
X126466700Y-131490249D01*
X126644361Y-131547974D01*
X126897070Y-131588000D01*
X126897071Y-131588000D01*
X129402929Y-131588000D01*
X129402930Y-131588000D01*
X129655639Y-131547974D01*
X129898975Y-131468910D01*
X130126947Y-131352752D01*
X130333942Y-131202362D01*
X130514862Y-131021442D01*
X130665252Y-130814447D01*
X130781410Y-130586475D01*
X130860474Y-130343139D01*
X130900500Y-130090430D01*
X130900500Y-129972070D01*
X135499500Y-129972070D01*
X135499500Y-130227929D01*
X135539526Y-130480640D01*
X135618588Y-130723972D01*
X135618589Y-130723975D01*
X135734750Y-130951950D01*
X135885132Y-131158935D01*
X135885136Y-131158940D01*
X136066059Y-131339863D01*
X136066064Y-131339867D01*
X136246607Y-131471038D01*
X136273053Y-131490252D01*
X136422080Y-131566185D01*
X136501024Y-131606410D01*
X136501027Y-131606411D01*
X136622693Y-131645942D01*
X136744361Y-131685474D01*
X136997070Y-131725500D01*
X136997071Y-131725500D01*
X139502929Y-131725500D01*
X139502930Y-131725500D01*
X139755639Y-131685474D01*
X139998975Y-131606410D01*
X140226947Y-131490252D01*
X140433942Y-131339862D01*
X140614862Y-131158942D01*
X140765252Y-130951947D01*
X140881410Y-130723975D01*
X140960474Y-130480639D01*
X141000500Y-130227930D01*
X141000500Y-129972070D01*
X140960474Y-129719361D01*
X140881410Y-129476025D01*
X140881410Y-129476024D01*
X140811349Y-129338524D01*
X140765252Y-129248053D01*
X140665350Y-129110549D01*
X140614867Y-129041064D01*
X140614863Y-129041059D01*
X140433940Y-128860136D01*
X140433935Y-128860132D01*
X140226950Y-128709750D01*
X140226949Y-128709749D01*
X140226947Y-128709748D01*
X140153910Y-128672533D01*
X139998975Y-128593589D01*
X139998972Y-128593588D01*
X139755640Y-128514526D01*
X139629284Y-128494513D01*
X139502930Y-128474500D01*
X136997070Y-128474500D01*
X136918181Y-128486995D01*
X136744359Y-128514526D01*
X136501027Y-128593588D01*
X136501024Y-128593589D01*
X136273049Y-128709750D01*
X136066064Y-128860132D01*
X136066059Y-128860136D01*
X135885136Y-129041059D01*
X135885132Y-129041064D01*
X135734750Y-129248049D01*
X135618589Y-129476024D01*
X135618588Y-129476027D01*
X135539526Y-129719359D01*
X135499500Y-129972070D01*
X130900500Y-129972070D01*
X130900500Y-129834570D01*
X130860474Y-129581861D01*
X130781410Y-129338525D01*
X130781410Y-129338524D01*
X130735310Y-129248049D01*
X130665252Y-129110553D01*
X130614761Y-129041058D01*
X130514867Y-128903564D01*
X130514863Y-128903559D01*
X130333940Y-128722636D01*
X130333935Y-128722632D01*
X130126950Y-128572250D01*
X130126949Y-128572249D01*
X130126947Y-128572248D01*
X130013662Y-128514526D01*
X129959630Y-128486995D01*
X129908834Y-128439020D01*
X129892039Y-128371199D01*
X129914577Y-128305064D01*
X129969292Y-128261613D01*
X130029809Y-128253290D01*
X130041484Y-128254605D01*
X130049999Y-128255565D01*
X130050000Y-128255565D01*
X130050004Y-128255565D01*
X130229249Y-128235369D01*
X130229252Y-128235368D01*
X130229255Y-128235368D01*
X130399522Y-128175789D01*
X130521024Y-128099443D01*
X130588261Y-128080443D01*
X130655096Y-128100810D01*
X130674678Y-128116756D01*
X130687738Y-128129816D01*
X130840478Y-128225789D01*
X130925573Y-128255565D01*
X131010745Y-128285368D01*
X131010750Y-128285369D01*
X131189996Y-128305565D01*
X131190000Y-128305565D01*
X131190004Y-128305565D01*
X131369249Y-128285369D01*
X131369252Y-128285368D01*
X131369255Y-128285368D01*
X131539522Y-128225789D01*
X131692262Y-128129816D01*
X131819816Y-128002262D01*
X131915789Y-127849522D01*
X131975368Y-127679255D01*
X131981002Y-127629254D01*
X131995565Y-127500003D01*
X131995565Y-127499996D01*
X131975369Y-127320750D01*
X131975368Y-127320745D01*
X131915788Y-127150476D01*
X131819815Y-126997737D01*
X131692262Y-126870184D01*
X131539523Y-126774211D01*
X131369254Y-126714631D01*
X131369249Y-126714630D01*
X131190004Y-126694435D01*
X131189996Y-126694435D01*
X131010750Y-126714630D01*
X131010745Y-126714631D01*
X130840476Y-126774211D01*
X130718974Y-126850556D01*
X130651737Y-126869556D01*
X130584902Y-126849188D01*
X130565321Y-126833243D01*
X130552262Y-126820184D01*
X130399523Y-126724211D01*
X130229254Y-126664631D01*
X130229249Y-126664630D01*
X130050004Y-126644435D01*
X130049996Y-126644435D01*
X129870750Y-126664630D01*
X129870745Y-126664631D01*
X129700476Y-126724211D01*
X129547737Y-126820184D01*
X129420184Y-126947737D01*
X129324211Y-127100476D01*
X129264631Y-127270745D01*
X129264630Y-127270750D01*
X129244435Y-127449996D01*
X129244435Y-127450003D01*
X129264630Y-127629249D01*
X129264631Y-127629254D01*
X129324211Y-127799523D01*
X129420184Y-127952262D01*
X129547738Y-128079816D01*
X129548736Y-128080443D01*
X129631003Y-128132135D01*
X129677294Y-128184470D01*
X129687942Y-128253524D01*
X129659567Y-128317372D01*
X129601177Y-128355744D01*
X129545633Y-128359602D01*
X129443299Y-128343394D01*
X129402930Y-128337000D01*
X126897070Y-128337000D01*
X126812833Y-128350342D01*
X126644359Y-128377026D01*
X126401027Y-128456088D01*
X126401024Y-128456089D01*
X126173049Y-128572250D01*
X125966064Y-128722632D01*
X125966059Y-128722636D01*
X125785136Y-128903559D01*
X125785132Y-128903564D01*
X125634750Y-129110549D01*
X125518589Y-129338524D01*
X125518588Y-129338527D01*
X125439526Y-129581859D01*
X125399500Y-129834570D01*
X95400500Y-129834570D01*
X95400500Y-126900000D01*
X100544659Y-126900000D01*
X100563975Y-127096129D01*
X100621188Y-127284733D01*
X100714086Y-127458532D01*
X100714090Y-127458539D01*
X100839116Y-127610883D01*
X100991460Y-127735909D01*
X100991467Y-127735913D01*
X101165266Y-127828811D01*
X101165269Y-127828811D01*
X101165273Y-127828814D01*
X101353868Y-127886024D01*
X101550000Y-127905341D01*
X101746132Y-127886024D01*
X101934727Y-127828814D01*
X101989529Y-127799522D01*
X102108532Y-127735913D01*
X102108538Y-127735910D01*
X102260883Y-127610883D01*
X102385910Y-127458538D01*
X102478814Y-127284727D01*
X102536024Y-127096132D01*
X102555341Y-126900000D01*
X102536024Y-126703868D01*
X102478814Y-126515273D01*
X102478811Y-126515269D01*
X102478811Y-126515266D01*
X102385913Y-126341467D01*
X102385909Y-126341460D01*
X102260883Y-126189116D01*
X102108539Y-126064090D01*
X102108532Y-126064086D01*
X101934733Y-125971188D01*
X101934727Y-125971186D01*
X101746132Y-125913976D01*
X101746129Y-125913975D01*
X101550000Y-125894659D01*
X101353870Y-125913975D01*
X101165266Y-125971188D01*
X100991467Y-126064086D01*
X100991460Y-126064090D01*
X100839116Y-126189116D01*
X100714090Y-126341460D01*
X100714086Y-126341467D01*
X100621188Y-126515266D01*
X100563975Y-126703870D01*
X100544659Y-126900000D01*
X95400500Y-126900000D01*
X95400500Y-125738543D01*
X95899499Y-125738543D01*
X95937947Y-125931829D01*
X95937950Y-125931839D01*
X96013364Y-126113907D01*
X96013371Y-126113920D01*
X96122860Y-126277781D01*
X96122863Y-126277785D01*
X96262214Y-126417136D01*
X96262218Y-126417139D01*
X96426079Y-126526628D01*
X96426092Y-126526635D01*
X96608160Y-126602049D01*
X96608165Y-126602051D01*
X96608169Y-126602051D01*
X96608170Y-126602052D01*
X96801456Y-126640500D01*
X96801459Y-126640500D01*
X96998543Y-126640500D01*
X97128582Y-126614632D01*
X97191835Y-126602051D01*
X97373914Y-126526632D01*
X97537782Y-126417139D01*
X97677139Y-126277782D01*
X97786632Y-126113914D01*
X97862051Y-125931835D01*
X97900500Y-125738543D01*
X98439499Y-125738543D01*
X98477947Y-125931829D01*
X98477950Y-125931839D01*
X98553364Y-126113907D01*
X98553371Y-126113920D01*
X98662860Y-126277781D01*
X98662863Y-126277785D01*
X98802214Y-126417136D01*
X98802218Y-126417139D01*
X98966079Y-126526628D01*
X98966092Y-126526635D01*
X99148160Y-126602049D01*
X99148165Y-126602051D01*
X99148169Y-126602051D01*
X99148170Y-126602052D01*
X99341456Y-126640500D01*
X99341459Y-126640500D01*
X99538543Y-126640500D01*
X99668582Y-126614632D01*
X99731835Y-126602051D01*
X99913914Y-126526632D01*
X100077782Y-126417139D01*
X100217139Y-126277782D01*
X100326632Y-126113914D01*
X100402051Y-125931835D01*
X100440500Y-125738541D01*
X100440500Y-125550000D01*
X108794659Y-125550000D01*
X108813975Y-125746129D01*
X108813976Y-125746132D01*
X108859031Y-125894659D01*
X108871188Y-125934733D01*
X108964086Y-126108532D01*
X108964090Y-126108539D01*
X109089116Y-126260883D01*
X109241460Y-126385909D01*
X109241467Y-126385913D01*
X109415266Y-126478811D01*
X109415269Y-126478811D01*
X109415273Y-126478814D01*
X109603868Y-126536024D01*
X109800000Y-126555341D01*
X109996132Y-126536024D01*
X110184727Y-126478814D01*
X110358538Y-126385910D01*
X110510883Y-126260883D01*
X110635910Y-126108538D01*
X110728814Y-125934727D01*
X110786024Y-125746132D01*
X110805341Y-125550000D01*
X110805341Y-125549996D01*
X130494435Y-125549996D01*
X130494435Y-125550003D01*
X130514630Y-125729249D01*
X130514631Y-125729254D01*
X130574211Y-125899523D01*
X130670184Y-126052262D01*
X130797738Y-126179816D01*
X130950478Y-126275789D01*
X131120745Y-126335368D01*
X131120750Y-126335369D01*
X131299996Y-126355565D01*
X131300000Y-126355565D01*
X131300004Y-126355565D01*
X131479249Y-126335369D01*
X131479252Y-126335368D01*
X131479255Y-126335368D01*
X131649522Y-126275789D01*
X131802262Y-126179816D01*
X131929816Y-126052262D01*
X132025789Y-125899522D01*
X132085368Y-125729255D01*
X132105565Y-125550000D01*
X132104602Y-125541456D01*
X132085369Y-125370750D01*
X132085368Y-125370745D01*
X132025788Y-125200476D01*
X131929815Y-125047737D01*
X131802262Y-124920184D01*
X131649523Y-124824211D01*
X131479254Y-124764631D01*
X131479249Y-124764630D01*
X131300004Y-124744435D01*
X131299996Y-124744435D01*
X131120750Y-124764630D01*
X131120745Y-124764631D01*
X130950476Y-124824211D01*
X130797737Y-124920184D01*
X130670184Y-125047737D01*
X130574211Y-125200476D01*
X130514631Y-125370745D01*
X130514630Y-125370750D01*
X130494435Y-125549996D01*
X110805341Y-125549996D01*
X110786024Y-125353868D01*
X110728814Y-125165273D01*
X110728811Y-125165269D01*
X110728811Y-125165266D01*
X110635913Y-124991467D01*
X110635909Y-124991460D01*
X110510883Y-124839116D01*
X110358539Y-124714090D01*
X110358532Y-124714086D01*
X110184733Y-124621188D01*
X110184727Y-124621186D01*
X109996132Y-124563976D01*
X109996129Y-124563975D01*
X109800000Y-124544659D01*
X109603870Y-124563975D01*
X109415266Y-124621188D01*
X109241467Y-124714086D01*
X109241460Y-124714090D01*
X109089116Y-124839116D01*
X108964090Y-124991460D01*
X108964086Y-124991467D01*
X108871188Y-125165266D01*
X108813975Y-125353870D01*
X108794659Y-125550000D01*
X100440500Y-125550000D01*
X100440500Y-125541459D01*
X100440500Y-125541456D01*
X100402052Y-125348170D01*
X100402051Y-125348169D01*
X100402051Y-125348165D01*
X100340877Y-125200476D01*
X100326635Y-125166092D01*
X100326628Y-125166079D01*
X100217139Y-125002218D01*
X100217136Y-125002214D01*
X100077785Y-124862863D01*
X100077781Y-124862860D01*
X99913920Y-124753371D01*
X99913907Y-124753364D01*
X99731839Y-124677950D01*
X99731829Y-124677947D01*
X99538543Y-124639500D01*
X99538541Y-124639500D01*
X99341459Y-124639500D01*
X99341457Y-124639500D01*
X99148170Y-124677947D01*
X99148160Y-124677950D01*
X98966092Y-124753364D01*
X98966079Y-124753371D01*
X98802218Y-124862860D01*
X98802214Y-124862863D01*
X98662863Y-125002214D01*
X98662860Y-125002218D01*
X98553371Y-125166079D01*
X98553364Y-125166092D01*
X98477950Y-125348160D01*
X98477947Y-125348170D01*
X98439500Y-125541456D01*
X98439500Y-125541459D01*
X98439500Y-125738541D01*
X98439500Y-125738543D01*
X98439499Y-125738543D01*
X97900500Y-125738543D01*
X97900500Y-125738541D01*
X97900500Y-125541459D01*
X97900500Y-125541456D01*
X97862052Y-125348170D01*
X97862051Y-125348169D01*
X97862051Y-125348165D01*
X97800877Y-125200476D01*
X97786635Y-125166092D01*
X97786628Y-125166079D01*
X97677139Y-125002218D01*
X97677136Y-125002214D01*
X97537785Y-124862863D01*
X97537781Y-124862860D01*
X97373920Y-124753371D01*
X97373907Y-124753364D01*
X97191839Y-124677950D01*
X97191829Y-124677947D01*
X96998543Y-124639500D01*
X96998541Y-124639500D01*
X96801459Y-124639500D01*
X96801457Y-124639500D01*
X96608170Y-124677947D01*
X96608160Y-124677950D01*
X96426092Y-124753364D01*
X96426079Y-124753371D01*
X96262218Y-124862860D01*
X96262214Y-124862863D01*
X96122863Y-125002214D01*
X96122860Y-125002218D01*
X96013371Y-125166079D01*
X96013364Y-125166092D01*
X95937950Y-125348160D01*
X95937947Y-125348170D01*
X95899500Y-125541456D01*
X95899500Y-125541459D01*
X95899500Y-125738541D01*
X95899500Y-125738543D01*
X95899499Y-125738543D01*
X95400500Y-125738543D01*
X95400500Y-121098011D01*
X95420185Y-121030972D01*
X95472989Y-120985217D01*
X95542147Y-120975273D01*
X95605703Y-121004298D01*
X95636882Y-121045606D01*
X95726399Y-121237578D01*
X95861894Y-121431082D01*
X96028917Y-121598105D01*
X96222421Y-121733600D01*
X96436507Y-121833429D01*
X96436516Y-121833433D01*
X96648224Y-121890159D01*
X96707885Y-121926524D01*
X96738414Y-121989370D01*
X96730120Y-122058746D01*
X96685634Y-122112624D01*
X96640325Y-122131551D01*
X96608168Y-122137948D01*
X96608160Y-122137950D01*
X96426092Y-122213364D01*
X96426079Y-122213371D01*
X96262218Y-122322860D01*
X96262214Y-122322863D01*
X96122863Y-122462214D01*
X96122860Y-122462218D01*
X96013371Y-122626079D01*
X96013364Y-122626092D01*
X95937950Y-122808160D01*
X95937947Y-122808170D01*
X95899500Y-123001456D01*
X95899500Y-123001459D01*
X95899500Y-123198541D01*
X95899500Y-123198543D01*
X95899499Y-123198543D01*
X95937947Y-123391829D01*
X95937950Y-123391839D01*
X96013364Y-123573907D01*
X96013371Y-123573920D01*
X96122860Y-123737781D01*
X96122863Y-123737785D01*
X96262214Y-123877136D01*
X96262218Y-123877139D01*
X96426079Y-123986628D01*
X96426092Y-123986635D01*
X96608160Y-124062049D01*
X96608165Y-124062051D01*
X96608169Y-124062051D01*
X96608170Y-124062052D01*
X96801456Y-124100500D01*
X96801459Y-124100500D01*
X96998543Y-124100500D01*
X97128582Y-124074632D01*
X97191835Y-124062051D01*
X97373914Y-123986632D01*
X97537782Y-123877139D01*
X97677139Y-123737782D01*
X97786632Y-123573914D01*
X97862051Y-123391835D01*
X97900500Y-123198543D01*
X98439499Y-123198543D01*
X98477947Y-123391829D01*
X98477950Y-123391839D01*
X98553364Y-123573907D01*
X98553371Y-123573920D01*
X98662860Y-123737781D01*
X98662863Y-123737785D01*
X98802214Y-123877136D01*
X98802218Y-123877139D01*
X98966079Y-123986628D01*
X98966092Y-123986635D01*
X99148160Y-124062049D01*
X99148165Y-124062051D01*
X99148169Y-124062051D01*
X99148170Y-124062052D01*
X99341456Y-124100500D01*
X99341459Y-124100500D01*
X99538543Y-124100500D01*
X99668582Y-124074632D01*
X99731835Y-124062051D01*
X99913914Y-123986632D01*
X100077782Y-123877139D01*
X100217139Y-123737782D01*
X100326632Y-123573914D01*
X100402051Y-123391835D01*
X100440500Y-123198541D01*
X100440500Y-123001459D01*
X100440500Y-123001456D01*
X100402052Y-122808170D01*
X100402051Y-122808169D01*
X100402051Y-122808165D01*
X100390074Y-122779249D01*
X100326635Y-122626092D01*
X100326628Y-122626079D01*
X100217139Y-122462218D01*
X100217136Y-122462214D01*
X100104918Y-122349996D01*
X133094435Y-122349996D01*
X133094435Y-122350003D01*
X133114630Y-122529249D01*
X133114631Y-122529254D01*
X133174211Y-122699523D01*
X133235924Y-122797738D01*
X133270184Y-122852262D01*
X133397738Y-122979816D01*
X133550478Y-123075789D01*
X133678955Y-123120745D01*
X133720745Y-123135368D01*
X133720750Y-123135369D01*
X133899996Y-123155565D01*
X133900000Y-123155565D01*
X133900004Y-123155565D01*
X134079249Y-123135369D01*
X134079252Y-123135368D01*
X134079255Y-123135368D01*
X134249522Y-123075789D01*
X134402262Y-122979816D01*
X134529816Y-122852262D01*
X134625789Y-122699522D01*
X134660615Y-122599996D01*
X137494435Y-122599996D01*
X137494435Y-122600003D01*
X137514630Y-122779249D01*
X137514631Y-122779254D01*
X137574211Y-122949523D01*
X137670184Y-123102262D01*
X137797740Y-123229818D01*
X137842728Y-123258085D01*
X137889020Y-123310419D01*
X137899977Y-123349195D01*
X137914630Y-123479250D01*
X137914631Y-123479254D01*
X137974211Y-123649523D01*
X138029668Y-123737781D01*
X138070184Y-123802262D01*
X138197738Y-123929816D01*
X138350478Y-124025789D01*
X138454103Y-124062049D01*
X138520745Y-124085368D01*
X138520750Y-124085369D01*
X138699996Y-124105565D01*
X138700000Y-124105565D01*
X138700004Y-124105565D01*
X138879249Y-124085369D01*
X138879252Y-124085368D01*
X138879255Y-124085368D01*
X139049522Y-124025789D01*
X139202262Y-123929816D01*
X139329816Y-123802262D01*
X139425789Y-123649522D01*
X139485368Y-123479255D01*
X139485369Y-123479249D01*
X139505565Y-123300003D01*
X139505565Y-123299996D01*
X139485369Y-123120750D01*
X139485368Y-123120745D01*
X139425789Y-122950478D01*
X139425188Y-122949522D01*
X139336371Y-122808170D01*
X139329816Y-122797738D01*
X139202262Y-122670184D01*
X139157269Y-122641913D01*
X139110979Y-122589579D01*
X139100022Y-122550803D01*
X139085369Y-122420750D01*
X139085368Y-122420745D01*
X139060612Y-122349996D01*
X139025789Y-122250478D01*
X138929816Y-122097738D01*
X138802262Y-121970184D01*
X138737124Y-121929255D01*
X138649523Y-121874211D01*
X138479254Y-121814631D01*
X138479249Y-121814630D01*
X138300004Y-121794435D01*
X138299996Y-121794435D01*
X138120750Y-121814630D01*
X138120745Y-121814631D01*
X137950476Y-121874211D01*
X137797737Y-121970184D01*
X137670184Y-122097737D01*
X137574211Y-122250476D01*
X137514631Y-122420745D01*
X137514630Y-122420750D01*
X137494435Y-122599996D01*
X134660615Y-122599996D01*
X134685368Y-122529255D01*
X134691392Y-122475789D01*
X134705565Y-122350003D01*
X134705565Y-122349996D01*
X134685369Y-122170750D01*
X134685368Y-122170745D01*
X134625789Y-122000478D01*
X134618809Y-121989370D01*
X134529815Y-121847737D01*
X134402262Y-121720184D01*
X134249523Y-121624211D01*
X134079254Y-121564631D01*
X134079249Y-121564630D01*
X133900004Y-121544435D01*
X133899996Y-121544435D01*
X133720750Y-121564630D01*
X133720745Y-121564631D01*
X133550476Y-121624211D01*
X133397737Y-121720184D01*
X133270184Y-121847737D01*
X133174211Y-122000476D01*
X133114631Y-122170745D01*
X133114630Y-122170750D01*
X133094435Y-122349996D01*
X100104918Y-122349996D01*
X100077785Y-122322863D01*
X100077781Y-122322860D01*
X99913920Y-122213371D01*
X99913907Y-122213364D01*
X99731839Y-122137950D01*
X99731829Y-122137947D01*
X99538543Y-122099500D01*
X99538541Y-122099500D01*
X99341459Y-122099500D01*
X99341457Y-122099500D01*
X99148170Y-122137947D01*
X99148160Y-122137950D01*
X98966092Y-122213364D01*
X98966079Y-122213371D01*
X98802218Y-122322860D01*
X98802214Y-122322863D01*
X98662863Y-122462214D01*
X98662860Y-122462218D01*
X98553371Y-122626079D01*
X98553364Y-122626092D01*
X98477950Y-122808160D01*
X98477947Y-122808170D01*
X98439500Y-123001456D01*
X98439500Y-123001459D01*
X98439500Y-123198541D01*
X98439500Y-123198543D01*
X98439499Y-123198543D01*
X97900500Y-123198543D01*
X97900500Y-123198541D01*
X97900500Y-123001459D01*
X97900500Y-123001456D01*
X97862052Y-122808170D01*
X97862051Y-122808169D01*
X97862051Y-122808165D01*
X97850074Y-122779249D01*
X97786635Y-122626092D01*
X97786628Y-122626079D01*
X97677139Y-122462218D01*
X97677136Y-122462214D01*
X97537785Y-122322863D01*
X97537781Y-122322860D01*
X97373920Y-122213371D01*
X97373907Y-122213364D01*
X97191839Y-122137950D01*
X97191832Y-122137948D01*
X97159674Y-122131551D01*
X97097764Y-122099164D01*
X97063191Y-122038448D01*
X97066932Y-121968678D01*
X97107800Y-121912007D01*
X97151775Y-121890159D01*
X97363483Y-121833433D01*
X97363492Y-121833429D01*
X97577578Y-121733600D01*
X97771082Y-121598105D01*
X97938105Y-121431082D01*
X98073600Y-121237578D01*
X98173429Y-121023492D01*
X98173433Y-121023483D01*
X98230159Y-120811775D01*
X98266524Y-120752115D01*
X98329370Y-120721585D01*
X98398746Y-120729879D01*
X98452624Y-120774364D01*
X98471551Y-120819674D01*
X98477948Y-120851832D01*
X98477950Y-120851839D01*
X98553364Y-121033907D01*
X98553371Y-121033920D01*
X98662860Y-121197781D01*
X98662863Y-121197785D01*
X98802214Y-121337136D01*
X98802218Y-121337139D01*
X98966079Y-121446628D01*
X98966092Y-121446635D01*
X99107823Y-121505341D01*
X99148165Y-121522051D01*
X99148169Y-121522051D01*
X99148170Y-121522052D01*
X99341456Y-121560500D01*
X99341459Y-121560500D01*
X99538543Y-121560500D01*
X99668582Y-121534632D01*
X99731835Y-121522051D01*
X99913914Y-121446632D01*
X100077782Y-121337139D01*
X100217139Y-121197782D01*
X100326632Y-121033914D01*
X100402051Y-120851835D01*
X100412362Y-120800000D01*
X115544659Y-120800000D01*
X115563975Y-120996129D01*
X115621188Y-121184733D01*
X115714086Y-121358532D01*
X115714090Y-121358539D01*
X115839116Y-121510883D01*
X115991460Y-121635909D01*
X115991467Y-121635913D01*
X116165266Y-121728811D01*
X116165269Y-121728811D01*
X116165273Y-121728814D01*
X116353868Y-121786024D01*
X116550000Y-121805341D01*
X116746132Y-121786024D01*
X116934727Y-121728814D01*
X117108538Y-121635910D01*
X117260883Y-121510883D01*
X117385910Y-121358538D01*
X117455014Y-121229254D01*
X117478811Y-121184733D01*
X117478811Y-121184732D01*
X117478814Y-121184727D01*
X117536024Y-120996132D01*
X117555341Y-120800000D01*
X117536024Y-120603868D01*
X117478814Y-120415273D01*
X117454655Y-120370076D01*
X117440414Y-120301674D01*
X117465414Y-120236430D01*
X117521719Y-120195059D01*
X117576166Y-120188220D01*
X117750000Y-120205341D01*
X117946132Y-120186024D01*
X118134727Y-120128814D01*
X118160061Y-120115273D01*
X118263469Y-120060000D01*
X118282178Y-120050000D01*
X125994659Y-120050000D01*
X126013975Y-120246129D01*
X126013976Y-120246132D01*
X126066774Y-120420184D01*
X126071188Y-120434733D01*
X126164086Y-120608532D01*
X126164090Y-120608539D01*
X126289116Y-120760883D01*
X126441460Y-120885909D01*
X126441467Y-120885913D01*
X126615266Y-120978811D01*
X126615269Y-120978811D01*
X126615273Y-120978814D01*
X126803868Y-121036024D01*
X127000000Y-121055341D01*
X127196132Y-121036024D01*
X127384727Y-120978814D01*
X127419741Y-120960099D01*
X127558532Y-120885913D01*
X127558538Y-120885910D01*
X127710883Y-120760883D01*
X127835910Y-120608538D01*
X127893925Y-120500000D01*
X134294659Y-120500000D01*
X134313975Y-120696129D01*
X134313976Y-120696132D01*
X134368474Y-120875788D01*
X134371188Y-120884733D01*
X134464086Y-121058532D01*
X134464090Y-121058539D01*
X134589116Y-121210883D01*
X134741460Y-121335909D01*
X134741467Y-121335913D01*
X134915266Y-121428811D01*
X134915269Y-121428811D01*
X134915273Y-121428814D01*
X135103868Y-121486024D01*
X135300000Y-121505341D01*
X135496132Y-121486024D01*
X135684727Y-121428814D01*
X135739529Y-121399522D01*
X135816215Y-121358532D01*
X135858538Y-121335910D01*
X136010883Y-121210883D01*
X136135910Y-121058538D01*
X136140476Y-121049996D01*
X139844435Y-121049996D01*
X139844435Y-121050003D01*
X139864630Y-121229249D01*
X139864631Y-121229254D01*
X139924211Y-121399523D01*
X139994184Y-121510883D01*
X140020184Y-121552262D01*
X140147738Y-121679816D01*
X140225713Y-121728811D01*
X140246538Y-121741896D01*
X140292829Y-121794231D01*
X140303786Y-121833006D01*
X140314630Y-121929249D01*
X140374210Y-122099521D01*
X140445743Y-122213364D01*
X140470184Y-122252262D01*
X140597738Y-122379816D01*
X140662876Y-122420745D01*
X140728873Y-122462214D01*
X140750478Y-122475789D01*
X140903258Y-122529249D01*
X140920745Y-122535368D01*
X140920750Y-122535369D01*
X141099996Y-122555565D01*
X141100000Y-122555565D01*
X141100004Y-122555565D01*
X141279249Y-122535369D01*
X141279252Y-122535368D01*
X141279255Y-122535368D01*
X141449522Y-122475789D01*
X141602262Y-122379816D01*
X141729816Y-122252262D01*
X141825789Y-122099522D01*
X141885368Y-121929255D01*
X141885676Y-121926524D01*
X141905565Y-121750003D01*
X141905565Y-121749996D01*
X141885369Y-121570750D01*
X141885368Y-121570745D01*
X141881783Y-121560500D01*
X141825789Y-121400478D01*
X141825188Y-121399522D01*
X141729815Y-121247737D01*
X141602260Y-121120182D01*
X141503459Y-121058101D01*
X141457169Y-121005767D01*
X141446212Y-120966990D01*
X141435369Y-120870750D01*
X141435368Y-120870745D01*
X141434060Y-120867007D01*
X141375789Y-120700478D01*
X141373056Y-120696129D01*
X141279815Y-120547737D01*
X141152262Y-120420184D01*
X140999523Y-120324211D01*
X140829254Y-120264631D01*
X140829249Y-120264630D01*
X140650004Y-120244435D01*
X140649996Y-120244435D01*
X140470750Y-120264630D01*
X140470745Y-120264631D01*
X140300476Y-120324211D01*
X140147737Y-120420184D01*
X140020184Y-120547737D01*
X139924211Y-120700476D01*
X139864631Y-120870745D01*
X139864630Y-120870750D01*
X139844435Y-121049996D01*
X136140476Y-121049996D01*
X136228814Y-120884727D01*
X136286024Y-120696132D01*
X136305341Y-120500000D01*
X136286024Y-120303868D01*
X136228814Y-120115273D01*
X136228811Y-120115269D01*
X136228811Y-120115266D01*
X136135913Y-119941467D01*
X136135909Y-119941460D01*
X136010883Y-119789116D01*
X135858539Y-119664090D01*
X135858532Y-119664086D01*
X135684733Y-119571188D01*
X135684727Y-119571186D01*
X135614873Y-119549996D01*
X140994435Y-119549996D01*
X140994435Y-119550003D01*
X141014630Y-119729249D01*
X141014631Y-119729254D01*
X141074211Y-119899523D01*
X141159909Y-120035909D01*
X141170184Y-120052262D01*
X141297738Y-120179816D01*
X141307618Y-120186024D01*
X141450479Y-120275790D01*
X141490483Y-120289787D01*
X141502874Y-120294123D01*
X141559651Y-120334844D01*
X141578963Y-120370211D01*
X141624210Y-120499521D01*
X141692710Y-120608538D01*
X141720184Y-120652262D01*
X141847738Y-120779816D01*
X141911172Y-120819674D01*
X141992450Y-120870745D01*
X142000478Y-120875789D01*
X142029411Y-120885913D01*
X142170745Y-120935368D01*
X142170750Y-120935369D01*
X142349996Y-120955565D01*
X142350000Y-120955565D01*
X142350004Y-120955565D01*
X142529249Y-120935369D01*
X142529252Y-120935368D01*
X142529255Y-120935368D01*
X142699522Y-120875789D01*
X142852262Y-120779816D01*
X142979816Y-120652262D01*
X143075789Y-120499522D01*
X143135368Y-120329255D01*
X143135369Y-120329249D01*
X143155565Y-120150003D01*
X143155565Y-120149996D01*
X143135369Y-119970750D01*
X143135368Y-119970745D01*
X143100531Y-119871186D01*
X143075789Y-119800478D01*
X143068650Y-119789117D01*
X143031033Y-119729249D01*
X142979816Y-119647738D01*
X142852262Y-119520184D01*
X142717280Y-119435369D01*
X142699524Y-119424212D01*
X142699523Y-119424211D01*
X142647122Y-119405875D01*
X142590346Y-119365153D01*
X142571037Y-119329790D01*
X142525789Y-119200478D01*
X142429816Y-119047738D01*
X142302262Y-118920184D01*
X142278996Y-118905565D01*
X142149523Y-118824211D01*
X141979254Y-118764631D01*
X141979249Y-118764630D01*
X141800004Y-118744435D01*
X141799996Y-118744435D01*
X141620750Y-118764630D01*
X141620745Y-118764631D01*
X141450476Y-118824211D01*
X141297737Y-118920184D01*
X141170184Y-119047737D01*
X141074211Y-119200476D01*
X141014631Y-119370745D01*
X141014630Y-119370750D01*
X140994435Y-119549996D01*
X135614873Y-119549996D01*
X135496132Y-119513976D01*
X135496129Y-119513975D01*
X135300000Y-119494659D01*
X135103870Y-119513975D01*
X134915266Y-119571188D01*
X134741467Y-119664086D01*
X134741460Y-119664090D01*
X134589116Y-119789116D01*
X134464090Y-119941460D01*
X134464086Y-119941467D01*
X134371188Y-120115266D01*
X134313975Y-120303870D01*
X134294659Y-120500000D01*
X127893925Y-120500000D01*
X127897039Y-120494174D01*
X127928811Y-120434733D01*
X127928811Y-120434732D01*
X127928814Y-120434727D01*
X127986024Y-120246132D01*
X128005341Y-120050000D01*
X127986024Y-119853868D01*
X127928814Y-119665273D01*
X127928811Y-119665269D01*
X127928811Y-119665266D01*
X127835913Y-119491467D01*
X127835909Y-119491460D01*
X127710883Y-119339116D01*
X127558539Y-119214090D01*
X127558532Y-119214086D01*
X127384733Y-119121188D01*
X127384727Y-119121186D01*
X127196132Y-119063976D01*
X127196129Y-119063975D01*
X127000000Y-119044659D01*
X126803870Y-119063975D01*
X126615266Y-119121188D01*
X126441467Y-119214086D01*
X126441460Y-119214090D01*
X126289116Y-119339116D01*
X126164090Y-119491460D01*
X126164086Y-119491467D01*
X126071188Y-119665266D01*
X126013975Y-119853870D01*
X125994659Y-120050000D01*
X118282178Y-120050000D01*
X118308538Y-120035910D01*
X118460883Y-119910883D01*
X118585910Y-119758538D01*
X118678814Y-119584727D01*
X118736024Y-119396132D01*
X118755341Y-119200000D01*
X118736024Y-119003868D01*
X118678814Y-118815273D01*
X118678811Y-118815269D01*
X118678811Y-118815266D01*
X118585913Y-118641467D01*
X118585909Y-118641460D01*
X118460883Y-118489116D01*
X118308539Y-118364090D01*
X118308532Y-118364086D01*
X118134733Y-118271188D01*
X118134727Y-118271186D01*
X117946132Y-118213976D01*
X117946129Y-118213975D01*
X117750000Y-118194659D01*
X117553870Y-118213975D01*
X117365266Y-118271188D01*
X117191467Y-118364086D01*
X117191460Y-118364090D01*
X117039116Y-118489116D01*
X116914090Y-118641460D01*
X116914086Y-118641467D01*
X116821188Y-118815266D01*
X116763975Y-119003870D01*
X116744659Y-119200000D01*
X116763975Y-119396129D01*
X116772494Y-119424211D01*
X116817078Y-119571186D01*
X116821188Y-119584733D01*
X116845343Y-119629923D01*
X116859585Y-119698326D01*
X116834585Y-119763570D01*
X116778280Y-119804940D01*
X116723831Y-119811779D01*
X116550000Y-119794659D01*
X116353870Y-119813975D01*
X116165266Y-119871188D01*
X115991467Y-119964086D01*
X115991460Y-119964090D01*
X115839116Y-120089116D01*
X115714090Y-120241460D01*
X115714086Y-120241467D01*
X115621188Y-120415266D01*
X115563975Y-120603870D01*
X115544659Y-120800000D01*
X100412362Y-120800000D01*
X100440500Y-120658541D01*
X100440500Y-120461459D01*
X100440500Y-120461456D01*
X100402052Y-120268170D01*
X100402051Y-120268169D01*
X100402051Y-120268165D01*
X100392925Y-120246132D01*
X100326635Y-120086092D01*
X100326628Y-120086079D01*
X100217139Y-119922218D01*
X100217136Y-119922214D01*
X100077785Y-119782863D01*
X100077781Y-119782860D01*
X99913920Y-119673371D01*
X99913907Y-119673364D01*
X99731839Y-119597950D01*
X99731829Y-119597947D01*
X99538543Y-119559500D01*
X99538541Y-119559500D01*
X99341459Y-119559500D01*
X99341457Y-119559500D01*
X99148170Y-119597947D01*
X99148160Y-119597950D01*
X98966092Y-119673364D01*
X98966079Y-119673371D01*
X98802218Y-119782860D01*
X98802214Y-119782863D01*
X98662863Y-119922214D01*
X98662860Y-119922218D01*
X98553371Y-120086079D01*
X98553364Y-120086092D01*
X98477950Y-120268160D01*
X98477948Y-120268168D01*
X98471551Y-120300325D01*
X98439164Y-120362236D01*
X98378447Y-120396808D01*
X98308678Y-120393067D01*
X98252007Y-120352199D01*
X98230159Y-120308224D01*
X98173433Y-120096516D01*
X98173429Y-120096507D01*
X98073600Y-119882422D01*
X98073599Y-119882420D01*
X97938113Y-119688926D01*
X97938108Y-119688920D01*
X97771082Y-119521894D01*
X97577578Y-119386399D01*
X97363492Y-119286570D01*
X97363483Y-119286566D01*
X97151775Y-119229840D01*
X97092114Y-119193475D01*
X97061585Y-119130628D01*
X97069880Y-119061253D01*
X97114365Y-119007375D01*
X97159677Y-118988448D01*
X97170595Y-118986275D01*
X97191835Y-118982051D01*
X97373914Y-118906632D01*
X97537782Y-118797139D01*
X97677139Y-118657782D01*
X97786632Y-118493914D01*
X97862051Y-118311835D01*
X97885359Y-118194659D01*
X97900500Y-118118543D01*
X97900500Y-117921456D01*
X97862052Y-117728170D01*
X97862051Y-117728169D01*
X97862051Y-117728165D01*
X97808027Y-117597738D01*
X97786635Y-117546092D01*
X97786628Y-117546079D01*
X97677139Y-117382218D01*
X97677136Y-117382214D01*
X97537785Y-117242863D01*
X97537781Y-117242860D01*
X97373920Y-117133371D01*
X97373907Y-117133364D01*
X97191839Y-117057950D01*
X97191829Y-117057947D01*
X96998543Y-117019500D01*
X96998541Y-117019500D01*
X96801459Y-117019500D01*
X96801457Y-117019500D01*
X96608170Y-117057947D01*
X96608160Y-117057950D01*
X96426092Y-117133364D01*
X96426079Y-117133371D01*
X96262218Y-117242860D01*
X96262214Y-117242863D01*
X96122863Y-117382214D01*
X96122860Y-117382218D01*
X96013371Y-117546079D01*
X96013364Y-117546092D01*
X95937950Y-117728160D01*
X95937947Y-117728170D01*
X95899500Y-117921456D01*
X95899500Y-117921459D01*
X95899500Y-118118541D01*
X95899500Y-118118543D01*
X95899499Y-118118543D01*
X95937947Y-118311829D01*
X95937950Y-118311839D01*
X96013364Y-118493907D01*
X96013371Y-118493920D01*
X96122860Y-118657781D01*
X96122863Y-118657785D01*
X96262214Y-118797136D01*
X96262218Y-118797139D01*
X96426079Y-118906628D01*
X96426092Y-118906635D01*
X96608160Y-118982049D01*
X96608165Y-118982051D01*
X96622261Y-118984855D01*
X96640322Y-118988448D01*
X96702233Y-119020833D01*
X96736807Y-119081549D01*
X96733068Y-119151318D01*
X96692201Y-119207990D01*
X96648224Y-119229840D01*
X96436516Y-119286566D01*
X96436507Y-119286570D01*
X96222422Y-119386399D01*
X96222420Y-119386400D01*
X96028926Y-119521886D01*
X96028920Y-119521891D01*
X95861891Y-119688920D01*
X95861886Y-119688926D01*
X95726400Y-119882420D01*
X95726399Y-119882422D01*
X95636882Y-120074393D01*
X95590710Y-120126832D01*
X95523516Y-120145984D01*
X95456635Y-120125768D01*
X95411300Y-120072603D01*
X95400500Y-120021988D01*
X95400500Y-115578543D01*
X95899499Y-115578543D01*
X95937947Y-115771829D01*
X95937950Y-115771839D01*
X96013364Y-115953907D01*
X96013371Y-115953920D01*
X96122860Y-116117781D01*
X96122863Y-116117785D01*
X96262214Y-116257136D01*
X96262218Y-116257139D01*
X96426079Y-116366628D01*
X96426092Y-116366635D01*
X96576915Y-116429107D01*
X96608165Y-116442051D01*
X96608169Y-116442051D01*
X96608170Y-116442052D01*
X96801456Y-116480500D01*
X96801459Y-116480500D01*
X96998543Y-116480500D01*
X97142030Y-116451958D01*
X97191835Y-116442051D01*
X97373914Y-116366632D01*
X97537782Y-116257139D01*
X97677139Y-116117782D01*
X97786632Y-115953914D01*
X97796849Y-115929249D01*
X97817207Y-115880099D01*
X97862051Y-115771835D01*
X97868448Y-115739677D01*
X97900832Y-115677766D01*
X97961548Y-115643192D01*
X98031318Y-115646931D01*
X98087990Y-115687797D01*
X98109840Y-115731775D01*
X98166566Y-115943483D01*
X98166570Y-115943492D01*
X98266399Y-116157578D01*
X98401894Y-116351082D01*
X98568917Y-116518105D01*
X98762421Y-116653600D01*
X98976507Y-116753429D01*
X98976516Y-116753433D01*
X99188224Y-116810159D01*
X99247885Y-116846524D01*
X99278414Y-116909370D01*
X99270120Y-116978746D01*
X99225634Y-117032624D01*
X99180325Y-117051551D01*
X99148168Y-117057948D01*
X99148160Y-117057950D01*
X98966092Y-117133364D01*
X98966079Y-117133371D01*
X98802218Y-117242860D01*
X98802214Y-117242863D01*
X98662863Y-117382214D01*
X98662860Y-117382218D01*
X98553371Y-117546079D01*
X98553364Y-117546092D01*
X98477950Y-117728160D01*
X98477947Y-117728170D01*
X98439500Y-117921456D01*
X98439500Y-117921459D01*
X98439500Y-118118541D01*
X98439500Y-118118543D01*
X98439499Y-118118543D01*
X98477947Y-118311829D01*
X98477950Y-118311839D01*
X98553364Y-118493907D01*
X98553371Y-118493920D01*
X98662860Y-118657781D01*
X98662863Y-118657785D01*
X98802214Y-118797136D01*
X98802218Y-118797139D01*
X98966079Y-118906628D01*
X98966092Y-118906635D01*
X99148160Y-118982049D01*
X99148165Y-118982051D01*
X99148169Y-118982051D01*
X99148170Y-118982052D01*
X99341456Y-119020500D01*
X99341459Y-119020500D01*
X99538543Y-119020500D01*
X99699675Y-118988448D01*
X99731835Y-118982051D01*
X99913914Y-118906632D01*
X100077782Y-118797139D01*
X100217139Y-118657782D01*
X100326632Y-118493914D01*
X100402051Y-118311835D01*
X100425359Y-118194659D01*
X100440500Y-118118543D01*
X100440500Y-118099996D01*
X131344435Y-118099996D01*
X131344435Y-118100003D01*
X131364630Y-118279249D01*
X131364631Y-118279254D01*
X131424211Y-118449523D01*
X131449090Y-118489117D01*
X131520184Y-118602262D01*
X131647738Y-118729816D01*
X131720904Y-118775789D01*
X131797966Y-118824211D01*
X131800478Y-118825789D01*
X131826356Y-118834844D01*
X131970745Y-118885368D01*
X131970750Y-118885369D01*
X132149996Y-118905565D01*
X132150000Y-118905565D01*
X132150004Y-118905565D01*
X132329249Y-118885369D01*
X132329252Y-118885368D01*
X132329255Y-118885368D01*
X132499522Y-118825789D01*
X132652262Y-118729816D01*
X132779816Y-118602262D01*
X132875789Y-118449522D01*
X132935368Y-118279255D01*
X132941002Y-118229254D01*
X132955565Y-118100003D01*
X132955565Y-118099996D01*
X132949931Y-118049996D01*
X142194435Y-118049996D01*
X142194435Y-118050003D01*
X142214630Y-118229249D01*
X142214631Y-118229254D01*
X142274211Y-118399523D01*
X142330507Y-118489117D01*
X142370184Y-118552262D01*
X142497738Y-118679816D01*
X142574108Y-118727802D01*
X142650479Y-118775790D01*
X142690483Y-118789787D01*
X142702874Y-118794123D01*
X142759651Y-118834844D01*
X142778963Y-118870211D01*
X142824210Y-118999521D01*
X142864710Y-119063976D01*
X142920184Y-119152262D01*
X143047738Y-119279816D01*
X143058481Y-119286566D01*
X143192450Y-119370745D01*
X143200478Y-119375789D01*
X143286459Y-119405875D01*
X143370745Y-119435368D01*
X143370750Y-119435369D01*
X143549996Y-119455565D01*
X143550000Y-119455565D01*
X143550004Y-119455565D01*
X143729249Y-119435369D01*
X143729252Y-119435368D01*
X143729255Y-119435368D01*
X143899522Y-119375789D01*
X144052262Y-119279816D01*
X144179816Y-119152262D01*
X144275789Y-118999522D01*
X144335368Y-118829255D01*
X144335759Y-118825788D01*
X144355565Y-118650003D01*
X144355565Y-118649996D01*
X144335369Y-118470750D01*
X144335368Y-118470745D01*
X144275788Y-118300476D01*
X144221436Y-118213976D01*
X144179816Y-118147738D01*
X144179815Y-118147737D01*
X144175475Y-118142295D01*
X144177917Y-118140347D01*
X144151038Y-118091122D01*
X144156022Y-118021430D01*
X144197894Y-117965497D01*
X144263358Y-117941080D01*
X144313159Y-117947722D01*
X144420745Y-117985368D01*
X144420750Y-117985369D01*
X144599996Y-118005565D01*
X144600000Y-118005565D01*
X144600004Y-118005565D01*
X144779249Y-117985369D01*
X144779252Y-117985368D01*
X144779255Y-117985368D01*
X144949522Y-117925789D01*
X145102262Y-117829816D01*
X145229816Y-117702262D01*
X145325789Y-117549522D01*
X145385368Y-117379255D01*
X145385759Y-117375788D01*
X145405565Y-117200003D01*
X145405565Y-117199996D01*
X145385369Y-117020750D01*
X145385368Y-117020745D01*
X145344555Y-116904108D01*
X145325789Y-116850478D01*
X145229816Y-116697738D01*
X145102262Y-116570184D01*
X144997396Y-116504292D01*
X144951106Y-116451958D01*
X144940149Y-116413186D01*
X144935368Y-116370745D01*
X144875789Y-116200478D01*
X144779816Y-116047738D01*
X144652262Y-115920184D01*
X144628996Y-115905565D01*
X144499523Y-115824211D01*
X144329254Y-115764631D01*
X144329249Y-115764630D01*
X144150004Y-115744435D01*
X144149996Y-115744435D01*
X143970750Y-115764630D01*
X143970745Y-115764631D01*
X143800476Y-115824211D01*
X143647737Y-115920184D01*
X143520184Y-116047737D01*
X143424211Y-116200476D01*
X143364631Y-116370745D01*
X143364630Y-116370750D01*
X143344435Y-116549996D01*
X143344435Y-116550003D01*
X143364630Y-116729249D01*
X143364631Y-116729254D01*
X143424211Y-116899523D01*
X143500384Y-117020750D01*
X143520184Y-117052262D01*
X143647738Y-117179816D01*
X143752602Y-117245706D01*
X143798892Y-117298039D01*
X143809849Y-117336814D01*
X143814630Y-117379249D01*
X143814631Y-117379254D01*
X143814632Y-117379255D01*
X143815667Y-117382214D01*
X143825366Y-117409930D01*
X143828927Y-117479709D01*
X143794198Y-117540336D01*
X143732204Y-117572563D01*
X143662629Y-117566157D01*
X143620643Y-117538565D01*
X143502262Y-117420184D01*
X143349523Y-117324211D01*
X143179254Y-117264631D01*
X143179249Y-117264630D01*
X143000004Y-117244435D01*
X142999996Y-117244435D01*
X142820750Y-117264630D01*
X142820745Y-117264631D01*
X142650476Y-117324211D01*
X142497737Y-117420184D01*
X142370184Y-117547737D01*
X142274211Y-117700476D01*
X142214631Y-117870745D01*
X142214630Y-117870750D01*
X142194435Y-118049996D01*
X132949931Y-118049996D01*
X132935369Y-117920750D01*
X132935368Y-117920745D01*
X132917872Y-117870745D01*
X132875789Y-117750478D01*
X132779816Y-117597738D01*
X132652262Y-117470184D01*
X132628996Y-117455565D01*
X132499523Y-117374211D01*
X132329254Y-117314631D01*
X132329249Y-117314630D01*
X132150004Y-117294435D01*
X132149996Y-117294435D01*
X131970750Y-117314630D01*
X131970745Y-117314631D01*
X131800476Y-117374211D01*
X131647737Y-117470184D01*
X131520184Y-117597737D01*
X131424211Y-117750476D01*
X131364631Y-117920745D01*
X131364630Y-117920750D01*
X131344435Y-118099996D01*
X100440500Y-118099996D01*
X100440500Y-117921456D01*
X100402052Y-117728170D01*
X100402051Y-117728169D01*
X100402051Y-117728165D01*
X100348027Y-117597738D01*
X100326635Y-117546092D01*
X100326628Y-117546079D01*
X100217139Y-117382218D01*
X100217136Y-117382214D01*
X100077785Y-117242863D01*
X100077781Y-117242860D01*
X99913920Y-117133371D01*
X99913907Y-117133364D01*
X99731839Y-117057950D01*
X99731832Y-117057948D01*
X99699674Y-117051551D01*
X99637764Y-117019164D01*
X99603191Y-116958448D01*
X99606932Y-116888678D01*
X99647800Y-116832007D01*
X99691775Y-116810159D01*
X99903483Y-116753433D01*
X99903492Y-116753429D01*
X100117578Y-116653600D01*
X100122725Y-116649996D01*
X122444435Y-116649996D01*
X122444435Y-116650003D01*
X122464630Y-116829249D01*
X122464631Y-116829254D01*
X122524211Y-116999523D01*
X122608310Y-117133364D01*
X122620184Y-117152262D01*
X122747738Y-117279816D01*
X122818392Y-117324211D01*
X122897966Y-117374211D01*
X122900478Y-117375789D01*
X123027352Y-117420184D01*
X123070745Y-117435368D01*
X123070750Y-117435369D01*
X123249996Y-117455565D01*
X123250000Y-117455565D01*
X123250004Y-117455565D01*
X123429249Y-117435369D01*
X123429252Y-117435368D01*
X123429255Y-117435368D01*
X123599522Y-117375789D01*
X123752262Y-117279816D01*
X123879816Y-117152262D01*
X123975789Y-116999522D01*
X124035368Y-116829255D01*
X124043911Y-116753433D01*
X124055565Y-116650003D01*
X124055565Y-116649996D01*
X124035369Y-116470750D01*
X124035368Y-116470745D01*
X124025328Y-116442052D01*
X123975789Y-116300478D01*
X123912652Y-116199996D01*
X137344435Y-116199996D01*
X137344435Y-116200003D01*
X137364630Y-116379249D01*
X137364631Y-116379254D01*
X137424211Y-116549523D01*
X137517341Y-116697737D01*
X137520184Y-116702262D01*
X137647738Y-116829816D01*
X137800478Y-116925789D01*
X137970745Y-116985368D01*
X137970750Y-116985369D01*
X138149996Y-117005565D01*
X138150000Y-117005565D01*
X138150004Y-117005565D01*
X138329249Y-116985369D01*
X138329252Y-116985368D01*
X138329255Y-116985368D01*
X138499522Y-116925789D01*
X138525653Y-116909370D01*
X138534027Y-116904108D01*
X138601263Y-116885107D01*
X138665973Y-116904108D01*
X138700475Y-116925788D01*
X138870745Y-116985368D01*
X138870750Y-116985369D01*
X139049996Y-117005565D01*
X139050000Y-117005565D01*
X139050004Y-117005565D01*
X139229249Y-116985369D01*
X139229252Y-116985368D01*
X139229255Y-116985368D01*
X139399522Y-116925789D01*
X139552262Y-116829816D01*
X139679816Y-116702262D01*
X139768343Y-116561371D01*
X139820677Y-116515082D01*
X139887221Y-116504125D01*
X139900000Y-116505565D01*
X139900004Y-116505565D01*
X140079249Y-116485369D01*
X140079251Y-116485368D01*
X140079255Y-116485368D01*
X140079258Y-116485366D01*
X140079262Y-116485366D01*
X140130300Y-116467506D01*
X140249522Y-116425789D01*
X140249531Y-116425782D01*
X140255799Y-116422766D01*
X140257111Y-116425491D01*
X140311357Y-116410106D01*
X140376184Y-116429107D01*
X140447966Y-116474211D01*
X140450478Y-116475789D01*
X140531458Y-116504125D01*
X140620745Y-116535368D01*
X140620750Y-116535369D01*
X140799996Y-116555565D01*
X140800000Y-116555565D01*
X140800004Y-116555565D01*
X140979249Y-116535369D01*
X140979252Y-116535368D01*
X140979255Y-116535368D01*
X141149522Y-116475789D01*
X141302262Y-116379816D01*
X141429816Y-116252262D01*
X141525789Y-116099522D01*
X141585368Y-115929255D01*
X141585369Y-115929249D01*
X141605565Y-115750003D01*
X141605565Y-115749996D01*
X141585369Y-115570750D01*
X141585368Y-115570745D01*
X141551589Y-115474211D01*
X141525789Y-115400478D01*
X141516011Y-115384917D01*
X141449619Y-115279254D01*
X141429816Y-115247738D01*
X141302262Y-115120184D01*
X141270144Y-115100003D01*
X141149523Y-115024211D01*
X140979254Y-114964631D01*
X140979249Y-114964630D01*
X140800004Y-114944435D01*
X140799996Y-114944435D01*
X140620750Y-114964630D01*
X140620737Y-114964633D01*
X140450478Y-115024210D01*
X140444206Y-115027231D01*
X140442914Y-115024549D01*
X140388369Y-115039890D01*
X140323815Y-115020892D01*
X140249522Y-114974211D01*
X140249518Y-114974209D01*
X140079262Y-114914633D01*
X140079249Y-114914630D01*
X139900004Y-114894435D01*
X139899996Y-114894435D01*
X139720750Y-114914630D01*
X139720745Y-114914631D01*
X139550476Y-114974211D01*
X139397737Y-115070184D01*
X139270184Y-115197737D01*
X139181658Y-115338626D01*
X139129323Y-115384917D01*
X139062785Y-115395875D01*
X139050000Y-115394435D01*
X139049996Y-115394435D01*
X138870750Y-115414630D01*
X138870737Y-115414633D01*
X138700480Y-115474209D01*
X138665970Y-115495893D01*
X138598733Y-115514892D01*
X138534030Y-115495893D01*
X138499519Y-115474209D01*
X138329262Y-115414633D01*
X138329249Y-115414630D01*
X138150004Y-115394435D01*
X138149996Y-115394435D01*
X137970750Y-115414630D01*
X137970745Y-115414631D01*
X137800476Y-115474211D01*
X137647737Y-115570184D01*
X137520184Y-115697737D01*
X137424211Y-115850476D01*
X137364631Y-116020745D01*
X137364630Y-116020750D01*
X137344435Y-116199996D01*
X123912652Y-116199996D01*
X123879816Y-116147738D01*
X123752262Y-116020184D01*
X123646804Y-115953920D01*
X123599523Y-115924211D01*
X123429254Y-115864631D01*
X123429249Y-115864630D01*
X123250004Y-115844435D01*
X123249996Y-115844435D01*
X123070750Y-115864630D01*
X123070745Y-115864631D01*
X122900476Y-115924211D01*
X122747737Y-116020184D01*
X122620184Y-116147737D01*
X122524211Y-116300476D01*
X122464631Y-116470745D01*
X122464630Y-116470750D01*
X122444435Y-116649996D01*
X100122725Y-116649996D01*
X100311082Y-116518105D01*
X100478105Y-116351082D01*
X100613600Y-116157578D01*
X100713429Y-115943492D01*
X100713432Y-115943486D01*
X100770636Y-115730000D01*
X99873012Y-115730000D01*
X99905925Y-115672993D01*
X99940000Y-115545826D01*
X99940000Y-115414174D01*
X99905925Y-115287007D01*
X99873012Y-115230000D01*
X100770636Y-115230000D01*
X100770635Y-115229999D01*
X100735801Y-115099996D01*
X106344435Y-115099996D01*
X106344435Y-115100003D01*
X106364630Y-115279249D01*
X106364631Y-115279254D01*
X106424211Y-115449523D01*
X106500384Y-115570750D01*
X106520184Y-115602262D01*
X106647738Y-115729816D01*
X106714598Y-115771827D01*
X106797966Y-115824211D01*
X106800478Y-115825789D01*
X106911479Y-115864630D01*
X106970745Y-115885368D01*
X106970750Y-115885369D01*
X107149996Y-115905565D01*
X107150000Y-115905565D01*
X107150004Y-115905565D01*
X107329249Y-115885369D01*
X107329252Y-115885368D01*
X107329255Y-115885368D01*
X107499522Y-115825789D01*
X107652262Y-115729816D01*
X107779816Y-115602262D01*
X107875789Y-115449522D01*
X107935368Y-115279255D01*
X107938919Y-115247738D01*
X107955565Y-115100003D01*
X107955565Y-115099996D01*
X107935369Y-114920750D01*
X107935368Y-114920745D01*
X107875788Y-114750476D01*
X107786842Y-114608920D01*
X107779816Y-114597738D01*
X107652262Y-114470184D01*
X107607226Y-114441886D01*
X107499523Y-114374211D01*
X107329254Y-114314631D01*
X107329249Y-114314630D01*
X107150004Y-114294435D01*
X107149996Y-114294435D01*
X106970750Y-114314630D01*
X106970745Y-114314631D01*
X106800476Y-114374211D01*
X106647737Y-114470184D01*
X106520184Y-114597737D01*
X106424211Y-114750476D01*
X106364631Y-114920745D01*
X106364630Y-114920750D01*
X106344435Y-115099996D01*
X100735801Y-115099996D01*
X100713432Y-115016513D01*
X100713429Y-115016507D01*
X100613600Y-114802422D01*
X100613599Y-114802420D01*
X100478113Y-114608926D01*
X100478108Y-114608920D01*
X100311082Y-114441894D01*
X100117578Y-114306399D01*
X99903492Y-114206570D01*
X99903483Y-114206566D01*
X99691775Y-114149840D01*
X99632114Y-114113475D01*
X99625566Y-114099996D01*
X146644435Y-114099996D01*
X146644435Y-114100003D01*
X146664630Y-114279249D01*
X146664631Y-114279254D01*
X146724211Y-114449523D01*
X146814597Y-114593371D01*
X146820184Y-114602262D01*
X146947738Y-114729816D01*
X147100478Y-114825789D01*
X147270745Y-114885368D01*
X147270750Y-114885369D01*
X147449996Y-114905565D01*
X147450000Y-114905565D01*
X147450004Y-114905565D01*
X147629249Y-114885369D01*
X147629252Y-114885368D01*
X147629255Y-114885368D01*
X147799522Y-114825789D01*
X147952262Y-114729816D01*
X148079816Y-114602262D01*
X148175789Y-114449522D01*
X148235368Y-114279255D01*
X148243558Y-114206566D01*
X148255565Y-114100003D01*
X148255565Y-114099996D01*
X148235369Y-113920750D01*
X148235366Y-113920737D01*
X148179468Y-113760993D01*
X148175905Y-113691215D01*
X148191514Y-113654068D01*
X148225789Y-113599522D01*
X148285368Y-113429255D01*
X148287096Y-113413920D01*
X148305565Y-113250003D01*
X148305565Y-113249996D01*
X148285369Y-113070750D01*
X148285368Y-113070745D01*
X148225788Y-112900476D01*
X148129815Y-112747737D01*
X148002262Y-112620184D01*
X147849523Y-112524211D01*
X147679254Y-112464631D01*
X147679249Y-112464630D01*
X147500004Y-112444435D01*
X147499996Y-112444435D01*
X147320750Y-112464630D01*
X147320745Y-112464631D01*
X147150476Y-112524211D01*
X146997737Y-112620184D01*
X146870184Y-112747737D01*
X146774211Y-112900476D01*
X146714631Y-113070745D01*
X146714630Y-113070750D01*
X146694435Y-113249996D01*
X146694435Y-113250003D01*
X146714630Y-113429249D01*
X146714633Y-113429262D01*
X146770531Y-113589005D01*
X146774093Y-113658784D01*
X146758484Y-113695931D01*
X146724209Y-113750478D01*
X146664633Y-113920737D01*
X146664630Y-113920750D01*
X146644435Y-114099996D01*
X99625566Y-114099996D01*
X99601585Y-114050628D01*
X99609880Y-113981253D01*
X99654365Y-113927375D01*
X99699677Y-113908448D01*
X99710595Y-113906275D01*
X99731835Y-113902051D01*
X99913914Y-113826632D01*
X100077782Y-113717139D01*
X100217139Y-113577782D01*
X100326632Y-113413914D01*
X100402051Y-113231835D01*
X100414632Y-113168582D01*
X100440500Y-113038543D01*
X100440500Y-112841456D01*
X100402052Y-112648170D01*
X100402051Y-112648169D01*
X100402051Y-112648165D01*
X100361588Y-112550478D01*
X100326635Y-112466092D01*
X100326628Y-112466079D01*
X100217139Y-112302218D01*
X100217136Y-112302214D01*
X100077785Y-112162863D01*
X100077781Y-112162860D01*
X99913920Y-112053371D01*
X99913907Y-112053364D01*
X99785063Y-111999996D01*
X138794435Y-111999996D01*
X138794435Y-112000003D01*
X138814630Y-112179249D01*
X138814633Y-112179262D01*
X138874209Y-112349518D01*
X138874211Y-112349522D01*
X138920892Y-112423815D01*
X138939892Y-112491052D01*
X138924679Y-112542977D01*
X138927231Y-112544206D01*
X138924210Y-112550478D01*
X138864633Y-112720737D01*
X138864630Y-112720750D01*
X138844435Y-112899996D01*
X138844435Y-112900003D01*
X138864630Y-113079249D01*
X138864631Y-113079254D01*
X138924211Y-113249523D01*
X138924511Y-113250000D01*
X139020184Y-113402262D01*
X139147738Y-113529816D01*
X139300478Y-113625789D01*
X139470745Y-113685368D01*
X139470750Y-113685369D01*
X139649996Y-113705565D01*
X139650000Y-113705565D01*
X139650004Y-113705565D01*
X139829249Y-113685369D01*
X139829252Y-113685368D01*
X139829255Y-113685368D01*
X139999522Y-113625789D01*
X140152262Y-113529816D01*
X140279816Y-113402262D01*
X140375789Y-113249522D01*
X140435368Y-113079255D01*
X140435369Y-113079249D01*
X140455565Y-112900003D01*
X140455565Y-112899996D01*
X140435369Y-112720750D01*
X140435368Y-112720745D01*
X140375788Y-112550476D01*
X140329107Y-112476184D01*
X140310107Y-112408948D01*
X140325371Y-112357053D01*
X140322766Y-112355799D01*
X140325782Y-112349531D01*
X140325789Y-112349522D01*
X140385368Y-112179255D01*
X140387215Y-112162861D01*
X140405565Y-112000003D01*
X140405565Y-111999996D01*
X140385369Y-111820750D01*
X140385368Y-111820745D01*
X140366395Y-111766524D01*
X140325789Y-111650478D01*
X140229816Y-111497738D01*
X140102262Y-111370184D01*
X140089320Y-111362052D01*
X139949523Y-111274211D01*
X139779254Y-111214631D01*
X139779249Y-111214630D01*
X139600004Y-111194435D01*
X139599996Y-111194435D01*
X139420750Y-111214630D01*
X139420745Y-111214631D01*
X139250476Y-111274211D01*
X139097737Y-111370184D01*
X138970184Y-111497737D01*
X138874211Y-111650476D01*
X138814631Y-111820745D01*
X138814630Y-111820750D01*
X138794435Y-111999996D01*
X99785063Y-111999996D01*
X99731839Y-111977950D01*
X99731829Y-111977947D01*
X99538543Y-111939500D01*
X99538541Y-111939500D01*
X99341459Y-111939500D01*
X99341457Y-111939500D01*
X99148170Y-111977947D01*
X99148160Y-111977950D01*
X98966092Y-112053364D01*
X98966079Y-112053371D01*
X98802218Y-112162860D01*
X98802214Y-112162863D01*
X98662863Y-112302214D01*
X98662860Y-112302218D01*
X98553371Y-112466079D01*
X98553364Y-112466092D01*
X98477950Y-112648160D01*
X98477947Y-112648170D01*
X98439500Y-112841456D01*
X98439500Y-112841459D01*
X98439500Y-113038541D01*
X98439500Y-113038543D01*
X98439499Y-113038543D01*
X98477947Y-113231829D01*
X98477950Y-113231839D01*
X98553364Y-113413907D01*
X98553371Y-113413920D01*
X98662860Y-113577781D01*
X98662863Y-113577785D01*
X98802214Y-113717136D01*
X98802218Y-113717139D01*
X98966079Y-113826628D01*
X98966092Y-113826635D01*
X99148160Y-113902049D01*
X99148165Y-113902051D01*
X99162261Y-113904855D01*
X99180322Y-113908448D01*
X99242233Y-113940833D01*
X99276807Y-114001549D01*
X99273068Y-114071318D01*
X99232201Y-114127990D01*
X99188224Y-114149840D01*
X98976516Y-114206566D01*
X98976507Y-114206570D01*
X98762422Y-114306399D01*
X98762420Y-114306400D01*
X98568926Y-114441886D01*
X98568920Y-114441891D01*
X98401891Y-114608920D01*
X98401886Y-114608926D01*
X98266400Y-114802420D01*
X98266399Y-114802422D01*
X98166570Y-115016507D01*
X98166566Y-115016516D01*
X98109840Y-115228224D01*
X98073475Y-115287885D01*
X98010628Y-115318414D01*
X97941252Y-115310119D01*
X97887375Y-115265634D01*
X97868448Y-115220322D01*
X97862052Y-115188172D01*
X97862052Y-115188170D01*
X97862051Y-115188165D01*
X97833893Y-115120184D01*
X97786635Y-115006092D01*
X97786628Y-115006079D01*
X97677139Y-114842218D01*
X97677136Y-114842214D01*
X97537785Y-114702863D01*
X97537781Y-114702860D01*
X97373920Y-114593371D01*
X97373907Y-114593364D01*
X97191839Y-114517950D01*
X97191829Y-114517947D01*
X96998543Y-114479500D01*
X96998541Y-114479500D01*
X96801459Y-114479500D01*
X96801457Y-114479500D01*
X96608170Y-114517947D01*
X96608160Y-114517950D01*
X96426092Y-114593364D01*
X96426079Y-114593371D01*
X96262218Y-114702860D01*
X96262214Y-114702863D01*
X96122863Y-114842214D01*
X96122860Y-114842218D01*
X96013371Y-115006079D01*
X96013364Y-115006092D01*
X95937950Y-115188160D01*
X95937947Y-115188170D01*
X95899500Y-115381456D01*
X95899500Y-115381459D01*
X95899500Y-115578541D01*
X95899500Y-115578543D01*
X95899499Y-115578543D01*
X95400500Y-115578543D01*
X95400500Y-110938011D01*
X95420185Y-110870972D01*
X95472989Y-110825217D01*
X95542147Y-110815273D01*
X95605703Y-110844298D01*
X95636882Y-110885606D01*
X95726399Y-111077578D01*
X95861894Y-111271082D01*
X96028917Y-111438105D01*
X96222421Y-111573600D01*
X96436507Y-111673429D01*
X96436516Y-111673433D01*
X96648224Y-111730159D01*
X96707885Y-111766524D01*
X96738414Y-111829370D01*
X96730120Y-111898746D01*
X96685634Y-111952624D01*
X96640325Y-111971551D01*
X96608168Y-111977948D01*
X96608160Y-111977950D01*
X96426092Y-112053364D01*
X96426079Y-112053371D01*
X96262218Y-112162860D01*
X96262214Y-112162863D01*
X96122863Y-112302214D01*
X96122860Y-112302218D01*
X96013371Y-112466079D01*
X96013364Y-112466092D01*
X95937950Y-112648160D01*
X95937947Y-112648170D01*
X95899500Y-112841456D01*
X95899500Y-112841459D01*
X95899500Y-113038541D01*
X95899500Y-113038543D01*
X95899499Y-113038543D01*
X95937947Y-113231829D01*
X95937950Y-113231839D01*
X96013364Y-113413907D01*
X96013371Y-113413920D01*
X96122860Y-113577781D01*
X96122863Y-113577785D01*
X96262214Y-113717136D01*
X96262218Y-113717139D01*
X96426079Y-113826628D01*
X96426092Y-113826635D01*
X96608160Y-113902049D01*
X96608165Y-113902051D01*
X96608169Y-113902051D01*
X96608170Y-113902052D01*
X96801456Y-113940500D01*
X96801459Y-113940500D01*
X96998543Y-113940500D01*
X97159675Y-113908448D01*
X97191835Y-113902051D01*
X97373914Y-113826632D01*
X97537782Y-113717139D01*
X97677139Y-113577782D01*
X97786632Y-113413914D01*
X97862051Y-113231835D01*
X97874632Y-113168582D01*
X97900500Y-113038543D01*
X97900500Y-112841456D01*
X97862052Y-112648170D01*
X97862051Y-112648169D01*
X97862051Y-112648165D01*
X97821588Y-112550478D01*
X97786635Y-112466092D01*
X97786628Y-112466079D01*
X97677139Y-112302218D01*
X97677136Y-112302214D01*
X97537785Y-112162863D01*
X97537781Y-112162860D01*
X97373920Y-112053371D01*
X97373907Y-112053364D01*
X97191839Y-111977950D01*
X97191832Y-111977948D01*
X97159674Y-111971551D01*
X97097764Y-111939164D01*
X97063191Y-111878448D01*
X97066932Y-111808678D01*
X97107800Y-111752007D01*
X97151775Y-111730159D01*
X97363483Y-111673433D01*
X97363492Y-111673429D01*
X97577578Y-111573600D01*
X97771082Y-111438105D01*
X97938105Y-111271082D01*
X98073600Y-111077578D01*
X98173429Y-110863492D01*
X98173433Y-110863483D01*
X98230159Y-110651775D01*
X98266524Y-110592115D01*
X98329370Y-110561585D01*
X98398746Y-110569879D01*
X98452624Y-110614364D01*
X98471551Y-110659674D01*
X98477948Y-110691832D01*
X98477950Y-110691839D01*
X98553364Y-110873907D01*
X98553371Y-110873920D01*
X98662860Y-111037781D01*
X98662863Y-111037785D01*
X98802214Y-111177136D01*
X98802218Y-111177139D01*
X98966079Y-111286628D01*
X98966092Y-111286635D01*
X99087379Y-111336873D01*
X99148165Y-111362051D01*
X99148169Y-111362051D01*
X99148170Y-111362052D01*
X99341456Y-111400500D01*
X99341459Y-111400500D01*
X99538543Y-111400500D01*
X99690948Y-111370184D01*
X99731835Y-111362051D01*
X99913914Y-111286632D01*
X100077782Y-111177139D01*
X100217139Y-111037782D01*
X100326632Y-110873914D01*
X100335601Y-110852262D01*
X100346803Y-110825217D01*
X100402051Y-110691835D01*
X100440500Y-110498541D01*
X100440500Y-110349996D01*
X108494435Y-110349996D01*
X108494435Y-110350003D01*
X108514630Y-110529249D01*
X108514631Y-110529254D01*
X108574211Y-110699523D01*
X108589724Y-110724211D01*
X108670184Y-110852262D01*
X108797738Y-110979816D01*
X108950478Y-111075789D01*
X109120745Y-111135368D01*
X109120750Y-111135369D01*
X109299996Y-111155565D01*
X109300000Y-111155565D01*
X109300004Y-111155565D01*
X109479249Y-111135369D01*
X109479252Y-111135368D01*
X109479255Y-111135368D01*
X109649522Y-111075789D01*
X109802262Y-110979816D01*
X109929816Y-110852262D01*
X110025789Y-110699522D01*
X110085368Y-110529255D01*
X110085369Y-110529249D01*
X110105565Y-110350003D01*
X110105565Y-110349996D01*
X110099931Y-110299996D01*
X141744435Y-110299996D01*
X141744435Y-110300003D01*
X141764630Y-110479249D01*
X141764631Y-110479254D01*
X141824211Y-110649523D01*
X141871141Y-110724211D01*
X141920184Y-110802262D01*
X142047738Y-110929816D01*
X142200478Y-111025789D01*
X142306046Y-111062729D01*
X142362823Y-111103451D01*
X142388570Y-111168404D01*
X142382134Y-111220723D01*
X142364631Y-111270746D01*
X142364120Y-111272985D01*
X142363394Y-111274282D01*
X142362333Y-111277315D01*
X142361801Y-111277128D01*
X142330001Y-111333958D01*
X142284191Y-111362413D01*
X142250480Y-111374210D01*
X142250475Y-111374212D01*
X142097737Y-111470184D01*
X141970184Y-111597737D01*
X141874211Y-111750476D01*
X141814631Y-111920745D01*
X141814630Y-111920750D01*
X141794435Y-112099996D01*
X141794435Y-112100003D01*
X141814630Y-112279249D01*
X141814631Y-112279254D01*
X141874211Y-112449523D01*
X141937646Y-112550478D01*
X141970184Y-112602262D01*
X142097738Y-112729816D01*
X142250478Y-112825789D01*
X142420745Y-112885368D01*
X142420750Y-112885369D01*
X142599996Y-112905565D01*
X142600000Y-112905565D01*
X142600004Y-112905565D01*
X142779249Y-112885369D01*
X142779252Y-112885368D01*
X142779255Y-112885368D01*
X142949522Y-112825789D01*
X143102262Y-112729816D01*
X143229816Y-112602262D01*
X143325789Y-112449522D01*
X143385368Y-112279255D01*
X143385368Y-112279249D01*
X143385874Y-112277039D01*
X143386593Y-112275752D01*
X143387668Y-112272682D01*
X143388205Y-112272870D01*
X143419979Y-112216059D01*
X143465812Y-112187584D01*
X143499522Y-112175789D01*
X143652262Y-112079816D01*
X143779816Y-111952262D01*
X143875789Y-111799522D01*
X143935368Y-111629255D01*
X143938919Y-111597738D01*
X143955565Y-111450003D01*
X143955565Y-111449996D01*
X143935369Y-111270750D01*
X143935368Y-111270745D01*
X143875789Y-111100478D01*
X143779816Y-110947738D01*
X143652262Y-110820184D01*
X143620297Y-110800099D01*
X143499521Y-110724210D01*
X143407008Y-110691839D01*
X143393952Y-110687270D01*
X143337177Y-110646549D01*
X143311429Y-110581597D01*
X143317866Y-110529273D01*
X143335367Y-110479259D01*
X143335369Y-110479249D01*
X143355565Y-110300003D01*
X143355565Y-110299996D01*
X143335369Y-110120750D01*
X143335366Y-110120737D01*
X143290706Y-109993108D01*
X143287143Y-109923329D01*
X143302750Y-109886186D01*
X143325789Y-109849522D01*
X143385368Y-109679255D01*
X143398835Y-109559733D01*
X143405565Y-109500003D01*
X143405565Y-109499996D01*
X143385369Y-109320750D01*
X143385368Y-109320745D01*
X143352355Y-109226399D01*
X143325789Y-109150478D01*
X143229816Y-108997738D01*
X143102262Y-108870184D01*
X143035840Y-108828448D01*
X142949523Y-108774211D01*
X142779254Y-108714631D01*
X142779249Y-108714630D01*
X142600004Y-108694435D01*
X142599996Y-108694435D01*
X142420750Y-108714630D01*
X142420745Y-108714631D01*
X142250476Y-108774211D01*
X142097737Y-108870184D01*
X141970184Y-108997737D01*
X141874211Y-109150476D01*
X141814631Y-109320745D01*
X141814630Y-109320750D01*
X141794435Y-109499996D01*
X141794435Y-109500003D01*
X141814630Y-109679249D01*
X141814632Y-109679257D01*
X141859293Y-109806892D01*
X141862854Y-109876671D01*
X141847246Y-109913816D01*
X141824209Y-109950479D01*
X141764633Y-110120737D01*
X141764630Y-110120750D01*
X141744435Y-110299996D01*
X110099931Y-110299996D01*
X110085369Y-110170750D01*
X110085368Y-110170745D01*
X110063470Y-110108165D01*
X110025789Y-110000478D01*
X110025426Y-109999901D01*
X109929815Y-109847737D01*
X109802262Y-109720184D01*
X109649523Y-109624211D01*
X109479254Y-109564631D01*
X109479249Y-109564630D01*
X109300004Y-109544435D01*
X109299996Y-109544435D01*
X109120750Y-109564630D01*
X109120745Y-109564631D01*
X108950476Y-109624211D01*
X108797737Y-109720184D01*
X108670184Y-109847737D01*
X108574211Y-110000476D01*
X108514631Y-110170745D01*
X108514630Y-110170750D01*
X108494435Y-110349996D01*
X100440500Y-110349996D01*
X100440500Y-110301459D01*
X100440500Y-110301456D01*
X100402052Y-110108170D01*
X100402051Y-110108169D01*
X100402051Y-110108165D01*
X100395767Y-110092993D01*
X100326635Y-109926092D01*
X100326628Y-109926079D01*
X100217139Y-109762218D01*
X100217136Y-109762214D01*
X100077785Y-109622863D01*
X100077781Y-109622860D01*
X99913920Y-109513371D01*
X99913907Y-109513364D01*
X99731839Y-109437950D01*
X99731829Y-109437947D01*
X99538543Y-109399500D01*
X99538541Y-109399500D01*
X99341459Y-109399500D01*
X99341457Y-109399500D01*
X99148170Y-109437947D01*
X99148160Y-109437950D01*
X98966092Y-109513364D01*
X98966079Y-109513371D01*
X98802218Y-109622860D01*
X98802214Y-109622863D01*
X98662863Y-109762214D01*
X98662860Y-109762218D01*
X98553371Y-109926079D01*
X98553364Y-109926092D01*
X98477950Y-110108160D01*
X98477948Y-110108168D01*
X98471551Y-110140325D01*
X98439164Y-110202236D01*
X98378447Y-110236808D01*
X98308678Y-110233067D01*
X98252007Y-110192199D01*
X98230159Y-110148224D01*
X98173433Y-109936516D01*
X98173429Y-109936507D01*
X98073600Y-109722422D01*
X98073599Y-109722420D01*
X97938113Y-109528926D01*
X97938108Y-109528920D01*
X97771082Y-109361894D01*
X97577578Y-109226399D01*
X97467351Y-109175000D01*
X103419659Y-109175000D01*
X103438975Y-109371129D01*
X103496188Y-109559733D01*
X103589086Y-109733532D01*
X103589090Y-109733539D01*
X103714116Y-109885883D01*
X103866460Y-110010909D01*
X103866467Y-110010913D01*
X104040266Y-110103811D01*
X104040269Y-110103811D01*
X104040273Y-110103814D01*
X104228868Y-110161024D01*
X104425000Y-110180341D01*
X104621132Y-110161024D01*
X104809727Y-110103814D01*
X104983538Y-110010910D01*
X105135883Y-109885883D01*
X105260910Y-109733538D01*
X105353814Y-109559727D01*
X105411024Y-109371132D01*
X105430341Y-109175000D01*
X105411024Y-108978868D01*
X105353814Y-108790273D01*
X105353811Y-108790269D01*
X105353811Y-108790266D01*
X105260913Y-108616467D01*
X105260909Y-108616460D01*
X105135883Y-108464116D01*
X104983539Y-108339090D01*
X104983532Y-108339086D01*
X104809733Y-108246188D01*
X104809727Y-108246186D01*
X104621132Y-108188976D01*
X104621129Y-108188975D01*
X104425000Y-108169659D01*
X104228870Y-108188975D01*
X104040266Y-108246188D01*
X103866467Y-108339086D01*
X103866460Y-108339090D01*
X103714116Y-108464116D01*
X103589090Y-108616460D01*
X103589086Y-108616467D01*
X103496188Y-108790266D01*
X103438975Y-108978870D01*
X103419659Y-109175000D01*
X97467351Y-109175000D01*
X97363492Y-109126570D01*
X97363483Y-109126566D01*
X97151775Y-109069840D01*
X97092114Y-109033475D01*
X97061585Y-108970628D01*
X97069880Y-108901253D01*
X97114365Y-108847375D01*
X97159677Y-108828448D01*
X97170595Y-108826275D01*
X97191835Y-108822051D01*
X97373914Y-108746632D01*
X97537782Y-108637139D01*
X97677139Y-108497782D01*
X97786632Y-108333914D01*
X97862051Y-108151835D01*
X97900500Y-107958543D01*
X98439499Y-107958543D01*
X98477947Y-108151829D01*
X98477950Y-108151839D01*
X98553364Y-108333907D01*
X98553371Y-108333920D01*
X98662860Y-108497781D01*
X98662863Y-108497785D01*
X98802214Y-108637136D01*
X98802218Y-108637139D01*
X98966079Y-108746628D01*
X98966092Y-108746635D01*
X99148160Y-108822049D01*
X99148165Y-108822051D01*
X99148169Y-108822051D01*
X99148170Y-108822052D01*
X99341456Y-108860500D01*
X99341459Y-108860500D01*
X99538543Y-108860500D01*
X99699675Y-108828448D01*
X99731835Y-108822051D01*
X99913914Y-108746632D01*
X100077782Y-108637139D01*
X100217139Y-108497782D01*
X100326632Y-108333914D01*
X100402051Y-108151835D01*
X100440500Y-107958541D01*
X100440500Y-107761459D01*
X100440500Y-107761456D01*
X100402052Y-107568170D01*
X100402051Y-107568169D01*
X100402051Y-107568165D01*
X100402049Y-107568160D01*
X100326635Y-107386092D01*
X100326628Y-107386079D01*
X100217139Y-107222218D01*
X100217136Y-107222214D01*
X100077785Y-107082863D01*
X100077781Y-107082860D01*
X99913920Y-106973371D01*
X99913907Y-106973364D01*
X99731839Y-106897950D01*
X99731829Y-106897947D01*
X99538543Y-106859500D01*
X99538541Y-106859500D01*
X99341459Y-106859500D01*
X99341457Y-106859500D01*
X99148170Y-106897947D01*
X99148160Y-106897950D01*
X98966092Y-106973364D01*
X98966079Y-106973371D01*
X98802218Y-107082860D01*
X98802214Y-107082863D01*
X98662863Y-107222214D01*
X98662860Y-107222218D01*
X98553371Y-107386079D01*
X98553364Y-107386092D01*
X98477950Y-107568160D01*
X98477947Y-107568170D01*
X98439500Y-107761456D01*
X98439500Y-107761459D01*
X98439500Y-107958541D01*
X98439500Y-107958543D01*
X98439499Y-107958543D01*
X97900500Y-107958543D01*
X97900500Y-107958541D01*
X97900500Y-107761459D01*
X97900500Y-107761456D01*
X97862052Y-107568170D01*
X97862051Y-107568169D01*
X97862051Y-107568165D01*
X97862049Y-107568160D01*
X97786635Y-107386092D01*
X97786628Y-107386079D01*
X97677139Y-107222218D01*
X97677136Y-107222214D01*
X97537785Y-107082863D01*
X97537781Y-107082860D01*
X97373920Y-106973371D01*
X97373907Y-106973364D01*
X97191839Y-106897950D01*
X97191829Y-106897947D01*
X96998543Y-106859500D01*
X96998541Y-106859500D01*
X96801459Y-106859500D01*
X96801457Y-106859500D01*
X96608170Y-106897947D01*
X96608160Y-106897950D01*
X96426092Y-106973364D01*
X96426079Y-106973371D01*
X96262218Y-107082860D01*
X96262214Y-107082863D01*
X96122863Y-107222214D01*
X96122860Y-107222218D01*
X96013371Y-107386079D01*
X96013364Y-107386092D01*
X95937950Y-107568160D01*
X95937947Y-107568170D01*
X95899500Y-107761456D01*
X95899500Y-107761459D01*
X95899500Y-107958541D01*
X95899500Y-107958543D01*
X95899499Y-107958543D01*
X95937947Y-108151829D01*
X95937950Y-108151839D01*
X96013364Y-108333907D01*
X96013371Y-108333920D01*
X96122860Y-108497781D01*
X96122863Y-108497785D01*
X96262214Y-108637136D01*
X96262218Y-108637139D01*
X96426079Y-108746628D01*
X96426092Y-108746635D01*
X96608160Y-108822049D01*
X96608165Y-108822051D01*
X96622261Y-108824855D01*
X96640322Y-108828448D01*
X96702233Y-108860833D01*
X96736807Y-108921549D01*
X96733068Y-108991318D01*
X96692201Y-109047990D01*
X96648224Y-109069840D01*
X96436516Y-109126566D01*
X96436507Y-109126570D01*
X96222422Y-109226399D01*
X96222420Y-109226400D01*
X96028926Y-109361886D01*
X96028920Y-109361891D01*
X95861891Y-109528920D01*
X95861886Y-109528926D01*
X95726400Y-109722420D01*
X95726399Y-109722422D01*
X95636882Y-109914393D01*
X95590710Y-109966832D01*
X95523516Y-109985984D01*
X95456635Y-109965768D01*
X95411300Y-109912603D01*
X95400500Y-109861988D01*
X95400500Y-103318011D01*
X95420185Y-103250972D01*
X95472989Y-103205217D01*
X95542147Y-103195273D01*
X95605703Y-103224298D01*
X95636882Y-103265606D01*
X95726399Y-103457578D01*
X95861894Y-103651082D01*
X96028917Y-103818105D01*
X96222421Y-103953600D01*
X96436507Y-104053429D01*
X96436516Y-104053433D01*
X96648224Y-104110159D01*
X96707885Y-104146524D01*
X96738414Y-104209370D01*
X96730120Y-104278746D01*
X96685634Y-104332624D01*
X96640325Y-104351551D01*
X96608168Y-104357948D01*
X96608160Y-104357950D01*
X96426092Y-104433364D01*
X96426079Y-104433371D01*
X96262218Y-104542860D01*
X96262214Y-104542863D01*
X96122863Y-104682214D01*
X96122860Y-104682218D01*
X96013371Y-104846079D01*
X96013364Y-104846092D01*
X95937950Y-105028160D01*
X95937947Y-105028170D01*
X95899500Y-105221456D01*
X95899500Y-105221459D01*
X95899500Y-105418541D01*
X95899500Y-105418543D01*
X95899499Y-105418543D01*
X95937947Y-105611829D01*
X95937950Y-105611839D01*
X96013364Y-105793907D01*
X96013371Y-105793920D01*
X96122860Y-105957781D01*
X96122863Y-105957785D01*
X96262214Y-106097136D01*
X96262218Y-106097139D01*
X96426079Y-106206628D01*
X96426092Y-106206635D01*
X96608160Y-106282049D01*
X96608165Y-106282051D01*
X96608169Y-106282051D01*
X96608170Y-106282052D01*
X96801456Y-106320500D01*
X96801459Y-106320500D01*
X96998543Y-106320500D01*
X97128582Y-106294632D01*
X97191835Y-106282051D01*
X97373914Y-106206632D01*
X97537782Y-106097139D01*
X97677139Y-105957782D01*
X97786632Y-105793914D01*
X97862051Y-105611835D01*
X97900500Y-105418543D01*
X98439499Y-105418543D01*
X98477947Y-105611829D01*
X98477950Y-105611839D01*
X98553364Y-105793907D01*
X98553371Y-105793920D01*
X98662860Y-105957781D01*
X98662863Y-105957785D01*
X98802214Y-106097136D01*
X98802218Y-106097139D01*
X98966079Y-106206628D01*
X98966092Y-106206635D01*
X99148160Y-106282049D01*
X99148165Y-106282051D01*
X99148169Y-106282051D01*
X99148170Y-106282052D01*
X99341456Y-106320500D01*
X99341459Y-106320500D01*
X99538543Y-106320500D01*
X99668582Y-106294632D01*
X99731835Y-106282051D01*
X99913914Y-106206632D01*
X100077782Y-106097139D01*
X100217139Y-105957782D01*
X100326632Y-105793914D01*
X100402051Y-105611835D01*
X100440500Y-105418541D01*
X100440500Y-105221459D01*
X100440500Y-105221456D01*
X100406394Y-105049996D01*
X129794435Y-105049996D01*
X129794435Y-105050003D01*
X129814630Y-105229249D01*
X129814631Y-105229254D01*
X129874211Y-105399523D01*
X129970184Y-105552262D01*
X130097738Y-105679816D01*
X130250478Y-105775789D01*
X130420745Y-105835368D01*
X130420750Y-105835369D01*
X130599996Y-105855565D01*
X130600000Y-105855565D01*
X130600004Y-105855565D01*
X130779249Y-105835369D01*
X130779252Y-105835368D01*
X130779255Y-105835368D01*
X130949522Y-105775789D01*
X131102262Y-105679816D01*
X131229816Y-105552262D01*
X131325789Y-105399522D01*
X131385368Y-105229255D01*
X131385369Y-105229249D01*
X131405565Y-105050003D01*
X131405565Y-105049996D01*
X131385369Y-104870750D01*
X131385368Y-104870745D01*
X131325789Y-104700478D01*
X131314315Y-104682218D01*
X131229815Y-104547737D01*
X131102262Y-104420184D01*
X130949523Y-104324211D01*
X130779254Y-104264631D01*
X130779249Y-104264630D01*
X130600004Y-104244435D01*
X130599996Y-104244435D01*
X130420750Y-104264630D01*
X130420745Y-104264631D01*
X130250476Y-104324211D01*
X130097737Y-104420184D01*
X129970184Y-104547737D01*
X129874211Y-104700476D01*
X129814631Y-104870745D01*
X129814630Y-104870750D01*
X129794435Y-105049996D01*
X100406394Y-105049996D01*
X100402052Y-105028170D01*
X100402051Y-105028169D01*
X100402051Y-105028165D01*
X100402049Y-105028160D01*
X100326635Y-104846092D01*
X100326628Y-104846079D01*
X100217139Y-104682218D01*
X100217136Y-104682214D01*
X100077785Y-104542863D01*
X100077781Y-104542860D01*
X99913920Y-104433371D01*
X99913907Y-104433364D01*
X99731839Y-104357950D01*
X99731829Y-104357947D01*
X99538543Y-104319500D01*
X99538541Y-104319500D01*
X99341459Y-104319500D01*
X99341457Y-104319500D01*
X99148170Y-104357947D01*
X99148160Y-104357950D01*
X98966092Y-104433364D01*
X98966079Y-104433371D01*
X98802218Y-104542860D01*
X98802214Y-104542863D01*
X98662863Y-104682214D01*
X98662860Y-104682218D01*
X98553371Y-104846079D01*
X98553364Y-104846092D01*
X98477950Y-105028160D01*
X98477947Y-105028170D01*
X98439500Y-105221456D01*
X98439500Y-105221459D01*
X98439500Y-105418541D01*
X98439500Y-105418543D01*
X98439499Y-105418543D01*
X97900500Y-105418543D01*
X97900500Y-105418541D01*
X97900500Y-105221459D01*
X97900500Y-105221456D01*
X97862052Y-105028170D01*
X97862051Y-105028169D01*
X97862051Y-105028165D01*
X97862049Y-105028160D01*
X97786635Y-104846092D01*
X97786628Y-104846079D01*
X97677139Y-104682218D01*
X97677136Y-104682214D01*
X97537785Y-104542863D01*
X97537781Y-104542860D01*
X97373920Y-104433371D01*
X97373907Y-104433364D01*
X97191839Y-104357950D01*
X97191832Y-104357948D01*
X97159674Y-104351551D01*
X97097764Y-104319164D01*
X97063191Y-104258448D01*
X97066932Y-104188678D01*
X97107800Y-104132007D01*
X97151775Y-104110159D01*
X97363483Y-104053433D01*
X97363492Y-104053429D01*
X97577578Y-103953600D01*
X97771082Y-103818105D01*
X97938105Y-103651082D01*
X98073600Y-103457578D01*
X98173429Y-103243492D01*
X98173433Y-103243483D01*
X98230159Y-103031775D01*
X98266524Y-102972115D01*
X98329370Y-102941585D01*
X98398746Y-102949879D01*
X98452624Y-102994364D01*
X98471551Y-103039674D01*
X98477948Y-103071832D01*
X98477950Y-103071839D01*
X98553364Y-103253907D01*
X98553371Y-103253920D01*
X98662860Y-103417781D01*
X98662863Y-103417785D01*
X98802214Y-103557136D01*
X98802218Y-103557139D01*
X98966079Y-103666628D01*
X98966092Y-103666635D01*
X99148160Y-103742049D01*
X99148165Y-103742051D01*
X99148169Y-103742051D01*
X99148170Y-103742052D01*
X99341456Y-103780500D01*
X99341459Y-103780500D01*
X99538543Y-103780500D01*
X99668582Y-103754632D01*
X99731835Y-103742051D01*
X99913914Y-103666632D01*
X100077782Y-103557139D01*
X100217139Y-103417782D01*
X100326632Y-103253914D01*
X100402051Y-103071835D01*
X100440500Y-102878541D01*
X100440500Y-102681459D01*
X100440500Y-102681456D01*
X100402052Y-102488170D01*
X100402051Y-102488169D01*
X100402051Y-102488165D01*
X100357207Y-102379901D01*
X100326635Y-102306092D01*
X100326628Y-102306079D01*
X100217139Y-102142218D01*
X100217136Y-102142214D01*
X100077785Y-102002863D01*
X100077781Y-102002860D01*
X99913920Y-101893371D01*
X99913907Y-101893364D01*
X99731839Y-101817950D01*
X99731829Y-101817947D01*
X99538543Y-101779500D01*
X99538541Y-101779500D01*
X99341459Y-101779500D01*
X99341457Y-101779500D01*
X99148170Y-101817947D01*
X99148160Y-101817950D01*
X98966092Y-101893364D01*
X98966079Y-101893371D01*
X98802218Y-102002860D01*
X98802214Y-102002863D01*
X98662863Y-102142214D01*
X98662860Y-102142218D01*
X98553371Y-102306079D01*
X98553364Y-102306092D01*
X98477950Y-102488160D01*
X98477948Y-102488168D01*
X98471551Y-102520325D01*
X98439164Y-102582236D01*
X98378447Y-102616808D01*
X98308678Y-102613067D01*
X98252007Y-102572199D01*
X98230159Y-102528224D01*
X98173433Y-102316516D01*
X98173429Y-102316507D01*
X98073600Y-102102422D01*
X98073599Y-102102420D01*
X97938113Y-101908926D01*
X97938108Y-101908920D01*
X97771082Y-101741894D01*
X97577578Y-101606399D01*
X97363492Y-101506570D01*
X97363483Y-101506566D01*
X97151775Y-101449840D01*
X97092114Y-101413475D01*
X97061585Y-101350628D01*
X97069880Y-101281253D01*
X97114365Y-101227375D01*
X97159677Y-101208448D01*
X97170595Y-101206275D01*
X97191835Y-101202051D01*
X97373914Y-101126632D01*
X97537782Y-101017139D01*
X97677139Y-100877782D01*
X97786632Y-100713914D01*
X97862051Y-100531835D01*
X97890903Y-100386790D01*
X97900500Y-100338543D01*
X98439499Y-100338543D01*
X98477947Y-100531829D01*
X98477950Y-100531839D01*
X98553364Y-100713907D01*
X98553371Y-100713920D01*
X98662860Y-100877781D01*
X98662863Y-100877785D01*
X98802214Y-101017136D01*
X98802218Y-101017139D01*
X98966079Y-101126628D01*
X98966092Y-101126635D01*
X99148160Y-101202049D01*
X99148165Y-101202051D01*
X99148169Y-101202051D01*
X99148170Y-101202052D01*
X99341456Y-101240500D01*
X99341459Y-101240500D01*
X99538543Y-101240500D01*
X99699675Y-101208448D01*
X99731835Y-101202051D01*
X99913914Y-101126632D01*
X100077782Y-101017139D01*
X100217139Y-100877782D01*
X100326632Y-100713914D01*
X100402051Y-100531835D01*
X100430903Y-100386790D01*
X100438222Y-100349996D01*
X114194435Y-100349996D01*
X114194435Y-100350003D01*
X114214630Y-100529249D01*
X114214631Y-100529254D01*
X114274211Y-100699523D01*
X114370184Y-100852262D01*
X114497738Y-100979816D01*
X114650478Y-101075789D01*
X114795768Y-101126628D01*
X114820745Y-101135368D01*
X114820750Y-101135369D01*
X114999996Y-101155565D01*
X115000000Y-101155565D01*
X115000004Y-101155565D01*
X115179249Y-101135369D01*
X115179252Y-101135368D01*
X115179255Y-101135368D01*
X115349522Y-101075789D01*
X115502262Y-100979816D01*
X115629816Y-100852262D01*
X115725789Y-100699522D01*
X115785368Y-100529255D01*
X115789679Y-100490996D01*
X115816745Y-100426582D01*
X115872821Y-100388067D01*
X115872682Y-100387668D01*
X115874154Y-100387152D01*
X115874339Y-100387026D01*
X115875189Y-100386790D01*
X115879251Y-100385368D01*
X115879255Y-100385368D01*
X116049522Y-100325789D01*
X116202262Y-100229816D01*
X116329816Y-100102262D01*
X116425789Y-99949522D01*
X116485368Y-99779255D01*
X116488410Y-99752262D01*
X116505565Y-99600002D01*
X116505565Y-99599999D01*
X116502682Y-99574415D01*
X116514736Y-99505593D01*
X116562084Y-99454213D01*
X116612019Y-99437309D01*
X116629255Y-99435368D01*
X116799522Y-99375789D01*
X116952262Y-99279816D01*
X116982082Y-99249996D01*
X125994435Y-99249996D01*
X125994435Y-99250003D01*
X126014630Y-99429249D01*
X126014631Y-99429254D01*
X126074211Y-99599523D01*
X126089724Y-99624211D01*
X126170184Y-99752262D01*
X126297738Y-99879816D01*
X126450478Y-99975789D01*
X126620745Y-100035368D01*
X126620750Y-100035369D01*
X126799996Y-100055565D01*
X126800000Y-100055565D01*
X126800004Y-100055565D01*
X126979249Y-100035369D01*
X126979252Y-100035368D01*
X126979255Y-100035368D01*
X127149522Y-99975789D01*
X127302262Y-99879816D01*
X127429816Y-99752262D01*
X127525789Y-99599522D01*
X127583998Y-99433169D01*
X127624719Y-99376395D01*
X127660084Y-99357084D01*
X127749522Y-99325789D01*
X127902262Y-99229816D01*
X128029816Y-99102262D01*
X128125789Y-98949522D01*
X128185368Y-98779255D01*
X128188919Y-98747738D01*
X128205565Y-98600003D01*
X128205565Y-98599996D01*
X128185369Y-98420750D01*
X128185368Y-98420745D01*
X128156338Y-98337782D01*
X128125789Y-98250478D01*
X128125787Y-98250475D01*
X128125787Y-98250474D01*
X128121315Y-98243356D01*
X128102315Y-98176119D01*
X128122683Y-98109284D01*
X128175951Y-98064071D01*
X128212426Y-98054165D01*
X128379249Y-98035369D01*
X128379252Y-98035368D01*
X128379255Y-98035368D01*
X128549522Y-97975789D01*
X128702262Y-97879816D01*
X128829816Y-97752262D01*
X128888088Y-97659521D01*
X128940420Y-97613232D01*
X128979195Y-97602275D01*
X129042516Y-97595140D01*
X129129250Y-97585369D01*
X129129253Y-97585368D01*
X129129255Y-97585368D01*
X129299522Y-97525789D01*
X129452262Y-97429816D01*
X129579816Y-97302262D01*
X129675789Y-97149522D01*
X129735368Y-96979255D01*
X129749637Y-96852606D01*
X129776703Y-96788194D01*
X129831903Y-96749449D01*
X129899522Y-96725789D01*
X130052262Y-96629816D01*
X130179816Y-96502262D01*
X130275789Y-96349522D01*
X130285339Y-96322226D01*
X130326058Y-96265452D01*
X130388497Y-96239959D01*
X130429255Y-96235368D01*
X130599522Y-96175789D01*
X130752262Y-96079816D01*
X130879816Y-95952262D01*
X130975789Y-95799522D01*
X131035368Y-95629255D01*
X131035369Y-95629249D01*
X131055565Y-95450003D01*
X131055565Y-95449996D01*
X131035369Y-95270750D01*
X131035368Y-95270745D01*
X130975788Y-95100475D01*
X130941268Y-95045538D01*
X130922267Y-94978301D01*
X130942634Y-94911466D01*
X130995902Y-94866251D01*
X131046261Y-94855565D01*
X131050004Y-94855565D01*
X131229249Y-94835369D01*
X131229252Y-94835368D01*
X131229255Y-94835368D01*
X131399522Y-94775789D01*
X131424808Y-94759901D01*
X131434027Y-94754108D01*
X131501263Y-94735107D01*
X131565973Y-94754108D01*
X131600475Y-94775788D01*
X131770745Y-94835368D01*
X131770750Y-94835369D01*
X131949996Y-94855565D01*
X131950000Y-94855565D01*
X131950004Y-94855565D01*
X132129249Y-94835369D01*
X132129252Y-94835368D01*
X132129255Y-94835368D01*
X132299522Y-94775789D01*
X132452262Y-94679816D01*
X132579816Y-94552262D01*
X132675789Y-94399522D01*
X132735368Y-94229255D01*
X132735369Y-94229249D01*
X132755565Y-94050003D01*
X132755565Y-94049996D01*
X132735369Y-93870750D01*
X132735368Y-93870745D01*
X132708330Y-93793475D01*
X132675789Y-93700478D01*
X132579816Y-93547738D01*
X132452262Y-93420184D01*
X132415586Y-93397139D01*
X132299523Y-93324211D01*
X132129254Y-93264631D01*
X132129249Y-93264630D01*
X131950004Y-93244435D01*
X131949996Y-93244435D01*
X131770750Y-93264630D01*
X131770737Y-93264633D01*
X131600480Y-93324209D01*
X131565970Y-93345893D01*
X131498733Y-93364892D01*
X131434030Y-93345893D01*
X131399519Y-93324209D01*
X131229262Y-93264633D01*
X131229249Y-93264630D01*
X131050004Y-93244435D01*
X131049996Y-93244435D01*
X130870750Y-93264630D01*
X130870745Y-93264631D01*
X130700476Y-93324211D01*
X130547737Y-93420184D01*
X130420184Y-93547737D01*
X130324211Y-93700476D01*
X130264631Y-93870745D01*
X130264630Y-93870750D01*
X130244435Y-94049996D01*
X130244435Y-94050003D01*
X130264630Y-94229249D01*
X130264631Y-94229254D01*
X130324211Y-94399524D01*
X130358732Y-94454462D01*
X130377733Y-94521699D01*
X130357366Y-94588534D01*
X130304098Y-94633749D01*
X130253739Y-94644435D01*
X130249996Y-94644435D01*
X130070750Y-94664630D01*
X130070745Y-94664631D01*
X129900476Y-94724211D01*
X129747737Y-94820184D01*
X129620184Y-94947737D01*
X129524212Y-95100474D01*
X129514659Y-95127776D01*
X129473936Y-95184551D01*
X129411502Y-95210039D01*
X129370750Y-95214630D01*
X129200478Y-95274210D01*
X129047737Y-95370184D01*
X128920184Y-95497737D01*
X128824211Y-95650476D01*
X128764631Y-95820745D01*
X128764630Y-95820750D01*
X128750362Y-95947391D01*
X128723296Y-96011805D01*
X128668097Y-96050549D01*
X128600480Y-96074209D01*
X128447737Y-96170184D01*
X128320184Y-96297737D01*
X128320182Y-96297740D01*
X128261911Y-96390477D01*
X128209576Y-96436768D01*
X128170802Y-96447724D01*
X128020749Y-96464630D01*
X128020745Y-96464631D01*
X127850476Y-96524211D01*
X127697737Y-96620184D01*
X127570184Y-96747737D01*
X127474211Y-96900476D01*
X127414631Y-97070745D01*
X127414630Y-97070750D01*
X127394435Y-97249996D01*
X127394435Y-97250003D01*
X127414630Y-97429249D01*
X127414631Y-97429254D01*
X127474211Y-97599523D01*
X127478686Y-97606645D01*
X127497684Y-97673882D01*
X127477314Y-97740717D01*
X127424045Y-97785929D01*
X127387574Y-97795834D01*
X127220749Y-97814630D01*
X127220745Y-97814631D01*
X127050476Y-97874211D01*
X126897737Y-97970184D01*
X126770184Y-98097737D01*
X126674210Y-98250478D01*
X126616003Y-98416827D01*
X126575281Y-98473603D01*
X126539916Y-98492914D01*
X126450480Y-98524209D01*
X126297737Y-98620184D01*
X126170184Y-98747737D01*
X126074211Y-98900476D01*
X126014631Y-99070745D01*
X126014630Y-99070750D01*
X125994435Y-99249996D01*
X116982082Y-99249996D01*
X117079816Y-99152262D01*
X117175789Y-98999522D01*
X117235368Y-98829255D01*
X117245533Y-98739036D01*
X117272599Y-98674622D01*
X117327799Y-98635877D01*
X117329252Y-98635368D01*
X117329255Y-98635368D01*
X117499522Y-98575789D01*
X117652262Y-98479816D01*
X117779816Y-98352262D01*
X117875789Y-98199522D01*
X117935368Y-98029255D01*
X117939584Y-97991839D01*
X117955565Y-97850003D01*
X117955565Y-97849996D01*
X117935369Y-97670750D01*
X117935368Y-97670745D01*
X117912938Y-97606645D01*
X117875789Y-97500478D01*
X117779816Y-97347738D01*
X117652262Y-97220184D01*
X117549422Y-97155565D01*
X117499523Y-97124211D01*
X117329254Y-97064631D01*
X117329249Y-97064630D01*
X117150004Y-97044435D01*
X117149996Y-97044435D01*
X116970750Y-97064630D01*
X116970745Y-97064631D01*
X116800476Y-97124211D01*
X116647737Y-97220184D01*
X116520184Y-97347737D01*
X116424211Y-97500476D01*
X116364631Y-97670745D01*
X116364630Y-97670749D01*
X116354466Y-97760965D01*
X116327399Y-97825379D01*
X116272200Y-97864123D01*
X116100478Y-97924210D01*
X115947737Y-98020184D01*
X115820184Y-98147737D01*
X115724211Y-98300476D01*
X115664631Y-98470745D01*
X115664630Y-98470750D01*
X115644435Y-98649996D01*
X115647318Y-98675587D01*
X115635262Y-98744409D01*
X115587912Y-98795788D01*
X115537982Y-98812689D01*
X115520750Y-98814630D01*
X115350478Y-98874210D01*
X115197737Y-98970184D01*
X115070184Y-99097737D01*
X114974210Y-99250478D01*
X114914630Y-99420750D01*
X114910320Y-99459006D01*
X114883253Y-99523420D01*
X114827176Y-99561931D01*
X114827317Y-99562333D01*
X114825840Y-99562849D01*
X114825658Y-99562975D01*
X114824807Y-99563211D01*
X114820746Y-99564631D01*
X114820745Y-99564632D01*
X114792787Y-99574415D01*
X114650478Y-99624210D01*
X114497737Y-99720184D01*
X114370184Y-99847737D01*
X114274211Y-100000476D01*
X114214631Y-100170745D01*
X114214630Y-100170750D01*
X114194435Y-100349996D01*
X100438222Y-100349996D01*
X100440500Y-100338543D01*
X100440500Y-100141456D01*
X100402052Y-99948170D01*
X100402051Y-99948169D01*
X100402051Y-99948165D01*
X100332087Y-99779255D01*
X100326635Y-99766092D01*
X100326628Y-99766079D01*
X100217139Y-99602218D01*
X100217136Y-99602214D01*
X100077785Y-99462863D01*
X100077781Y-99462860D01*
X99913920Y-99353371D01*
X99913907Y-99353364D01*
X99731839Y-99277950D01*
X99731829Y-99277947D01*
X99538543Y-99239500D01*
X99538541Y-99239500D01*
X99341459Y-99239500D01*
X99341457Y-99239500D01*
X99148170Y-99277947D01*
X99148160Y-99277950D01*
X98966092Y-99353364D01*
X98966079Y-99353371D01*
X98802218Y-99462860D01*
X98802214Y-99462863D01*
X98662863Y-99602214D01*
X98662860Y-99602218D01*
X98553371Y-99766079D01*
X98553364Y-99766092D01*
X98477950Y-99948160D01*
X98477947Y-99948170D01*
X98439500Y-100141456D01*
X98439500Y-100141459D01*
X98439500Y-100338541D01*
X98439500Y-100338543D01*
X98439499Y-100338543D01*
X97900500Y-100338543D01*
X97900500Y-100141456D01*
X97862052Y-99948170D01*
X97862051Y-99948169D01*
X97862051Y-99948165D01*
X97792087Y-99779255D01*
X97786635Y-99766092D01*
X97786628Y-99766079D01*
X97677139Y-99602218D01*
X97677136Y-99602214D01*
X97537785Y-99462863D01*
X97537781Y-99462860D01*
X97373920Y-99353371D01*
X97373907Y-99353364D01*
X97191839Y-99277950D01*
X97191829Y-99277947D01*
X96998543Y-99239500D01*
X96998541Y-99239500D01*
X96801459Y-99239500D01*
X96801457Y-99239500D01*
X96608170Y-99277947D01*
X96608160Y-99277950D01*
X96426092Y-99353364D01*
X96426079Y-99353371D01*
X96262218Y-99462860D01*
X96262214Y-99462863D01*
X96122863Y-99602214D01*
X96122860Y-99602218D01*
X96013371Y-99766079D01*
X96013364Y-99766092D01*
X95937950Y-99948160D01*
X95937947Y-99948170D01*
X95899500Y-100141456D01*
X95899500Y-100141459D01*
X95899500Y-100338541D01*
X95899500Y-100338543D01*
X95899499Y-100338543D01*
X95937947Y-100531829D01*
X95937950Y-100531839D01*
X96013364Y-100713907D01*
X96013371Y-100713920D01*
X96122860Y-100877781D01*
X96122863Y-100877785D01*
X96262214Y-101017136D01*
X96262218Y-101017139D01*
X96426079Y-101126628D01*
X96426092Y-101126635D01*
X96608160Y-101202049D01*
X96608165Y-101202051D01*
X96622261Y-101204855D01*
X96640322Y-101208448D01*
X96702233Y-101240833D01*
X96736807Y-101301549D01*
X96733068Y-101371318D01*
X96692201Y-101427990D01*
X96648224Y-101449840D01*
X96436516Y-101506566D01*
X96436507Y-101506570D01*
X96222422Y-101606399D01*
X96222420Y-101606400D01*
X96028926Y-101741886D01*
X96028920Y-101741891D01*
X95861891Y-101908920D01*
X95861886Y-101908926D01*
X95726400Y-102102420D01*
X95726399Y-102102422D01*
X95636882Y-102294393D01*
X95590710Y-102346832D01*
X95523516Y-102365984D01*
X95456635Y-102345768D01*
X95411300Y-102292603D01*
X95400500Y-102241988D01*
X95400500Y-97798543D01*
X95899499Y-97798543D01*
X95937947Y-97991829D01*
X95937950Y-97991839D01*
X96013364Y-98173907D01*
X96013371Y-98173920D01*
X96122860Y-98337781D01*
X96122863Y-98337785D01*
X96262214Y-98477136D01*
X96262218Y-98477139D01*
X96426079Y-98586628D01*
X96426092Y-98586635D01*
X96563982Y-98643750D01*
X96608165Y-98662051D01*
X96608169Y-98662051D01*
X96608170Y-98662052D01*
X96801456Y-98700500D01*
X96801459Y-98700500D01*
X96998543Y-98700500D01*
X97128637Y-98674622D01*
X97191835Y-98662051D01*
X97373914Y-98586632D01*
X97537782Y-98477139D01*
X97677139Y-98337782D01*
X97786632Y-98173914D01*
X97862051Y-97991835D01*
X97884333Y-97879816D01*
X97900500Y-97798543D01*
X97900500Y-97601456D01*
X97862052Y-97408170D01*
X97862051Y-97408169D01*
X97862051Y-97408165D01*
X97796539Y-97250003D01*
X97786635Y-97226092D01*
X97786628Y-97226079D01*
X97677139Y-97062218D01*
X97677136Y-97062214D01*
X97537785Y-96922863D01*
X97537781Y-96922860D01*
X97373920Y-96813371D01*
X97373907Y-96813364D01*
X97191839Y-96737950D01*
X97191829Y-96737947D01*
X96998543Y-96699500D01*
X96998541Y-96699500D01*
X96801459Y-96699500D01*
X96801457Y-96699500D01*
X96608170Y-96737947D01*
X96608160Y-96737950D01*
X96426092Y-96813364D01*
X96426079Y-96813371D01*
X96262218Y-96922860D01*
X96262214Y-96922863D01*
X96122863Y-97062214D01*
X96122860Y-97062218D01*
X96013371Y-97226079D01*
X96013364Y-97226092D01*
X95937950Y-97408160D01*
X95937947Y-97408170D01*
X95899500Y-97601456D01*
X95899500Y-97601459D01*
X95899500Y-97798541D01*
X95899500Y-97798543D01*
X95899499Y-97798543D01*
X95400500Y-97798543D01*
X95400500Y-95258543D01*
X95899499Y-95258543D01*
X95937947Y-95451829D01*
X95937950Y-95451839D01*
X96013364Y-95633907D01*
X96013371Y-95633920D01*
X96122860Y-95797781D01*
X96122863Y-95797785D01*
X96262214Y-95937136D01*
X96262218Y-95937139D01*
X96426079Y-96046628D01*
X96426092Y-96046635D01*
X96553777Y-96099523D01*
X96608165Y-96122051D01*
X96608169Y-96122051D01*
X96608170Y-96122052D01*
X96801456Y-96160500D01*
X96801459Y-96160500D01*
X96998543Y-96160500D01*
X97128582Y-96134632D01*
X97191835Y-96122051D01*
X97332655Y-96063721D01*
X97373907Y-96046635D01*
X97373907Y-96046634D01*
X97373914Y-96046632D01*
X97537782Y-95937139D01*
X97677139Y-95797782D01*
X97786632Y-95633914D01*
X97790652Y-95624210D01*
X97817853Y-95558539D01*
X97862051Y-95451835D01*
X97868448Y-95419677D01*
X97900832Y-95357766D01*
X97961548Y-95323192D01*
X98031318Y-95326931D01*
X98087990Y-95367797D01*
X98109840Y-95411775D01*
X98166566Y-95623483D01*
X98166570Y-95623492D01*
X98266399Y-95837578D01*
X98401894Y-96031082D01*
X98568917Y-96198105D01*
X98762421Y-96333600D01*
X98976507Y-96433429D01*
X98976516Y-96433433D01*
X99188224Y-96490159D01*
X99247885Y-96526524D01*
X99278414Y-96589370D01*
X99270120Y-96658746D01*
X99225634Y-96712624D01*
X99180325Y-96731551D01*
X99148168Y-96737948D01*
X99148160Y-96737950D01*
X98966092Y-96813364D01*
X98966079Y-96813371D01*
X98802218Y-96922860D01*
X98802214Y-96922863D01*
X98662863Y-97062214D01*
X98662860Y-97062218D01*
X98553371Y-97226079D01*
X98553364Y-97226092D01*
X98477950Y-97408160D01*
X98477947Y-97408170D01*
X98439500Y-97601456D01*
X98439500Y-97601459D01*
X98439500Y-97798541D01*
X98439500Y-97798543D01*
X98439499Y-97798543D01*
X98477947Y-97991829D01*
X98477950Y-97991839D01*
X98553364Y-98173907D01*
X98553371Y-98173920D01*
X98662860Y-98337781D01*
X98662863Y-98337785D01*
X98802214Y-98477136D01*
X98802218Y-98477139D01*
X98966079Y-98586628D01*
X98966092Y-98586635D01*
X99103982Y-98643750D01*
X99148165Y-98662051D01*
X99148169Y-98662051D01*
X99148170Y-98662052D01*
X99341456Y-98700500D01*
X99341459Y-98700500D01*
X99538543Y-98700500D01*
X99668637Y-98674622D01*
X99731835Y-98662051D01*
X99913914Y-98586632D01*
X100077782Y-98477139D01*
X100217139Y-98337782D01*
X100326632Y-98173914D01*
X100402051Y-97991835D01*
X100424333Y-97879816D01*
X100440500Y-97798543D01*
X100440500Y-97601456D01*
X100402052Y-97408170D01*
X100402051Y-97408169D01*
X100402051Y-97408165D01*
X100336539Y-97250003D01*
X100326635Y-97226092D01*
X100326628Y-97226079D01*
X100217139Y-97062218D01*
X100217136Y-97062214D01*
X100077785Y-96922863D01*
X100077781Y-96922860D01*
X99913920Y-96813371D01*
X99913907Y-96813364D01*
X99731839Y-96737950D01*
X99731832Y-96737948D01*
X99699674Y-96731551D01*
X99637764Y-96699164D01*
X99603191Y-96638448D01*
X99606932Y-96568678D01*
X99647800Y-96512007D01*
X99691775Y-96490159D01*
X99903483Y-96433433D01*
X99903492Y-96433429D01*
X100117578Y-96333600D01*
X100311082Y-96198105D01*
X100478105Y-96031082D01*
X100613600Y-95837578D01*
X100654440Y-95749996D01*
X117144435Y-95749996D01*
X117144435Y-95750003D01*
X117164630Y-95929249D01*
X117164631Y-95929254D01*
X117224211Y-96099523D01*
X117317935Y-96248683D01*
X117320184Y-96252262D01*
X117447738Y-96379816D01*
X117464705Y-96390477D01*
X117582721Y-96464632D01*
X117600478Y-96475789D01*
X117770745Y-96535368D01*
X117793286Y-96537907D01*
X117857699Y-96564973D01*
X117896444Y-96620173D01*
X117924209Y-96699519D01*
X117979927Y-96788194D01*
X118020184Y-96852262D01*
X118147738Y-96979816D01*
X118238080Y-97036582D01*
X118292450Y-97070745D01*
X118300478Y-97075789D01*
X118438860Y-97124211D01*
X118470745Y-97135368D01*
X118470750Y-97135369D01*
X118649996Y-97155565D01*
X118650000Y-97155565D01*
X118650004Y-97155565D01*
X118829249Y-97135369D01*
X118829252Y-97135368D01*
X118829255Y-97135368D01*
X118999522Y-97075789D01*
X119152262Y-96979816D01*
X119279816Y-96852262D01*
X119375789Y-96699522D01*
X119435368Y-96529255D01*
X119435676Y-96526524D01*
X119455565Y-96350003D01*
X119455565Y-96349996D01*
X119435369Y-96170750D01*
X119435368Y-96170745D01*
X119431783Y-96160500D01*
X119375789Y-96000478D01*
X119279816Y-95847738D01*
X119152262Y-95720184D01*
X119041326Y-95650478D01*
X118999521Y-95624210D01*
X118829249Y-95564630D01*
X118806711Y-95562091D01*
X118742297Y-95535024D01*
X118703553Y-95479825D01*
X118693760Y-95451839D01*
X118675789Y-95400478D01*
X118579816Y-95247738D01*
X118452262Y-95120184D01*
X118420900Y-95100478D01*
X118299523Y-95024211D01*
X118129254Y-94964631D01*
X118129249Y-94964630D01*
X117950004Y-94944435D01*
X117949996Y-94944435D01*
X117770750Y-94964630D01*
X117770745Y-94964631D01*
X117600476Y-95024211D01*
X117447737Y-95120184D01*
X117320184Y-95247737D01*
X117224211Y-95400476D01*
X117164631Y-95570745D01*
X117164630Y-95570750D01*
X117144435Y-95749996D01*
X100654440Y-95749996D01*
X100713429Y-95623492D01*
X100713432Y-95623486D01*
X100770636Y-95410000D01*
X99873012Y-95410000D01*
X99905925Y-95352993D01*
X99940000Y-95225826D01*
X99940000Y-95094174D01*
X99905925Y-94967007D01*
X99873012Y-94910000D01*
X100770636Y-94910000D01*
X100770635Y-94909999D01*
X100713432Y-94696513D01*
X100713429Y-94696507D01*
X100613600Y-94482422D01*
X100613599Y-94482420D01*
X100478113Y-94288926D01*
X100478108Y-94288920D01*
X100311082Y-94121894D01*
X100117578Y-93986399D01*
X99903492Y-93886570D01*
X99903483Y-93886566D01*
X99691775Y-93829840D01*
X99632114Y-93793475D01*
X99601585Y-93730628D01*
X99609880Y-93661253D01*
X99654365Y-93607375D01*
X99699677Y-93588448D01*
X99710595Y-93586275D01*
X99731835Y-93582051D01*
X99913914Y-93506632D01*
X100077782Y-93397139D01*
X100217139Y-93257782D01*
X100326632Y-93093914D01*
X100402051Y-92911835D01*
X100432895Y-92756773D01*
X100440500Y-92718543D01*
X100440500Y-92521456D01*
X100402052Y-92328170D01*
X100402051Y-92328169D01*
X100402051Y-92328165D01*
X100399279Y-92321472D01*
X100326635Y-92146092D01*
X100326628Y-92146079D01*
X100217139Y-91982218D01*
X100217136Y-91982214D01*
X100077785Y-91842863D01*
X100077781Y-91842860D01*
X99913920Y-91733371D01*
X99913907Y-91733364D01*
X99731839Y-91657950D01*
X99731829Y-91657947D01*
X99538543Y-91619500D01*
X99538541Y-91619500D01*
X99341459Y-91619500D01*
X99341457Y-91619500D01*
X99148170Y-91657947D01*
X99148160Y-91657950D01*
X98966092Y-91733364D01*
X98966079Y-91733371D01*
X98802218Y-91842860D01*
X98802214Y-91842863D01*
X98662863Y-91982214D01*
X98662860Y-91982218D01*
X98553371Y-92146079D01*
X98553364Y-92146092D01*
X98477950Y-92328160D01*
X98477947Y-92328170D01*
X98439500Y-92521456D01*
X98439500Y-92521459D01*
X98439500Y-92718541D01*
X98439500Y-92718543D01*
X98439499Y-92718543D01*
X98477947Y-92911829D01*
X98477950Y-92911839D01*
X98553364Y-93093907D01*
X98553371Y-93093920D01*
X98662860Y-93257781D01*
X98662863Y-93257785D01*
X98802214Y-93397136D01*
X98802218Y-93397139D01*
X98966079Y-93506628D01*
X98966092Y-93506635D01*
X99065325Y-93547738D01*
X99148165Y-93582051D01*
X99162261Y-93584855D01*
X99180322Y-93588448D01*
X99242233Y-93620833D01*
X99276807Y-93681549D01*
X99273068Y-93751318D01*
X99232201Y-93807990D01*
X99188224Y-93829840D01*
X98976516Y-93886566D01*
X98976507Y-93886570D01*
X98762422Y-93986399D01*
X98762420Y-93986400D01*
X98568926Y-94121886D01*
X98568920Y-94121891D01*
X98401891Y-94288920D01*
X98401886Y-94288926D01*
X98266400Y-94482420D01*
X98266399Y-94482422D01*
X98166570Y-94696507D01*
X98166566Y-94696516D01*
X98109840Y-94908224D01*
X98073475Y-94967885D01*
X98010628Y-94998414D01*
X97941252Y-94990119D01*
X97887375Y-94945634D01*
X97868448Y-94900322D01*
X97862052Y-94868172D01*
X97862052Y-94868170D01*
X97862051Y-94868165D01*
X97842177Y-94820184D01*
X97786635Y-94686092D01*
X97786628Y-94686079D01*
X97677139Y-94522218D01*
X97677136Y-94522214D01*
X97537785Y-94382863D01*
X97537781Y-94382860D01*
X97373920Y-94273371D01*
X97373907Y-94273364D01*
X97191839Y-94197950D01*
X97191829Y-94197947D01*
X96998543Y-94159500D01*
X96998541Y-94159500D01*
X96801459Y-94159500D01*
X96801457Y-94159500D01*
X96608170Y-94197947D01*
X96608160Y-94197950D01*
X96426092Y-94273364D01*
X96426079Y-94273371D01*
X96262218Y-94382860D01*
X96262214Y-94382863D01*
X96122863Y-94522214D01*
X96122860Y-94522218D01*
X96013371Y-94686079D01*
X96013364Y-94686092D01*
X95937950Y-94868160D01*
X95937947Y-94868170D01*
X95899500Y-95061456D01*
X95899500Y-95061459D01*
X95899500Y-95258541D01*
X95899500Y-95258543D01*
X95899499Y-95258543D01*
X95400500Y-95258543D01*
X95400500Y-90618011D01*
X95420185Y-90550972D01*
X95472989Y-90505217D01*
X95542147Y-90495273D01*
X95605703Y-90524298D01*
X95636882Y-90565606D01*
X95726399Y-90757578D01*
X95861894Y-90951082D01*
X96028917Y-91118105D01*
X96222421Y-91253600D01*
X96436507Y-91353429D01*
X96436516Y-91353433D01*
X96648224Y-91410159D01*
X96707885Y-91446524D01*
X96738414Y-91509370D01*
X96730120Y-91578746D01*
X96685634Y-91632624D01*
X96640325Y-91651551D01*
X96608168Y-91657948D01*
X96608160Y-91657950D01*
X96426092Y-91733364D01*
X96426079Y-91733371D01*
X96262218Y-91842860D01*
X96262214Y-91842863D01*
X96122863Y-91982214D01*
X96122860Y-91982218D01*
X96013371Y-92146079D01*
X96013364Y-92146092D01*
X95937950Y-92328160D01*
X95937947Y-92328170D01*
X95899500Y-92521456D01*
X95899500Y-92521459D01*
X95899500Y-92718541D01*
X95899500Y-92718543D01*
X95899499Y-92718543D01*
X95937947Y-92911829D01*
X95937950Y-92911839D01*
X96013364Y-93093907D01*
X96013371Y-93093920D01*
X96122860Y-93257781D01*
X96122863Y-93257785D01*
X96262214Y-93397136D01*
X96262218Y-93397139D01*
X96426079Y-93506628D01*
X96426092Y-93506635D01*
X96525325Y-93547738D01*
X96608165Y-93582051D01*
X96608169Y-93582051D01*
X96608170Y-93582052D01*
X96801456Y-93620500D01*
X96801459Y-93620500D01*
X96998543Y-93620500D01*
X97159675Y-93588448D01*
X97191835Y-93582051D01*
X97373914Y-93506632D01*
X97537782Y-93397139D01*
X97677139Y-93257782D01*
X97786632Y-93093914D01*
X97862051Y-92911835D01*
X97892895Y-92756773D01*
X97900500Y-92718543D01*
X97900500Y-92521456D01*
X97862052Y-92328170D01*
X97862051Y-92328169D01*
X97862051Y-92328165D01*
X97859279Y-92321472D01*
X97786635Y-92146092D01*
X97786628Y-92146079D01*
X97677139Y-91982218D01*
X97677136Y-91982214D01*
X97537785Y-91842863D01*
X97537781Y-91842860D01*
X97373920Y-91733371D01*
X97373907Y-91733364D01*
X97191839Y-91657950D01*
X97191832Y-91657948D01*
X97159674Y-91651551D01*
X97097764Y-91619164D01*
X97063191Y-91558448D01*
X97066932Y-91488678D01*
X97107800Y-91432007D01*
X97151775Y-91410159D01*
X97363483Y-91353433D01*
X97363492Y-91353429D01*
X97577578Y-91253600D01*
X97771082Y-91118105D01*
X97938105Y-90951082D01*
X98073600Y-90757578D01*
X98173429Y-90543492D01*
X98173433Y-90543483D01*
X98230159Y-90331775D01*
X98266524Y-90272115D01*
X98329370Y-90241585D01*
X98398746Y-90249879D01*
X98452624Y-90294364D01*
X98471551Y-90339674D01*
X98477948Y-90371832D01*
X98477950Y-90371839D01*
X98553364Y-90553907D01*
X98553371Y-90553920D01*
X98662860Y-90717781D01*
X98662863Y-90717785D01*
X98802214Y-90857136D01*
X98802218Y-90857139D01*
X98966079Y-90966628D01*
X98966092Y-90966635D01*
X99148160Y-91042049D01*
X99148165Y-91042051D01*
X99148169Y-91042051D01*
X99148170Y-91042052D01*
X99341456Y-91080500D01*
X99341459Y-91080500D01*
X99538543Y-91080500D01*
X99668582Y-91054632D01*
X99731835Y-91042051D01*
X99913914Y-90966632D01*
X100077782Y-90857139D01*
X100217139Y-90717782D01*
X100326632Y-90553914D01*
X100402051Y-90371835D01*
X100440500Y-90178541D01*
X100440500Y-89981459D01*
X100440500Y-89981456D01*
X100402052Y-89788170D01*
X100402051Y-89788169D01*
X100402051Y-89788165D01*
X100365532Y-89699999D01*
X108969464Y-89699999D01*
X108969464Y-89700000D01*
X108989564Y-89916918D01*
X108989564Y-89916920D01*
X108989565Y-89916923D01*
X109018916Y-90020080D01*
X109049184Y-90126462D01*
X109146288Y-90321472D01*
X109277574Y-90495324D01*
X109401572Y-90608363D01*
X109437854Y-90668074D01*
X109436093Y-90737922D01*
X109401572Y-90791637D01*
X109277574Y-90904675D01*
X109146288Y-91078527D01*
X109049184Y-91273537D01*
X108989564Y-91483081D01*
X108969464Y-91699999D01*
X108969464Y-91700000D01*
X108989564Y-91916918D01*
X109049184Y-92126462D01*
X109058956Y-92146086D01*
X109146288Y-92321472D01*
X109277573Y-92495322D01*
X109438568Y-92642088D01*
X109438575Y-92642092D01*
X109438576Y-92642093D01*
X109623786Y-92756770D01*
X109623792Y-92756773D01*
X109646664Y-92765633D01*
X109826931Y-92835470D01*
X110041074Y-92875500D01*
X110041076Y-92875500D01*
X110258924Y-92875500D01*
X110258926Y-92875500D01*
X110473069Y-92835470D01*
X110676210Y-92756772D01*
X110861432Y-92642088D01*
X111022427Y-92495322D01*
X111051047Y-92457422D01*
X111107153Y-92415787D01*
X111176865Y-92411094D01*
X111238048Y-92444836D01*
X111248946Y-92457414D01*
X111277573Y-92495322D01*
X111277576Y-92495325D01*
X111277578Y-92495327D01*
X111306244Y-92521459D01*
X111438568Y-92642088D01*
X111438575Y-92642092D01*
X111438576Y-92642093D01*
X111623786Y-92756770D01*
X111623792Y-92756773D01*
X111646664Y-92765633D01*
X111826931Y-92835470D01*
X112041074Y-92875500D01*
X112041076Y-92875500D01*
X112258924Y-92875500D01*
X112258926Y-92875500D01*
X112473069Y-92835470D01*
X112676210Y-92756772D01*
X112861432Y-92642088D01*
X113022427Y-92495322D01*
X113051047Y-92457422D01*
X113107153Y-92415787D01*
X113176865Y-92411094D01*
X113238048Y-92444836D01*
X113248946Y-92457414D01*
X113277573Y-92495322D01*
X113277576Y-92495325D01*
X113277578Y-92495327D01*
X113306244Y-92521459D01*
X113438568Y-92642088D01*
X113438575Y-92642092D01*
X113438576Y-92642093D01*
X113623786Y-92756770D01*
X113623792Y-92756773D01*
X113646664Y-92765633D01*
X113826931Y-92835470D01*
X114041074Y-92875500D01*
X114041076Y-92875500D01*
X114258924Y-92875500D01*
X114258926Y-92875500D01*
X114473069Y-92835470D01*
X114676210Y-92756772D01*
X114861432Y-92642088D01*
X115022427Y-92495322D01*
X115051047Y-92457422D01*
X115107153Y-92415787D01*
X115176865Y-92411094D01*
X115238048Y-92444836D01*
X115248946Y-92457414D01*
X115277573Y-92495322D01*
X115277576Y-92495325D01*
X115277578Y-92495327D01*
X115306244Y-92521459D01*
X115438568Y-92642088D01*
X115438575Y-92642092D01*
X115438576Y-92642093D01*
X115623786Y-92756770D01*
X115623792Y-92756773D01*
X115646664Y-92765633D01*
X115826931Y-92835470D01*
X116041074Y-92875500D01*
X116041076Y-92875500D01*
X116258924Y-92875500D01*
X116258926Y-92875500D01*
X116473069Y-92835470D01*
X116676210Y-92756772D01*
X116861432Y-92642088D01*
X117022427Y-92495322D01*
X117051047Y-92457422D01*
X117107153Y-92415787D01*
X117176865Y-92411094D01*
X117238048Y-92444836D01*
X117248946Y-92457414D01*
X117277573Y-92495322D01*
X117277576Y-92495325D01*
X117277578Y-92495327D01*
X117306244Y-92521459D01*
X117438568Y-92642088D01*
X117438575Y-92642092D01*
X117438576Y-92642093D01*
X117623786Y-92756770D01*
X117623792Y-92756773D01*
X117646664Y-92765633D01*
X117826931Y-92835470D01*
X118041074Y-92875500D01*
X118041076Y-92875500D01*
X118258924Y-92875500D01*
X118258926Y-92875500D01*
X118473069Y-92835470D01*
X118676210Y-92756772D01*
X118861432Y-92642088D01*
X119022427Y-92495322D01*
X119051047Y-92457422D01*
X119107153Y-92415787D01*
X119176865Y-92411094D01*
X119238048Y-92444836D01*
X119248946Y-92457414D01*
X119277573Y-92495322D01*
X119277576Y-92495325D01*
X119277578Y-92495327D01*
X119306244Y-92521459D01*
X119438568Y-92642088D01*
X119438575Y-92642092D01*
X119438576Y-92642093D01*
X119623786Y-92756770D01*
X119623792Y-92756773D01*
X119646664Y-92765633D01*
X119826931Y-92835470D01*
X120041074Y-92875500D01*
X120041076Y-92875500D01*
X120258924Y-92875500D01*
X120258926Y-92875500D01*
X120473069Y-92835470D01*
X120676210Y-92756772D01*
X120861432Y-92642088D01*
X121022427Y-92495322D01*
X121051359Y-92457009D01*
X121107465Y-92415373D01*
X121177177Y-92410680D01*
X121238360Y-92444421D01*
X121249267Y-92457009D01*
X121277942Y-92494981D01*
X121277949Y-92494989D01*
X121438868Y-92641685D01*
X121624012Y-92756322D01*
X121624023Y-92756327D01*
X121827060Y-92834984D01*
X121900000Y-92848619D01*
X121900000Y-92015686D01*
X121904394Y-92020080D01*
X121995606Y-92072741D01*
X122097339Y-92100000D01*
X122202661Y-92100000D01*
X122304394Y-92072741D01*
X122395606Y-92020080D01*
X122400000Y-92015686D01*
X122400000Y-92848619D01*
X122472939Y-92834984D01*
X122675976Y-92756327D01*
X122675987Y-92756322D01*
X122861130Y-92641685D01*
X122861131Y-92641685D01*
X123022055Y-92494984D01*
X123050730Y-92457012D01*
X123106838Y-92415374D01*
X123176550Y-92410681D01*
X123237733Y-92444422D01*
X123248640Y-92457009D01*
X123267512Y-92482000D01*
X123277573Y-92495322D01*
X123438568Y-92642088D01*
X123438575Y-92642092D01*
X123438576Y-92642093D01*
X123623786Y-92756770D01*
X123623792Y-92756773D01*
X123646664Y-92765633D01*
X123826931Y-92835470D01*
X124041074Y-92875500D01*
X124041076Y-92875500D01*
X124258924Y-92875500D01*
X124258926Y-92875500D01*
X124473069Y-92835470D01*
X124676210Y-92756772D01*
X124861432Y-92642088D01*
X125022427Y-92495322D01*
X125051047Y-92457422D01*
X125107153Y-92415787D01*
X125176865Y-92411094D01*
X125238048Y-92444836D01*
X125248946Y-92457414D01*
X125277573Y-92495322D01*
X125277576Y-92495325D01*
X125277578Y-92495327D01*
X125306244Y-92521459D01*
X125438568Y-92642088D01*
X125438575Y-92642092D01*
X125438576Y-92642093D01*
X125623786Y-92756770D01*
X125623792Y-92756773D01*
X125646664Y-92765633D01*
X125826931Y-92835470D01*
X126041074Y-92875500D01*
X126041076Y-92875500D01*
X126258924Y-92875500D01*
X126258926Y-92875500D01*
X126473069Y-92835470D01*
X126676210Y-92756772D01*
X126861432Y-92642088D01*
X127022427Y-92495322D01*
X127051359Y-92457009D01*
X127107465Y-92415373D01*
X127177177Y-92410680D01*
X127238360Y-92444421D01*
X127249267Y-92457009D01*
X127277942Y-92494981D01*
X127277949Y-92494989D01*
X127438868Y-92641685D01*
X127624012Y-92756322D01*
X127624023Y-92756327D01*
X127827060Y-92834984D01*
X127900000Y-92848619D01*
X127900000Y-92015686D01*
X127904394Y-92020080D01*
X127995606Y-92072741D01*
X128097339Y-92100000D01*
X128202661Y-92100000D01*
X128304394Y-92072741D01*
X128395606Y-92020080D01*
X128400000Y-92015686D01*
X128400000Y-92848619D01*
X128472939Y-92834984D01*
X128675976Y-92756327D01*
X128675987Y-92756322D01*
X128861130Y-92641685D01*
X128861131Y-92641685D01*
X129022055Y-92494984D01*
X129050730Y-92457012D01*
X129106838Y-92415374D01*
X129176550Y-92410681D01*
X129237733Y-92444422D01*
X129248640Y-92457009D01*
X129267512Y-92482000D01*
X129277573Y-92495322D01*
X129438568Y-92642088D01*
X129438575Y-92642092D01*
X129438576Y-92642093D01*
X129623786Y-92756770D01*
X129623792Y-92756773D01*
X129646664Y-92765633D01*
X129826931Y-92835470D01*
X130041074Y-92875500D01*
X130041076Y-92875500D01*
X130258924Y-92875500D01*
X130258926Y-92875500D01*
X130473069Y-92835470D01*
X130676210Y-92756772D01*
X130861432Y-92642088D01*
X131022427Y-92495322D01*
X131051047Y-92457422D01*
X131107153Y-92415787D01*
X131176865Y-92411094D01*
X131238048Y-92444836D01*
X131248946Y-92457414D01*
X131277573Y-92495322D01*
X131277576Y-92495325D01*
X131277578Y-92495327D01*
X131306244Y-92521459D01*
X131438568Y-92642088D01*
X131438575Y-92642092D01*
X131438576Y-92642093D01*
X131623786Y-92756770D01*
X131623792Y-92756773D01*
X131646664Y-92765633D01*
X131826931Y-92835470D01*
X132041074Y-92875500D01*
X132041076Y-92875500D01*
X132258924Y-92875500D01*
X132258926Y-92875500D01*
X132473069Y-92835470D01*
X132676210Y-92756772D01*
X132861432Y-92642088D01*
X133022427Y-92495322D01*
X133051359Y-92457009D01*
X133107465Y-92415373D01*
X133177177Y-92410680D01*
X133238360Y-92444421D01*
X133249267Y-92457009D01*
X133277942Y-92494981D01*
X133277949Y-92494989D01*
X133438868Y-92641685D01*
X133624012Y-92756322D01*
X133624023Y-92756327D01*
X133827060Y-92834984D01*
X133900000Y-92848619D01*
X133900000Y-92015686D01*
X133904394Y-92020080D01*
X133995606Y-92072741D01*
X134097339Y-92100000D01*
X134202661Y-92100000D01*
X134304394Y-92072741D01*
X134395606Y-92020080D01*
X134400000Y-92015686D01*
X134400000Y-92848619D01*
X134472939Y-92834984D01*
X134675976Y-92756327D01*
X134675987Y-92756322D01*
X134861130Y-92641685D01*
X134861131Y-92641685D01*
X135022055Y-92494984D01*
X135050730Y-92457012D01*
X135106838Y-92415374D01*
X135176550Y-92410681D01*
X135237733Y-92444422D01*
X135248640Y-92457009D01*
X135267512Y-92482000D01*
X135277573Y-92495322D01*
X135438568Y-92642088D01*
X135438575Y-92642092D01*
X135438576Y-92642093D01*
X135623786Y-92756770D01*
X135623792Y-92756773D01*
X135646664Y-92765633D01*
X135826931Y-92835470D01*
X136041074Y-92875500D01*
X136041076Y-92875500D01*
X136258924Y-92875500D01*
X136258926Y-92875500D01*
X136473069Y-92835470D01*
X136676210Y-92756772D01*
X136861432Y-92642088D01*
X137022427Y-92495322D01*
X137051047Y-92457422D01*
X137107153Y-92415787D01*
X137176865Y-92411094D01*
X137238048Y-92444836D01*
X137248946Y-92457414D01*
X137277573Y-92495322D01*
X137277576Y-92495325D01*
X137277578Y-92495327D01*
X137306244Y-92521459D01*
X137438568Y-92642088D01*
X137438575Y-92642092D01*
X137438576Y-92642093D01*
X137623786Y-92756770D01*
X137623792Y-92756773D01*
X137646664Y-92765633D01*
X137826931Y-92835470D01*
X138041074Y-92875500D01*
X138041076Y-92875500D01*
X138258924Y-92875500D01*
X138258926Y-92875500D01*
X138473069Y-92835470D01*
X138676210Y-92756772D01*
X138861432Y-92642088D01*
X139022427Y-92495322D01*
X139051359Y-92457009D01*
X139107465Y-92415373D01*
X139177177Y-92410680D01*
X139238360Y-92444421D01*
X139249267Y-92457009D01*
X139277942Y-92494981D01*
X139277949Y-92494989D01*
X139438868Y-92641685D01*
X139624012Y-92756322D01*
X139624023Y-92756327D01*
X139827060Y-92834984D01*
X139900000Y-92848619D01*
X139900000Y-92015686D01*
X139904394Y-92020080D01*
X139995606Y-92072741D01*
X140097339Y-92100000D01*
X140202661Y-92100000D01*
X140304394Y-92072741D01*
X140395606Y-92020080D01*
X140400000Y-92015686D01*
X140400000Y-92848619D01*
X140472939Y-92834984D01*
X140675976Y-92756327D01*
X140675987Y-92756322D01*
X140861130Y-92641685D01*
X140861131Y-92641685D01*
X141022055Y-92494984D01*
X141050730Y-92457012D01*
X141106838Y-92415374D01*
X141176550Y-92410681D01*
X141237733Y-92444422D01*
X141248640Y-92457009D01*
X141267512Y-92482000D01*
X141277573Y-92495322D01*
X141438568Y-92642088D01*
X141438575Y-92642092D01*
X141438576Y-92642093D01*
X141623786Y-92756770D01*
X141623792Y-92756773D01*
X141646664Y-92765633D01*
X141826931Y-92835470D01*
X142041074Y-92875500D01*
X142041076Y-92875500D01*
X142258924Y-92875500D01*
X142258926Y-92875500D01*
X142473069Y-92835470D01*
X142676210Y-92756772D01*
X142861432Y-92642088D01*
X143022427Y-92495322D01*
X143051047Y-92457422D01*
X143107153Y-92415787D01*
X143176865Y-92411094D01*
X143238048Y-92444836D01*
X143248946Y-92457414D01*
X143277573Y-92495322D01*
X143277576Y-92495325D01*
X143277578Y-92495327D01*
X143306244Y-92521459D01*
X143438568Y-92642088D01*
X143438575Y-92642092D01*
X143438576Y-92642093D01*
X143623786Y-92756770D01*
X143623792Y-92756773D01*
X143646664Y-92765633D01*
X143826931Y-92835470D01*
X144041074Y-92875500D01*
X144041076Y-92875500D01*
X144258924Y-92875500D01*
X144258926Y-92875500D01*
X144473069Y-92835470D01*
X144676210Y-92756772D01*
X144861432Y-92642088D01*
X145022427Y-92495322D01*
X145051047Y-92457422D01*
X145107153Y-92415787D01*
X145176865Y-92411094D01*
X145238048Y-92444836D01*
X145248946Y-92457414D01*
X145277573Y-92495322D01*
X145277576Y-92495325D01*
X145277578Y-92495327D01*
X145306244Y-92521459D01*
X145438568Y-92642088D01*
X145438575Y-92642092D01*
X145438576Y-92642093D01*
X145623786Y-92756770D01*
X145623792Y-92756773D01*
X145646664Y-92765633D01*
X145826931Y-92835470D01*
X146041074Y-92875500D01*
X146041076Y-92875500D01*
X146258924Y-92875500D01*
X146258926Y-92875500D01*
X146473069Y-92835470D01*
X146676210Y-92756772D01*
X146861432Y-92642088D01*
X147022427Y-92495322D01*
X147051047Y-92457422D01*
X147107153Y-92415787D01*
X147176865Y-92411094D01*
X147238048Y-92444836D01*
X147248946Y-92457414D01*
X147277573Y-92495322D01*
X147277576Y-92495325D01*
X147277578Y-92495327D01*
X147306244Y-92521459D01*
X147438568Y-92642088D01*
X147438575Y-92642092D01*
X147438576Y-92642093D01*
X147623786Y-92756770D01*
X147623792Y-92756773D01*
X147646664Y-92765633D01*
X147826931Y-92835470D01*
X148041074Y-92875500D01*
X148041076Y-92875500D01*
X148258924Y-92875500D01*
X148258926Y-92875500D01*
X148473069Y-92835470D01*
X148676210Y-92756772D01*
X148861432Y-92642088D01*
X149022427Y-92495322D01*
X149153712Y-92321472D01*
X149250817Y-92126459D01*
X149310435Y-91916923D01*
X149330536Y-91700000D01*
X149310435Y-91483077D01*
X149250817Y-91273541D01*
X149153712Y-91078528D01*
X149071950Y-90970258D01*
X149047259Y-90904898D01*
X149061824Y-90836563D01*
X149096594Y-90796265D01*
X149182190Y-90732186D01*
X149268350Y-90617093D01*
X149268354Y-90617086D01*
X149318596Y-90482379D01*
X149318598Y-90482372D01*
X149324999Y-90422844D01*
X149325000Y-90422827D01*
X149325000Y-89950000D01*
X148465686Y-89950000D01*
X148470080Y-89945606D01*
X148522741Y-89854394D01*
X148550000Y-89752661D01*
X148550000Y-89647339D01*
X148522741Y-89545606D01*
X148470080Y-89454394D01*
X148465686Y-89450000D01*
X149325000Y-89450000D01*
X149325000Y-88977172D01*
X149324999Y-88977155D01*
X149318598Y-88917627D01*
X149318596Y-88917620D01*
X149268354Y-88782913D01*
X149268350Y-88782906D01*
X149182190Y-88667812D01*
X149182187Y-88667809D01*
X149067093Y-88581649D01*
X149067086Y-88581645D01*
X148932379Y-88531403D01*
X148932372Y-88531401D01*
X148872844Y-88525000D01*
X148400000Y-88525000D01*
X148400000Y-89384314D01*
X148395606Y-89379920D01*
X148304394Y-89327259D01*
X148202661Y-89300000D01*
X148097339Y-89300000D01*
X147995606Y-89327259D01*
X147904394Y-89379920D01*
X147900000Y-89384314D01*
X147900000Y-88525000D01*
X147427155Y-88525000D01*
X147367627Y-88531401D01*
X147367620Y-88531403D01*
X147232913Y-88581645D01*
X147232906Y-88581649D01*
X147117812Y-88667809D01*
X147055585Y-88750933D01*
X146999651Y-88792803D01*
X146929959Y-88797787D01*
X146872781Y-88768258D01*
X146861432Y-88757912D01*
X146861429Y-88757910D01*
X146861428Y-88757909D01*
X146676213Y-88643229D01*
X146676207Y-88643226D01*
X146568625Y-88601549D01*
X146473069Y-88564530D01*
X146258926Y-88524500D01*
X146041074Y-88524500D01*
X145826931Y-88564530D01*
X145783764Y-88581253D01*
X145623792Y-88643226D01*
X145623786Y-88643229D01*
X145438576Y-88757906D01*
X145438566Y-88757913D01*
X145277573Y-88904676D01*
X145248953Y-88942576D01*
X145192844Y-88984211D01*
X145123132Y-88988902D01*
X145061950Y-88955159D01*
X145051047Y-88942576D01*
X145022426Y-88904676D01*
X144861433Y-88757913D01*
X144861423Y-88757906D01*
X144676213Y-88643229D01*
X144676207Y-88643226D01*
X144568625Y-88601549D01*
X144473069Y-88564530D01*
X144258926Y-88524500D01*
X144041074Y-88524500D01*
X143826931Y-88564530D01*
X143783764Y-88581253D01*
X143623792Y-88643226D01*
X143623786Y-88643229D01*
X143438576Y-88757906D01*
X143438566Y-88757913D01*
X143277573Y-88904676D01*
X143248953Y-88942576D01*
X143192844Y-88984211D01*
X143123132Y-88988902D01*
X143061950Y-88955159D01*
X143051047Y-88942576D01*
X143022426Y-88904676D01*
X142861433Y-88757913D01*
X142861423Y-88757906D01*
X142676213Y-88643229D01*
X142676207Y-88643226D01*
X142568625Y-88601549D01*
X142473069Y-88564530D01*
X142258926Y-88524500D01*
X142041074Y-88524500D01*
X141826931Y-88564530D01*
X141783764Y-88581253D01*
X141623792Y-88643226D01*
X141623786Y-88643229D01*
X141438576Y-88757906D01*
X141438566Y-88757913D01*
X141277573Y-88904676D01*
X141248953Y-88942576D01*
X141192844Y-88984211D01*
X141123132Y-88988902D01*
X141061950Y-88955159D01*
X141051047Y-88942576D01*
X141022426Y-88904676D01*
X140861433Y-88757913D01*
X140861423Y-88757906D01*
X140676213Y-88643229D01*
X140676207Y-88643226D01*
X140568625Y-88601549D01*
X140473069Y-88564530D01*
X140258926Y-88524500D01*
X140041074Y-88524500D01*
X139826931Y-88564530D01*
X139783764Y-88581253D01*
X139623792Y-88643226D01*
X139623786Y-88643229D01*
X139438576Y-88757906D01*
X139438566Y-88757913D01*
X139277573Y-88904676D01*
X139248953Y-88942576D01*
X139192844Y-88984211D01*
X139123132Y-88988902D01*
X139061950Y-88955159D01*
X139051047Y-88942576D01*
X139022426Y-88904676D01*
X138861433Y-88757913D01*
X138861423Y-88757906D01*
X138676213Y-88643229D01*
X138676207Y-88643226D01*
X138568625Y-88601549D01*
X138473069Y-88564530D01*
X138258926Y-88524500D01*
X138041074Y-88524500D01*
X137826931Y-88564530D01*
X137783764Y-88581253D01*
X137623792Y-88643226D01*
X137623786Y-88643229D01*
X137438576Y-88757906D01*
X137438566Y-88757913D01*
X137277574Y-88904676D01*
X137248640Y-88942991D01*
X137192530Y-88984627D01*
X137122818Y-88989318D01*
X137061637Y-88955576D01*
X137050731Y-88942990D01*
X137022051Y-88905011D01*
X137022050Y-88905010D01*
X136861131Y-88758314D01*
X136675987Y-88643677D01*
X136675985Y-88643676D01*
X136472931Y-88565013D01*
X136472921Y-88565010D01*
X136400001Y-88551378D01*
X136400000Y-88551379D01*
X136400000Y-89384314D01*
X136395606Y-89379920D01*
X136304394Y-89327259D01*
X136202661Y-89300000D01*
X136097339Y-89300000D01*
X135995606Y-89327259D01*
X135904394Y-89379920D01*
X135900000Y-89384314D01*
X135900000Y-88551379D01*
X135899998Y-88551378D01*
X135827078Y-88565010D01*
X135827068Y-88565013D01*
X135624014Y-88643676D01*
X135624012Y-88643677D01*
X135438869Y-88758314D01*
X135438868Y-88758314D01*
X135277945Y-88905014D01*
X135249267Y-88942990D01*
X135193157Y-88984626D01*
X135123445Y-88989317D01*
X135062264Y-88955575D01*
X135051359Y-88942990D01*
X135042547Y-88931321D01*
X135022427Y-88904678D01*
X134861432Y-88757912D01*
X134861428Y-88757909D01*
X134861423Y-88757906D01*
X134676213Y-88643229D01*
X134676207Y-88643226D01*
X134568625Y-88601549D01*
X134473069Y-88564530D01*
X134258926Y-88524500D01*
X134041074Y-88524500D01*
X133826931Y-88564530D01*
X133783764Y-88581253D01*
X133623792Y-88643226D01*
X133623786Y-88643229D01*
X133438576Y-88757906D01*
X133438566Y-88757913D01*
X133277573Y-88904676D01*
X133248953Y-88942576D01*
X133192844Y-88984211D01*
X133123132Y-88988902D01*
X133061950Y-88955159D01*
X133051047Y-88942576D01*
X133022426Y-88904676D01*
X132861433Y-88757913D01*
X132861423Y-88757906D01*
X132676213Y-88643229D01*
X132676207Y-88643226D01*
X132568625Y-88601549D01*
X132473069Y-88564530D01*
X132258926Y-88524500D01*
X132041074Y-88524500D01*
X131826931Y-88564530D01*
X131783764Y-88581253D01*
X131623792Y-88643226D01*
X131623786Y-88643229D01*
X131438576Y-88757906D01*
X131438566Y-88757913D01*
X131277574Y-88904676D01*
X131248640Y-88942991D01*
X131192530Y-88984627D01*
X131122818Y-88989318D01*
X131061637Y-88955576D01*
X131050731Y-88942990D01*
X131022051Y-88905011D01*
X131022050Y-88905010D01*
X130861131Y-88758314D01*
X130675987Y-88643677D01*
X130675985Y-88643676D01*
X130472931Y-88565013D01*
X130472921Y-88565010D01*
X130400001Y-88551378D01*
X130400000Y-88551379D01*
X130400000Y-89384314D01*
X130395606Y-89379920D01*
X130304394Y-89327259D01*
X130202661Y-89300000D01*
X130097339Y-89300000D01*
X129995606Y-89327259D01*
X129904394Y-89379920D01*
X129900000Y-89384314D01*
X129900000Y-88551379D01*
X129899998Y-88551378D01*
X129827078Y-88565010D01*
X129827068Y-88565013D01*
X129624014Y-88643676D01*
X129624012Y-88643677D01*
X129438869Y-88758314D01*
X129438868Y-88758314D01*
X129277945Y-88905014D01*
X129249267Y-88942990D01*
X129193157Y-88984626D01*
X129123445Y-88989317D01*
X129062264Y-88955575D01*
X129051359Y-88942990D01*
X129042547Y-88931321D01*
X129022427Y-88904678D01*
X128861432Y-88757912D01*
X128861428Y-88757909D01*
X128861423Y-88757906D01*
X128676213Y-88643229D01*
X128676207Y-88643226D01*
X128568625Y-88601549D01*
X128473069Y-88564530D01*
X128258926Y-88524500D01*
X128041074Y-88524500D01*
X127826931Y-88564530D01*
X127783764Y-88581253D01*
X127623792Y-88643226D01*
X127623786Y-88643229D01*
X127438576Y-88757906D01*
X127438566Y-88757913D01*
X127277573Y-88904676D01*
X127248953Y-88942576D01*
X127192844Y-88984211D01*
X127123132Y-88988902D01*
X127061950Y-88955159D01*
X127051047Y-88942576D01*
X127022426Y-88904676D01*
X126861433Y-88757913D01*
X126861423Y-88757906D01*
X126676213Y-88643229D01*
X126676207Y-88643226D01*
X126568625Y-88601549D01*
X126473069Y-88564530D01*
X126258926Y-88524500D01*
X126041074Y-88524500D01*
X125826931Y-88564530D01*
X125783764Y-88581253D01*
X125623792Y-88643226D01*
X125623786Y-88643229D01*
X125438576Y-88757906D01*
X125438566Y-88757913D01*
X125277574Y-88904676D01*
X125248640Y-88942991D01*
X125192530Y-88984627D01*
X125122818Y-88989318D01*
X125061637Y-88955576D01*
X125050731Y-88942990D01*
X125022051Y-88905011D01*
X125022050Y-88905010D01*
X124861131Y-88758314D01*
X124675987Y-88643677D01*
X124675985Y-88643676D01*
X124472931Y-88565013D01*
X124472921Y-88565010D01*
X124400001Y-88551378D01*
X124400000Y-88551379D01*
X124400000Y-89384314D01*
X124395606Y-89379920D01*
X124304394Y-89327259D01*
X124202661Y-89300000D01*
X124097339Y-89300000D01*
X123995606Y-89327259D01*
X123904394Y-89379920D01*
X123900000Y-89384314D01*
X123900000Y-88551379D01*
X123899998Y-88551378D01*
X123827078Y-88565010D01*
X123827068Y-88565013D01*
X123624014Y-88643676D01*
X123624012Y-88643677D01*
X123438869Y-88758314D01*
X123438868Y-88758314D01*
X123277945Y-88905014D01*
X123249267Y-88942990D01*
X123193157Y-88984626D01*
X123123445Y-88989317D01*
X123062264Y-88955575D01*
X123051359Y-88942990D01*
X123042547Y-88931321D01*
X123022427Y-88904678D01*
X122861432Y-88757912D01*
X122861428Y-88757909D01*
X122861423Y-88757906D01*
X122676213Y-88643229D01*
X122676207Y-88643226D01*
X122568625Y-88601549D01*
X122473069Y-88564530D01*
X122258926Y-88524500D01*
X122041074Y-88524500D01*
X121826931Y-88564530D01*
X121783764Y-88581253D01*
X121623792Y-88643226D01*
X121623786Y-88643229D01*
X121438576Y-88757906D01*
X121438566Y-88757913D01*
X121277573Y-88904676D01*
X121248953Y-88942576D01*
X121192844Y-88984211D01*
X121123132Y-88988902D01*
X121061950Y-88955159D01*
X121051047Y-88942576D01*
X121022426Y-88904676D01*
X120861433Y-88757913D01*
X120861423Y-88757906D01*
X120676213Y-88643229D01*
X120676207Y-88643226D01*
X120568625Y-88601549D01*
X120473069Y-88564530D01*
X120258926Y-88524500D01*
X120041074Y-88524500D01*
X119826931Y-88564530D01*
X119783764Y-88581253D01*
X119623792Y-88643226D01*
X119623786Y-88643229D01*
X119438576Y-88757906D01*
X119438566Y-88757913D01*
X119277573Y-88904676D01*
X119248953Y-88942576D01*
X119192844Y-88984211D01*
X119123132Y-88988902D01*
X119061950Y-88955159D01*
X119051047Y-88942576D01*
X119022426Y-88904676D01*
X118861433Y-88757913D01*
X118861423Y-88757906D01*
X118676213Y-88643229D01*
X118676207Y-88643226D01*
X118568625Y-88601549D01*
X118473069Y-88564530D01*
X118258926Y-88524500D01*
X118041074Y-88524500D01*
X117826931Y-88564530D01*
X117783764Y-88581253D01*
X117623792Y-88643226D01*
X117623786Y-88643229D01*
X117438576Y-88757906D01*
X117438566Y-88757913D01*
X117277573Y-88904676D01*
X117248953Y-88942576D01*
X117192844Y-88984211D01*
X117123132Y-88988902D01*
X117061950Y-88955159D01*
X117051047Y-88942576D01*
X117022426Y-88904676D01*
X116861433Y-88757913D01*
X116861423Y-88757906D01*
X116676213Y-88643229D01*
X116676207Y-88643226D01*
X116568625Y-88601549D01*
X116473069Y-88564530D01*
X116258926Y-88524500D01*
X116041074Y-88524500D01*
X115826931Y-88564530D01*
X115783764Y-88581253D01*
X115623792Y-88643226D01*
X115623786Y-88643229D01*
X115438576Y-88757906D01*
X115438566Y-88757913D01*
X115277573Y-88904676D01*
X115248953Y-88942576D01*
X115192844Y-88984211D01*
X115123132Y-88988902D01*
X115061950Y-88955159D01*
X115051047Y-88942576D01*
X115022426Y-88904676D01*
X114861433Y-88757913D01*
X114861423Y-88757906D01*
X114676213Y-88643229D01*
X114676207Y-88643226D01*
X114568625Y-88601549D01*
X114473069Y-88564530D01*
X114258926Y-88524500D01*
X114041074Y-88524500D01*
X113826931Y-88564530D01*
X113783764Y-88581253D01*
X113623792Y-88643226D01*
X113623786Y-88643229D01*
X113438576Y-88757906D01*
X113438566Y-88757913D01*
X113277573Y-88904676D01*
X113248953Y-88942576D01*
X113192844Y-88984211D01*
X113123132Y-88988902D01*
X113061950Y-88955159D01*
X113051047Y-88942576D01*
X113022426Y-88904676D01*
X112861433Y-88757913D01*
X112861423Y-88757906D01*
X112676213Y-88643229D01*
X112676207Y-88643226D01*
X112568625Y-88601549D01*
X112473069Y-88564530D01*
X112258926Y-88524500D01*
X112041074Y-88524500D01*
X111826931Y-88564530D01*
X111783764Y-88581253D01*
X111623792Y-88643226D01*
X111623786Y-88643229D01*
X111438576Y-88757906D01*
X111438566Y-88757913D01*
X111277573Y-88904676D01*
X111248953Y-88942576D01*
X111192844Y-88984211D01*
X111123132Y-88988902D01*
X111061950Y-88955159D01*
X111051047Y-88942576D01*
X111022426Y-88904676D01*
X110861433Y-88757913D01*
X110861423Y-88757906D01*
X110676213Y-88643229D01*
X110676207Y-88643226D01*
X110568625Y-88601549D01*
X110473069Y-88564530D01*
X110258926Y-88524500D01*
X110041074Y-88524500D01*
X109826931Y-88564530D01*
X109783764Y-88581253D01*
X109623792Y-88643226D01*
X109623786Y-88643229D01*
X109438576Y-88757906D01*
X109438566Y-88757913D01*
X109277574Y-88904676D01*
X109146288Y-89078527D01*
X109049184Y-89273537D01*
X108989564Y-89483081D01*
X108969464Y-89699999D01*
X100365532Y-89699999D01*
X100357207Y-89679901D01*
X100326635Y-89606092D01*
X100326628Y-89606079D01*
X100217139Y-89442218D01*
X100217136Y-89442214D01*
X100077785Y-89302863D01*
X100077781Y-89302860D01*
X99913920Y-89193371D01*
X99913907Y-89193364D01*
X99731839Y-89117950D01*
X99731829Y-89117947D01*
X99538543Y-89079500D01*
X99538541Y-89079500D01*
X99341459Y-89079500D01*
X99341457Y-89079500D01*
X99148170Y-89117947D01*
X99148160Y-89117950D01*
X98966092Y-89193364D01*
X98966079Y-89193371D01*
X98802218Y-89302860D01*
X98802214Y-89302863D01*
X98662863Y-89442214D01*
X98662860Y-89442218D01*
X98553371Y-89606079D01*
X98553364Y-89606092D01*
X98477950Y-89788160D01*
X98477948Y-89788168D01*
X98471551Y-89820325D01*
X98439164Y-89882236D01*
X98378447Y-89916808D01*
X98308678Y-89913067D01*
X98252007Y-89872199D01*
X98230159Y-89828224D01*
X98173433Y-89616516D01*
X98173429Y-89616507D01*
X98073600Y-89402422D01*
X98073599Y-89402420D01*
X97938113Y-89208926D01*
X97938108Y-89208920D01*
X97771082Y-89041894D01*
X97577578Y-88906399D01*
X97363492Y-88806570D01*
X97363483Y-88806566D01*
X97151775Y-88749840D01*
X97092114Y-88713475D01*
X97061585Y-88650628D01*
X97069880Y-88581253D01*
X97114365Y-88527375D01*
X97159677Y-88508448D01*
X97170595Y-88506275D01*
X97191835Y-88502051D01*
X97373914Y-88426632D01*
X97537782Y-88317139D01*
X97677139Y-88177782D01*
X97786632Y-88013914D01*
X97862051Y-87831835D01*
X97900500Y-87638543D01*
X98439499Y-87638543D01*
X98477947Y-87831829D01*
X98477950Y-87831839D01*
X98553364Y-88013907D01*
X98553371Y-88013920D01*
X98662860Y-88177781D01*
X98662863Y-88177785D01*
X98802214Y-88317136D01*
X98802218Y-88317139D01*
X98966079Y-88426628D01*
X98966092Y-88426635D01*
X99148160Y-88502049D01*
X99148165Y-88502051D01*
X99148169Y-88502051D01*
X99148170Y-88502052D01*
X99341456Y-88540500D01*
X99341459Y-88540500D01*
X99538543Y-88540500D01*
X99699675Y-88508448D01*
X99731835Y-88502051D01*
X99913914Y-88426632D01*
X100077782Y-88317139D01*
X100217139Y-88177782D01*
X100326632Y-88013914D01*
X100402051Y-87831835D01*
X100440500Y-87638541D01*
X100440500Y-87441459D01*
X100440500Y-87441456D01*
X100402052Y-87248170D01*
X100402051Y-87248169D01*
X100402051Y-87248165D01*
X100402049Y-87248160D01*
X100326635Y-87066092D01*
X100326628Y-87066079D01*
X100217139Y-86902218D01*
X100217136Y-86902214D01*
X100077785Y-86762863D01*
X100077781Y-86762860D01*
X99913920Y-86653371D01*
X99913907Y-86653364D01*
X99731839Y-86577950D01*
X99731829Y-86577947D01*
X99538543Y-86539500D01*
X99538541Y-86539500D01*
X99341459Y-86539500D01*
X99341457Y-86539500D01*
X99148170Y-86577947D01*
X99148160Y-86577950D01*
X98966092Y-86653364D01*
X98966079Y-86653371D01*
X98802218Y-86762860D01*
X98802214Y-86762863D01*
X98662863Y-86902214D01*
X98662860Y-86902218D01*
X98553371Y-87066079D01*
X98553364Y-87066092D01*
X98477950Y-87248160D01*
X98477947Y-87248170D01*
X98439500Y-87441456D01*
X98439500Y-87441459D01*
X98439500Y-87638541D01*
X98439500Y-87638543D01*
X98439499Y-87638543D01*
X97900500Y-87638543D01*
X97900500Y-87638541D01*
X97900500Y-87441459D01*
X97900500Y-87441456D01*
X97862052Y-87248170D01*
X97862051Y-87248169D01*
X97862051Y-87248165D01*
X97862049Y-87248160D01*
X97786635Y-87066092D01*
X97786628Y-87066079D01*
X97677139Y-86902218D01*
X97677136Y-86902214D01*
X97537785Y-86762863D01*
X97537781Y-86762860D01*
X97373920Y-86653371D01*
X97373907Y-86653364D01*
X97191839Y-86577950D01*
X97191832Y-86577948D01*
X97159674Y-86571551D01*
X97097764Y-86539164D01*
X97063191Y-86478448D01*
X97066932Y-86408678D01*
X97107800Y-86352007D01*
X97151775Y-86330159D01*
X97363483Y-86273433D01*
X97363492Y-86273429D01*
X97577578Y-86173600D01*
X97771082Y-86038105D01*
X97938105Y-85871082D01*
X98073600Y-85677578D01*
X98173429Y-85463492D01*
X98173433Y-85463483D01*
X98230159Y-85251775D01*
X98266524Y-85192115D01*
X98329370Y-85161585D01*
X98398746Y-85169879D01*
X98452624Y-85214364D01*
X98471551Y-85259674D01*
X98477948Y-85291832D01*
X98477950Y-85291839D01*
X98553364Y-85473907D01*
X98553371Y-85473920D01*
X98662860Y-85637781D01*
X98662863Y-85637785D01*
X98802214Y-85777136D01*
X98802218Y-85777139D01*
X98966079Y-85886628D01*
X98966092Y-85886635D01*
X99148160Y-85962049D01*
X99148165Y-85962051D01*
X99148169Y-85962051D01*
X99148170Y-85962052D01*
X99341456Y-86000500D01*
X99341459Y-86000500D01*
X99538543Y-86000500D01*
X99668582Y-85974632D01*
X99731835Y-85962051D01*
X99913914Y-85886632D01*
X100077782Y-85777139D01*
X100217139Y-85637782D01*
X100326632Y-85473914D01*
X100398669Y-85300000D01*
X147594659Y-85300000D01*
X147613975Y-85496129D01*
X147613976Y-85496132D01*
X147669017Y-85677578D01*
X147671188Y-85684733D01*
X147764086Y-85858532D01*
X147764090Y-85858539D01*
X147889116Y-86010883D01*
X148041460Y-86135909D01*
X148041467Y-86135913D01*
X148215266Y-86228811D01*
X148215269Y-86228811D01*
X148215273Y-86228814D01*
X148403868Y-86286024D01*
X148600000Y-86305341D01*
X148796132Y-86286024D01*
X148984727Y-86228814D01*
X149158538Y-86135910D01*
X149310883Y-86010883D01*
X149435910Y-85858538D01*
X149528814Y-85684727D01*
X149586024Y-85496132D01*
X149605341Y-85300000D01*
X149586024Y-85103868D01*
X149528814Y-84915273D01*
X149528811Y-84915269D01*
X149528811Y-84915266D01*
X149435913Y-84741467D01*
X149435909Y-84741460D01*
X149310883Y-84589116D01*
X149158539Y-84464090D01*
X149158532Y-84464086D01*
X148984733Y-84371188D01*
X148984727Y-84371186D01*
X148796132Y-84313976D01*
X148796129Y-84313975D01*
X148600000Y-84294659D01*
X148403870Y-84313975D01*
X148215266Y-84371188D01*
X148041467Y-84464086D01*
X148041460Y-84464090D01*
X147889116Y-84589116D01*
X147764090Y-84741460D01*
X147764086Y-84741467D01*
X147671188Y-84915266D01*
X147613975Y-85103870D01*
X147594659Y-85300000D01*
X100398669Y-85300000D01*
X100402051Y-85291835D01*
X100439440Y-85103870D01*
X100440500Y-85098543D01*
X100440500Y-84901456D01*
X100402052Y-84708170D01*
X100402051Y-84708169D01*
X100402051Y-84708165D01*
X100352740Y-84589116D01*
X100326635Y-84526092D01*
X100326628Y-84526079D01*
X100217139Y-84362218D01*
X100217136Y-84362214D01*
X100077785Y-84222863D01*
X100077781Y-84222860D01*
X99913920Y-84113371D01*
X99913907Y-84113364D01*
X99731839Y-84037950D01*
X99731829Y-84037947D01*
X99538543Y-83999500D01*
X99538541Y-83999500D01*
X99341459Y-83999500D01*
X99341457Y-83999500D01*
X99148170Y-84037947D01*
X99148160Y-84037950D01*
X98966092Y-84113364D01*
X98966079Y-84113371D01*
X98802218Y-84222860D01*
X98802214Y-84222863D01*
X98662863Y-84362214D01*
X98662860Y-84362218D01*
X98553371Y-84526079D01*
X98553364Y-84526092D01*
X98477950Y-84708160D01*
X98477948Y-84708168D01*
X98471551Y-84740325D01*
X98439164Y-84802236D01*
X98378447Y-84836808D01*
X98308678Y-84833067D01*
X98252007Y-84792199D01*
X98230159Y-84748224D01*
X98173433Y-84536516D01*
X98173429Y-84536507D01*
X98073600Y-84322422D01*
X98073599Y-84322420D01*
X97938113Y-84128926D01*
X97938108Y-84128920D01*
X97771082Y-83961894D01*
X97577578Y-83826399D01*
X97363492Y-83726570D01*
X97363483Y-83726566D01*
X97151775Y-83669840D01*
X97092114Y-83633475D01*
X97061585Y-83570628D01*
X97069880Y-83501253D01*
X97114365Y-83447375D01*
X97159677Y-83428448D01*
X97170595Y-83426275D01*
X97191835Y-83422051D01*
X97373914Y-83346632D01*
X97537782Y-83237139D01*
X97677139Y-83097782D01*
X97786632Y-82933914D01*
X97862051Y-82751835D01*
X97900500Y-82558543D01*
X98439499Y-82558543D01*
X98477947Y-82751829D01*
X98477950Y-82751839D01*
X98553364Y-82933907D01*
X98553371Y-82933920D01*
X98662860Y-83097781D01*
X98662863Y-83097785D01*
X98802214Y-83237136D01*
X98802218Y-83237139D01*
X98966079Y-83346628D01*
X98966092Y-83346635D01*
X99148160Y-83422049D01*
X99148165Y-83422051D01*
X99148169Y-83422051D01*
X99148170Y-83422052D01*
X99341456Y-83460500D01*
X99341459Y-83460500D01*
X99538543Y-83460500D01*
X99699675Y-83428448D01*
X99731835Y-83422051D01*
X99913914Y-83346632D01*
X100077782Y-83237139D01*
X100217139Y-83097782D01*
X100326632Y-82933914D01*
X100402051Y-82751835D01*
X100440500Y-82558541D01*
X100440500Y-82361459D01*
X100440500Y-82361456D01*
X100402052Y-82168170D01*
X100402051Y-82168169D01*
X100402051Y-82168165D01*
X100402049Y-82168160D01*
X100326635Y-81986092D01*
X100326628Y-81986079D01*
X100217139Y-81822218D01*
X100217136Y-81822214D01*
X100077785Y-81682863D01*
X100077781Y-81682860D01*
X99913920Y-81573371D01*
X99913907Y-81573364D01*
X99731839Y-81497950D01*
X99731829Y-81497947D01*
X99538543Y-81459500D01*
X99538541Y-81459500D01*
X99341459Y-81459500D01*
X99341457Y-81459500D01*
X99148170Y-81497947D01*
X99148160Y-81497950D01*
X98966092Y-81573364D01*
X98966079Y-81573371D01*
X98802218Y-81682860D01*
X98802214Y-81682863D01*
X98662863Y-81822214D01*
X98662860Y-81822218D01*
X98553371Y-81986079D01*
X98553364Y-81986092D01*
X98477950Y-82168160D01*
X98477947Y-82168170D01*
X98439500Y-82361456D01*
X98439500Y-82361459D01*
X98439500Y-82558541D01*
X98439500Y-82558543D01*
X98439499Y-82558543D01*
X97900500Y-82558543D01*
X97900500Y-82558541D01*
X97900500Y-82361459D01*
X97900500Y-82361456D01*
X97862052Y-82168170D01*
X97862051Y-82168169D01*
X97862051Y-82168165D01*
X97862049Y-82168160D01*
X97786635Y-81986092D01*
X97786628Y-81986079D01*
X97677139Y-81822218D01*
X97677136Y-81822214D01*
X97537785Y-81682863D01*
X97537781Y-81682860D01*
X97373920Y-81573371D01*
X97373907Y-81573364D01*
X97191839Y-81497950D01*
X97191829Y-81497947D01*
X96998543Y-81459500D01*
X96998541Y-81459500D01*
X96801459Y-81459500D01*
X96801457Y-81459500D01*
X96608170Y-81497947D01*
X96608160Y-81497950D01*
X96426092Y-81573364D01*
X96426079Y-81573371D01*
X96262218Y-81682860D01*
X96262214Y-81682863D01*
X96122863Y-81822214D01*
X96122860Y-81822218D01*
X96013371Y-81986079D01*
X96013364Y-81986092D01*
X95937950Y-82168160D01*
X95937947Y-82168170D01*
X95899500Y-82361456D01*
X95899500Y-82361459D01*
X95899500Y-82558541D01*
X95899500Y-82558543D01*
X95899499Y-82558543D01*
X95937947Y-82751829D01*
X95937950Y-82751839D01*
X96013364Y-82933907D01*
X96013371Y-82933920D01*
X96122860Y-83097781D01*
X96122863Y-83097785D01*
X96262214Y-83237136D01*
X96262218Y-83237139D01*
X96426079Y-83346628D01*
X96426092Y-83346635D01*
X96608160Y-83422049D01*
X96608165Y-83422051D01*
X96622261Y-83424855D01*
X96640322Y-83428448D01*
X96702233Y-83460833D01*
X96736807Y-83521549D01*
X96733068Y-83591318D01*
X96692201Y-83647990D01*
X96648224Y-83669840D01*
X96436516Y-83726566D01*
X96436507Y-83726570D01*
X96222422Y-83826399D01*
X96222420Y-83826400D01*
X96028926Y-83961886D01*
X96028920Y-83961891D01*
X95861891Y-84128920D01*
X95861886Y-84128926D01*
X95726400Y-84322420D01*
X95726399Y-84322422D01*
X95636882Y-84514393D01*
X95590710Y-84566832D01*
X95523516Y-84585984D01*
X95456635Y-84565768D01*
X95411300Y-84512603D01*
X95400500Y-84461988D01*
X95400500Y-80018543D01*
X95899499Y-80018543D01*
X95937947Y-80211829D01*
X95937950Y-80211839D01*
X96013364Y-80393907D01*
X96013371Y-80393920D01*
X96122860Y-80557781D01*
X96122863Y-80557785D01*
X96262214Y-80697136D01*
X96262218Y-80697139D01*
X96426079Y-80806628D01*
X96426092Y-80806635D01*
X96608160Y-80882049D01*
X96608165Y-80882051D01*
X96608169Y-80882051D01*
X96608170Y-80882052D01*
X96801456Y-80920500D01*
X96801459Y-80920500D01*
X96998543Y-80920500D01*
X97128582Y-80894632D01*
X97191835Y-80882051D01*
X97373914Y-80806632D01*
X97537782Y-80697139D01*
X97677139Y-80557782D01*
X97786632Y-80393914D01*
X97862051Y-80211835D01*
X97900500Y-80018541D01*
X97900500Y-79821459D01*
X97900500Y-79821456D01*
X97862052Y-79628170D01*
X97862051Y-79628169D01*
X97862051Y-79628165D01*
X97862049Y-79628160D01*
X97786635Y-79446092D01*
X97786628Y-79446079D01*
X97677139Y-79282218D01*
X97677136Y-79282214D01*
X97537785Y-79142863D01*
X97537781Y-79142860D01*
X97373920Y-79033371D01*
X97373907Y-79033364D01*
X97191839Y-78957950D01*
X97191829Y-78957947D01*
X96998543Y-78919500D01*
X96998541Y-78919500D01*
X96801459Y-78919500D01*
X96801457Y-78919500D01*
X96608170Y-78957947D01*
X96608160Y-78957950D01*
X96426092Y-79033364D01*
X96426079Y-79033371D01*
X96262218Y-79142860D01*
X96262214Y-79142863D01*
X96122863Y-79282214D01*
X96122860Y-79282218D01*
X96013371Y-79446079D01*
X96013364Y-79446092D01*
X95937950Y-79628160D01*
X95937947Y-79628170D01*
X95899500Y-79821456D01*
X95899500Y-79821459D01*
X95899500Y-80018541D01*
X95899500Y-80018543D01*
X95899499Y-80018543D01*
X95400500Y-80018543D01*
X95400500Y-77478543D01*
X95899499Y-77478543D01*
X95937947Y-77671829D01*
X95937950Y-77671839D01*
X96013364Y-77853907D01*
X96013371Y-77853920D01*
X96122860Y-78017781D01*
X96122863Y-78017785D01*
X96262214Y-78157136D01*
X96262218Y-78157139D01*
X96426079Y-78266628D01*
X96426092Y-78266635D01*
X96608160Y-78342049D01*
X96608165Y-78342051D01*
X96608169Y-78342051D01*
X96608170Y-78342052D01*
X96801456Y-78380500D01*
X96801459Y-78380500D01*
X96998543Y-78380500D01*
X97128582Y-78354632D01*
X97191835Y-78342051D01*
X97373914Y-78266632D01*
X97537782Y-78157139D01*
X97677139Y-78017782D01*
X97786632Y-77853914D01*
X97862051Y-77671835D01*
X97868448Y-77639677D01*
X97900832Y-77577766D01*
X97961548Y-77543192D01*
X98031318Y-77546931D01*
X98087990Y-77587797D01*
X98109840Y-77631775D01*
X98166566Y-77843483D01*
X98166570Y-77843492D01*
X98266399Y-78057578D01*
X98401894Y-78251082D01*
X98568917Y-78418105D01*
X98762421Y-78553600D01*
X98976507Y-78653429D01*
X98976516Y-78653433D01*
X99188224Y-78710159D01*
X99247885Y-78746524D01*
X99278414Y-78809370D01*
X99270120Y-78878746D01*
X99225634Y-78932624D01*
X99180325Y-78951551D01*
X99148168Y-78957948D01*
X99148160Y-78957950D01*
X98966092Y-79033364D01*
X98966079Y-79033371D01*
X98802218Y-79142860D01*
X98802214Y-79142863D01*
X98662863Y-79282214D01*
X98662860Y-79282218D01*
X98553371Y-79446079D01*
X98553364Y-79446092D01*
X98477950Y-79628160D01*
X98477947Y-79628170D01*
X98439500Y-79821456D01*
X98439500Y-79821459D01*
X98439500Y-80018541D01*
X98439500Y-80018543D01*
X98439499Y-80018543D01*
X98477947Y-80211829D01*
X98477950Y-80211839D01*
X98553364Y-80393907D01*
X98553371Y-80393920D01*
X98662860Y-80557781D01*
X98662863Y-80557785D01*
X98802214Y-80697136D01*
X98802218Y-80697139D01*
X98966079Y-80806628D01*
X98966092Y-80806635D01*
X99148160Y-80882049D01*
X99148165Y-80882051D01*
X99148169Y-80882051D01*
X99148170Y-80882052D01*
X99341456Y-80920500D01*
X99341459Y-80920500D01*
X99538543Y-80920500D01*
X99668582Y-80894632D01*
X99731835Y-80882051D01*
X99913914Y-80806632D01*
X100077782Y-80697139D01*
X100217139Y-80557782D01*
X100326632Y-80393914D01*
X100402051Y-80211835D01*
X100440500Y-80018541D01*
X100440500Y-79821459D01*
X100440500Y-79821456D01*
X100402052Y-79628170D01*
X100402051Y-79628169D01*
X100402051Y-79628165D01*
X100402049Y-79628160D01*
X100326635Y-79446092D01*
X100326628Y-79446079D01*
X100217139Y-79282218D01*
X100217136Y-79282214D01*
X100077785Y-79142863D01*
X100077781Y-79142860D01*
X99913920Y-79033371D01*
X99913907Y-79033364D01*
X99731839Y-78957950D01*
X99731832Y-78957948D01*
X99699674Y-78951551D01*
X99637764Y-78919164D01*
X99603191Y-78858448D01*
X99606932Y-78788678D01*
X99647800Y-78732007D01*
X99691775Y-78710159D01*
X99903483Y-78653433D01*
X99903492Y-78653429D01*
X100117578Y-78553600D01*
X100311082Y-78418105D01*
X100478105Y-78251082D01*
X100613600Y-78057578D01*
X100713429Y-77843492D01*
X100713432Y-77843486D01*
X100770636Y-77630000D01*
X99873012Y-77630000D01*
X99905925Y-77572993D01*
X99940000Y-77445826D01*
X99940000Y-77314174D01*
X99905925Y-77187007D01*
X99873012Y-77130000D01*
X100770636Y-77130000D01*
X100770635Y-77129999D01*
X100713432Y-76916513D01*
X100713429Y-76916507D01*
X100613600Y-76702422D01*
X100613599Y-76702420D01*
X100478113Y-76508926D01*
X100478108Y-76508920D01*
X100311082Y-76341894D01*
X100117578Y-76206399D01*
X99903492Y-76106570D01*
X99903486Y-76106567D01*
X99690000Y-76049364D01*
X99690000Y-76946988D01*
X99632993Y-76914075D01*
X99505826Y-76880000D01*
X99374174Y-76880000D01*
X99247007Y-76914075D01*
X99190000Y-76946988D01*
X99190000Y-76049364D01*
X99189999Y-76049364D01*
X98976513Y-76106567D01*
X98976507Y-76106570D01*
X98762422Y-76206399D01*
X98762420Y-76206400D01*
X98568926Y-76341886D01*
X98568920Y-76341891D01*
X98401891Y-76508920D01*
X98401886Y-76508926D01*
X98266400Y-76702420D01*
X98266399Y-76702422D01*
X98166570Y-76916507D01*
X98166566Y-76916516D01*
X98109840Y-77128224D01*
X98073475Y-77187885D01*
X98010628Y-77218414D01*
X97941252Y-77210119D01*
X97887375Y-77165634D01*
X97868448Y-77120322D01*
X97862052Y-77088172D01*
X97862052Y-77088170D01*
X97862051Y-77088165D01*
X97817207Y-76979901D01*
X97786635Y-76906092D01*
X97786628Y-76906079D01*
X97677139Y-76742218D01*
X97677136Y-76742214D01*
X97537785Y-76602863D01*
X97537781Y-76602860D01*
X97373920Y-76493371D01*
X97373907Y-76493364D01*
X97191839Y-76417950D01*
X97191829Y-76417947D01*
X96998543Y-76379500D01*
X96998541Y-76379500D01*
X96801459Y-76379500D01*
X96801457Y-76379500D01*
X96608170Y-76417947D01*
X96608160Y-76417950D01*
X96426092Y-76493364D01*
X96426079Y-76493371D01*
X96262218Y-76602860D01*
X96262214Y-76602863D01*
X96122863Y-76742214D01*
X96122860Y-76742218D01*
X96013371Y-76906079D01*
X96013364Y-76906092D01*
X95937950Y-77088160D01*
X95937947Y-77088170D01*
X95899500Y-77281456D01*
X95899500Y-77281459D01*
X95899500Y-77478541D01*
X95899500Y-77478543D01*
X95899499Y-77478543D01*
X95400500Y-77478543D01*
X95400500Y-72624500D01*
X95420185Y-72557461D01*
X95472989Y-72511706D01*
X95524500Y-72500500D01*
X149975500Y-72500500D01*
X150042539Y-72520185D01*
G37*
G04 #@! TD.AperFunction*
M02*
